<svg width="120" height="41" viewBox="0 0 120 41" fill="none" xmlns="http://www.w3.org/2000/svg">
<rect x="0.5" y="0.789062" width="119" height="39" rx="5.07929" fill="#FAFAFA"/>
<rect x="0.5" y="0.789062" width="119" height="39" rx="5.07929" stroke="#DEE1E4"/>
<path fill-rule="evenodd" clip-rule="evenodd" d="M23.7704 7.77892C22.1581 8.19923 20.4133 9.35565 18.442 11.3103C16.741 12.9969 15.5495 14.5854 14.6721 16.3363C14.0477 17.5824 13.7904 18.5375 13.835 19.4442C13.8776 20.3107 14.0512 20.6203 14.8967 21.3376L15.3506 21.7228L15.2815 21.9186C15.0497 22.5758 15.0506 23.5675 15.2838 24.2729C15.5995 25.2281 16.4412 26.1423 17.3931 26.5639C17.7571 26.7251 18.3799 26.8866 18.6373 26.8866C18.8309 26.8866 18.8355 26.8914 19.039 27.296C20.5953 30.3913 23.6748 32.2575 27.4532 32.3949C29.6 32.4729 31.6705 31.9708 33.2844 30.9807C34.4659 30.2558 35.599 29.06 36.2913 27.8074C36.8893 26.7253 37.2667 25.0728 37.0991 24.27C37.0136 23.8599 36.7859 23.5381 36.4829 23.3991L36.2378 23.2866L36.0576 22.7423L35.8774 22.1979L36.0377 21.8696C36.1807 21.5768 36.1981 21.4917 36.199 21.081C36.1999 20.6809 36.1816 20.5831 36.0591 20.3337C35.7615 19.7276 35.0052 19.232 33.9071 18.9233L33.4123 18.7843L33.4122 18.2447C33.412 17.3163 33.3203 16.3966 33.1791 15.9066C33.0086 15.3151 32.7358 14.7678 32.4564 14.4571L32.2316 14.207L32.477 13.9356C33.2952 13.0305 33.8688 12.0182 34.0282 11.1977C34.1276 10.6856 34.0743 10.0295 33.905 9.68353C33.6079 9.07637 32.9952 8.66424 32.1357 8.4935C31.7999 8.4268 31.5483 8.41422 31.0104 8.43723C30.02 8.47964 29.217 8.67795 28.0267 9.17417L27.4749 9.40424L26.7968 8.74194C26.4238 8.37769 26.0161 8.01958 25.8908 7.94613C25.3581 7.63401 24.5658 7.5715 23.7704 7.77892ZM31.0827 17.6004C30.9821 17.7009 30.9571 17.7781 30.9571 17.9867C30.9571 18.3342 31.0867 18.885 31.2274 19.1347C31.3382 19.3316 31.3482 19.3368 31.6218 19.3368H31.9024L31.9394 19.1347C32.0179 18.7044 31.8292 17.8587 31.5993 17.6106C31.4408 17.4396 31.2473 17.4358 31.0827 17.6004ZM26.9786 19.1694C26.6526 19.2821 26.2 19.6209 26.2 19.7524C26.2 19.8836 26.3004 19.8827 26.798 19.7471C27.4419 19.5717 27.8419 19.5911 28.4184 19.8258C28.87 20.0095 28.9699 19.9877 28.8387 19.734C28.5711 19.2165 27.6508 18.9372 26.9786 19.1694ZM31.5405 20.0378C31.3241 20.2769 31.4707 20.7997 31.7541 20.7997C31.9045 20.7997 32.0824 20.5724 32.0824 20.3802C32.0824 19.9928 31.7635 19.7913 31.5405 20.0378ZM27.6578 20.1429C27.3321 20.265 27.0524 20.5472 27.1553 20.6501C27.1798 20.6746 27.3458 20.6482 27.5309 20.5902C27.7792 20.5123 27.9716 20.4899 28.2972 20.5006C28.6962 20.5138 28.732 20.507 28.732 20.4173C28.732 20.1894 28.0195 20.0074 27.6578 20.1429ZM30.1722 20.5863C29.9803 20.7982 30.1662 21.1199 30.5186 21.186C30.9152 21.2604 31.0518 20.8414 30.7065 20.6095C30.4968 20.4686 30.2869 20.4595 30.1722 20.5863ZM17.9524 21.5374C17.8472 21.575 17.7048 21.6425 17.6361 21.6876C17.3316 21.8871 17.044 22.4593 17.044 22.8656C17.044 23.3209 17.3186 23.2769 17.4783 22.7959C17.705 22.1136 18.4958 22.0336 18.8036 22.6619C18.9001 22.8589 18.9 22.8637 18.7847 23.311C18.6545 23.8159 18.6682 24.0948 18.8369 24.3722C19.0322 24.6934 19.5253 24.7735 19.7879 24.5268C20.0074 24.3205 19.9531 24.2531 19.5852 24.2755C19.1808 24.3001 19.0817 23.9747 19.3271 23.4275C19.4158 23.2298 19.4704 23.0022 19.4869 22.762C19.5094 22.4335 19.4977 22.3708 19.3695 22.1352C19.202 21.8274 18.9653 21.6321 18.6419 21.5348C18.3553 21.4485 18.1998 21.4491 17.9524 21.5374Z" fill="#FFDF33"/>
<path fill-rule="evenodd" clip-rule="evenodd" d="M23.7704 7.77892C22.1581 8.19923 20.4133 9.35565 18.442 11.3103C16.741 12.9969 15.5495 14.5854 14.6721 16.3363C14.0477 17.5824 13.7904 18.5375 13.835 19.4442C13.8776 20.3107 14.0512 20.6203 14.8967 21.3376L15.3506 21.7228L15.2815 21.9186C15.0497 22.5758 15.0506 23.5675 15.2838 24.2729C15.5995 25.2281 16.4412 26.1423 17.3931 26.5639C17.7571 26.7251 18.3799 26.8866 18.6373 26.8866C18.8309 26.8866 18.8355 26.8914 19.039 27.296C20.5953 30.3913 23.6748 32.2575 27.4532 32.3949C29.6 32.473 31.6705 31.9708 33.2844 30.9807C34.4659 30.2558 35.599 29.06 36.2913 27.8074C36.8893 26.7253 37.2667 25.0728 37.0991 24.27C37.0136 23.8599 36.7859 23.5381 36.4829 23.3991L36.2378 23.2866L36.0576 22.7423L35.8774 22.1979L36.0377 21.8696C36.1807 21.5768 36.1981 21.4917 36.199 21.081C36.1999 20.6809 36.1816 20.5831 36.0591 20.3337C35.7615 19.7276 35.0052 19.232 33.9071 18.9233L33.4123 18.7843L33.4122 18.2447C33.412 17.3163 33.3203 16.3966 33.1791 15.9066C33.0086 15.3151 32.7358 14.7678 32.4564 14.4571L32.2316 14.207L32.477 13.9356C33.2952 13.0305 33.8688 12.0182 34.0282 11.1977C34.1276 10.6856 34.0743 10.0295 33.905 9.68353C33.6079 9.07637 32.9952 8.66424 32.1357 8.4935C31.7999 8.4268 31.5483 8.41422 31.0104 8.43723C30.02 8.47964 29.217 8.67795 28.0267 9.17417L27.4749 9.40424L26.7968 8.74194C26.4238 8.37769 26.0161 8.01958 25.8908 7.94613C25.3581 7.63401 24.5658 7.5715 23.7704 7.77892ZM25.4128 8.70588C25.6145 8.83897 26.5581 9.79268 26.5581 9.86337C26.5581 9.88455 26.4833 9.94026 26.3918 9.98716C26.0856 10.1443 25.0389 10.8224 24.3828 11.2885C21.9787 12.9968 20.4761 14.5601 19.2222 16.6572C18.8168 17.3352 18.1743 18.6251 17.9233 19.2651L17.7728 19.6488L17.4402 19.7576C16.8899 19.9375 16.4818 20.185 16.0852 20.5793L15.7147 20.9476L15.3541 20.6307C14.9435 20.2699 14.7623 19.956 14.7121 19.5195C14.6375 18.8702 14.9158 17.863 15.4872 16.7141C16.9123 13.8486 19.4079 11.126 22.0813 9.52036C23.1284 8.89145 24.0112 8.58225 24.7734 8.57739C25.1632 8.57488 25.2368 8.58966 25.4128 8.70588ZM28.0168 12.172C27.8897 12.2937 27.7857 12.4169 27.7857 12.4457C27.7857 12.4745 27.9641 12.5119 28.1821 12.5289C28.6193 12.5629 29.3384 12.7544 29.7934 12.9582C30.1171 13.1031 30.1868 13.2114 29.9213 13.1567C29.1807 13.0042 28.6823 12.966 27.7346 12.9895C26.5893 13.0179 26.1209 13.0994 25.0443 13.4576C24.2574 13.7193 23.5682 14.0402 23.0095 14.4049C22.7886 14.5491 22.5971 14.6562 22.5838 14.6429C22.504 14.5631 23.852 13.2841 24.512 12.8135C25.0279 12.4456 25.6308 12.0804 25.6653 12.1149C25.6788 12.1284 25.632 12.2702 25.5613 12.4301C25.4395 12.7055 25.401 12.8713 25.4589 12.8713C25.4732 12.8713 25.6746 12.7692 25.9064 12.6444C26.1382 12.5196 26.4545 12.3676 26.6092 12.3066C27.0198 12.1446 27.7777 11.956 28.0296 11.953L28.2479 11.9505L28.0168 12.172ZM61.4911 15.0014C61.2346 15.0467 60.7099 15.3525 60.5524 15.5487C60.4172 15.717 60.3945 15.7873 60.3945 16.0386C60.3945 16.2806 60.4194 16.3646 60.5369 16.5186C60.9416 17.0491 62.0314 17.2717 62.8366 16.9882C63.1748 16.8692 63.5749 16.4986 63.6445 16.24C63.757 15.8225 63.4718 15.3976 62.9073 15.1414C62.6441 15.022 62.5163 14.9976 62.108 14.9888C61.8408 14.983 61.5631 14.9887 61.4911 15.0014ZM83.629 15.0241C83.2112 15.1226 82.7905 15.408 82.6406 15.6948C82.5469 15.8742 82.5484 16.2136 82.6439 16.3981C82.7624 16.6274 83.1076 16.8905 83.4269 16.9949C83.7746 17.1086 84.5774 17.1258 84.9039 17.0266C85.1937 16.9385 85.5846 16.6676 85.7257 16.457C85.8837 16.2212 85.8837 15.864 85.7257 15.6282C85.5758 15.4045 85.1867 15.1439 84.8559 15.0456C84.5749 14.9622 83.9393 14.951 83.629 15.0241ZM64.2564 19.8525V24.6871H65.5866H66.9168L66.9037 19.8662L66.8907 15.0452L65.5735 15.0315L64.2564 15.0179V19.8525ZM74.9811 15.0537C74.9623 15.0724 74.947 17.2476 74.947 19.8875V24.6871H76.3025H77.658L77.6588 22.7306C77.6598 20.5856 77.6886 20.2975 77.9497 19.8177C78.1905 19.3753 78.5826 19.2433 78.942 19.4837C79.2776 19.7082 79.29 19.812 79.2925 22.3981L79.2948 24.6871H80.6544H82.014L81.9921 22.1168C81.9722 19.7674 81.9614 19.5068 81.8665 19.0845C81.556 17.7037 80.7465 17.0555 79.4252 17.13C78.4622 17.1844 77.8131 17.6931 77.2721 18.8176C77.1012 19.173 76.9902 19.2876 76.9258 19.1756C76.9137 19.1545 76.9684 18.9119 77.0474 18.6366C77.3089 17.7246 77.3745 17.2301 77.3757 16.1655C77.3764 15.4116 77.3606 15.1694 77.3065 15.1042C77.2451 15.0302 77.0962 15.0196 76.1257 15.0196C75.5149 15.0196 74.9998 15.0349 74.9811 15.0537ZM31.8349 15.4026C32.2861 15.7012 32.4204 16.1978 32.515 17.9172C32.6023 19.5019 32.5686 19.4304 33.338 19.6636C34.1477 19.909 34.5612 20.0727 34.8328 20.2553C35.4867 20.6948 35.5144 21.3266 34.9086 21.981C33.7369 23.2465 30.8697 24.0823 28.4507 23.8635C28.0427 23.8266 27.6194 23.8009 27.51 23.8063C27.0942 23.8271 26.643 24.2454 26.5066 24.7365C26.4253 25.0292 26.4472 25.4789 26.5572 25.7728C26.7452 26.2752 27.2103 26.6425 27.9645 26.8839C28.66 27.1065 29.3252 27.171 30.1774 27.0985C31.7235 26.967 33.0617 26.5263 34.1098 25.8037C34.4756 25.5514 35.1371 24.9115 35.0855 24.8598C35.0703 24.8447 34.8633 24.9495 34.6254 25.0926C33.4757 25.7846 32.0537 26.3022 30.8131 26.4803C30.2327 26.5636 28.7349 26.5158 28.3228 26.4009C27.9569 26.2988 27.5503 26.1031 27.3843 25.9493C27.2525 25.8271 27.0473 25.4596 27.0882 25.4188C27.1023 25.4047 27.3168 25.4405 27.5648 25.4985C28.261 25.661 28.9274 25.7261 29.5248 25.6899C30.2752 25.6444 31.0082 25.4682 31.0082 25.3331C31.0082 25.292 30.6811 25.2753 29.8701 25.275C28.9799 25.2748 28.6318 25.2547 28.2716 25.1826C27.7496 25.0783 27.1207 24.9015 27.1207 24.8591C27.1207 24.8436 27.1597 24.7649 27.2072 24.6844C27.331 24.4749 27.5186 24.4138 27.9259 24.4506C29.7858 24.6182 31.2625 24.4899 32.6706 24.0381C33.355 23.8186 34.2403 23.406 34.7487 23.0697C34.9562 22.9324 35.1548 22.8017 35.1901 22.7791C35.2711 22.7273 35.33 22.867 35.5095 23.5362L35.6467 24.0476L35.8437 24.0796C35.9666 24.0995 36.0853 24.1633 36.1588 24.2488C36.4778 24.6197 36.1535 26.0011 35.5128 26.9998C35.1977 27.491 34.5332 28.1919 34.0197 28.5747C33.2774 29.1281 32.1485 29.6209 31.1361 29.8335C30.7738 29.9096 30.4742 29.9292 29.7295 29.9256C28.8845 29.9215 28.7307 29.9071 28.2934 29.7902C26.3686 29.2757 25.1341 28.0719 24.7901 26.3742C24.6723 25.7925 24.7105 24.6709 24.8668 24.1245C25.026 23.568 25.3846 22.8759 25.7383 22.4421C25.9079 22.2343 26.0465 22.0386 26.0464 22.0073C26.0461 21.909 25.8667 21.656 25.5347 21.2856C25.0988 20.7994 24.7489 20.255 24.6056 19.8402C24.504 19.5461 24.4868 19.3975 24.4887 18.8304C24.4906 18.2589 24.5075 18.1233 24.6092 17.8667C24.8828 17.1754 25.4439 16.5954 26.0812 16.3449C26.4233 16.2105 26.8011 16.1969 28.1949 16.2694C29.3399 16.3289 29.6461 16.2435 30.3688 15.6631C30.9349 15.2086 31.4133 15.1236 31.8349 15.4026ZM44.4532 17.1943C43.8286 17.394 43.3265 17.9876 42.9071 19.0222C42.8197 19.2379 42.6707 19.2833 42.6707 19.0942C42.6707 19.0284 42.7061 18.8615 42.7494 18.7234C42.8391 18.4371 42.9063 17.6053 42.8558 17.4045L42.8222 17.2702H41.8257H40.8292V20.9787V24.6871H42.1817H43.534L43.5517 22.5772C43.5686 20.5483 43.5737 20.4539 43.6847 20.1219C43.8426 19.6494 44.1081 19.3674 44.395 19.3674C44.6312 19.3674 44.826 19.4967 44.9607 19.7428C45.0403 19.8884 45.0507 20.1431 45.0643 22.2958L45.0795 24.6871H46.4295H47.7796L47.7972 22.5772C47.8143 20.5291 47.8183 20.4567 47.9338 20.1103C48.081 19.6688 48.3516 19.3674 48.6007 19.3674C48.8639 19.3674 49.062 19.5033 49.1841 19.7675C49.2916 20.0001 49.2951 20.0722 49.3094 22.347L49.3242 24.6871H50.6551H51.986L51.9681 22.0145C51.951 19.4688 51.945 19.3232 51.8407 18.9504C51.6084 18.1203 51.2185 17.6125 50.5858 17.316C50.2292 17.1488 50.1926 17.1424 49.6016 17.1424C49.046 17.1424 48.9612 17.155 48.7065 17.2759C48.152 17.539 47.7494 18.0165 47.3997 18.8258C47.1899 19.3114 47.0948 19.3252 47.0529 18.876C46.989 18.1925 46.5924 17.5988 46.0068 17.3106C45.7096 17.1643 45.6149 17.1438 45.1811 17.1318C44.854 17.1228 44.612 17.1435 44.4532 17.1943ZM55.305 17.2005C54.697 17.2927 54.0059 17.4734 53.4683 17.6807L53.0543 17.8403V18.959V20.0776L53.5423 19.8511C55.4433 18.9688 56.8555 18.9406 57.0963 19.7802C57.2123 20.1849 57.2812 20.1603 56.0339 20.1603C54.7884 20.1603 54.5403 20.2016 53.8967 20.5161C53.0094 20.9497 52.539 21.8069 52.6072 22.8658C52.6502 23.5349 52.8954 24.0137 53.3839 24.3825C53.534 24.4959 53.7918 24.6376 53.9566 24.6974C54.3326 24.834 55.1462 24.8808 55.5562 24.7896C56.3863 24.6049 57.0817 23.9691 57.3958 23.1076C57.4638 22.9212 57.5399 22.7946 57.5839 22.7946C57.6246 22.7946 57.6592 22.8118 57.6608 22.8329C57.6623 22.854 57.6704 23.1935 57.6787 23.5874C57.687 23.9813 57.7113 24.3899 57.7327 24.4953L57.7716 24.6871H58.7889H59.8063V22.4944C59.8063 20.1096 59.7755 19.737 59.5194 19.022C59.1716 18.0509 58.4397 17.398 57.468 17.1921C57.0264 17.0986 55.9498 17.1027 55.305 17.2005ZM70.6503 17.1522C69.4609 17.3521 68.4992 18.0224 68.0532 18.9622C67.6872 19.7336 67.5624 20.6001 67.6814 21.5452C67.8034 22.5143 68.1044 23.2037 68.6626 23.7921C69.0594 24.2104 69.491 24.4822 70.062 24.6732C70.4403 24.7998 70.5369 24.8103 71.3408 24.8122C72.0328 24.8137 72.2783 24.795 72.5429 24.7205C72.9852 24.5959 73.5662 24.324 73.8766 24.0962L74.1285 23.9112V22.7135C74.1285 21.9416 74.1102 21.5158 74.0769 21.5158C74.0485 21.5158 73.8356 21.618 73.6037 21.743C72.8342 22.1579 71.8971 22.348 71.1882 22.2329C70.5676 22.1322 70.2234 21.9305 70.0305 21.5543C69.883 21.2666 69.8567 20.9563 69.955 20.6606C70.3062 19.603 72.04 19.416 73.7065 20.256L74.0774 20.4429V19.1385V17.8342L73.86 17.696C73.528 17.485 72.9611 17.2813 72.4653 17.1948C72.0552 17.1233 70.9733 17.0979 70.6503 17.1522ZM90.0519 17.2092C89.4534 17.4224 89.0654 17.8374 88.6702 18.6872C88.4962 19.0614 88.3993 19.2139 88.3357 19.214C88.2238 19.214 88.2242 19.1952 88.3456 18.7414C88.4771 18.25 88.5207 17.8481 88.477 17.5301L88.4412 17.2702H87.4486H86.4559V20.9787V24.6871H87.8114H89.1669V22.6992C89.1669 21.5838 89.1895 20.5904 89.2183 20.4358C89.2928 20.0371 89.5512 19.5364 89.7305 19.4437C89.9324 19.3393 90.1325 19.3484 90.3337 19.4711C90.6723 19.6775 90.6741 19.6921 90.6919 22.3214L90.7079 24.6871H92.0602H93.4125V22.6992C93.4125 21.5838 93.435 20.5904 93.4639 20.4358C93.5383 20.0371 93.7968 19.5364 93.976 19.4437C94.2069 19.3243 94.4102 19.3484 94.6032 19.5178C94.9089 19.7862 94.9136 19.8267 94.9341 22.3726L94.9527 24.6871H96.2835H97.6142L97.5946 22.0401C97.5762 19.5327 97.5694 19.3724 97.4666 19.002C97.0978 17.6734 96.3022 17.0597 95.0349 17.1262C94.0664 17.1771 93.4345 17.7556 92.9082 19.0733C92.8059 19.3294 92.719 19.242 92.654 18.8176C92.5391 18.0675 92.183 17.5588 91.5772 17.2793C91.1898 17.1006 90.4519 17.0667 90.0519 17.2092ZM102.262 17.1951C101.534 17.4208 101.007 17.9363 100.596 18.8258C100.492 19.0518 100.386 19.214 100.342 19.214C100.243 19.214 100.247 19.1347 100.371 18.6555C100.448 18.3574 100.471 18.1291 100.461 17.7745L100.446 17.2958L99.4611 17.2819L98.4764 17.268V22.0006V26.7332H99.8064H101.136V25.2652V23.7972L101.397 24.0896C101.887 24.6392 102.324 24.8406 103.027 24.8406C103.783 24.8406 104.336 24.6108 104.87 24.0742C105.246 23.6972 105.466 23.3149 105.653 22.7178C105.989 21.6429 105.963 20.117 105.59 19.0433C105.261 18.0959 104.565 17.4293 103.658 17.193C103.296 17.0986 102.569 17.0997 102.262 17.1951ZM60.6758 21.0043V24.6871H62.0313H63.3868V20.9983V17.3095L63.2717 17.3423C62.7265 17.4977 62.539 17.526 62.0543 17.526C61.678 17.526 61.3874 17.4945 61.1106 17.4237C60.8906 17.3674 60.7028 17.3214 60.6932 17.3214C60.6836 17.3214 60.6758 18.9787 60.6758 21.0043ZM82.8754 20.9983V24.6871H84.2309H85.5864V21.0043C85.5864 18.9787 85.5785 17.3214 85.569 17.3214C85.5594 17.3214 85.3716 17.3674 85.1516 17.4237C84.8748 17.4945 84.5842 17.526 84.2079 17.526C83.7231 17.526 83.5357 17.4977 82.9905 17.3423L82.8754 17.3095V20.9983ZM31.0827 17.6004C30.9821 17.7009 30.9571 17.7781 30.9571 17.9867C30.9571 18.3342 31.0867 18.885 31.2274 19.1347C31.3382 19.3316 31.3482 19.3368 31.6218 19.3368H31.9024L31.9394 19.1347C32.0179 18.7044 31.8292 17.8587 31.5993 17.6106C31.4408 17.4396 31.2473 17.4358 31.0827 17.6004ZM26.9786 19.1694C26.6526 19.2821 26.2 19.6209 26.2 19.7524C26.2 19.8836 26.3004 19.8827 26.798 19.7471C27.4419 19.5717 27.8419 19.5911 28.4184 19.8258C28.87 20.0095 28.9699 19.9878 28.8387 19.734C28.5711 19.2165 27.6508 18.9372 26.9786 19.1694ZM102.536 19.4378C102.947 19.6096 103.18 20.1519 103.222 21.0299C103.283 22.3502 102.933 23.0723 102.231 23.0723C101.783 23.0723 101.439 22.7424 101.25 22.1296C101.13 21.7402 101.131 20.7265 101.252 20.3448C101.506 19.5445 101.983 19.2071 102.536 19.4378ZM31.5405 20.0378C31.3241 20.2769 31.4707 20.7997 31.7541 20.7997C31.9045 20.7997 32.0824 20.5724 32.0824 20.3802C32.0824 19.9928 31.7635 19.7913 31.5405 20.0378ZM27.6578 20.1429C27.3321 20.265 27.0524 20.5472 27.1553 20.6501C27.1798 20.6746 27.3458 20.6482 27.5309 20.5902C27.7792 20.5123 27.9716 20.4899 28.2972 20.5006C28.6962 20.5138 28.732 20.507 28.732 20.4173C28.732 20.1894 28.0195 20.0074 27.6578 20.1429ZM30.1722 20.5863C29.9803 20.7982 30.1662 21.1199 30.5186 21.186C30.9152 21.2604 31.0518 20.8414 30.7065 20.6095C30.4968 20.4686 30.2869 20.4595 30.1722 20.5863ZM19.2435 20.7282C19.8953 21.0383 20.3271 21.5689 20.5646 22.3515C20.6744 22.7134 20.6916 22.8711 20.694 23.5363C20.6963 24.2063 20.6819 24.3457 20.5806 24.636C20.2514 25.5794 19.6158 26.0145 18.6579 25.9524C18.1714 25.9209 17.8238 25.7944 17.3406 25.4731C16.268 24.76 15.8094 23.5871 16.1233 22.3596C16.3463 21.4879 16.8791 20.9264 17.7573 20.6379C18.2087 20.4896 18.8202 20.5268 19.2435 20.7282ZM17.9524 21.5374C17.8472 21.575 17.7048 21.6425 17.6361 21.6876C17.3316 21.8871 17.044 22.4593 17.044 22.8656C17.044 23.3209 17.3186 23.2769 17.4783 22.7959C17.705 22.1136 18.4958 22.0336 18.8036 22.6619C18.9001 22.8589 18.9 22.8637 18.7847 23.311C18.6545 23.8159 18.6682 24.0948 18.8369 24.3722C19.0322 24.6934 19.5253 24.7735 19.7879 24.5268C20.0074 24.3205 19.9531 24.2531 19.5852 24.2755C19.1808 24.3001 19.0817 23.9747 19.3271 23.4275C19.4158 23.2298 19.4704 23.0022 19.4869 22.762C19.5094 22.4335 19.4977 22.3708 19.3695 22.1352C19.202 21.8274 18.9653 21.6321 18.6419 21.5348C18.3553 21.4485 18.1998 21.4491 17.9524 21.5374ZM57.1156 21.7119C57.1602 21.7841 56.9418 22.1697 56.7108 22.4266C56.4349 22.7334 56.0674 22.9357 55.709 22.9778C55.362 23.0186 55.072 22.9122 54.9977 22.717C54.8244 22.261 55.147 21.8471 55.7714 21.7245C56.0656 21.6667 57.0817 21.6572 57.1156 21.7119Z" fill="black"/>
</svg>
