<svg width="120" height="41" viewBox="0 0 120 41" fill="none" xmlns="http://www.w3.org/2000/svg">
<rect x="0.5" y="0.789062" width="119" height="39" rx="5.07929" fill="#FAFAFA"/>
<rect x="0.5" y="0.789062" width="119" height="39" rx="5.07929" stroke="#DEE1E4"/>
<path fill-rule="evenodd" clip-rule="evenodd" d="M10.4615 20.426C9.15281 22.9971 8.08203 25.137 8.08203 25.1812C8.08203 25.2255 8.12503 25.2616 8.17767 25.2616C8.28618 25.2616 14.5794 22.3474 20.0547 19.7616C24.2024 17.8029 24.2874 17.7614 24.2427 17.717C24.2248 17.6992 22.2779 18.3799 19.9164 19.2296C17.5548 20.0792 15.6023 20.7542 15.5774 20.7295C15.5526 20.7048 14.9638 19.5868 14.2691 18.2452C13.5744 16.9035 12.9687 15.7934 12.9234 15.7784C12.8757 15.7626 11.8385 17.7206 10.4615 20.426ZM14.0006 21.3329C13.9011 21.4223 11.5336 22.1815 11.5336 22.1239C11.5336 22.0939 11.7756 21.5182 12.0715 20.8443C12.3673 20.1706 12.6597 19.4996 12.7212 19.3533L12.8331 19.0873L13.4459 20.184C13.783 20.7872 14.0326 21.3042 14.0006 21.3329ZM15.8622 23.413L15.1931 23.7758L15.215 24.0365L15.2369 24.297L16.2019 24.3171C16.7326 24.3281 17.1892 24.312 17.2166 24.2813C17.288 24.2014 16.731 23.0463 16.6221 23.0484C16.5721 23.0494 16.2301 23.2135 15.8622 23.413Z" fill="#B7413B"/>
<path fill-rule="evenodd" clip-rule="evenodd" d="M35.0816 17.3442C34.4182 17.5791 34.0193 17.8937 33.7705 18.3785C33.3486 19.2008 33.6042 20.2486 34.3443 20.7305C34.5164 20.8423 35.1059 21.0355 35.6544 21.1594C37.0099 21.4657 37.1979 21.5586 37.1979 21.9211C37.1979 22.7636 35.3786 22.817 33.905 22.0175C33.8453 21.9851 33.4366 22.9741 33.4366 23.151C33.4366 23.291 34.5313 23.6926 35.2215 23.8058C37.1542 24.123 38.6521 23.2869 38.6533 21.8902C38.6543 20.8018 38.109 20.327 36.4323 19.9558C35.8493 19.8266 35.2918 19.6545 35.1931 19.5732C34.9433 19.3672 34.9698 19.0166 35.2566 18.7316C35.5938 18.3966 36.8357 18.3944 37.4934 18.7278C37.751 18.8582 37.9986 18.9422 38.0436 18.9146C38.0888 18.8869 38.1989 18.6435 38.2885 18.3738C38.4378 17.9244 38.432 17.8684 38.219 17.7061C37.5662 17.209 35.9807 17.026 35.0816 17.3442ZM53.813 17.2786C52.3667 17.7147 51.5708 18.9045 51.5897 20.6017C51.6053 21.9881 52.2185 23.0459 53.3036 23.5578C54.6383 24.1875 56.5508 23.7715 57.3478 22.6783C58.3537 21.2985 58.15 18.9757 56.9324 17.94C56.1623 17.2852 54.7704 16.99 53.813 17.2786ZM108.496 17.3331C107.541 17.6872 106.96 18.6207 107.152 19.4912C107.342 20.3491 107.799 20.6702 109.304 21.0035C110.697 21.3118 110.992 21.5042 110.943 22.0724C110.886 22.7319 110.43 23.0114 109.41 23.0114C108.78 23.0114 108.457 22.9411 107.958 22.6958L107.316 22.3802L107.144 22.7112C106.99 23.0073 106.994 23.0628 107.185 23.2347C107.767 23.7577 109.668 24.0128 110.613 23.6947C111.652 23.3449 112.216 22.1498 111.758 21.269C111.503 20.7801 110.931 20.4755 109.814 20.235C108.605 19.9747 108.2 19.775 108.104 19.3925C107.806 18.2128 109.362 17.5865 110.794 18.3095C111.353 18.5916 111.401 18.5975 111.546 18.4022C111.787 18.0787 111.675 17.8549 111.121 17.5511C110.467 17.1926 109.166 17.0845 108.496 17.3331ZM27.5745 20.3441C26.7947 22.0326 26.1225 23.5027 26.0808 23.6107C26.0147 23.7817 26.1032 23.8026 26.7593 23.7711L27.5138 23.7348L27.7952 23.0717L28.0765 22.4086L29.5435 22.3748L31.0107 22.3409L31.3464 23.0378L31.682 23.7348L32.3773 23.7709C32.8882 23.7975 33.0708 23.7655 33.0657 23.6504C33.062 23.5642 32.4182 22.1103 31.6351 20.4194L30.2115 17.3452L29.6019 17.3095L28.9923 17.2738L27.5745 20.3441ZM38.8965 17.883V18.4811L39.9581 18.5159L41.0197 18.5508L41.0525 21.1788L41.0851 23.807L41.7805 23.7708L42.4757 23.7348L42.5085 21.1126L42.5411 18.4905H43.5701H44.599V17.8877V17.2849H41.7477H38.8965V17.883ZM45.3269 20.54V23.7951H46.0549H46.7829V22.5292V21.2633H47.2156C47.8843 21.2633 48.0607 21.423 48.75 22.6514L49.3915 23.7948L50.1498 23.7949C50.5675 23.7949 50.9081 23.7416 50.9081 23.6762C50.9081 23.5145 49.8455 21.616 49.6108 21.3583C49.4387 21.1693 49.4552 21.1247 49.8058 20.8315C50.3303 20.393 50.5441 19.9344 50.5441 19.2481C50.5441 18.4657 50.2176 17.8984 49.5719 17.5592C49.0946 17.3083 48.8911 17.2849 47.1885 17.2849H45.3269V20.54ZM59.0372 20.5334V23.7951H59.7016H60.366L60.3992 21.7853L60.4325 19.7755L62.0098 21.789L63.587 23.8024L64.133 23.7686L64.679 23.7348V20.54V17.3452L63.9844 17.3091L63.2898 17.2731L63.2564 19.2359L63.2231 21.1987L61.7036 19.272L60.1841 17.3452L59.6107 17.3084L59.0372 17.2717V20.5334ZM68.5009 20.54V23.7951H68.9255H69.3502L69.352 21.414L69.3537 19.033L70.3714 20.9017C71.709 23.3577 71.638 23.3549 72.9294 21.0017C73.4633 20.0291 73.9409 19.1926 73.9911 19.1432C74.0412 19.0936 74.0821 20.1201 74.0821 21.424V23.7951H74.446H74.81V20.5324V17.2696L74.4344 17.3075C74.0807 17.343 73.9898 17.4737 72.8714 19.5567L71.684 21.7682L70.9224 20.3403C69.1483 17.014 69.331 17.2893 68.8952 17.287L68.5009 17.2849V20.54ZM76.3873 20.54V23.8007L78.4802 23.7678L80.5732 23.7348V23.3731V23.0114L78.9049 22.9779L77.2366 22.9444V21.9266V20.9089L78.7836 20.8751L80.3305 20.8414V20.4797V20.118L78.7787 20.0843L77.2269 20.0505L77.2621 19.0595L77.2973 18.0685L78.9352 18.0083L80.5732 17.948V17.6466V17.3452L78.4802 17.3122L76.3873 17.2792V20.54ZM81.7258 20.54V23.7951H82.1505H82.5751L82.5769 21.414L82.5786 19.033L83.5964 20.9017C84.9339 23.3577 84.8629 23.3549 86.1544 21.0017C86.6882 20.0291 87.1659 19.1926 87.216 19.1432C87.2661 19.0936 87.307 20.1201 87.307 21.424V23.7951H87.671H88.035V20.5324V17.2696L87.6593 17.3075C87.3056 17.343 87.2148 17.4737 86.0963 19.5567L84.9089 21.7682L84.1473 20.3403C82.3732 17.014 82.556 17.2893 82.1201 17.287L81.7258 17.2849V20.54ZM89.6122 20.5508V23.8166L91.4625 23.7758C93.1344 23.7388 93.3555 23.7084 93.7555 23.4612C94.2139 23.178 94.5868 22.4903 94.5868 21.9281C94.5868 21.492 94.2293 20.8253 93.9025 20.6515C93.5567 20.4676 93.5415 20.347 93.8442 20.186C94.174 20.0107 94.4765 19.1814 94.3844 18.7048C94.1677 17.5823 93.5106 17.2849 91.2478 17.2849H89.6122V20.5508ZM95.8 20.54V23.8007L97.893 23.7678L99.9859 23.7348V23.3731V23.0114L98.3176 22.9779L96.6494 22.9444V21.9266V20.9089L98.1963 20.8751L99.7433 20.8414V20.4797V20.118L98.1915 20.0843L96.6396 20.0505L96.6748 19.0595L96.71 18.0685L98.348 18.0083L99.9859 17.948V17.6466V17.3452L97.893 17.3122L95.8 17.2792V20.54ZM101.139 20.5472V23.8096L101.594 23.7721L102.049 23.7348L102.083 22.4388L102.117 21.1428H102.879C103.334 21.1428 103.732 21.2096 103.869 21.3089C103.994 21.4002 104.374 21.9834 104.713 22.6049C105.242 23.5762 105.376 23.7403 105.67 23.774C106.376 23.8546 106.376 23.7523 105.673 22.4845C105.307 21.8226 104.928 21.2161 104.832 21.1366C104.685 21.0153 104.719 20.9588 105.047 20.784C105.923 20.3172 106.214 19.3256 105.768 18.3241C105.382 17.4574 104.907 17.2909 102.807 17.2876L101.139 17.2849V20.5472ZM93.1819 18.3608C93.599 18.7505 93.6056 19.3559 93.1969 19.7618C92.9203 20.0368 92.8127 20.0577 91.6803 20.0577H90.4616V19.1134C90.4616 18.5939 90.5024 18.1281 90.5526 18.0782C90.6027 18.0283 91.1443 18.0057 91.7563 18.028C92.7361 18.0637 92.9065 18.1035 93.1819 18.3608ZM104.618 18.3218C104.894 18.5257 104.968 18.684 104.997 19.1345C105.028 19.5991 104.983 19.7451 104.73 19.9964C104.447 20.277 104.342 20.2989 103.267 20.2989H102.109V19.1416V17.9843L103.192 18.0265C104.06 18.0601 104.344 18.1191 104.618 18.3218ZM48.8523 18.7128C49.0357 18.8605 49.1286 19.065 49.1286 19.3214C49.1286 19.9421 48.852 20.1104 47.7499 20.1602L46.7829 20.2039V19.3472V18.4905H47.6794C48.3699 18.4905 48.6395 18.5416 48.8523 18.7128ZM55.8062 18.8546C56.3042 19.2891 56.55 20.1154 56.4259 20.9376C56.2567 22.0588 55.5634 22.6666 54.5793 22.5564C53.5695 22.4432 52.9955 21.5193 53.1292 20.2221C53.2528 19.0222 53.759 18.5042 54.8167 18.4953C55.2842 18.4913 55.4652 18.5572 55.8062 18.8546ZM30.0848 20.0488C30.3267 20.6075 30.5247 21.0823 30.5247 21.1037C30.5247 21.1252 30.1152 21.1428 29.6148 21.1428C29.1143 21.1428 28.7048 21.0954 28.7048 21.0375C28.7048 20.9797 28.809 20.6949 28.9364 20.4046C29.0638 20.1144 29.2556 19.6651 29.3626 19.4063C29.4696 19.1475 29.577 18.9577 29.601 18.9843C29.6251 19.0111 29.8429 19.4902 30.0848 20.0488ZM93.2964 21.1516C93.7439 21.5013 93.7509 22.301 93.3101 22.7126C93.0306 22.9736 92.8968 22.9988 91.7632 23.0048L90.5222 23.0114L90.4872 21.9565L90.4521 20.9017H91.7144C92.8078 20.9017 93.0195 20.9351 93.2964 21.1516Z" fill="#B7413B"/>
</svg>
