<svg width="120" height="41" viewBox="0 0 120 41" fill="none" xmlns="http://www.w3.org/2000/svg">
<rect x="0.5" y="0.789062" width="119" height="39" rx="5.07929" fill="#FAFAFA"/>
<rect x="0.5" y="0.789062" width="119" height="39" rx="5.07929" stroke="#DEE1E4"/>
<path d="M86.0974 15.0095C86.4766 15.0095 86.5455 15.241 86.5455 15.437V16.1494H85.8388C85.4769 16.1494 85.4079 15.9357 85.4079 15.7397V15.0095H86.0974ZM86.0457 17.3606C86.3387 17.3606 86.4938 17.5209 86.4938 17.8058V23.8082H85.8561V23.7904C85.632 23.7726 85.4769 23.5944 85.4769 23.3451V17.3606H86.0457ZM52.0207 22.0449C52.2448 22.2586 52.2965 22.3299 52.3137 22.3477L52.331 22.3833L52.2965 22.4189C51.2968 23.4876 50.3143 23.9507 48.9698 23.9507C46.5567 23.9507 44.7469 22.0271 44.7469 19.4623C44.7469 16.9331 46.6084 14.9561 48.9871 14.9561C50.6245 14.9561 51.5208 15.6151 52.262 16.3453L52.2965 16.3809L52.262 16.4166C52.262 16.4166 52.0724 16.6303 51.9 16.8084C51.6932 17.04 51.4174 16.9865 51.2451 16.8262C50.5556 16.2206 49.8317 15.9535 48.9698 15.9535C47.16 15.9535 45.8155 17.4496 45.8155 19.4266C45.8155 21.4037 47.2117 22.9354 48.9698 22.9354C49.8661 22.9354 50.5383 22.6683 51.2795 22.0271C51.4691 21.849 51.7966 21.8133 52.0207 22.0449ZM67.2923 17.2003C68.7402 17.2003 69.6365 18.1977 69.6365 19.8007V23.7726H69.1021C68.6884 23.7726 68.6367 23.5054 68.6367 23.2382V19.9966C68.6367 18.8211 68.0852 18.1442 67.1027 18.1442C66.2753 18.1442 65.448 18.732 65.448 20.0678V23.7726H64.8964C64.6034 23.7726 64.4483 23.6123 64.4483 23.3095V19.9966C64.4483 18.8389 63.8794 18.1621 62.9142 18.1621C61.9489 18.1621 61.2595 18.9814 61.2595 20.1035V23.3273C61.2595 23.7013 61.1044 23.7726 60.8286 23.7726H60.2598V17.3249H60.8113C61.1044 17.3249 61.2767 17.503 61.2767 17.8058V18.2689C61.6559 17.7168 62.2075 17.1824 63.2072 17.1824C64.3793 17.1824 64.9309 17.9127 65.1894 18.3936C65.7065 17.5743 66.396 17.2003 67.2923 17.2003ZM74.5316 17.2181C75.9795 17.2181 77.5136 18.3936 77.5136 20.5666C77.5136 22.7395 75.9795 23.915 74.5316 23.915C73.6009 23.915 72.8425 23.5054 72.2392 22.6683V25.7318H71.6704C71.3946 25.7318 71.2395 25.5715 71.2395 25.2687V17.3249H71.7393C72.0668 17.3249 72.2564 17.503 72.2564 17.8415V18.5005C72.8597 17.6455 73.6009 17.2181 74.5316 17.2181ZM76.4794 20.5666C76.4794 18.9814 75.4107 18.1442 74.3593 18.1442C73.2906 18.1442 72.1875 19.0348 72.1875 20.5487C72.1875 22.0627 73.2906 22.9711 74.3593 22.9711C75.6003 22.9711 76.4794 21.9736 76.4794 20.5666ZM93.1126 17.8058C93.1126 17.4852 93.3884 17.3249 93.578 17.3249H94.1296V22.6326C94.1296 24.6275 92.9748 25.7674 90.9753 25.7674C89.9239 25.7674 88.9759 25.4646 88.1485 24.859L88.114 24.8412L88.1313 24.8056C88.1313 24.8056 88.2002 24.6809 88.3554 24.4138C88.4415 24.2713 88.545 24.2 88.6656 24.2C88.769 24.2 88.8725 24.2535 89.0448 24.3425C89.6309 24.6809 90.2859 24.859 90.9408 24.859C92.3198 24.859 93.1126 24.0575 93.1126 22.6505V22.0449C92.4577 22.8642 91.682 23.2738 90.7512 23.2738C89.3206 23.2738 87.8038 22.2052 87.8038 20.2281C87.8038 19.3554 88.1313 18.5539 88.7173 17.9839C89.2517 17.4674 89.9928 17.1646 90.7512 17.1646C91.9233 17.1646 92.6645 17.788 93.0954 18.3402L93.1126 17.8058ZM93.1644 20.2816C93.1644 18.8923 92.0267 18.1621 90.9581 18.1621C89.7515 18.1621 88.8725 19.0526 88.8725 20.2638C88.8725 21.4749 89.7688 22.3833 90.9581 22.3833C92.044 22.3833 93.1644 21.5996 93.1644 20.2816ZM98.8697 17.2181C100.335 17.2181 101.266 18.2333 101.266 19.8007V23.7904H100.645C100.369 23.7904 100.231 23.6479 100.231 23.3451V20.0322C100.231 18.8745 99.6108 18.1799 98.5766 18.1799C97.5252 18.1799 96.784 18.9814 96.784 20.1213L96.8013 23.8082H95.7843V17.3606H96.3359C96.5772 17.3606 96.8013 17.503 96.8013 17.8058V18.358C97.3011 17.5921 97.9906 17.2181 98.8697 17.2181ZM81.2884 17.2537C82.9948 17.2537 83.9428 18.1621 83.9773 19.8363V23.7726H83.4257C83.1327 23.7726 82.9948 23.6301 82.9948 23.3451V22.8998C82.4432 23.5588 81.702 23.915 80.823 23.915C79.22 23.915 78.4788 22.8642 78.4788 21.8668C78.4788 20.5666 79.4613 19.8185 81.1677 19.8185H82.2019V20.1747C82.2019 20.4775 82.0468 20.62 81.7538 20.62H81.2539C80.1335 20.62 79.513 21.0475 79.513 21.8311C79.513 22.6683 80.2886 23.0423 81.0126 23.0423C82.1674 23.0423 83.012 22.3477 83.012 21.3681V19.8363C83.012 18.7676 82.3743 18.1621 81.2367 18.1621C80.7196 18.1621 80.2542 18.2511 79.7371 18.4648C79.5475 18.5361 79.3062 18.5183 79.2372 18.3045C79.1683 18.1442 79.1166 17.9661 79.0476 17.8058L79.0304 17.7524L79.0648 17.7346C79.806 17.414 80.4955 17.2537 81.2884 17.2537ZM56.0023 17.2537C57.7088 17.2537 58.6568 18.1621 58.6912 19.8363V23.7726H58.1397C57.8467 23.7726 57.7088 23.6301 57.7088 23.3451V22.8998C57.1572 23.5588 56.416 23.915 55.537 23.915C53.934 23.915 53.1928 22.8642 53.1928 21.8668C53.1928 20.5666 54.1753 19.8185 55.8817 19.8185H56.9159V20.1747C56.9159 20.4775 56.7607 20.62 56.4677 20.62H55.9679C54.8475 20.62 54.227 21.0475 54.227 21.8311C54.227 22.6683 55.0026 23.0423 55.7266 23.0423C56.8814 23.0423 57.726 22.3477 57.726 21.3681V19.8363C57.726 18.7676 57.0882 18.1621 55.9506 18.1621C55.4335 18.1621 54.9681 18.2511 54.451 18.4648C54.2614 18.5361 54.0201 18.5183 53.9512 18.3045C53.8822 18.1442 53.8305 17.9661 53.7616 17.8058L53.7444 17.7524L53.7788 17.7346C54.3476 17.503 55.0371 17.2537 56.0023 17.2537ZM111.59 19.6582C111.814 19.8185 111.935 20.0322 111.935 20.2638V20.3884C111.935 20.5666 111.866 20.8337 111.59 21.0475C111.452 21.1543 110.108 22.1161 108.677 23.1314C107.281 24.1288 105.695 25.2687 105.506 25.4112V25.5715L105.42 25.4112C105.42 25.4112 105.402 25.3934 105.42 25.3756V24.5206C105.42 24.2356 105.454 24.0932 105.764 23.8794C106.023 23.7013 110.16 20.7447 110.711 20.3528C110.16 19.961 106.092 17.04 105.816 16.8262L105.782 16.8084C105.575 16.6481 105.42 16.5234 105.42 16.2028V15.1876L105.506 15.241C105.713 15.4013 111.435 19.5335 111.59 19.6582ZM108.022 20.7981C107.884 20.7981 107.746 20.7447 107.591 20.6378C107.229 20.3884 105.402 19.0704 105.385 19.0526L105.368 19.0348V18.3936C105.368 18.2511 105.437 18.1264 105.54 18.073C105.661 18.0196 105.799 18.0374 105.937 18.1264C106.212 18.3045 108.884 20.2281 108.901 20.246L108.97 20.2816L108.901 20.3172C108.901 20.3172 108.729 20.4419 108.522 20.5844C108.333 20.7269 108.177 20.7981 108.022 20.7981ZM22.8392 22.312C23.0288 22.508 23.1322 22.597 23.1322 22.597L23.1667 22.6326L23.1322 22.6683C22.6496 23.256 21.9084 23.9329 20.5985 23.9329C18.8403 23.9329 17.3925 22.4367 17.3925 20.5844C17.3925 18.6964 18.8059 17.2181 20.5985 17.2181C21.6154 17.2181 22.3738 17.5743 23.0805 18.358L23.115 18.3936L23.0805 18.4292C22.9771 18.5539 22.8564 18.6786 22.7358 18.8033C22.5462 18.9992 22.3393 18.9992 22.0636 18.7676C21.7016 18.4648 21.2362 18.1621 20.564 18.1621C19.3574 18.1621 18.4266 19.2307 18.4266 20.5844C18.4266 21.938 19.3919 23.0067 20.6329 23.0067C21.2017 23.0067 21.7188 22.7929 22.1842 22.3477C22.3566 22.223 22.6324 22.0983 22.8392 22.312ZM29.5098 15.0095C29.7855 15.0095 29.9579 15.2054 29.9579 15.4904V16.1494H29.2512C28.8892 16.1494 28.8203 15.9357 28.8203 15.7397V15.0095H29.5098ZM29.4408 17.3606C29.7338 17.3606 29.889 17.5209 29.889 17.8058V23.8082H29.2512V23.7904C29.0271 23.7726 28.872 23.5944 28.872 23.3451V17.3606H29.4408ZM36.0424 17.699C36.1458 17.4496 36.3182 17.3427 36.594 17.3427H37.3007L37.2662 17.414C37.249 17.4674 34.8186 23.2204 34.7152 23.452C34.6118 23.6835 34.4566 23.7904 34.2153 23.7904H34.0774C33.8189 23.7904 33.6638 23.7369 33.5431 23.4698C33.4397 23.2382 31.0093 17.4496 30.9921 17.3962L30.9576 17.3249H31.6816C31.9573 17.3249 32.1469 17.4496 32.2504 17.7168C32.3193 17.9483 33.8361 21.7599 34.1292 22.4723C34.4222 21.7421 35.939 17.9305 36.0424 17.699ZM42.3338 20.1925C42.3855 20.1925 42.4372 20.1747 42.4544 20.1391C42.4889 20.1035 42.5061 20.0144 42.4716 19.9075C42.3855 18.8389 41.6443 18.1264 40.6101 18.1264C39.5931 18.1264 38.8003 18.9992 38.6796 20.246C38.6796 20.246 38.6624 20.3884 38.6624 20.6022C38.6624 20.7803 38.6796 20.9228 38.6796 20.9228C38.8003 22.1874 39.6621 23.0423 40.7997 23.0423C41.4547 23.0423 42.0063 22.8286 42.4544 22.4189C42.5751 22.2942 42.7991 22.223 43.0405 22.4189C43.1956 22.5614 43.3507 22.6861 43.3507 22.6861L43.3852 22.7217L43.3507 22.7573C42.6268 23.5944 41.8339 23.9507 40.7825 23.9507C39.0071 23.9507 37.6626 22.508 37.6626 20.5844C37.6626 18.6608 38.9554 17.2181 40.6618 17.2181C42.2303 17.2181 43.3679 18.3045 43.5231 19.9432C43.5403 20.2994 43.4714 20.5666 43.299 20.7625C43.1266 20.9406 42.8853 21.0296 42.5578 21.0296C42.0063 21.0296 40.679 21.0296 39.5414 21.0475H39.4897V20.6378C39.4897 20.3528 39.6448 20.1925 39.9206 20.1925H42.3338ZM13.4625 15.3301C13.5832 15.5973 17.0822 23.6301 17.1167 23.7191L17.1511 23.7904H16.5479C16.4272 23.7904 16.0308 23.7904 15.8756 23.452C15.7722 23.2026 13.204 17.2003 12.8248 16.3097L10.9977 20.5487H13.7038V21.0118C13.7038 21.3146 13.497 21.5284 13.1695 21.5284H10.584C10.4806 21.7421 9.87731 23.1135 9.77389 23.3629C9.61876 23.6657 9.42916 23.7904 9.17061 23.7904H8.51562L8.5501 23.7191C8.58457 23.6301 12.1181 15.5082 12.2042 15.3123C12.3077 15.0985 12.4973 14.9917 12.6869 14.9917H12.9282C13.204 14.9917 13.3419 15.0807 13.4625 15.3301ZM27.3724 22.882C27.4241 22.9176 27.4931 23.0067 27.4931 23.1848C27.4931 23.4163 27.4758 23.5944 27.4758 23.6123V23.6479L27.4586 23.6657C27.1483 23.826 26.6312 23.9329 26.1831 23.9329C25.0455 23.9329 24.4077 23.2738 24.4077 22.0983V15.0629H24.9076C25.2178 15.0629 25.4247 15.2588 25.4247 15.5438V17.3784H26.8381C27.0966 17.3784 27.3724 17.5387 27.3724 17.8593V18.3045H25.4247L25.4419 21.938C25.4419 22.597 25.7694 22.9532 26.4072 22.9532C26.614 22.9532 26.7691 22.9176 26.9932 22.8464C27.1483 22.7929 27.2862 22.8108 27.3724 22.882Z" fill="#004CFF"/>
</svg>
