<svg width="120" height="41" viewBox="0 0 120 41" fill="none" xmlns="http://www.w3.org/2000/svg">
<rect x="0.5" y="0.789062" width="119" height="39" rx="5.07929" fill="#FAFAFA"/>
<rect x="0.5" y="0.789062" width="119" height="39" rx="5.07929" stroke="#DEE1E4"/>
<path fill-rule="evenodd" clip-rule="evenodd" d="M18.7047 11.8531C17.9728 12.0502 17.4383 12.5944 17.2051 13.3801C17.0992 13.7369 17.0859 14.6156 17.0859 21.3062V28.8309H19.1538C21.1842 28.8309 21.2263 28.8278 21.4732 28.6613C21.6115 28.5681 22.5564 27.5989 23.573 26.5075L25.4214 24.5233L26.8406 24.522C28.5238 24.5205 29.0333 24.4334 29.9305 23.9941C31.7813 23.0878 32.9731 20.7907 32.9742 18.1274C32.9756 14.8971 31.2111 12.3067 28.7053 11.8602C27.8906 11.715 19.2403 11.7088 18.7047 11.8531ZM25.4366 16.7C27.4959 17.8713 27.6199 17.9515 27.7 18.164C27.8273 18.502 27.6262 18.6608 25.629 19.7995C24.5617 20.408 23.6095 20.9209 23.5128 20.9393C23.3996 20.961 23.2817 20.9176 23.1814 20.8172C23.0298 20.6656 23.0256 20.5985 23.0256 18.3385C23.0256 15.7888 23.0423 15.6854 23.4547 15.6854C23.5724 15.6854 24.3757 16.0966 25.4366 16.7Z" fill="url(#paint0_linear_3351_1103)"/>
<path fill-rule="evenodd" clip-rule="evenodd" d="M49.0733 14.1817C50.7656 15.0812 51.5905 16.5724 51.4671 18.5099C51.3755 19.9476 50.8963 20.827 49.8505 21.4767C49.0535 21.9718 48.9104 21.9988 46.7832 22.0569L44.5519 22.1179L44.6054 21.2779L44.6589 20.438L46.4766 20.3412C47.4763 20.2881 48.5032 20.1416 48.7586 20.0158C49.4202 19.69 49.6568 18.9944 49.5123 17.7999C49.2711 15.8076 48.7222 15.5043 45.3569 15.5043H43.0143V21.3035V27.1028H42.1488H41.2832V24.5281V21.9536L42.0584 21.239L42.8334 20.5245H42.0584H41.2832V17.1364V13.748L44.8753 13.804C47.9754 13.8521 48.5503 13.9038 49.0733 14.1817ZM54.786 18.7934V23.8137H54.0575H53.3291L54.0575 24.556C54.7245 25.2356 54.786 25.3739 54.786 26.1973C54.786 27.0015 54.7424 27.1071 54.3709 27.2005C54.1425 27.2578 53.7724 27.2787 53.5486 27.247L53.1414 27.1894L53.0961 20.4813L53.0509 13.7731H53.9183H54.786V18.7934ZM83.7941 14.0278C85.6499 14.5814 86.6811 16.0478 86.704 18.1659C86.7195 19.6039 86.3046 20.5827 85.3852 21.2765C84.5769 21.8866 83.68 22.0805 81.6617 22.0815L79.8873 22.0826V21.2362V20.3897L81.782 20.3249C83.3759 20.2702 83.754 20.2022 84.1623 19.8958C84.6245 19.549 84.6479 19.4637 84.6479 18.1268C84.6479 16.7713 84.628 16.7022 84.0825 16.1564L83.517 15.5908L80.9232 15.5351L78.3293 15.4793V21.2911V27.1028H77.4637H76.5982V24.5124V21.9219L77.3339 21.2276L78.0696 20.5332L77.3339 20.5289L76.5982 20.5245V17.1488V13.7731H79.7692C82.0583 13.7731 83.178 13.844 83.7941 14.0278ZM89.9278 20.438V27.1028H89.1488H88.3698V22.0826V17.0623H88.9757C89.309 17.0623 89.5816 17.0001 89.5816 16.9243C89.5816 16.8485 89.27 16.482 88.8892 16.1102C88.2715 15.507 88.1967 15.3443 88.1967 14.6036V13.7731H89.0623H89.9278V20.438ZM95.6026 17.046L97.2564 20.2322L98.8729 17.0027L100.489 13.7731H101.614C102.243 13.7731 102.738 13.849 102.738 13.945C102.738 14.0396 102.028 15.5406 101.159 17.2806L99.5801 20.444L101.247 23.7733L102.913 27.1028L101.744 27.1009L100.574 27.099L98.9094 23.8812L97.2444 20.6635L95.6068 23.8398L93.9691 27.0163L92.8141 27.0675C92.1788 27.0955 91.659 27.0753 91.659 27.0225C91.659 26.9695 92.3994 25.447 93.3044 23.6388L94.9498 20.3514L93.2995 17.0543L91.6493 13.757L92.7991 13.8085L93.9487 13.8597L95.6026 17.046ZM62.5809 17.6003C63.7297 18.2434 63.9608 18.8479 63.9622 21.2142C63.9629 22.3107 64.0124 23.7269 64.0724 24.3614C64.1805 25.5053 64.1863 25.5161 64.7637 25.6244C65.3079 25.7266 65.3458 25.7782 65.3458 26.4182V27.1028H64.2206C62.7492 27.1028 62.4299 26.821 62.1933 25.3127C62.155 25.0689 62.0171 25.1735 61.607 25.7565C60.9749 26.655 60.0761 27.1317 59.0143 27.1317C57.2997 27.1317 56.0874 25.8716 56.4948 24.5127C56.8202 23.4263 57.2961 23.0168 59.7257 21.7332C62.3095 20.368 62.4422 20.191 61.5507 19.2994C61.1373 18.886 60.8982 18.7934 60.2437 18.7934C59.248 18.7934 58.6168 19.1104 57.9984 19.9212L57.5187 20.55L57.1074 20.1638C56.546 19.6363 56.4389 19.1983 56.7536 18.7179C57.0557 18.2571 57.9993 17.6355 58.9203 17.2906C59.8601 16.939 61.6738 17.0924 62.5809 17.6003ZM67.1438 17.3652C67.8281 19.6656 69.7098 25.6386 69.7687 25.6975C69.9285 25.8573 70.0476 25.5083 71.2583 21.3321L72.4961 17.0623H73.4219C73.9733 17.0623 74.3477 17.1385 74.3477 17.2505C74.3477 17.354 73.4787 20.1001 72.4165 23.3527C70.6549 28.7474 70.4302 29.3223 69.8568 29.8993C68.5945 31.1698 66.6544 31.1376 65.216 29.8222C64.7225 29.3709 64.7277 29.2548 65.2759 28.4638L65.7251 27.8155L66.3743 28.4978C67.292 29.4625 68.407 29.3867 69.0392 28.3163C69.4763 27.5763 69.4149 27.1362 68.8651 27.071C68.4217 27.0185 68.3367 26.8179 66.7877 22.1714C65.8995 19.5068 65.1727 17.2671 65.1727 17.1944C65.1727 17.1218 65.596 17.0623 66.1133 17.0623C66.8592 17.0623 67.0723 17.125 67.1438 17.3652ZM60.3287 22.8766C58.4956 23.8608 58.4213 23.924 58.4213 24.5004C58.4213 25.8628 60.6419 25.9118 61.6952 24.5728C61.9684 24.2253 62.0567 23.8654 62.0567 23.0979C62.0567 22.5394 61.9984 22.0839 61.9269 22.0855C61.8554 22.0871 61.1363 22.4431 60.3287 22.8766Z" fill="black"/>
<defs>
<linearGradient id="paint0_linear_3351_1103" x1="31.1257" y1="11.748" x2="18.9517" y2="28.8309" gradientUnits="userSpaceOnUse">
<stop stop-color="#6C98F0"/>
<stop offset="1" stop-color="#56A1E6"/>
</linearGradient>
</defs>
</svg>
