<svg width="120" height="41" viewBox="0 0 120 41" fill="none" xmlns="http://www.w3.org/2000/svg">
<rect x="0.5" y="0.789062" width="119" height="39" rx="5.07929" fill="#FAFAFA"/>
<rect x="0.5" y="0.789062" width="119" height="39" rx="5.07929" stroke="#DEE1E4"/>
<path fill-rule="evenodd" clip-rule="evenodd" d="M52.9036 15.5404C52.6069 15.6942 52.5728 15.8063 52.4929 16.8868C52.4449 17.535 52.3837 18.0882 52.3568 18.116C52.33 18.1438 51.9615 18.2065 51.5381 18.2555C51.1146 18.3043 50.6663 18.436 50.5417 18.5479C50.2472 18.8125 50.2534 19.2704 50.5567 19.6573C50.7542 19.9092 50.9551 19.9758 51.6567 20.0221L52.5153 20.0785V23.1794C52.5153 26.2519 52.5184 26.2868 52.8522 26.9791C53.4439 28.2059 54.4694 28.7401 56.2329 28.7401C57.4666 28.7401 57.6921 28.6166 57.6921 27.9407C57.6921 27.2394 57.356 27.0016 56.3649 27.0016C55.4488 27.0016 54.8137 26.7457 54.4991 26.25C54.2921 25.9241 54.2571 25.5136 54.2194 22.9771L54.1763 20.0769L55.6878 20.0273C57.1033 19.9809 57.2156 19.9571 57.4537 19.6533C57.6304 19.4278 57.6827 19.2242 57.625 18.9867C57.4693 18.3459 57.366 18.3088 55.735 18.3088H54.1978V17.126C54.1978 16.1668 54.1549 15.9042 53.9713 15.7375C53.6244 15.4228 53.26 15.3554 52.9036 15.5404ZM43.8264 18.1276C43.0979 18.2606 42.1375 19.0143 41.7207 19.7799L41.3204 20.5155V23.5245C41.3204 26.3469 41.3377 26.5667 41.5983 27.0684C42.3369 28.4902 43.1684 28.9201 45.2031 28.9322C46.3902 28.9393 46.7235 28.8939 47.2091 28.6594C47.9646 28.2947 48.4673 27.7644 48.8442 26.9347C49.1311 26.3029 49.1479 26.1176 49.1491 23.5817C49.1505 20.6129 49.0542 20.0733 48.3704 19.2161C47.7374 18.4225 46.9913 18.1344 45.4722 18.0973C44.7547 18.0797 44.0141 18.0934 43.8264 18.1276ZM31.218 18.4986C30.9773 18.6806 30.9668 18.8925 30.9668 23.5924V28.4963L31.2724 28.7519C31.665 29.0805 31.9491 29.0749 32.373 28.7304L32.714 28.4533V24.2503V20.0474H34.2088C35.8188 20.0474 36.3163 20.1922 36.6251 20.7508C36.7439 20.9657 36.809 22.0981 36.8554 24.757C36.9261 28.8041 36.9231 28.7893 37.6983 28.9461C37.9428 28.9954 38.18 28.9513 38.3438 28.8258C38.5925 28.6353 38.6026 28.4723 38.6026 24.6384C38.6026 20.7964 38.5923 20.6291 38.3207 20.1052C37.9459 19.3815 37.1192 18.6274 36.5087 18.4522C35.7283 18.2283 31.5271 18.2651 31.218 18.4986ZM60.4145 18.5675C60.3409 18.7098 60.2815 18.9656 60.2825 19.1358C60.2866 19.7776 60.415 19.8275 62.3339 19.9309C63.3306 19.9845 64.2584 20.0907 64.3957 20.1665C64.7028 20.3365 64.9758 20.9837 64.9179 21.4055C64.8755 21.7151 64.8501 21.7199 62.9337 21.7859C60.8086 21.8592 60.4654 21.9631 59.8482 22.7213C59.4121 23.2566 59.3433 23.6987 59.3957 25.6242C59.4365 27.1209 59.4618 27.2545 59.788 27.6958C60.437 28.5742 60.7999 28.6682 63.7207 28.7142C66.0465 28.7507 66.339 28.7309 66.5032 28.526C66.6527 28.3396 66.6869 27.5595 66.6869 24.3393V20.3817L66.325 19.7457C66.0741 19.3045 65.757 18.9874 65.2896 18.7106C64.6208 18.314 64.6022 18.3114 62.5823 18.31C60.7034 18.309 60.5384 18.3285 60.4145 18.5675ZM68.9979 18.6535C68.8333 18.9132 68.8091 19.0857 68.9001 19.3528C69.0996 19.9395 69.4908 20.0432 71.5078 20.0454C72.522 20.0464 73.352 20.0753 73.352 20.1094C73.352 20.1437 72.3676 21.7233 71.1646 23.62C69.9615 25.5166 68.875 27.2904 68.7501 27.5617C68.5371 28.0246 68.5365 28.0759 68.7404 28.3975L68.9577 28.7401H72.2349C75.2454 28.7401 75.5295 28.7202 75.7262 28.4955C76.0009 28.1821 76.0023 27.4885 75.7288 27.2541C75.574 27.1213 74.911 27.0588 73.2617 27.0216C71.4626 26.9811 71.0195 26.9352 71.0716 26.7946C71.1076 26.6976 71.9085 25.4256 72.851 23.9681C74.952 20.7194 75.811 19.2708 75.811 18.9762C75.811 18.8526 75.7045 18.6519 75.5743 18.5302C75.3681 18.3373 74.9434 18.3088 72.2771 18.3088H69.2165L68.9979 18.6535ZM77.7782 18.4693C77.5364 18.7191 77.5877 19.5717 77.8596 19.8261C78.058 20.0117 78.4152 20.0474 80.0736 20.0474C81.6024 20.0474 82.0368 20.0854 81.9885 20.2146C81.9542 20.3066 81.0256 21.796 79.9249 23.5245C77.7633 26.9191 77.2346 27.8084 77.2346 28.0498C77.2346 28.1352 77.3511 28.3255 77.4935 28.4727C77.7385 28.7258 77.9248 28.7401 80.9678 28.7401C83.9184 28.7401 84.2008 28.7199 84.3974 28.4955C84.7115 28.137 84.673 27.4624 84.3239 27.2098C84.0913 27.0414 83.6208 27.0016 81.8649 27.0016C80.6707 27.0016 79.6936 26.9719 79.6936 26.9356C79.6936 26.8993 80.4879 25.6205 81.4585 24.0938C84.6982 18.9982 84.7135 18.9681 84.2789 18.5189C84.1053 18.3397 83.6237 18.3088 81.0045 18.3088C78.7885 18.3088 77.8903 18.3535 77.7782 18.4693ZM46.4234 20.0142C47.3421 20.4983 47.4032 20.7114 47.4032 23.4339C47.4032 25.5076 47.3696 25.9285 47.174 26.2983C46.778 27.047 46.4675 27.1673 45.0628 27.1149C43.8171 27.0684 43.815 27.0678 43.4356 26.6004L43.0556 26.1323L43.094 23.4378C43.1363 20.463 43.1625 20.367 44.0383 19.9675C44.6058 19.7086 45.8912 19.7338 46.4234 20.0142ZM64.4544 23.4766L64.9397 23.5595V25.2805V27.0016H63.2773C61.1694 27.0016 61.1526 26.9881 61.1345 25.2776C61.1163 23.5777 61.2235 23.4866 63.3219 23.4156C63.6778 23.4036 64.1875 23.431 64.4544 23.4766Z" fill="black"/>
<path fill-rule="evenodd" clip-rule="evenodd" d="M92.0511 19.1672C92.0061 19.1781 91.9299 19.2116 91.8818 19.2417C91.7561 19.3203 88.8509 22.2399 88.8053 22.3334C88.7381 22.4713 88.7302 22.5548 88.771 22.694C88.8084 22.8212 88.8913 22.9089 90.3415 24.3558C91.1836 25.1959 91.8981 25.8963 91.9294 25.9121C91.9607 25.9279 92.0718 25.9408 92.1764 25.9408C92.298 25.9408 92.4147 25.8925 92.5008 25.8065L93.933 24.375C95.5669 22.7419 95.5592 22.7507 95.5576 22.5387C95.5573 22.4974 95.535 22.4167 95.5082 22.3594C95.4505 22.2362 92.4579 19.2377 92.3544 19.1994C92.2424 19.158 92.1361 19.1467 92.0511 19.1672Z" fill="#E38B27"/>
<path fill-rule="evenodd" clip-rule="evenodd" d="M96.6659 14.7904C96.5951 14.8235 96.0678 15.3347 95.021 16.3852C93.5686 17.8427 93.4793 17.9376 93.4624 18.0419C93.4526 18.1028 93.4526 18.2025 93.4624 18.2633C93.4793 18.3678 93.5685 18.4624 95.0338 19.9306C96.7066 21.6067 96.6882 21.5908 96.9157 21.5544C96.9748 21.545 97.054 21.5208 97.0919 21.5007C97.1298 21.4806 97.8485 20.7747 98.6891 19.9321C100.069 18.5487 100.22 18.3889 100.248 18.2852C100.28 18.1627 100.265 18.0266 100.208 17.9191C100.189 17.8828 99.4834 17.1655 98.6408 16.325C97.3287 15.0163 97.0938 14.7929 97.0045 14.7689C96.8588 14.7296 96.786 14.7342 96.6659 14.7904Z" fill="#0098D7"/>
<path fill-rule="evenodd" clip-rule="evenodd" d="M91.9115 10.3379C91.7673 10.4157 88.8219 13.3802 88.7739 13.4958C88.7206 13.6245 88.7241 13.7665 88.7837 13.8939C88.8442 14.0229 91.8363 17.0163 91.9458 17.0572C92.0628 17.101 92.2678 17.0901 92.3749 17.0344C92.4284 17.0066 93.1463 16.307 93.985 15.4651C95.3783 14.0667 95.5011 13.9364 95.531 13.8249C95.569 13.6827 95.5507 13.5701 95.4661 13.425C95.3717 13.2634 92.4658 10.3751 92.3486 10.3265C92.2181 10.2724 92.0235 10.2775 91.9115 10.3379Z" fill="#008D7A"/>
</svg>
