<svg width="120" height="41" viewBox="0 0 120 41" fill="none" xmlns="http://www.w3.org/2000/svg">
<rect x="0.5" y="0.789062" width="119" height="39" rx="5.07929" fill="#FAFAFA"/>
<rect x="0.5" y="0.789062" width="119" height="39" rx="5.07929" stroke="#DEE1E4"/>
<path fill-rule="evenodd" clip-rule="evenodd" d="M25.7871 17.6014C25.7871 21.3309 25.8092 21.6091 26.1818 22.573C26.893 24.4132 28.508 25.8258 30.4724 26.3259C31.2752 26.5303 32.6326 26.5277 33.4595 26.3202C35.2489 25.8711 36.7523 24.6424 37.546 22.9802C38.0073 22.0141 38.1417 21.4114 38.1437 20.2996C38.1458 19.0695 37.8876 18.1283 37.2549 17.0596C36.8866 16.4376 35.7942 15.3623 35.1474 14.9852C34.4143 14.5578 33.334 14.2097 32.5552 14.1499L31.9256 14.1016L31.9722 14.7465C32.0855 16.3179 32.9889 18.0089 34.2444 18.9999C34.8325 19.4642 35.9646 20.0193 36.6502 20.1797L37.2061 20.3098L36.7546 20.4095C34.6603 20.8721 32.8914 22.4967 32.2135 24.5802L32.0342 25.131L32.0308 22.625C32.027 19.8736 31.97 19.2301 31.6469 18.2882C30.9499 16.2561 29.1648 14.6768 27.0806 14.2483C26.7541 14.1811 26.3295 14.1262 26.137 14.1262H25.7871V17.6014Z" fill="url(#paint0_linear_3351_1088)"/>
<path fill-rule="evenodd" clip-rule="evenodd" d="M73.0336 17.3039C72.2185 17.5925 71.1829 18.5774 70.7347 19.4902C70.4046 20.1624 70.3555 20.4206 70.3555 21.4814C70.3555 22.5422 70.4046 22.8004 70.7347 23.4726C71.1973 24.4147 72.2254 25.373 73.089 25.6673C74.5533 26.1662 76.1845 25.78 77.3318 24.6625C77.7033 24.3005 78.075 23.8566 78.075 23.7849C78.075 23.7132 77.8719 23.5817 77.6687 23.3109L77.3318 22.9723L76.3821 23.6494C75.4341 24.462 74.4338 24.5868 73.3215 24.0689C72.6357 23.7496 72.1794 23.2658 71.9197 22.5826L71.7843 22.2263H78.5879L78.497 21.2485C78.3323 19.4766 77.518 18.2105 76.0812 17.4926C75.1345 17.0195 74.0298 16.9511 73.0336 17.3039ZM75.4314 18.8744C76.0469 19.1888 76.6938 19.898 76.8518 20.4318L76.9421 20.7365H74.4275C72.7621 20.7365 71.9129 20.6886 71.9129 20.5943C71.9129 20.0788 72.7797 19.1141 73.5381 18.7855C74.2052 18.4967 74.7413 18.5217 75.4314 18.8744Z" fill="#292929"/>
<path fill-rule="evenodd" clip-rule="evenodd" d="M67.6099 18.4698L67.2499 18.133C66.6751 17.5952 66.0386 17.3388 65.1143 17.2726C63.3183 17.1442 61.9218 17.9091 61.172 19.4321C60.7779 20.2327 60.7383 20.4213 60.7383 21.4967C60.7383 22.57 60.7783 22.7615 61.1682 23.5536C61.6678 24.5684 62.2944 25.1268 63.3503 25.4978C64.683 25.9663 66.0099 25.7956 67.0178 25.0262L67.6099 24.5743V25.6197H69.0497V14.1016H67.6099V18.4698ZM66.3352 19.1155C67.1634 19.6008 67.5433 20.3492 67.5439 21.4967C67.5443 22.2529 67.4838 22.5161 67.1973 23.0034C66.3415 24.4592 64.1473 24.731 62.8949 23.5363C61.5092 22.2144 62.0568 19.4382 63.8203 18.8456C64.5199 18.6105 65.6873 18.7358 66.3352 19.1155Z" fill="#292929"/>
<path fill-rule="evenodd" clip-rule="evenodd" d="M91.8887 25.8808H93.3784V17.3486H91.8887V25.8808Z" fill="#292929"/>
<path fill-rule="evenodd" clip-rule="evenodd" d="M82.3722 17.1208C81.9107 17.207 81.4573 17.3869 81.076 17.6608C80.9903 17.7119 80.9188 17.7749 80.4448 18.1645C80.1261 18.5628 79.8908 19.0272 79.7372 19.5135C79.623 19.875 79.5645 20.2534 79.5645 20.6325V25.7486H80.9023V22.9606C80.9023 19.9405 80.9742 19.5282 81.5953 18.9846C82.0571 18.5803 82.8673 18.4974 83.42 18.7978C84.2337 19.2401 84.3075 19.5789 84.3076 22.8725L84.3079 25.7486H85.6285L85.6676 22.8725C85.7045 20.1501 85.7214 19.9698 85.9851 19.498C86.5234 18.5346 87.8674 18.3054 88.5724 19.057C89.0665 19.5839 89.173 20.3122 89.173 23.1693V25.7486H90.5343L90.4881 22.7372C90.4449 19.9269 90.4227 19.678 90.155 19.0092C89.3235 16.9322 87.0562 16.4542 85.5768 18.0442L85.2038 18.4451L84.6962 17.9079C84.0789 17.2544 83.1816 16.9695 82.3722 17.1208Z" fill="#292929"/>
<path fill-rule="evenodd" clip-rule="evenodd" d="M53.7495 17.4897C52.874 17.8245 52.0553 18.6176 51.6103 19.5618C51.3124 20.194 51.2598 20.4836 51.2598 21.4896C51.2598 22.4912 51.3129 22.7863 51.605 23.4059C52.263 24.8016 53.4659 25.6236 55.0094 25.7324C56.1179 25.8104 56.8395 25.6173 57.6016 25.0386L58.2019 24.5827V25.6334H59.6565V17.3459H58.2019V18.4107L57.706 18.0151C56.6793 17.1958 55.0746 16.9827 53.7495 17.4897ZM56.9141 19.0964C57.7509 19.5842 58.1346 20.3364 58.1353 21.4896C58.1357 22.2496 58.0746 22.5141 57.7851 23.0039C56.9264 24.4569 54.6984 24.7352 53.4452 23.5457C52.0223 22.1955 52.5696 19.4297 54.3795 18.8234C55.0803 18.5886 56.2613 18.7158 56.9141 19.0964Z" fill="#292929"/>
<path d="M93.5353 14.207L94.2125 15.5613L93.3999 16.6448H91.9102L93.5353 14.207Z" fill="#292929"/>
<path d="M49.6556 14.8845L48.1436 14.8379C46.3595 14.7829 44.6828 15.6887 43.7506 17.2109L43.7037 17.2875C42.7812 18.7939 42.7565 20.6843 43.6393 22.2143L43.7929 22.4806C44.6047 23.8876 46.1373 24.7202 47.7596 24.6354V24.6354L49.791 24.5677" stroke="#292929" stroke-width="1.62517"/>
<defs>
<linearGradient id="paint0_linear_3351_1088" x1="38.1437" y1="15.7236" x2="31.9654" y2="26.4775" gradientUnits="userSpaceOnUse">
<stop stop-color="#F74E3C"/>
<stop offset="1" stop-color="#FD0165"/>
</linearGradient>
</defs>
</svg>
