<svg width="120" height="41" viewBox="0 0 120 41" fill="none" xmlns="http://www.w3.org/2000/svg">
<rect x="0.5" y="0.789062" width="119" height="39" rx="5.07929" fill="#FAFAFA"/>
<rect x="0.5" y="0.789062" width="119" height="39" rx="5.07929" stroke="#DEE1E4"/>
<g clip-path="url(#clip0_3351_1128)">
<path d="M47.8812 8.35742C48.2731 8.35742 48.665 8.35742 49.0675 8.37576C49.3525 8.51049 49.6327 8.61873 49.9002 8.74516C50.3187 8.94305 50.7392 9.15641 50.8009 9.59821C50.8542 9.97957 50.8891 10.3654 50.8845 10.7489C50.8746 11.5898 50.835 12.4305 50.8066 13.2712C50.7793 14.0777 50.7518 14.8842 50.7227 15.6907C50.6961 16.4287 50.6604 17.1665 50.641 17.9045C50.6075 19.1794 50.5839 20.4544 50.5552 21.7293C50.5529 21.8312 50.5408 21.9331 50.5367 22.0351C50.5155 22.5682 50.4803 23.1016 50.4889 23.6344C50.4905 23.7314 50.6578 23.8858 50.7759 23.9059C50.8995 23.927 51.1312 23.8497 51.1865 23.7612C51.6882 22.9574 52.1488 22.1353 52.3055 21.2307C52.3961 20.7076 52.4185 20.1768 52.4933 19.6516C52.5882 18.984 52.7077 18.3187 52.8118 17.652C52.9281 16.9067 53.0291 16.1597 53.1571 15.4158C53.2119 15.0971 53.5177 14.914 53.8438 14.9451C54.4543 15.0033 55.0053 15.1888 55.4623 15.5167C55.9241 15.8481 56.4237 16.1855 56.4562 16.7456C56.4763 17.0913 56.4329 17.4404 56.4022 17.7871C56.2959 18.991 56.1846 20.1945 56.0714 21.398C56.0217 21.9254 55.9273 22.4521 55.9219 22.9796C55.9186 23.2973 56.0474 23.6159 56.1168 23.9341C56.1745 23.9445 56.2322 23.9549 56.2899 23.9654C56.4629 23.8033 56.698 23.6632 56.7965 23.4749C57.0469 22.9965 57.2797 22.5059 57.4408 22.0031C57.7645 20.9922 58.1319 19.9807 58.302 18.9495C58.4777 17.8848 58.5861 16.8158 58.9035 15.7681C58.9963 15.4619 59.2217 15.3433 59.5337 15.3596C60.4146 15.4055 61.2353 15.6257 61.9602 16.0494C62.0527 16.1035 62.1479 16.2093 62.1554 16.2962C62.1812 16.5918 62.199 16.8921 62.1641 17.1861C62.0714 17.9678 61.9429 18.7465 61.8422 19.5276C61.7959 19.8869 61.7622 20.2488 61.7562 20.6098C61.7441 21.3307 61.7446 22.0521 61.7677 22.7727C61.7712 22.8823 61.9023 23.0534 62.0135 23.0783C62.1265 23.1036 62.329 23.0116 62.4215 22.9219C62.9724 22.3868 63.2372 21.7576 63.3527 21.0637C63.5128 20.1023 63.6408 19.1267 63.9526 18.1955C64.3834 16.9088 65.0936 15.7259 66.2262 14.7162C67.4208 13.6515 69.7691 13.7212 70.7101 15.1019C70.9522 15.4571 71.2088 15.8023 71.7362 15.9603C72.7705 16.2701 73.2154 16.8184 73.2046 17.7141C73.1832 19.5032 73.1505 21.2922 73.1234 23.0813C73.1203 23.281 73.1229 23.4807 73.1229 23.6787C73.171 23.6206 73.2372 23.5519 73.289 23.4764C73.7513 22.8024 74.4817 22.2441 74.6649 21.4516C74.802 20.858 74.8489 20.2508 74.9647 19.6534C75.2697 18.0802 75.9039 16.6057 77.0749 15.3218C77.6264 14.7171 78.3336 14.2474 79.3151 14.1881C80.2615 14.131 81.3766 14.6062 81.8547 15.3565C82.0961 15.7354 82.3383 16.0436 82.9303 16.1222C83.3428 16.1771 83.7342 16.3738 84.116 16.5372C84.415 16.6651 84.5724 16.911 84.5474 17.1788C84.4984 17.7026 84.3812 18.2219 84.3245 18.7455C84.2018 19.8792 84.0742 21.0134 84.005 22.1497C83.9858 22.4637 84.165 22.7858 84.2801 23.2017C84.5757 22.9768 84.8387 22.8656 84.929 22.6935C85.4968 21.6111 86.0448 20.5209 86.5594 19.4208C86.7731 18.9641 87.0187 18.8508 87.5235 19.1191C87.6745 19.1994 87.7783 19.338 87.9104 19.4443C88.0006 19.5346 87.9588 19.5003 88.0006 19.5346C87.9849 19.178 88.711 19.8431 88.0006 19.5346C88.0172 19.9117 87.9354 20.3977 87.9236 20.447C87.6184 21.7225 87.1253 22.9434 86.3217 24.0684C86.0289 24.4783 85.7575 24.9245 85.1416 25.086C84.2744 25.3134 83.5507 25.0546 82.9276 24.5864C82.3616 24.1611 81.8405 23.6956 81.2671 23.221C80.9431 24.1116 80.6752 24.9871 79.7629 25.5606C79.5025 25.7242 79.1641 25.8787 78.8497 25.8965C77.8738 25.9517 77.0262 25.6377 76.3448 25.0783C75.9335 24.7408 75.6029 24.3371 75.2273 23.9543C75.1967 23.9775 75.133 24.0184 75.0805 24.0673C74.4809 24.6261 73.9219 25.2194 73.2688 25.7321C72.9212 26.005 72.7149 26.2797 72.6163 26.6525C72.2858 27.9012 72.0855 29.1802 71.4508 30.3623C71.019 31.1666 70.5322 31.9465 69.3939 32.2394C69.3705 32.2454 69.3719 32.3166 69.3618 32.3574C68.942 32.3574 68.5222 32.3574 68.0919 32.3391C67.4496 32.0474 66.8476 31.7028 66.1802 31.5145C64.5219 31.0467 63.7135 29.6707 64.2375 28.2947C64.5463 27.4838 65.2723 26.941 66.1145 26.5433C67.0256 26.113 68.0232 25.8073 68.9697 25.4249C69.1823 25.339 69.4705 25.1768 69.4989 25.022C69.6077 24.4266 69.6252 23.82 69.6857 23.1123C69.4622 23.5504 69.2866 23.8955 69.11 24.2403C68.6631 25.1123 67.8908 25.6138 66.9758 25.4855C65.9302 25.3388 65.0221 24.9393 64.3858 24.2008C64.3104 24.1133 64.1926 24.0504 64.0818 23.9666C63.9828 24.0984 63.9114 24.2055 63.8264 24.3046C63.0656 25.1912 62.27 25.4659 60.9666 24.9039C60.1252 24.5412 59.5052 23.9983 58.9332 23.3897C58.5587 24.0053 58.1971 24.6018 57.8329 25.1973C57.5088 25.7273 56.397 26.1051 55.7601 25.931C55.1355 25.7602 54.5752 25.5298 54.1149 25.1549C53.7526 24.8597 53.4323 24.5299 53.0828 24.2057C52.7696 24.6327 52.4802 25.0488 52.1651 25.4512C51.7608 25.9675 51.2358 26.0826 50.4966 25.9232C48.5152 25.4961 47.0603 23.6227 47.0511 22.0526C47.0464 21.2577 47.1043 20.4626 47.128 19.6675C47.1592 18.6211 47.18 17.5746 47.2148 16.5283C47.2287 16.11 47.2714 15.6923 47.2948 15.2741C47.3802 13.7459 47.4409 12.2165 47.5561 10.6898C47.6149 9.90984 47.7697 9.13473 47.8812 8.35742ZM67.2655 19.6955C66.742 20.8207 66.6139 21.9915 66.6935 23.1815C66.7195 23.5705 67.1138 23.7213 67.4575 23.4477C67.7643 23.2034 68.0383 22.8842 68.1792 22.5554C68.7049 21.3288 69.2057 20.0932 69.643 18.8437C69.8784 18.1714 70.1085 17.4713 69.8079 16.6824C69.4914 16.8609 69.1829 16.9891 68.945 17.1773C68.0864 17.8563 67.6706 18.746 67.2655 19.6955ZM79.635 22.7898C79.8325 22.2065 80.0609 21.6287 80.2213 21.0385C80.5831 19.7066 80.9113 18.3685 81.2557 17.0234C80.7507 16.9387 80.4274 17.1159 80.1542 17.3695C79.5688 17.9131 79.2 18.5574 78.8885 19.2287C78.4558 20.1614 78.1834 21.128 78.0704 22.1166C78.0157 22.5953 78.075 23.0898 78.153 23.5694C78.2136 23.9427 78.5853 24.0341 78.8736 23.7509C79.1566 23.4729 79.3583 23.1392 79.635 22.7898ZM68.6162 28.7683C68.7719 28.2674 68.9277 27.7665 69.0984 27.2174C68.9379 27.2631 68.8643 27.2703 68.8113 27.3012C67.8958 27.8339 67.3863 28.5769 67.1945 29.4686C67.0989 29.9129 67.2408 30.1888 67.6858 30.4631C68.0007 29.9043 68.3052 29.3642 68.6162 28.7683Z" fill="#25AAE1"/>
<path d="M32.084 11.1325C32.124 11.1014 32.1862 11.1158 32.2009 11.1002C32.9503 10.3038 34.033 9.92232 35.1133 9.55374C36.3843 9.12012 37.7073 8.84049 39.098 8.91545C39.5512 8.93988 39.995 9.07246 40.4453 9.14674C41.7815 9.36715 42.6376 10.063 43.1582 11.0483C43.3959 11.4983 43.8397 11.7131 44.2883 11.9731C45.357 12.5925 45.9575 13.4233 46.0612 14.5334C46.1776 15.7792 45.8467 16.8939 45.0303 17.9362C44.3024 18.8657 43.3143 19.5643 42.1969 20.1501C40.6683 20.9514 38.9822 21.4262 37.2183 21.738C37.1066 21.7577 36.9516 21.8938 36.944 21.9831C36.8928 22.5824 36.8862 23.1842 36.8454 23.7843C36.8017 24.4264 36.743 25.0679 36.6775 25.7088C36.6487 25.9905 36.4297 26.1469 36.0938 26.1125C35.4744 26.0492 34.847 25.9927 34.2469 25.8602C33.5331 25.7027 33.0919 25.1577 33.0883 24.5468C33.0833 23.7015 33.0733 22.8559 33.0933 22.0109C33.1021 21.6393 33.0101 21.3058 32.8013 20.9769C32.4322 20.3956 32.5196 19.9636 33.0388 19.4663C33.1396 19.3697 33.2345 19.2363 33.2456 19.1146C33.3175 18.3254 33.3533 17.534 33.4249 16.7448C33.4921 16.0043 33.6078 15.2664 33.66 14.5254C33.674 14.3259 33.6046 14.0709 33.4538 13.9241C32.8528 13.3392 32.4298 12.6917 32.2221 11.947C32.2145 11.9196 32.1637 11.9002 32.1085 11.9004C32.084 11.6706 32.084 11.4173 32.084 11.1325ZM41.5308 12.5756C41.3425 12.4961 41.1531 12.3499 40.9662 12.352C40.6481 12.3558 40.3219 12.4296 40.0161 12.515C39.0562 12.7831 38.0987 13.0584 37.1515 13.3551C36.6691 13.5062 36.2109 13.7092 35.6904 13.9084C35.9003 14.0005 36.0395 14.0489 36.1615 14.1177C36.5044 14.3112 36.827 14.5244 36.8467 14.9051C36.9059 16.0482 36.9593 17.1915 37.0159 18.3347C37.0197 18.4112 37.0321 18.4874 37.0458 18.6128C37.2667 18.548 37.4554 18.4957 37.6414 18.4375C38.7669 18.0853 39.8361 17.6411 40.7403 16.9829C41.5994 16.3575 42.1535 15.5928 42.3005 14.6205C42.4186 13.8396 42.2698 13.1699 41.5308 12.5756Z" fill="#25AAE1"/>
</g>
<defs>
<clipPath id="clip0_3351_1128">
<rect width="56" height="24" fill="white" transform="translate(32 8.28906)"/>
</clipPath>
</defs>
</svg>
