<svg width="120" height="41" viewBox="0 0 120 41" fill="none" xmlns="http://www.w3.org/2000/svg">
<rect x="0.5" y="0.789062" width="119" height="39" rx="5.07929" fill="#FAFAFA"/>
<rect x="0.5" y="0.789062" width="119" height="39" rx="5.07929" stroke="#DEE1E4"/>
<path fill-rule="evenodd" clip-rule="evenodd" d="M28.7213 23.1567V29.057L29.1467 29.5375C29.4773 29.9112 29.7056 30.0226 30.172 30.0383C30.7587 30.058 30.772 30.0468 30.772 29.5288C30.772 29.0901 30.7066 28.9836 30.3922 28.9086L30.0125 28.8181L29.9727 23.0372L29.9329 17.2563H29.3271H28.7213V23.1567ZM60.7717 19.2495C60.7717 20.3457 60.7546 21.2426 60.7337 21.2425C60.7129 21.2425 60.3198 21.0979 59.8603 20.9211C58.7661 20.5003 57.1719 20.4649 56.0991 20.8376C55.0332 21.2078 53.7814 22.3706 53.3146 23.4244C52.7831 24.6238 52.8093 26.2375 53.379 27.413C53.9015 28.491 54.906 29.4063 56.0406 29.8383C57.1408 30.2572 58.9625 30.2009 60.0412 29.7149L60.7538 29.3937L60.8007 29.7261C60.8378 29.989 60.9668 30.0685 61.4173 30.106L61.9869 30.1537V23.7049V17.2563H61.3793H60.7717V19.2495ZM63.839 22.8142C63.8803 27.7434 63.9154 28.427 64.1492 28.8582C64.593 29.6772 65.2609 30.0445 66.4266 30.1111L67.4552 30.1698V29.168C67.4552 28.1791 67.4494 28.1652 66.9983 28.065C66.7469 28.0094 66.4735 27.836 66.3907 27.6796C66.2997 27.5083 66.24 25.3841 66.24 22.326V17.2563H65.0162H63.7924L63.839 22.8142ZM46.3937 20.6294C44.2194 21.0853 42.7164 22.8094 42.5767 25.0072C42.4734 26.6321 42.8085 27.5163 43.9735 28.6923C45.1627 29.8925 45.9918 30.2012 47.7643 30.1039C48.5712 30.0594 49.2498 29.9233 49.7212 29.7109L50.4427 29.3857V29.7604C50.4427 30.0956 50.5071 30.1352 51.0524 30.1352H51.6623L51.622 25.4206L51.5819 20.706L51.0123 20.6585C50.4966 20.6154 50.4427 20.6464 50.4427 20.9855V21.3604L49.5693 21.0076C48.5446 20.5939 47.2805 20.4434 46.3937 20.6294ZM34.9909 20.8742C34.1263 21.195 32.978 22.2662 32.5203 23.1789C32.0278 24.1609 31.9192 25.9394 32.2841 27.0479C32.6386 28.1255 33.4045 29.0676 34.3599 29.6018C35.1209 30.0272 35.2864 30.0585 36.7719 30.0585C38.2455 30.0585 38.427 30.0249 39.1566 29.6168C39.5908 29.3738 40.1035 29.0058 40.2958 28.799L40.6453 28.4229L40.2154 28.0493L39.7854 27.6756L39.304 28.0853C38.5897 28.6933 37.9547 28.9091 36.8907 28.9052C35.3647 28.8999 34.1737 28.2302 33.5673 27.0366C33.0112 25.942 32.8153 25.9955 37.3795 25.9955H41.4807V25.1029C41.4807 23.3425 40.6985 22.004 39.1809 21.1677C38.4783 20.7805 38.1795 20.7134 36.9998 20.6775C36.0515 20.6488 35.436 20.7091 34.9909 20.8742ZM71.3026 20.9503C70.3902 21.3043 69.4384 22.1773 68.9424 23.1145C68.6432 23.6803 68.5944 23.9978 68.5944 25.3823C68.5944 27.2945 68.8177 27.8493 70.0308 28.9502C70.9873 29.8181 71.8804 30.1352 73.3683 30.135C75.3325 30.1349 76.8867 29.1453 77.6908 27.3832C78.1588 26.3572 78.1376 24.3757 77.6466 23.2697C77.2048 22.2743 76.0705 21.2078 75.0981 20.8734C74.0988 20.5297 72.2918 20.5663 71.3026 20.9503ZM91.3254 20.7856C89.868 21.0938 88.4983 22.32 88.0077 23.7557C87.1831 26.1686 88.2401 28.9 90.3782 29.8806C90.915 30.1269 91.3896 30.2017 92.4424 30.2061C93.6288 30.2111 93.9203 30.1568 94.6494 29.7954C95.1115 29.5663 95.6782 29.1801 95.9088 28.9373L96.3279 28.4957L95.6257 27.9148L94.9233 27.3339L94.2903 27.6442C93.4113 28.0753 92.6331 28.1851 91.889 27.9827C91.2711 27.8148 90.3917 27.1048 90.3917 26.7739C90.3917 26.6609 91.447 26.6088 93.7306 26.6088H97.0695L97.168 26.2123C97.2223 25.9943 97.2326 25.3885 97.1911 24.8663C97.0076 22.5597 95.3126 20.8928 92.974 20.7191C92.431 20.6787 91.6891 20.7086 91.3254 20.7856ZM102.409 20.856C102.043 20.9733 101.513 21.2942 101.232 21.5692L100.721 22.0693V21.426V20.7827H99.5056H98.2904V25.4589V30.1352H99.5056H100.721L100.724 27.6437C100.727 25.5063 100.77 25.0588 101.023 24.4941C101.42 23.6125 102.359 23.1604 103.473 23.3151L104.227 23.4196L104.183 22.0627L104.138 20.706L103.607 20.6743C103.314 20.657 102.775 20.7387 102.409 20.856ZM107.437 20.9087C106.996 21.0685 106.468 21.3573 106.264 21.5507C105.733 22.0535 105.372 23.1039 105.472 23.8537C105.644 25.1503 106.455 25.7902 108.683 26.3879C109.512 26.6102 110.315 26.8708 110.468 26.9673C110.848 27.2069 110.818 27.7675 110.408 28.0566C109.93 28.3945 108.296 28.3594 107.252 27.9887C106.793 27.8256 106.346 27.6899 106.259 27.6871C106.132 27.683 105.278 29.2059 105.278 29.4362C105.278 29.4696 105.739 29.6577 106.303 29.8543C107.145 30.148 107.64 30.2118 109.075 30.2118C110.656 30.2118 110.886 30.1755 111.5 29.8285C113.098 28.9242 113.507 26.7948 112.299 25.655C111.708 25.0966 111.059 24.799 109.675 24.4513C107.806 23.9818 107.432 23.7402 107.658 23.1473C107.913 22.4764 109.799 22.4818 111.528 23.1585C111.721 23.234 111.869 23.0553 112.177 22.376C112.397 21.8918 112.523 21.4449 112.459 21.3831C112.196 21.1316 110.596 20.7646 109.455 20.6938C108.505 20.6347 108.065 20.6816 107.437 20.9087ZM77.7842 20.8391C77.7842 20.8701 78.7638 22.9571 79.9612 25.477L82.1382 30.0585H82.7732H83.4081L85.5328 25.5753C86.7014 23.1096 87.6576 21.0197 87.6576 20.9312C87.6576 20.8285 87.2166 20.7864 86.4386 20.8149L85.2196 20.8593L84.0496 23.3508C83.406 24.7211 82.8363 25.8422 82.784 25.8422C82.7314 25.8422 82.1511 24.7038 81.4943 23.3125L80.3001 20.7827H79.0423C78.3504 20.7827 77.7842 20.808 77.7842 20.8391ZM37.8454 21.8725C39.0803 22.1397 40.2656 23.4058 40.2656 24.4574C40.2656 24.7616 40.1828 24.769 36.7719 24.769H33.2783V24.4119C33.2783 23.854 34.1108 22.7237 34.817 22.3231C35.8911 21.7138 36.615 21.6062 37.8454 21.8725ZM49.5313 22.286L50.3667 22.6992V25.3732V28.0471L49.6224 28.4338C48.7351 28.8947 47.2592 29.0362 46.266 28.7554C43.7733 28.0509 42.9188 24.7156 44.7596 22.8766C45.9888 21.6486 47.7915 21.4255 49.5313 22.286ZM58.6572 21.8582C59.1042 21.9438 59.7645 22.1577 60.1243 22.3335L60.7786 22.6532L60.7372 25.3593L60.6958 28.0653L59.9363 28.4454C58.9424 28.943 57.3862 29.0506 56.4432 28.6871C54.8435 28.0703 53.8692 26.3052 54.2301 24.6773C54.5441 23.2614 55.5665 22.1926 56.9119 21.874C57.7225 21.6821 57.7365 21.6821 58.6572 21.8582ZM74.4405 23.1246C75.286 23.5759 75.6577 24.2695 75.6577 25.3956C75.6577 27.4007 73.7679 28.5891 72.0881 27.6405C71.3795 27.2405 70.797 26.2217 70.797 25.3823C70.797 24.4824 71.3774 23.5184 72.1583 23.1208C73.0169 22.6837 73.6165 22.6848 74.4405 23.1246ZM93.6413 23.1616C94.0999 23.3813 94.6449 24.0797 94.6449 24.4476C94.6449 24.5614 93.9586 24.6157 92.5183 24.6157C90.2485 24.6157 90.2022 24.5974 90.605 23.8633C91.0592 23.0362 92.6242 22.6745 93.6413 23.1616Z" fill="black"/>
<path fill-rule="evenodd" clip-rule="evenodd" d="M11.6361 11.7956C8.66723 13.4959 7.4642 14.2653 7.26992 14.5883C7.0284 14.9897 7.00152 15.5207 7.00076 19.9044L7 24.7744L7.49367 25.2946C8.14591 25.9818 15.7551 30.2895 16.3166 30.2895C16.8307 30.2895 16.8509 30.2792 21.3543 27.724C23.3594 26.5863 25.1533 25.4735 25.3409 25.2511C25.6791 24.85 25.6819 24.8057 25.6826 19.8461C25.6834 15.1047 25.6679 14.8257 25.3846 14.4621C25.2201 14.2512 23.2497 13.0344 21.0057 11.7584C17.6353 9.84157 16.822 9.43895 16.3298 9.4434C15.8464 9.44784 14.962 9.89093 11.6361 11.7956ZM20.1393 13.4627C22.5183 14.8182 23.4949 15.4561 23.6483 15.7548C23.8132 16.0763 23.8606 17.0053 23.8606 19.912C23.8606 23.4053 23.8406 23.6811 23.5611 24.0397C23.3964 24.2511 21.7819 25.2684 19.9733 26.3005C17.2054 27.88 16.6096 28.1646 16.2095 28.0979C15.6823 28.0099 9.68312 24.626 9.20251 24.1455C8.91421 23.8573 8.89872 23.6382 8.89872 19.8631V15.8846L9.27846 15.5046C9.94317 14.8395 15.8243 11.5845 16.3616 11.5845C16.6962 11.5845 17.8461 12.1562 20.1393 13.4627ZM13.6075 14.8809C12.1873 15.6866 10.9399 16.4605 10.8354 16.6008C10.6989 16.7843 10.6455 17.6846 10.6455 19.8078C10.6455 22.6555 10.6575 22.773 10.9873 23.1354C11.4586 23.6535 15.9161 26.1498 16.3698 26.1498C16.7594 26.1498 21.1146 23.7326 21.6961 23.1935C22.0283 22.8855 22.0379 22.7921 22.0379 19.8663C22.0379 17.6998 21.9847 16.7826 21.848 16.5944C21.64 16.3078 16.9901 13.6114 16.496 13.4907C16.2958 13.442 15.296 13.9231 13.6075 14.8809ZM18.3164 16.706L19.9872 17.6815V21.9187L19.4153 22.3095C19.1009 22.5243 18.2767 23.0048 17.5839 23.3771L16.3244 24.0538L14.7381 23.1632C12.4539 21.8808 12.6198 22.1384 12.6225 19.8783C12.6239 18.8163 12.675 17.8717 12.7364 17.7794C12.9264 17.4934 16.0201 15.7388 16.3417 15.7345C16.5088 15.7324 17.3974 16.1695 18.3164 16.706Z" fill="url(#paint0_linear_3351_1132)"/>
<path d="M16.0392 17.8023C16.088 17.7709 16.1445 17.7542 16.2023 17.7542H16.4811C16.5389 17.7542 16.5954 17.7709 16.6442 17.8023L18.0997 18.7408C18.1874 18.7973 18.2404 18.8953 18.2404 19.0005V20.8172C18.2404 20.9225 18.1874 21.0204 18.0997 21.0769L16.6442 22.0154C16.5954 22.0468 16.5389 22.0635 16.4811 22.0635H16.2023C16.1445 22.0635 16.088 22.0468 16.0392 22.0154L14.5837 21.0769C14.496 21.0204 14.443 20.9225 14.443 20.8172V19.0005C14.443 18.8953 14.496 18.7973 14.5837 18.7408L16.0392 17.8023Z" fill="url(#paint1_linear_3351_1132)"/>
<defs>
<linearGradient id="paint0_linear_3351_1132" x1="25.6834" y1="14.83" x2="6.89885" y2="24.3259" gradientUnits="userSpaceOnUse">
<stop stop-color="#F7273C"/>
<stop offset="0.473682" stop-color="#ED287C"/>
<stop offset="1" stop-color="#E229C4"/>
</linearGradient>
<linearGradient id="paint1_linear_3351_1132" x1="18.2406" y1="18.8677" x2="14.3964" y2="20.7785" gradientUnits="userSpaceOnUse">
<stop stop-color="#F7273C"/>
<stop offset="1" stop-color="#E229C4"/>
</linearGradient>
</defs>
</svg>
