<svg width="120" height="41" viewBox="0 0 120 41" fill="none" xmlns="http://www.w3.org/2000/svg">
<rect x="0.5" y="0.789062" width="119" height="39" rx="5.07929" fill="#FAFAFA"/>
<rect x="0.5" y="0.789062" width="119" height="39" rx="5.07929" stroke="#DEE1E4"/>
<path d="M22.0534 14.7721C21.2351 13.5975 19.4934 13.6077 18.6889 14.7919L13.2019 22.8684C12.2808 24.2241 13.2519 26.0578 14.8909 26.0578L29.916 26.0578L22.0534 14.7721Z" fill="#2926B1"/>
<path d="M25.3763 14.7722C26.1946 13.5975 27.9363 13.6077 28.7408 14.7919L34.2278 22.8683C35.1489 24.2241 34.1778 26.0578 32.5388 26.0578L17.5137 26.0578L25.3763 14.7722Z" fill="url(#paint0_linear_3351_1117)"/>
<path fill-rule="evenodd" clip-rule="evenodd" d="M75.6102 16.5692L75.566 18.6139L76.059 18.2567C77.0587 17.5325 78.5715 17.3576 79.5334 17.8549C80.5003 18.3549 80.9667 19.78 80.8648 21.9224C80.7759 23.7906 80.152 24.8823 78.9272 25.313C78.0478 25.6222 75.0218 25.4575 73.9256 25.0407L73.6246 24.9264V19.8088C73.6246 16.9942 73.6622 14.6538 73.7082 14.608C73.754 14.562 74.2108 14.5244 74.7229 14.5244H75.6544L75.6102 16.5692ZM97.3594 17.4992V20.4114L97.7351 20.4051C98.0631 20.3996 98.2362 20.2325 99.0975 19.0899L100.084 17.7809H101.133C101.71 17.7809 102.181 17.8103 102.181 17.8461C102.181 17.9472 99.8348 20.8769 99.6745 20.976C99.5762 21.0367 99.6066 21.1465 99.7734 21.3323C100.035 21.6242 102.432 25.1542 102.432 25.2481C102.432 25.2798 101.946 25.2893 101.352 25.2694L100.271 25.2332L99.1911 23.5157C98.1895 21.9233 98.0828 21.7978 97.7265 21.7935L97.3422 21.7889L97.3982 23.5424L97.4541 25.2958H96.436H95.418V19.9937C95.418 17.0774 95.4578 14.6515 95.5064 14.6029C95.5551 14.5543 95.9919 14.5308 96.4771 14.5507L97.3594 14.587V17.4992ZM104.865 14.7212C105.134 14.9896 105.127 15.9986 104.855 16.2993C104.612 16.5679 103.454 16.6233 103.209 16.3781C103.003 16.1731 103.009 14.6905 103.215 14.6073C103.59 14.4559 104.675 14.5307 104.865 14.7212ZM108.945 16.7163V17.7809H110.072H111.199V18.4698V19.1586H110.072H108.945V21.1973C108.945 23.7322 108.973 23.7929 110.127 23.7929H110.92L111.007 24.4922C111.055 24.8769 111.073 25.2139 111.045 25.241C111.018 25.2682 110.574 25.3531 110.058 25.4299C108.487 25.6636 107.513 25.2085 107.204 24.0961C107.129 23.826 107.067 22.6045 107.067 21.3818L107.066 19.1586H106.371H105.675L105.713 18.5011L105.751 17.8435L106.409 17.8057L107.066 17.7677V16.7098V15.6517H108.006H108.945V16.7163ZM46.0302 17.7738C46.3471 17.9177 46.6328 18.1637 46.753 18.3961L46.9518 18.7806L47.4815 18.3956C48.2004 17.8731 48.7491 17.6588 49.572 17.5792C50.14 17.5244 50.366 17.5648 50.82 17.8031C51.7912 18.3127 51.8313 18.4845 51.8313 22.1313V25.2958H50.8984H49.9657L49.9277 22.4211C49.8994 20.2702 49.849 19.5055 49.7271 19.3838C49.4339 19.0911 48.542 19.2126 47.7791 19.6491L47.0718 20.0538V22.6748V25.2958H46.1324H45.1931V22.4304C45.1931 19.1887 45.2 19.212 44.2413 19.2332C43.8672 19.2413 43.4924 19.3731 43.0081 19.6666L42.3123 20.0884V22.692V25.2958H41.373H40.4336V21.5384V17.7809H41.2477H42.0618V18.2819C42.0618 18.5574 42.0938 18.7829 42.1329 18.7829C42.1718 18.7829 42.3832 18.6486 42.6025 18.4845C43.8201 17.5735 45.0344 17.3217 46.0302 17.7738ZM58.4463 17.8489C59.4853 18.2646 60.0724 19.3553 59.9258 20.5972C59.8471 21.2638 59.6035 21.6792 59.0484 22.0936C58.7438 22.3211 58.4826 22.3565 56.8201 22.3971L54.9368 22.443L55.0154 22.8361C55.0584 23.0524 55.235 23.3701 55.4076 23.5424C55.7165 23.8505 55.7522 23.8552 57.6471 23.8422L59.5727 23.8291L59.6473 24.2023C59.8004 24.9677 59.7648 25.0256 59.0018 25.254C58.5013 25.4039 57.8204 25.4718 56.7698 25.4767C55.3286 25.4833 55.2238 25.4662 54.5196 25.1061C53.5327 24.6015 53.1364 23.9678 52.9325 22.5685C52.8174 21.7791 52.8162 21.3057 52.9275 20.5423C53.1996 18.6747 53.8627 17.9437 55.5887 17.6088C56.1806 17.4941 57.9259 17.6406 58.4463 17.8489ZM66.256 17.6594C66.5121 17.7305 66.8843 17.9795 67.0975 18.2223C67.3078 18.4617 67.504 18.6576 67.5336 18.6576C67.5632 18.6576 67.8746 18.4645 68.2254 18.2283C69.3831 17.4494 70.8658 17.3528 71.6421 18.006C72.3262 18.5816 72.3721 18.8475 72.3721 22.2232V25.2958H71.4328H70.4934V22.6089C70.4934 19.5775 70.4416 19.3325 69.7741 19.2072C69.4313 19.143 69.1738 19.213 68.5095 19.551L67.6753 19.9756L67.6415 22.6358L67.6077 25.2958H66.6708H65.7339V22.5017C65.7339 19.2704 65.7183 19.2141 64.823 19.2328C64.4422 19.2408 64.0456 19.3716 63.5605 19.6491L62.8532 20.0538V22.6748V25.2958H61.9138H60.9745V21.5324V17.769L61.7573 17.8062L62.5401 17.8435L62.6027 18.3256L62.6653 18.8078L62.9831 18.5567C64.0352 17.7255 65.2725 17.3862 66.256 17.6594ZM86.6974 17.7074C87.5218 17.9014 87.9645 18.1819 88.358 18.7597C88.9377 19.6112 88.8353 21.1984 88.1586 21.8466C87.6846 22.3008 87.1301 22.4086 85.2503 22.4121L83.6621 22.4151L83.7648 22.7735C84.0723 23.8455 84.4479 23.9845 86.7389 23.8746C88.0245 23.8129 88.4044 23.8302 88.4054 23.9504C88.4062 24.036 88.4411 24.3138 88.4832 24.5678L88.5595 25.0296L87.8243 25.2496C87.3042 25.4053 86.6487 25.4708 85.5859 25.4732C84.2828 25.4762 83.9972 25.4383 83.4377 25.1883C82.2323 24.6494 81.7772 23.8085 81.6747 21.93C81.5709 20.0321 82.0241 18.693 82.9821 18.0652C83.7177 17.5833 85.4574 17.4157 86.6974 17.7074ZM94.8494 18.0627C94.6564 19.5166 94.719 19.4085 94.0659 19.4154C93.7418 19.4189 93.0821 19.548 92.5999 19.7022L91.7231 19.9828L91.6893 22.6393L91.6555 25.2958H90.7187H89.7818V21.5384V17.7809H90.5173H91.2527L91.3349 18.294L91.4169 18.8072L91.7471 18.5909C92.8538 17.8657 93.6668 17.5563 94.5114 17.5388L94.92 17.5304L94.8494 18.0627ZM104.937 21.5384V25.2958H103.998H103.058V21.5384V17.7809H103.998H104.937V21.5384ZM55.4923 19.3529C55.1375 19.6015 55.0126 19.8456 54.9034 20.5051L54.8152 21.0374H56.18C57.8168 21.0374 58.0027 20.9477 58.0027 20.1585C58.0027 19.3827 57.6893 19.1586 56.6048 19.1586C56.0529 19.1586 55.6757 19.2245 55.4923 19.3529ZM76.4002 19.5442L75.6286 19.9297V21.8466C75.6286 24.0639 75.5235 23.9133 77.0724 23.9164C78.5404 23.9192 78.8851 23.4594 78.8851 21.4984C78.8851 20.0255 78.7354 19.5637 78.1833 19.333C77.5724 19.0777 77.2594 19.1148 76.4002 19.5442ZM84.3164 19.3052C84.0017 19.4575 83.802 19.8525 83.692 20.5405L83.6125 21.0374H84.9519C86.6331 21.0374 86.7758 20.969 86.7758 20.1634C86.7758 19.3456 86.5135 19.1556 85.4014 19.1672C84.9518 19.1718 84.4636 19.2339 84.3164 19.3052Z" fill="black"/>
<defs>
<linearGradient id="paint0_linear_3351_1117" x1="17.5171" y1="26.0802" x2="34.3005" y2="26.0802" gradientUnits="userSpaceOnUse">
<stop stop-color="#59F7F0"/>
<stop offset="1" stop-color="#D7A1F7"/>
</linearGradient>
</defs>
</svg>
