<svg width="120" height="41" viewBox="0 0 120 41" fill="none" xmlns="http://www.w3.org/2000/svg">
<rect x="0.5" y="0.789062" width="119" height="39" rx="5.07929" fill="#FAFAFA"/>
<rect x="0.5" y="0.789062" width="119" height="39" rx="5.07929" stroke="#DEE1E4"/>
<path fill-rule="evenodd" clip-rule="evenodd" d="M28.4061 8.39553C27.3985 8.54751 26.2007 9.03809 25.3974 9.62773C24.4775 10.3031 23.6401 11.4409 23.2627 12.5283C22.4679 14.8188 22.9199 17.0394 24.5748 18.9746C24.8435 19.2888 25.064 19.5718 25.0646 19.6034C25.0653 19.6349 24.5417 20.5427 23.901 21.6206L22.7363 23.5805L22.2089 23.6761C21.4848 23.8073 20.9283 24.0964 20.4955 24.5659C19.9921 25.112 19.796 25.5814 19.7937 26.2451C19.79 27.2948 20.3096 28.1914 21.2105 28.6906C21.6236 28.9194 21.7682 28.9513 22.3848 28.9501C22.9132 28.9492 23.189 28.9025 23.4943 28.7623C24.0228 28.5197 24.592 28.0005 24.8224 27.551C25.0813 27.0459 25.1337 26.0805 24.9345 25.481C24.8429 25.2052 24.7997 24.8856 24.8267 24.6844C24.8573 24.4558 25.4084 23.4491 26.551 21.5346C27.4746 19.9869 28.2303 18.6841 28.2303 18.6394C28.2303 18.5948 27.9646 18.4047 27.6397 18.2171C26.7718 17.7157 25.9221 16.8478 25.5753 16.1086C25.3176 15.5595 25.2916 15.428 25.2983 14.7114C25.3097 13.5043 25.6614 12.6763 26.5239 11.8261C28.0128 10.3581 30.5806 10.4391 32.0061 11.9988C32.8245 12.8943 33.1087 13.7182 33.0463 15.0141L33.0058 15.8556L34.0606 16.1407C34.6409 16.2975 35.1276 16.4138 35.1425 16.399C35.1572 16.3841 35.2348 16.1171 35.3148 15.8054C35.5242 14.9897 35.4461 13.5315 35.1464 12.6626C34.389 10.4667 32.5283 8.86835 30.2574 8.46321C29.625 8.35035 28.885 8.32336 28.4061 8.39553ZM28.6464 12.2095C27.8686 12.4031 27.2077 12.9405 26.8127 13.7005C26.4993 14.3035 26.5164 15.3238 26.8512 16.0056C27.1995 16.7149 27.6691 17.0858 28.5643 17.359C29.0018 17.4924 29.4021 17.6778 29.5539 17.8174C29.6941 17.9462 30.5067 19.2976 31.3594 20.8205C32.2122 22.3434 32.9383 23.6204 32.9728 23.6583C33.0073 23.6961 33.3009 23.5719 33.6254 23.3823C34.5179 22.8608 35.3364 22.6225 36.2343 22.6227C36.9262 22.6229 37.0397 22.6492 37.6546 22.9531C38.4658 23.354 39.1233 24.0294 39.5149 24.864C39.8817 25.6459 39.9428 26.7578 39.6684 27.6607C39.344 28.7291 38.5478 29.6256 37.4895 30.1139C37.0475 30.318 36.8671 30.3499 36.1854 30.3443C35.3037 30.337 34.741 30.175 33.7998 29.6576L33.2485 29.3547L32.371 30.076C31.8884 30.4728 31.501 30.8247 31.5101 30.8581C31.5566 31.0291 32.7285 31.8532 33.3592 32.1584C35.6516 33.268 38.385 32.8299 40.2712 31.0505C42.7002 28.759 42.9201 24.9626 40.7715 22.4107C39.9251 21.4053 38.786 20.7058 37.4419 20.366C36.8351 20.2125 36.5476 20.1905 35.6607 20.2294C35.0791 20.255 34.4154 20.3351 34.1859 20.4077L33.7686 20.5395L32.6256 18.5255C31.997 17.4179 31.4827 16.4625 31.4827 16.4026C31.4827 16.3426 31.5678 16.076 31.6719 15.8101C32.0801 14.7666 31.8518 13.7138 31.0409 12.9001C30.4574 12.3145 29.4228 12.0162 28.6464 12.2095ZM61.4572 20.2052V24.7761H62.3362H63.2152V24.3922V24.0081L63.5891 24.382C64.0226 24.8155 64.416 24.9507 65.2458 24.9514C66.1803 24.9522 66.8376 24.6366 67.3304 23.9505C68.4143 22.4412 68.314 19.7739 67.1295 18.6063C66.1677 17.6582 64.6056 17.5898 63.6251 18.453L63.2152 18.8137V17.224V15.6343H62.3362H61.4572V20.2052ZM69.0167 20.2052V24.7761H69.8957H70.7748V22.7704C70.7748 20.4433 70.8481 20.039 71.3502 19.5982C71.7417 19.2544 72.4401 19.1965 72.8698 19.472C73.28 19.7351 73.3239 20.0269 73.3239 22.4879V24.7761H74.2545H75.1851L75.1545 22.0731C75.1254 19.508 75.1142 19.3522 74.9352 19.0185C74.5446 18.2907 73.9345 17.9149 73.0401 17.8509C72.2301 17.7928 71.7415 17.9459 71.2096 18.4241L70.7748 18.8151V17.2247V15.6343H69.8957H69.0167V20.2052ZM91.3438 20.2052V24.7761H92.2228H93.1018V23.7326V22.6891L93.4373 22.311C93.6258 22.0985 93.8155 21.9593 93.8702 21.9931C93.9238 22.0263 94.3107 22.666 94.73 23.4148L95.4924 24.7761H96.548C97.432 24.7761 97.5957 24.7555 97.5549 24.6492C97.5281 24.5794 96.9716 23.6286 96.3181 22.5366L95.1301 20.5508L96.369 19.2793L97.6081 18.0077H96.5002H95.3923L94.2691 19.2891L93.1458 20.5705L93.1224 18.1024L93.0991 15.6343H92.2214H91.3438V20.2052ZM78.8055 17.8366C77.7137 17.9789 76.9427 18.5717 76.4102 19.6778C76.0995 20.3232 76.0928 20.3594 76.0941 21.3919C76.0952 22.287 76.1261 22.5233 76.2982 22.9523C76.8462 24.3181 77.954 25.0344 79.5245 25.0384C81.4793 25.0435 82.7902 23.7921 82.9619 21.7574C83.0923 20.21 82.295 18.5978 81.157 18.1081C80.7838 17.9476 79.705 17.7278 79.4331 17.7569C79.3847 17.762 79.1023 17.7979 78.8055 17.8366ZM86.3138 17.8392C85.5622 17.9493 84.9855 18.2346 84.53 18.7214C83.7964 19.5058 83.4646 20.5238 83.5451 21.7435C83.6869 23.8923 85.1186 25.1547 87.2563 25.0159C87.6682 24.9892 88.176 24.8884 88.4818 24.7727C89.9751 24.2077 90.815 22.2024 90.3333 20.3529C90.063 19.3149 89.3956 18.4381 88.6229 18.1057C88.2551 17.9475 87.178 17.7285 86.9047 17.7565C86.8564 17.7614 86.5905 17.7986 86.3138 17.8392ZM56.3149 17.9548C55.0577 18.3524 54.2915 19.274 54.0604 20.6665C53.941 21.3858 54.0313 22.4595 54.2634 23.0797C54.9662 24.9581 57.7997 25.6581 59.5884 24.3954C59.9631 24.1308 60.5135 23.4081 60.6204 23.0401C60.6774 22.8439 60.6704 22.8423 59.7591 22.8423C58.8781 22.8423 58.8344 22.8512 58.6976 23.0602C58.4087 23.5009 57.6318 23.7225 56.9854 23.5485C56.4425 23.4023 56.0142 22.9753 55.8772 22.4436C55.8153 22.2036 55.7821 21.9775 55.8032 21.9413C55.8245 21.9051 56.9529 21.8754 58.3109 21.8754H60.78L60.7286 21.1062C60.6175 19.4433 59.9026 18.4163 58.5695 18.0045C57.9254 17.8056 56.861 17.7821 56.3149 17.9548ZM99.4014 17.9843C98.8558 18.1662 98.1751 18.7776 97.9817 19.2596C97.796 19.7226 97.7867 20.5344 97.9632 20.8738C98.2754 21.4739 98.753 21.7217 100.488 22.1836C101.666 22.4973 101.835 22.5721 101.98 22.8428C102.226 23.3024 101.732 23.6466 100.83 23.6437C99.9404 23.6409 99.4307 23.3314 99.4307 22.7942C99.4307 22.6906 99.2554 22.6665 98.5 22.6665H97.5693L97.6295 23.0401C97.6625 23.2456 97.7846 23.5788 97.9008 23.7807C98.3517 24.5644 99.1033 24.9343 100.41 25.0158C101.869 25.1067 102.977 24.711 103.479 23.9193C103.711 23.5543 103.738 23.4361 103.738 22.8031C103.737 22.0047 103.608 21.7013 103.108 21.3215C102.709 21.0187 102.302 20.8689 101.014 20.552C99.834 20.2618 99.6065 20.1347 99.6065 19.7657C99.6065 19.4057 99.8885 19.2106 100.47 19.1686C101.154 19.1191 101.592 19.305 101.764 19.7186L101.894 20.0294H102.77H103.646L103.591 19.7437C103.347 18.4672 102.351 17.8257 100.63 17.8373C100.14 17.8406 99.6607 17.8979 99.4014 17.9843ZM44.3564 18.2463C44.3898 18.381 44.8098 19.8887 45.2897 21.5968C45.7696 23.3049 46.1623 24.7203 46.1623 24.7422C46.1623 24.7642 46.5851 24.7708 47.1018 24.7571L48.0413 24.7322L48.1048 24.4685C48.1398 24.3234 48.3756 23.245 48.629 22.0718C48.8824 20.8987 49.1067 19.9558 49.1274 19.9766C49.1482 19.9974 49.3809 21.0166 49.6444 22.2415C49.9079 23.4663 50.1447 24.5376 50.1706 24.6223C50.2115 24.756 50.3378 24.7761 51.1346 24.7761C51.639 24.7761 52.0517 24.7562 52.0517 24.7321C52.0517 24.6937 53.8191 18.5722 53.9488 18.1615C53.9929 18.0217 53.9134 18.0077 53.0756 18.0077H52.1536L52.021 18.601C51.948 18.9274 51.7175 19.9952 51.5085 20.9741C51.2996 21.9529 51.1081 22.7539 51.083 22.7541C51.0579 22.7543 50.8238 21.7358 50.5628 20.4909C50.3018 19.246 50.071 18.178 50.0497 18.1176C50.0223 18.0394 49.753 18.0077 49.1168 18.0077H48.2226L47.7453 20.4211C47.4827 21.7485 47.2556 22.8222 47.2406 22.8071C47.2254 22.7921 46.9833 21.7159 46.7024 20.4157L46.1917 18.0516L45.2437 18.0266L44.2958 18.0015L44.3564 18.2463ZM57.8008 19.3332C58.2425 19.4444 58.6145 19.7609 58.7859 20.171C59.0274 20.749 59.0687 20.7326 57.3697 20.7326C56.1967 20.7326 55.8319 20.7065 55.8334 20.6228C55.8372 20.4092 56.1628 19.8069 56.3855 19.6019C56.5844 19.4188 56.9598 19.2746 57.3088 19.2473C57.372 19.2423 57.5934 19.281 57.8008 19.3332ZM80.3114 19.4893C81.4263 20.1404 81.3992 22.7234 80.2707 23.3576C79.6276 23.7191 78.7248 23.5567 78.3129 23.0054C77.9656 22.5407 77.8706 22.1195 77.9121 21.2282C77.9518 20.3779 78.0681 20.0444 78.4555 19.6699C78.903 19.2373 79.7404 19.1558 80.3114 19.4893ZM87.5039 19.3657C87.9275 19.5167 88.1492 19.7172 88.3838 20.1613C88.5365 20.4502 88.57 20.67 88.5722 21.3939C88.5745 22.1696 88.548 22.3273 88.3499 22.7124C88.0358 23.3234 87.6097 23.5622 86.901 23.524C85.9181 23.4712 85.4535 22.8962 85.3849 21.6476C85.3162 20.396 85.7224 19.5627 86.5092 19.3409C86.9313 19.2219 87.1136 19.2264 87.5039 19.3657ZM65.502 19.6119C65.9659 19.9272 66.155 20.3895 66.1912 21.2973C66.2278 22.2135 66.122 22.6412 65.756 23.0582C65.2159 23.6733 64.2943 23.6965 63.7355 23.1091C63.3173 22.6695 63.1841 22.1636 63.2306 21.1912C63.2725 20.3147 63.4693 19.8762 63.9531 19.5812C64.351 19.3386 65.1223 19.3539 65.502 19.6119ZM20.2287 20.4199C18.2717 21.1411 16.7567 22.8176 16.2125 24.864C16.0085 25.631 16.0134 27.1663 16.2222 27.9329C16.6933 29.6619 17.9928 31.2394 19.5883 32.0193C20.5349 32.482 21.196 32.6309 22.2969 32.6294C23.4407 32.6279 24.1005 32.4756 25.1098 31.9803C26.7083 31.1958 27.7547 29.9734 28.3556 28.1886L28.5723 27.545L30.9285 27.5226L33.2846 27.5002L33.4981 27.8146C34.2358 28.9014 35.4062 29.3183 36.6677 28.9436C37.2902 28.7588 38.0658 28.0043 38.2796 27.3755C38.6046 26.4197 38.4064 25.4173 37.7475 24.6843C37.2771 24.1612 36.8947 23.9477 36.1964 23.8187C35.3333 23.6591 34.5124 23.9489 33.8682 24.6404C33.2766 25.2754 33.4005 25.2566 29.6147 25.2863L26.2086 25.313L26.2068 25.7258C26.1994 27.4829 25.5706 28.9368 24.5259 29.6119C23.8084 30.0756 23.0729 30.2573 22.1011 30.2108C21.4307 30.1788 21.2262 30.1289 20.6655 29.8609C19.5385 29.3222 18.8359 28.4392 18.5092 27.1508C18.1898 25.8918 18.5593 24.7373 19.6045 23.7284C20.0974 23.2526 21.0494 22.5842 21.4014 22.4668C21.4456 22.4522 21.35 21.957 21.1888 21.3666C20.8661 20.1845 20.8664 20.1848 20.2287 20.4199Z" fill="#181818"/>
</svg>
