<svg width="120" height="41" viewBox="0 0 120 41" fill="none" xmlns="http://www.w3.org/2000/svg">
<rect x="0.5" y="0.789062" width="119" height="39" rx="5.07929" fill="#FAFAFA"/>
<rect x="0.5" y="0.789062" width="119" height="39" rx="5.07929" stroke="#DEE1E4"/>
<path fill-rule="evenodd" clip-rule="evenodd" d="M27.21 9.10939C24.7535 9.55853 22.7215 10.6456 21.0284 12.4167C19.6166 13.8935 18.8118 15.3431 18.226 17.4648C18.0488 18.1064 18.014 18.5239 18.0137 20.0147C18.0134 21.6169 18.0403 21.8975 18.2793 22.7861C18.9887 25.4224 20.6442 27.7535 22.8396 29.2069C28.8889 33.2118 36.9647 30.5445 39.3973 23.7383C40.8074 19.7931 39.8923 15.476 37.0031 12.4439C36.0083 11.3999 35.1382 10.7543 33.8907 10.1345C32.3018 9.34522 31.2684 9.10297 29.3066 9.05988C28.4101 9.04022 27.4667 9.06253 27.21 9.10939ZM31.4458 13.3867L33.6869 14.6948L33.714 17.3939L33.7411 20.0929L32.9112 20.5631C32.4547 20.8218 32.0415 21.0334 31.9928 21.0334C31.9441 21.0334 31.9042 19.852 31.9042 18.4082V15.7829L30.147 14.771C29.1805 14.2144 28.1452 13.6127 27.8462 13.4339L27.3025 13.1089L28.1518 12.5981C28.6189 12.317 29.0468 12.0853 29.1028 12.0828C29.1589 12.0805 30.2132 12.6672 31.4458 13.3867ZM29.0705 14.8072L31.344 16.1194L31.3731 17.1626C31.4001 18.1285 31.3889 18.2005 31.2203 18.1359C31.1203 18.0976 30.09 17.5191 28.9307 16.8503C27.7715 16.1814 26.7786 15.6343 26.7241 15.6343C26.6697 15.6343 25.6323 16.2073 24.4189 16.9077C23.2054 17.608 22.1929 18.181 22.1687 18.181C22.1446 18.181 22.1254 17.7112 22.1262 17.1369L22.1277 16.0927L24.3916 14.7939C25.6367 14.0795 26.6874 13.4951 26.7263 13.4951C26.7652 13.4951 27.8201 14.0855 29.0705 14.8072ZM35.0383 15.7833L35.8804 16.2653L35.8533 18.979L35.8262 21.6928L33.5612 23.0009L31.2962 24.3089L30.4318 23.8171C29.9564 23.5467 29.579 23.2866 29.5931 23.239C29.6073 23.1916 30.6144 22.5771 31.8312 21.8736L34.0435 20.5945V17.9047C34.0435 16.4252 34.0779 15.2343 34.1199 15.2581C34.1619 15.2819 34.5752 15.5183 35.0383 15.7833ZM28.5226 17.0128C28.5396 17.0265 27.5214 17.6272 26.2599 18.3478L23.9661 19.6581L23.9623 22.3322C23.9602 23.803 23.924 25.0046 23.882 25.0026C23.8401 25.0006 23.4389 24.7808 22.9907 24.5143L22.1757 24.0298L22.1486 21.3226L22.1215 18.6154L24.4278 17.2869L26.734 15.9585L27.6128 16.4733C28.0962 16.7564 28.5056 16.9993 28.5226 17.0128ZM46.9809 16.0698C46.9809 16.0852 47.986 18.3658 49.2146 21.1378L51.4482 26.1778L52.1433 26.2061L52.8383 26.2345L54.5893 22.2841C55.5522 20.1115 56.5708 17.816 56.8528 17.1832L57.3655 16.0326L56.6941 16.0627L56.0227 16.0927L54.134 20.3458C53.0953 22.6849 52.2151 24.5988 52.178 24.5988C52.1409 24.5988 51.2659 22.6735 50.2334 20.3203L48.3563 16.0418H47.6686C47.2903 16.0418 46.9809 16.0544 46.9809 16.0698ZM61.5481 16.2339C60.1379 16.6899 59.2081 17.4742 58.5936 18.7262C56.9831 22.0082 58.8584 25.7254 62.3757 26.2228C65.0718 26.6041 67.4677 25.0956 68.1153 22.6088C68.3155 21.8403 68.3155 20.4302 68.1153 19.6617C67.6885 18.0229 66.4634 16.7486 64.8301 16.244C63.9689 15.978 62.3548 15.973 61.5481 16.2339ZM69.4939 16.0864C69.4939 16.1158 70.1252 16.9544 70.8967 17.95C71.6682 18.9455 72.5137 20.0397 72.7757 20.3816L73.2518 21.0031L71.2709 23.5745C70.1816 24.9887 69.2902 26.1644 69.2902 26.1872C69.2902 26.2101 69.6226 26.2266 70.0287 26.2238L70.7673 26.219L72.3876 24.0802C73.2789 22.9038 74.0396 21.9777 74.0784 22.0221C74.117 22.0666 74.8499 23.0313 75.707 24.1658L77.2655 26.2287H78.0272C78.6224 26.2287 78.767 26.2009 78.6882 26.1014C77.5225 24.628 74.8557 21.1543 74.8205 21.0633C74.7942 20.9958 75.5906 19.8832 76.5901 18.5909C77.5897 17.2984 78.4228 16.1962 78.4414 16.1414C78.4614 16.0828 78.1886 16.0421 77.7793 16.0425L77.0832 16.0432L75.5629 18.0316C74.4798 19.4481 74.0111 19.9886 73.933 19.9109C73.8727 19.8509 73.1803 18.9673 72.3943 17.9472L70.965 16.0927L70.2295 16.0628C69.8249 16.0464 69.4939 16.057 69.4939 16.0864ZM80.8227 19.6327C80.8586 23.0941 80.8682 23.2447 81.0939 23.8126C81.7524 25.4701 83.0557 26.271 85.0799 26.2619C85.8194 26.2585 86.1823 26.2057 86.6186 26.0376C87.4213 25.7284 88.0601 25.2797 88.4028 24.7843L88.6963 24.3601L88.7256 25.2991L88.7549 26.2382L89.3878 26.208L90.0206 26.1778V21.1352V16.0927H89.3584H88.6963L88.6392 19.3525C88.5787 22.8095 88.5553 22.9835 88.0492 23.7287C86.9686 25.3199 84.0879 25.5635 82.8908 24.165C82.2219 23.3834 82.1923 23.1951 82.1495 19.4289L82.111 16.0418H81.4483H80.7854L80.8227 19.6327ZM92.2018 16.4747C92.3049 16.7129 93.3117 18.9654 94.4392 21.4806C95.5667 23.9956 96.4893 26.1239 96.4893 26.2101C96.4893 26.5889 95.6635 28.0557 95.2518 28.4081C94.5433 29.0146 93.5135 29.0458 92.616 28.4878L92.1054 28.1704L91.8079 28.6484C91.4572 29.2117 91.4825 29.2645 92.2919 29.6606C92.7564 29.8877 93.0371 29.9469 93.813 29.9808C94.7167 30.0204 94.7972 30.0063 95.4203 29.6995C96.1585 29.3361 96.6071 28.853 97.0824 27.9095C97.3371 27.4039 101.8 17.4594 102.26 16.3729L102.4 16.0418H101.748H101.096L99.2387 20.2439C98.2172 22.5551 97.3491 24.5061 97.3098 24.5795C97.2675 24.6585 96.4541 22.9399 95.3211 20.3774L93.404 16.0418H92.7091H92.0142L92.2018 16.4747ZM64.2958 17.3237C65.363 17.6407 66.2452 18.449 66.6604 19.4904C66.9916 20.3209 66.9897 21.9541 66.6567 22.7903C65.6484 25.3217 62.1146 25.9071 60.2971 23.8437C60.194 23.7268 59.9635 23.3331 59.7848 22.9689C59.4766 22.341 59.4598 22.2461 59.4598 21.1352C59.4598 20.0717 59.4855 19.9089 59.7384 19.369C60.0651 18.6717 60.407 18.2419 60.9569 17.8373C61.7994 17.2175 63.2082 17.0008 64.2958 17.3237ZM28.4916 25.7744C29.7504 26.5005 30.7811 27.1241 30.782 27.1601C30.784 27.2367 29.1709 28.1642 29.0358 28.1642C28.9856 28.1642 27.9373 27.5843 26.7062 26.8755L24.4678 25.5868V22.8707V20.1545L25.3082 19.6805L26.1486 19.2065L26.1757 21.8303L26.2028 24.4541L28.4916 25.7744ZM28.9011 23.3254C30.1145 24.0258 31.1556 24.5988 31.2147 24.5988C31.2737 24.5988 32.2896 24.0424 33.4722 23.3623C34.6548 22.6822 35.6568 22.1065 35.6989 22.0829C35.7409 22.0593 35.7753 22.5172 35.7753 23.1003V24.1607L33.5369 25.4493C32.3058 26.1581 31.2641 26.738 31.2221 26.738C31.1801 26.738 30.1251 26.1535 28.8779 25.4392L26.6102 24.1404L26.6086 23.0962C26.6078 22.522 26.6268 22.0521 26.651 22.0521C26.6751 22.0521 27.6877 22.6251 28.9011 23.3254Z" fill="#2962FF"/>
</svg>
