<svg width="277" height="143" viewBox="0 0 277 143" fill="none" xmlns="http://www.w3.org/2000/svg">
<rect x="2.47429" y="0.398119" width="271.363" height="142.204" rx="20.8349" fill="#FAFAFA" stroke="#171717" stroke-width="0.796237"/>
<path d="M212.388 17.2397L212.786 17.0277C215.716 15.4689 218.562 15.0496 221.267 15.3999C224.806 15.8582 228.14 17.6386 231.145 19.9876C236.214 23.9504 240.285 29.4739 242.799 32.8848L242.811 32.9012C243.281 33.5391 243.694 34.1 244.051 34.5654C244.051 34.566 244.052 34.5667 244.052 34.5673L244.055 34.5705C244.055 34.5711 244.056 34.5718 244.056 34.5725C246.947 38.2209 251.819 43.7258 257.045 48.3919C259.659 50.7253 262.366 52.8534 264.962 54.4346C266.175 55.1735 267.374 55.7989 268.534 56.269L268.865 56.403L268.846 56.7592C268.842 56.8239 268.841 56.8891 268.841 56.9547C268.841 58.896 270.385 60.4547 272.271 60.4547C274.157 60.4547 275.701 58.896 275.701 56.9547C275.701 55.0133 274.157 53.4547 272.271 53.4547C270.9 53.4547 269.712 54.2756 269.163 55.4719L268.961 55.911L268.515 55.7245C267.453 55.28 266.342 54.6979 265.199 54.0015C262.635 52.4403 259.952 50.3324 257.351 48.0102C252.151 43.3679 247.3 37.8863 244.422 34.2547L244.417 34.2483C244.075 33.8017 243.674 33.2572 243.222 32.6431L243.217 32.6368L243.216 32.6357L212.388 17.2397ZM212.388 17.2397L212.558 17.6578M212.388 17.2397L212.558 17.6578M212.558 17.6578C212.726 18.0703 212.819 18.5234 212.819 19C212.819 20.9413 211.275 22.5 209.389 22.5C208.767 22.5 208.184 22.3313 207.681 22.0361L207.306 21.816L207.036 22.1566C206.84 22.4048 206.636 22.665 206.425 22.9369C204.78 25.0637 202.771 27.8411 200.533 31.0468C196.058 37.4576 190.671 45.572 185.439 53.5983C177.556 65.6921 170.001 77.6265 166.49 83.1737L166.489 83.1754C165.345 84.982 164.637 86.1015 164.481 86.3357C161.183 91.2909 153.01 101.941 139.714 101.941C136.455 101.941 133.196 100.287 130.094 97.7029C126.99 95.1171 124.02 91.5819 121.333 87.7753C115.959 80.1617 111.693 71.4263 109.733 66.9221C109.162 65.6087 108.643 64.1563 108.108 62.6572C107.918 62.1246 107.726 61.5864 107.53 61.0495C106.775 58.9856 105.936 56.879 104.82 54.8984C102.595 50.9477 99.2643 47.4915 93.2789 45.9251C90.319 45.1504 87.1298 45.77 83.9116 47.233C80.6943 48.6957 77.4683 50.9923 74.448 53.5393C71.4288 56.0854 68.6233 58.8747 66.2454 61.3169C65.636 61.9428 65.0513 62.5495 64.4972 63.1245C62.9009 64.781 61.5722 66.1592 60.608 67.0097C57.9356 69.367 53.6115 69.798 49.6207 69.4448C45.6209 69.0908 41.8657 67.9403 40.2704 67.0383C38.7461 66.1764 36.9494 65.2992 34.6259 64.8176C32.3017 64.3359 29.4753 64.2549 25.8886 64.9503C24.4768 65.224 22.7191 66.0658 20.7879 67.2719C18.8612 68.4753 16.7801 70.0295 14.7252 71.7094C11.9271 73.9968 9.18535 76.5109 6.95871 78.6761L6.66217 78.9644L6.88983 79.3097C7.25686 79.8665 7.47153 80.5369 7.47153 81.2605C7.47153 83.2018 5.92755 84.7605 4.04143 84.7605C2.15531 84.7605 0.611328 83.2018 0.611328 81.2605C0.611328 79.3191 2.15531 77.7605 4.04143 77.7605C4.76299 77.7605 5.43175 77.9873 5.98448 78.3758L6.32355 78.6141L6.62063 78.3251C8.86202 76.1448 11.6206 73.6151 14.4352 71.3141C16.499 69.627 18.5971 68.0593 20.5468 66.8416C22.4918 65.6268 24.3076 64.7484 25.8032 64.4585C33.136 63.0369 37.3437 64.8163 40.4939 66.5975C42.0135 67.4568 45.6996 68.596 49.6602 68.9465C53.6297 69.2978 57.7851 68.8482 60.3042 66.6261C61.2539 65.7885 62.545 64.4488 64.0993 62.836L64.1181 62.8165L64.1181 62.8165C64.6814 62.232 65.281 61.6098 65.9151 60.9586C68.2961 58.5132 71.1148 55.7104 74.1524 53.1487C77.1888 50.5881 80.4523 48.2613 83.7244 46.7738C86.9958 45.2866 90.2959 44.6293 93.3927 45.4398C99.5209 47.0436 102.949 50.5974 105.228 54.6432C106.364 56.6608 107.214 58.7989 107.972 60.8696C108.177 61.4307 108.374 61.9836 108.568 62.5265L108.572 62.5366C109.097 64.008 109.6 65.4174 110.164 66.7137C112.116 71.1998 116.366 79.9012 121.713 87.4768C124.386 91.2648 127.328 94.7623 130.387 97.3105C133.449 99.8608 136.606 101.441 139.714 101.441C152.757 101.441 160.805 90.9893 164.093 86.0485C164.259 85.7989 164.973 84.6707 166.102 82.8873L166.122 82.8555C169.627 77.3181 177.144 65.442 185.049 53.3151C190.281 45.2874 195.672 37.1677 200.152 30.7504C202.392 27.5419 204.405 24.7569 206.059 22.6208C206.279 22.336 206.494 22.0615 206.703 21.7981L206.947 21.4898L206.705 21.1796C206.238 20.5821 205.959 19.8255 205.959 19C205.959 17.0587 207.503 15.5 209.389 15.5C210.35 15.5 211.22 15.903 211.845 16.5565L212.109 16.8327M212.558 17.6578L212.109 16.8327M212.109 16.8327L212.445 16.6504M212.109 16.8327L212.445 16.6504M212.445 16.6504C215.49 14.998 218.47 14.534 221.324 14.9036C224.974 15.3761 228.384 17.2071 231.427 19.5858C236.56 23.5987 240.708 29.228 243.216 32.6348L212.445 16.6504Z" fill="#FAFAFA" stroke="#171717"/>
<path d="M18.3429 17.622C18.3429 15.83 19.8269 14.584 21.9829 14.584C24.0549 14.584 25.3709 15.732 25.4269 17.58H23.6349C23.5929 16.698 22.9629 16.18 21.9549 16.18C20.8489 16.18 20.1349 16.712 20.1349 17.566C20.1349 18.294 20.5269 18.7 21.3809 18.896L22.9909 19.246C24.7409 19.624 25.5949 20.52 25.5949 22.046C25.5949 23.95 24.1109 25.182 21.8569 25.182C19.6729 25.182 18.2449 24.02 18.2029 22.186H19.9949C20.0089 23.054 20.7089 23.572 21.8569 23.572C23.0469 23.572 23.8029 23.054 23.8029 22.2C23.8029 21.514 23.4529 21.108 22.6129 20.926L20.9889 20.562C19.2529 20.184 18.3429 19.19 18.3429 17.622ZM31.654 18.084H33.362V25H31.78L31.654 24.076C31.234 24.734 30.338 25.182 29.414 25.182C27.818 25.182 26.88 24.104 26.88 22.41V18.084H28.588V21.808C28.588 23.124 29.106 23.656 30.058 23.656C31.136 23.656 31.654 23.026 31.654 21.71V18.084ZM37.1841 25.182C35.7141 25.182 34.8181 24.328 34.8181 23.026C34.8181 21.752 35.7421 20.954 37.3801 20.828L39.4521 20.674V20.52C39.4521 19.582 38.8921 19.204 38.0241 19.204C37.0161 19.204 36.4561 19.624 36.4561 20.352H35.0001C35.0001 18.854 36.2321 17.874 38.1081 17.874C39.9701 17.874 41.1181 18.882 41.1181 20.8V25H39.6201L39.4941 23.978C39.2001 24.692 38.2621 25.182 37.1841 25.182ZM37.7441 23.894C38.7941 23.894 39.4661 23.264 39.4661 22.2V21.836L38.0241 21.948C36.9601 22.046 36.5541 22.396 36.5541 22.956C36.5541 23.586 36.9741 23.894 37.7441 23.894ZM42.2641 22.9H43.8881C43.9021 23.502 44.3501 23.88 45.1341 23.88C45.9321 23.88 46.3661 23.558 46.3661 23.054C46.3661 22.704 46.1841 22.452 45.5681 22.312L44.3221 22.018C43.0761 21.738 42.4741 21.15 42.4741 20.044C42.4741 18.686 43.6221 17.874 45.2181 17.874C46.7721 17.874 47.8221 18.77 47.8361 20.114H46.2121C46.1981 19.526 45.8061 19.148 45.1481 19.148C44.4761 19.148 44.0841 19.456 44.0841 19.974C44.0841 20.366 44.3921 20.618 44.9801 20.758L46.2261 21.052C47.3881 21.318 47.9761 21.85 47.9761 22.914C47.9761 24.314 46.7861 25.182 45.0781 25.182C43.3561 25.182 42.2641 24.258 42.2641 22.9ZM20.6389 41L17.8949 34.084H19.7149L20.9189 37.262C21.2129 38.088 21.4509 38.802 21.5349 39.18C21.6329 38.746 21.8849 38.018 22.1789 37.262L23.4389 34.084H25.2029L22.3189 41H20.6389ZM28.9369 41.182C26.8789 41.182 25.4369 39.684 25.4369 37.542C25.4369 35.372 26.8509 33.874 28.8809 33.874C30.9529 33.874 32.2689 35.26 32.2689 37.416V37.934L27.0609 37.948C27.1869 39.166 27.8309 39.782 28.9649 39.782C29.9029 39.782 30.5189 39.418 30.7149 38.76H32.2969C32.0029 40.272 30.7429 41.182 28.9369 41.182ZM28.8949 35.274C27.8869 35.274 27.2709 35.82 27.1029 36.856H30.5749C30.5749 35.904 29.9169 35.274 28.8949 35.274ZM35.3439 41H33.6359V34.084H35.2179L35.3579 34.98C35.7919 34.28 36.6319 33.874 37.5699 33.874C39.3059 33.874 40.2019 34.952 40.2019 36.744V41H38.4939V37.15C38.4939 35.988 37.9199 35.428 37.0379 35.428C35.9879 35.428 35.3439 36.156 35.3439 37.276V41ZM44.722 41.182C42.72 41.182 41.474 39.712 41.474 37.57C41.474 35.414 42.734 33.874 44.82 33.874C45.786 33.874 46.64 34.28 47.074 34.966V30.584H48.768V41H47.2L47.088 39.922C46.668 40.72 45.772 41.182 44.722 41.182ZM45.1 39.614C46.29 39.614 47.06 38.76 47.06 37.514C47.06 36.268 46.29 35.4 45.1 35.4C43.91 35.4 43.182 36.282 43.182 37.514C43.182 38.746 43.91 39.614 45.1 39.614ZM52.606 41.182C51.136 41.182 50.24 40.328 50.24 39.026C50.24 37.752 51.164 36.954 52.802 36.828L54.874 36.674V36.52C54.874 35.582 54.314 35.204 53.446 35.204C52.438 35.204 51.878 35.624 51.878 36.352H50.422C50.422 34.854 51.654 33.874 53.53 33.874C55.392 33.874 56.54 34.882 56.54 36.8V41H55.042L54.916 39.978C54.622 40.692 53.684 41.182 52.606 41.182ZM53.166 39.894C54.216 39.894 54.888 39.264 54.888 38.2V37.836L53.446 37.948C52.382 38.046 51.976 38.396 51.976 38.956C51.976 39.586 52.396 39.894 53.166 39.894ZM57.6859 38.9H59.3099C59.3239 39.502 59.7719 39.88 60.5559 39.88C61.3539 39.88 61.7879 39.558 61.7879 39.054C61.7879 38.704 61.6059 38.452 60.9899 38.312L59.7439 38.018C58.4979 37.738 57.8959 37.15 57.8959 36.044C57.8959 34.686 59.0439 33.874 60.6399 33.874C62.1939 33.874 63.2439 34.77 63.2579 36.114H61.6339C61.6199 35.526 61.2279 35.148 60.5699 35.148C59.8979 35.148 59.5059 35.456 59.5059 35.974C59.5059 36.366 59.8139 36.618 60.4019 36.758L61.6479 37.052C62.8099 37.318 63.3979 37.85 63.3979 38.914C63.3979 40.314 62.2079 41.182 60.4999 41.182C58.7779 41.182 57.6859 40.258 57.6859 38.9Z" fill="#171717"/>
<rect x="123.426" y="12.5" width="77" height="15" rx="7.5" stroke="#171717"/>
<path d="M134.516 24H133.796V16.84H136.466C137.916 16.84 138.796 17.64 138.796 18.91C138.796 19.94 138.256 20.66 137.336 20.91L138.866 24H138.066L136.606 21.03H134.516V24ZM134.516 17.49V20.38H136.486C137.476 20.38 138.056 19.84 138.056 18.93C138.056 18 137.446 17.49 136.466 17.49H134.516ZM141.862 24.99V24.11C140.602 24.04 139.752 23.32 139.672 22.22H140.412C140.452 22.92 141.002 23.39 141.862 23.46V20.68L141.472 20.58C140.352 20.31 139.762 19.68 139.762 18.7C139.762 17.59 140.592 16.82 141.862 16.72V15.85H142.392V16.72C143.552 16.8 144.312 17.5 144.412 18.63H143.692C143.622 17.88 143.162 17.44 142.392 17.36V20.11L142.832 20.22C143.962 20.5 144.532 21.13 144.532 22.09C144.532 23.24 143.702 24.01 142.392 24.11V24.99H141.862ZM141.602 19.92L141.862 19.98V17.37C141.012 17.46 140.472 17.96 140.472 18.69C140.472 19.32 140.842 19.73 141.602 19.92ZM142.682 20.88L142.392 20.81V23.46C143.272 23.37 143.822 22.87 143.822 22.13C143.822 21.48 143.452 21.06 142.682 20.88ZM150.127 24H145.407V23.43L147.697 21.43C149.017 20.28 149.357 19.78 149.357 18.93C149.357 17.96 148.777 17.37 147.827 17.37C146.837 17.37 146.187 18.09 146.157 19.2H145.437C145.477 17.7 146.427 16.71 147.837 16.71C149.187 16.71 150.087 17.58 150.087 18.89C150.087 19.93 149.617 20.62 148.187 21.87L146.517 23.33H150.127V24ZM150.584 16.84H155.454V17.5L152.634 24H151.894L154.724 17.5H150.584V16.84ZM155.906 24.11C155.566 24.11 155.276 23.83 155.276 23.5C155.276 23.16 155.566 22.87 155.906 22.87C156.246 22.87 156.536 23.16 156.536 23.5C156.536 23.83 156.246 24.11 155.906 24.11ZM159.849 24.12C158.409 24.12 157.489 23.22 157.489 21.81H158.209C158.209 22.84 158.839 23.46 159.859 23.46C160.939 23.46 161.639 22.74 161.639 21.68C161.639 20.68 160.989 19.89 159.859 19.89C159.199 19.89 158.599 20.19 158.209 20.62L157.639 20.44L158.499 16.84H161.959V17.5H159.019L158.479 19.75C158.879 19.43 159.399 19.25 159.959 19.25C161.449 19.25 162.369 20.32 162.369 21.66C162.369 23.1 161.349 24.12 159.849 24.12ZM163.289 22.05C163.289 21.17 163.819 20.47 164.669 20.18C163.949 19.89 163.539 19.3 163.539 18.56C163.539 17.46 164.479 16.71 165.849 16.71C167.209 16.71 168.119 17.46 168.119 18.57C168.119 19.32 167.719 19.91 167.009 20.18C167.839 20.44 168.389 21.16 168.389 22.06C168.389 23.28 167.359 24.12 165.839 24.12C164.319 24.12 163.289 23.28 163.289 22.05ZM164.219 18.58C164.219 19.37 164.859 19.9 165.839 19.9C166.809 19.9 167.439 19.39 167.439 18.6C167.439 17.83 166.809 17.35 165.839 17.35C164.859 17.35 164.219 17.83 164.219 18.58ZM163.999 21.99C163.999 22.88 164.739 23.47 165.849 23.47C166.939 23.47 167.679 22.88 167.679 21.99C167.679 21.11 166.959 20.54 165.829 20.54C164.719 20.54 163.999 21.11 163.999 21.99ZM173.572 21.58L171.782 24H170.942L172.822 21.5C172.492 21.68 172.182 21.74 171.842 21.74C170.352 21.74 169.362 20.65 169.362 19.25C169.362 17.79 170.472 16.71 171.902 16.71C173.342 16.71 174.472 17.82 174.472 19.26C174.472 20.09 174.252 20.67 173.572 21.58ZM173.752 19.25C173.752 18.16 172.992 17.37 171.902 17.37C170.842 17.37 170.082 18.16 170.082 19.25C170.082 20.33 170.842 21.11 171.902 21.11C172.992 21.11 173.752 20.33 173.752 19.25ZM176.409 23.66C176.409 24.28 175.929 24.82 175.309 24.91V24.54C175.669 24.48 175.929 24.22 175.929 23.94C175.869 23.98 175.789 24.01 175.669 24.01C175.389 24.01 175.149 23.81 175.149 23.47C175.149 23.12 175.389 22.87 175.739 22.87C176.099 22.87 176.409 23.16 176.409 23.66ZM177.177 20.42C177.177 18.2 178.267 16.7 180.047 16.7C181.817 16.7 182.907 18.2 182.907 20.42C182.907 22.65 181.837 24.13 180.047 24.13C178.247 24.13 177.177 22.65 177.177 20.42ZM177.887 20.42C177.887 22.28 178.677 23.48 180.047 23.48C181.417 23.48 182.207 22.28 182.207 20.42C182.207 18.55 181.417 17.36 180.047 17.36C178.677 17.36 177.887 18.55 177.887 20.42ZM184.003 20.42C184.003 18.2 185.093 16.7 186.873 16.7C188.643 16.7 189.733 18.2 189.733 20.42C189.733 22.65 188.663 24.13 186.873 24.13C185.073 24.13 184.003 22.65 184.003 20.42ZM184.713 20.42C184.713 22.28 185.503 23.48 186.873 23.48C188.243 23.48 189.033 22.28 189.033 20.42C189.033 18.55 188.243 17.36 186.873 17.36C185.503 17.36 184.713 18.55 184.713 20.42Z" fill="#171717"/>
<path d="M20.2037 121.7C20.2037 120.5 21.1637 119.71 22.6037 119.71C23.8937 119.71 24.7437 120.43 24.8537 121.63H24.1237C24.0437 120.82 23.4937 120.36 22.5937 120.36C21.5837 120.36 20.9237 120.88 20.9237 121.69C20.9237 122.32 21.2937 122.72 22.0437 122.91L23.2737 123.21C24.3937 123.48 24.9737 124.12 24.9737 125.09C24.9737 126.33 24.0137 127.12 22.5337 127.12C21.1437 127.12 20.2037 126.39 20.1137 125.22H20.8537C20.8937 125.97 21.5537 126.46 22.5337 126.46C23.5837 126.46 24.2537 125.95 24.2537 125.13C24.2537 124.49 23.8937 124.07 23.1237 123.89L21.9137 123.59C20.7937 123.32 20.2037 122.68 20.2037 121.7ZM28.1484 127.12C26.7284 127.12 25.7784 126.1 25.7784 124.58C25.7784 123.07 26.7184 122.03 28.0984 122.03C29.4084 122.03 30.2984 122.96 30.2984 124.33V124.67H26.4484C26.4984 125.85 27.1184 126.53 28.1584 126.53C28.9484 126.53 29.4584 126.19 29.6384 125.55H30.2984C30.0384 126.57 29.2884 127.12 28.1484 127.12ZM28.0984 122.62C27.1884 122.62 26.5884 123.22 26.4684 124.17H29.6084C29.6084 123.24 29.0084 122.62 28.0984 122.62ZM31.0716 124.44C31.0716 123.12 31.9216 122.03 33.3416 122.03C34.1816 122.03 34.8216 122.42 35.1316 123.13L35.2016 122.16H35.8016V126.85C35.8016 128.29 34.8816 129.23 33.4616 129.23C32.2216 129.23 31.3516 128.53 31.1616 127.36H31.8516C32.0016 128.14 32.6016 128.6 33.4716 128.6C34.4616 128.6 35.1216 127.93 35.1216 126.92V125.77C34.7916 126.45 34.1216 126.85 33.2916 126.85C31.9116 126.85 31.0716 125.76 31.0716 124.44ZM31.7616 124.43C31.7616 125.42 32.3716 126.23 33.3916 126.23C34.4416 126.23 35.0616 125.47 35.0616 124.43C35.0616 123.4 34.4616 122.64 33.4016 122.64C32.3616 122.64 31.7616 123.45 31.7616 124.43Z" fill="#171717"/>
<path d="M56.8837 120.5V119.84H62.0137V120.5H59.8037V127H59.0837V120.5H56.8837ZM64.1426 127.12C62.7226 127.12 61.7726 126.1 61.7726 124.58C61.7726 123.07 62.7126 122.03 64.0926 122.03C65.4026 122.03 66.2926 122.96 66.2926 124.33V124.67H62.4426C62.4926 125.85 63.1126 126.53 64.1526 126.53C64.9426 126.53 65.4526 126.19 65.6326 125.55H66.2926C66.0326 126.57 65.2826 127.12 64.1426 127.12ZM64.0926 122.62C63.1826 122.62 62.5826 123.22 62.4626 124.17H65.6026C65.6026 123.24 65.0026 122.62 64.0926 122.62ZM69.9258 122.1V122.72H69.5458C68.6558 122.72 68.0858 123.32 68.0858 124.24V127H67.3958V122.16H68.0458L68.0958 122.91C68.2858 122.39 68.7958 122.05 69.4758 122.05C69.6258 122.05 69.7558 122.06 69.9258 122.1Z" fill="#171717"/>
<path d="M97.2837 127.41L96.5237 126.55C95.9837 126.92 95.3337 127.12 94.6037 127.12C92.5937 127.12 91.1937 125.59 91.1937 123.42C91.1937 121.25 92.6037 119.71 94.6037 119.71C96.6137 119.71 98.0137 121.24 98.0137 123.42C98.0137 124.53 97.6437 125.47 97.0237 126.12L97.7737 126.96L97.2837 127.41ZM97.2737 123.42C97.2737 121.63 96.1837 120.41 94.6037 120.41C93.0237 120.41 91.9437 121.63 91.9437 123.42C91.9437 125.21 93.0237 126.43 94.6037 126.43C95.1537 126.43 95.6437 126.28 96.0437 126.02L95.1137 124.97L95.5937 124.52L96.5437 125.58C97.0037 125.05 97.2737 124.3 97.2737 123.42ZM102.569 122.16H103.259V127H102.659L102.569 126.18C102.299 126.74 101.629 127.12 100.869 127.12C99.7292 127.12 99.1092 126.34 99.1092 125.16V122.15H99.8092V124.94C99.8092 126.09 100.319 126.5 101.089 126.5C102.019 126.5 102.569 125.88 102.569 124.73V122.16ZM106.087 127.12C105.057 127.12 104.447 126.54 104.447 125.69C104.447 124.8 105.127 124.24 106.257 124.15L107.857 124.02V123.86C107.857 122.91 107.287 122.61 106.577 122.61C105.737 122.61 105.237 122.99 105.237 123.64H104.607C104.607 122.66 105.407 122.03 106.597 122.03C107.717 122.03 108.537 122.59 108.537 123.87V127H107.957L107.867 126.15C107.567 126.76 106.907 127.12 106.087 127.12ZM106.247 126.56C107.267 126.56 107.857 125.85 107.857 124.8V124.54L106.427 124.65C105.517 124.73 105.147 125.13 105.147 125.67C105.147 126.26 105.587 126.56 106.247 126.56Z" fill="#171717"/>
<path d="M136.284 127.41L135.524 126.55C134.984 126.92 134.334 127.12 133.604 127.12C131.594 127.12 130.194 125.59 130.194 123.42C130.194 121.25 131.604 119.71 133.604 119.71C135.614 119.71 137.014 121.24 137.014 123.42C137.014 124.53 136.644 125.47 136.024 126.12L136.774 126.96L136.284 127.41ZM136.274 123.42C136.274 121.63 135.184 120.41 133.604 120.41C132.024 120.41 130.944 121.63 130.944 123.42C130.944 125.21 132.024 126.43 133.604 126.43C134.154 126.43 134.644 126.28 135.044 126.02L134.114 124.97L134.594 124.52L135.544 125.58C136.004 125.05 136.274 124.3 136.274 123.42ZM141.569 122.16H142.259V127H141.659L141.569 126.18C141.299 126.74 140.629 127.12 139.869 127.12C138.729 127.12 138.109 126.34 138.109 125.16V122.15H138.809V124.94C138.809 126.09 139.319 126.5 140.089 126.5C141.019 126.5 141.569 125.88 141.569 124.73V122.16ZM144.037 120.83C143.757 120.83 143.527 120.6 143.527 120.32C143.527 120.04 143.757 119.8 144.037 119.8C144.317 119.8 144.557 120.04 144.557 120.32C144.557 120.6 144.317 120.83 144.037 120.83ZM143.697 127V122.16H144.387V127H143.697Z" fill="#171717"/>
<path d="M166.204 121.7C166.204 120.5 167.164 119.71 168.604 119.71C169.894 119.71 170.744 120.43 170.854 121.63H170.124C170.044 120.82 169.494 120.36 168.594 120.36C167.584 120.36 166.924 120.88 166.924 121.69C166.924 122.32 167.294 122.72 168.044 122.91L169.274 123.21C170.394 123.48 170.974 124.12 170.974 125.09C170.974 126.33 170.014 127.12 168.534 127.12C167.144 127.12 166.204 126.39 166.114 125.22H166.854C166.894 125.97 167.554 126.46 168.534 126.46C169.584 126.46 170.254 125.95 170.254 125.13C170.254 124.49 169.894 124.07 169.124 123.89L167.914 123.59C166.794 123.32 166.204 122.68 166.204 121.7ZM174.148 127.12C172.728 127.12 171.778 126.1 171.778 124.58C171.778 123.07 172.718 122.03 174.098 122.03C175.408 122.03 176.298 122.96 176.298 124.33V124.67H172.448C172.498 125.85 173.118 126.53 174.158 126.53C174.948 126.53 175.458 126.19 175.638 125.55H176.298C176.038 126.57 175.288 127.12 174.148 127.12ZM174.098 122.62C173.188 122.62 172.588 123.22 172.468 124.17H175.608C175.608 123.24 175.008 122.62 174.098 122.62ZM177.426 127H176.616L178.346 124.58L176.626 122.16H177.436L178.806 124.1L180.166 122.16H180.966L179.246 124.59L180.956 127H180.136L178.776 125.06L177.426 127Z" fill="#171717"/>
<path d="M202.204 121.7C202.204 120.5 203.164 119.71 204.604 119.71C205.894 119.71 206.744 120.43 206.854 121.63H206.124C206.044 120.82 205.494 120.36 204.594 120.36C203.584 120.36 202.924 120.88 202.924 121.69C202.924 122.32 203.294 122.72 204.044 122.91L205.274 123.21C206.394 123.48 206.974 124.12 206.974 125.09C206.974 126.33 206.014 127.12 204.534 127.12C203.144 127.12 202.204 126.39 202.114 125.22H202.854C202.894 125.97 203.554 126.46 204.534 126.46C205.584 126.46 206.254 125.95 206.254 125.13C206.254 124.49 205.894 124.07 205.124 123.89L203.914 123.59C202.794 123.32 202.204 122.68 202.204 121.7ZM211.118 120.41L210.358 121.6H209.798L210.398 120.41H211.118ZM209.508 127.12C208.478 127.12 207.868 126.54 207.868 125.69C207.868 124.8 208.548 124.24 209.678 124.15L211.278 124.02V123.86C211.278 122.91 210.708 122.61 209.998 122.61C209.158 122.61 208.658 122.99 208.658 123.64H208.028C208.028 122.66 208.828 122.03 210.018 122.03C211.138 122.03 211.958 122.59 211.958 123.87V127H211.378L211.288 126.15C210.988 126.76 210.328 127.12 209.508 127.12ZM209.668 126.56C210.688 126.56 211.278 125.85 211.278 124.8V124.54L209.848 124.65C208.938 124.73 208.568 125.13 208.568 125.67C208.568 126.26 209.008 126.56 209.668 126.56ZM213.943 127H213.343V119.71H214.033V123.1C214.373 122.39 215.033 122.03 215.853 122.03C217.263 122.03 218.083 123.13 218.083 124.59C218.083 126.04 217.243 127.12 215.833 127.12C215.023 127.12 214.353 126.76 214.013 126.01L213.943 127ZM214.043 124.57C214.043 125.69 214.663 126.49 215.723 126.49C216.773 126.49 217.383 125.69 217.383 124.57C217.383 123.46 216.773 122.65 215.723 122.65C214.663 122.65 214.043 123.46 214.043 124.57Z" fill="#171717"/>
<path d="M241.814 127H239.634V119.84H241.794C243.954 119.84 245.394 121.28 245.394 123.42C245.394 125.56 243.964 127 241.814 127ZM241.764 120.5H240.354V126.34H241.784C243.534 126.34 244.654 125.2 244.654 123.42C244.654 121.63 243.534 120.5 241.764 120.5ZM246.204 124.58C246.204 123.1 247.244 122.03 248.664 122.03C250.084 122.03 251.124 123.1 251.124 124.58C251.124 126.05 250.084 127.12 248.664 127.12C247.244 127.12 246.204 126.05 246.204 124.58ZM246.904 124.57C246.904 125.71 247.624 126.5 248.664 126.5C249.694 126.5 250.424 125.71 250.424 124.57C250.424 123.45 249.694 122.65 248.664 122.65C247.624 122.65 246.904 123.45 246.904 124.57ZM252.918 127H252.228V122.16H252.828L252.908 122.85C253.148 122.34 253.688 122.03 254.368 122.03C255.128 122.03 255.698 122.43 255.928 123.06C256.148 122.43 256.738 122.03 257.518 122.03C258.568 122.03 259.258 122.71 259.258 123.83V127H258.588V123.97C258.588 123.14 258.128 122.65 257.388 122.65C256.578 122.65 256.098 123.26 256.098 124.01V127H255.418V123.96C255.418 123.14 254.948 122.66 254.218 122.66C253.408 122.66 252.918 123.26 252.918 124V127Z" fill="#171717"/>
</svg>
