<svg width="168" height="237" viewBox="0 0 168 237" fill="none" xmlns="http://www.w3.org/2000/svg">
<rect x="0.896165" y="14.1148" width="166.099" height="222.15" rx="20.8349" fill="#FAFAFA" stroke="#171717" stroke-width="0.796237"/>
<rect x="8.8457" y="22.2098" width="150.206" height="136.953" rx="12.7398" fill="#FAFAFA"/>
<g clip-path="url(#clip0_2219_10932)">
<path d="M93.8184 70.8717C93.8184 70.8717 96.0156 69.9626 100.776 72.4535L101.794 75.1352L93.8184 70.8717Z" fill="#171717"/>
<path d="M92.3184 70.799L93.5777 70.2808C93.676 70.2354 96.0965 69.29 101.063 71.8899L101.277 71.999L102.992 76.4988L92.3184 70.799ZM100.277 72.9171C98.6242 72.0717 97.3112 71.6717 96.3287 71.4899L100.598 73.7716L100.277 72.9171Z" fill="#171717"/>
<path d="M80.8586 81.0351C79.7958 82.9168 77.0448 89.1712 83.5114 94.8983C83.5382 94.9256 83.5739 94.9438 83.6007 94.962L86.7179 96.7983C86.7179 96.7983 81.4481 93.0893 84.9047 84.735C84.9851 84.5441 84.9494 84.3168 84.8065 84.1623L81.6625 80.926C81.4303 80.6805 81.0283 80.726 80.8586 81.026V81.0351Z" fill="#FAFAFA"/>
<path d="M83.102 95.3892C76.2423 89.3167 79.2345 82.626 80.3152 80.7169C80.4939 80.3988 80.7976 80.1988 81.1548 80.1533C81.5121 80.1079 81.8604 80.2351 82.1195 80.4897L85.2634 83.7259C85.585 84.0623 85.6743 84.5532 85.4957 84.9986C82.2892 92.7348 86.889 96.1437 87.0855 96.2801L86.4067 97.3619L83.2895 95.5256C83.2181 95.4801 83.1555 95.4347 83.102 95.3892ZM81.3245 81.5078C80.083 83.7714 78.1002 89.253 83.9237 94.4256L84.138 94.5529C83.0841 92.462 82.4142 89.1712 84.2899 84.5714L81.3156 81.5078H81.3245Z" fill="#171717"/>
<path d="M124.849 108.807C114.498 106.271 97.929 97.5073 91.2749 92.9802C84.6117 88.4531 80.2977 90.1803 80.2977 90.1803L71.8125 71.5717L80.1459 66.2083C80.1459 66.2083 87.988 67.8809 94.3117 71.2536C100.635 74.6171 109.103 78.9624 114.703 80.8351C119.151 82.3351 130.896 84.5895 135.505 85.4441C137.783 85.8713 139.926 86.8986 141.552 88.5712C143.803 90.8894 145.571 94.8074 142.588 100.862C136.541 113.143 124.849 108.807 124.849 108.807Z" fill="#FAFAFA"/>
<path d="M79.9745 90.9984L79.7244 90.453L70.998 71.3354L80.0192 65.5264L80.2692 65.581C80.5908 65.6537 88.2632 67.3173 94.5958 70.6808C103.93 75.6534 110.575 78.7715 114.889 80.226C119.274 81.6987 130.841 83.9259 135.611 84.8168C138.147 85.2895 140.344 86.4349 141.997 88.1258C144.283 90.4893 146.347 94.6619 143.149 101.153C137.102 113.443 125.446 109.698 124.669 109.434C113.888 106.78 97.2218 97.8073 90.9159 93.5256C84.6547 89.2712 80.564 90.7802 80.5193 90.7984L79.9745 91.0075V90.9984ZM72.6147 71.8172L80.6444 89.4166C82.0824 89.0803 86.0928 88.6894 91.6215 92.4438C97.8649 96.6892 114.362 105.571 125 108.18L125.071 108.198C125.527 108.362 136.316 112.18 142.033 100.562C144.328 95.8983 144.015 92.0075 141.104 89.0167C139.639 87.5076 137.665 86.4986 135.387 86.0713C130.591 85.1804 118.962 82.9441 114.496 81.4351C110.11 79.9624 103.411 76.817 94.0153 71.8081C88.4597 68.8536 81.6358 67.1991 80.2603 66.8809L72.6147 71.8081V71.8172Z" fill="#171717"/>
<path d="M85.3072 71.6263C84.1193 68.4719 82.2793 66.1356 78.3136 64.5083C74.3568 62.8811 70.3733 63.4902 65.702 63.6174C61.0396 63.7447 57.842 63.9811 57.842 63.9811C56.7791 63.0993 55.5108 63.5265 55.5108 63.5265C55.5108 63.5265 55.1892 61.772 55.9663 60.7539C56.7434 59.7357 60.3518 58.3176 60.3518 58.3176C60.3518 58.3176 64.6837 56.8358 64.7641 54.6904C64.8445 52.5541 63.5762 51.536 60.6466 51.9905C58.0653 52.3905 54.3497 54.4268 53.7066 54.7722C53.6708 54.7904 53.644 54.745 53.6708 54.7177C55.1624 52.7178 55.9306 50.7905 54.6444 48.9361C53.3404 47.0361 52.1524 47.4088 50.2857 48.7361C48.4189 50.0633 44.5693 57.3358 44.5693 57.3358C44.5693 57.3358 41.5325 65.0356 42.0774 67.5537C42.6043 69.99 44.8194 76.108 44.9981 76.5262C44.9981 76.5353 44.9981 76.5443 44.9802 76.5443L41.3539 75.6444C40.8805 75.5262 40.1749 75.9444 39.8891 75.5444C38.6565 73.8081 35.4232 68.2719 34.0388 67.5628C32.3417 66.6992 30.3321 65.5174 27.849 68.5446C27.849 68.5446 24.9998 66.1265 20.0873 63.1266C18.6136 62.2266 17.4256 62.9175 16.2913 65.2174C16.2913 65.2174 16.1752 67.5082 20.5786 72.1172C24.9819 76.7262 31.6093 82.6351 31.6093 82.6351L37.7633 85.5259C37.7633 85.5259 45.4982 91.3621 51.6433 94.862C51.6433 94.862 54.6533 96.6074 63.862 95.1165L65.1571 94.9347C65.1571 94.9347 67.8277 95.1438 73.7406 93.2984C79.6445 91.453 86.1021 86.7713 87.4151 81.8806L85.2983 71.6263H85.3072Z" fill="#FAFAFA"/>
<path d="M31.2705 83.1805L31.1991 83.1169C31.1366 83.0532 24.5003 77.1352 20.1326 72.5626C15.6667 67.8991 15.6578 65.4537 15.6667 65.1901V65.0537L15.7292 64.9356C16.5152 63.3538 17.3191 62.4902 18.2659 62.2084C18.9536 62.0084 19.6771 62.1356 20.4184 62.5902C24.2234 64.9083 26.7779 66.8719 27.7782 67.6718C30.3327 64.9447 32.6192 66.1264 34.1555 66.9173L34.3163 66.9991C35.406 67.5628 37.0494 70.0354 39.0948 73.208C39.586 73.9717 40.0148 74.6444 40.3274 75.0898C40.4078 75.0898 40.5239 75.0625 40.6132 75.0534C40.8811 75.008 41.1848 74.9625 41.4974 75.0353L43.9894 75.6534C43.2659 73.6535 41.8726 69.6263 41.4528 67.7082C40.8811 65.0719 43.6589 57.9176 43.9805 57.1085C44.4092 56.2813 47.9908 49.6087 49.9201 48.2269C50.7865 47.6088 51.7243 47.027 52.6532 46.9997C53.6 46.9724 54.3949 47.4724 55.1541 48.5815C56.2706 50.1996 56.0027 51.8268 55.3417 53.2268C57.4496 52.2087 59.2181 51.5723 60.54 51.3723C62.3442 51.0905 63.6036 51.3269 64.4521 52.0723C65.1131 52.6723 65.4257 53.5632 65.381 54.7268C65.2828 57.2358 61.0223 58.7721 60.54 58.9357C59.1377 59.4903 56.9137 60.5448 56.4492 61.1538C56.1188 61.5811 56.0473 62.2629 56.0563 62.7902C56.5832 62.7629 57.3246 62.8447 58.0123 63.3265C58.834 63.272 61.7458 63.0902 65.6579 62.9811C66.5154 62.9538 67.355 62.9174 68.1767 62.872C71.7673 62.6993 75.1703 62.5356 78.5197 63.9083C82.271 65.4446 84.4593 67.6809 85.8616 71.3899L84.6826 71.8535C83.4054 68.4718 81.485 66.5082 78.0463 65.0992C74.947 63.8265 71.8387 63.981 68.2392 64.1538C67.4086 64.1901 66.569 64.2356 65.6936 64.2629C61.1027 64.3901 57.8962 64.6174 57.8694 64.6174L57.6193 64.6356L57.4228 64.4719C56.6547 63.8356 55.7168 64.1174 55.6811 64.1265L55.0023 64.3447L54.8683 63.6356C54.8326 63.4265 54.52 61.5629 55.44 60.3539C56.2795 59.2448 59.4682 57.963 60.1023 57.7176C61.6475 57.1903 64.0681 55.8995 64.1127 54.6631C64.1395 53.8904 63.9787 53.3541 63.6036 53.0177C63.0856 52.5632 62.0941 52.4177 60.7186 52.6268C59.1645 52.8632 56.7887 53.8177 54.0377 55.3177C53.7072 55.4995 53.3767 55.4267 53.1713 55.1904L52.8408 54.7995L53.1445 54.3359C54.7611 52.1723 55.047 50.6723 54.1091 49.3087C53.466 48.3724 53.0016 48.2633 52.68 48.2724C52.0816 48.2906 51.3135 48.7906 50.6347 49.2724C49.2056 50.2905 46.1598 55.6631 45.1059 57.6449C44.311 59.6721 42.2656 65.5174 42.6675 67.4264C43.1855 69.8263 45.3917 75.9171 45.5525 76.2807L45.7043 76.6352L45.2131 77.2534L44.8111 77.1716L41.167 76.2716C41.1044 76.2534 40.899 76.2898 40.7829 76.308C40.3899 76.3716 39.7379 76.4807 39.3359 75.9171C39.0055 75.4534 38.541 74.7262 38.0051 73.8989C36.7279 71.9081 34.5932 68.5718 33.7179 68.1355L33.5571 68.0537C31.9226 67.2082 30.3774 66.4173 28.3052 68.9536L27.9033 69.4445L27.4209 69.0354C27.4209 69.0354 24.5449 66.6082 19.7396 63.6811C19.302 63.4174 18.9268 63.3356 18.5874 63.4356C18.0426 63.5992 17.4709 64.2447 16.8993 65.3537C16.9618 65.8264 17.4441 67.9537 20.999 71.6717C25.0987 75.9534 31.208 81.4533 31.9226 82.0987L38.1034 85.0168C38.1837 85.0713 45.874 90.8712 51.9208 94.3074C51.9476 94.3256 54.9576 95.9074 63.7287 94.4893L65.1756 94.2984C65.1756 94.2984 67.8462 94.462 73.5268 92.6893C78.9752 90.9894 85.4776 86.5622 86.7816 81.7169L87.9963 82.0533C86.5762 87.344 79.6719 92.1166 73.893 93.9165C68.4 95.6347 65.6401 95.6074 65.1577 95.5892L63.9252 95.7619C54.6182 97.271 51.4385 95.5074 51.3135 95.4256C45.4632 92.0984 38.1123 86.6077 37.4156 86.0895L31.2348 83.1896L31.2705 83.1805Z" fill="#171717"/>
<path d="M50.9826 91.6803L50.9111 91.5621C50.8486 91.4621 49.4731 89.0076 53.8229 85.9168C57.5207 83.2896 62.9244 84.4259 64.1748 84.735C64.6661 84.4805 65.8719 83.9623 67.7922 83.7714C69.6143 83.5805 73.3031 80.8806 74.5625 79.8624L75.3485 80.8624C75.152 81.026 70.4807 84.7896 67.9173 85.0532C65.7111 85.2805 64.5946 85.9623 64.5857 85.9713L64.3535 86.1168L64.0855 86.0441C64.023 86.0259 58.1638 84.4078 54.5464 86.9804C51.7239 88.9894 51.8579 90.4348 51.9651 90.8257C52.8583 91.4348 53.8944 91.8166 54.9751 91.9348C57.0562 92.1621 61.1738 92.7802 65.3806 94.3438L64.9519 95.5529C60.8701 94.0347 56.8597 93.4348 54.8411 93.2166C53.4835 93.0711 52.1884 92.5712 51.0898 91.7803L50.9826 91.6985V91.6803Z" fill="#171717"/>
<path d="M37.2628 85.9077L32.4039 79.117L27.2949 68.8355L28.4203 68.2537L33.5025 78.4988L38.281 85.1532L37.2628 85.9077Z" fill="#171717"/>
<path d="M50.8726 69.2536C50.819 66.181 49.7472 62.172 49.7383 62.1266L49.6758 61.8993L53.2842 54.2086L54.4186 54.7631L51.0155 62.0266C51.2567 62.9538 52.0874 66.3992 52.141 69.2264L50.8816 69.2536H50.8726Z" fill="#171717"/>
<path d="M42.6393 79.1625C40.9512 77.6807 39.5131 76.0807 39.4238 75.9807L40.3527 75.1171C40.3527 75.1171 43.5057 78.617 45.8279 79.9897L46.0691 80.1352C48.3378 81.4715 49.5882 82.2169 50.8476 83.8169L49.8651 84.6169C48.7486 83.2078 47.6411 82.5533 45.4349 81.2442L45.1938 81.0988C44.372 80.6079 43.4699 79.8988 42.6393 79.1625Z" fill="#171717"/>
<path d="M56.332 74.8534C59.6904 69.2809 57.3949 64.4719 57.2967 64.2719L58.4221 63.6901C58.5382 63.9174 61.1552 69.3172 57.4128 75.5262L56.341 74.8534H56.332Z" fill="#171717"/>
<path d="M76.2954 71.399L75.6523 70.2991C75.7238 70.2536 82.9764 65.9719 87.1565 72.8536L86.0847 73.5263C82.5477 67.6992 76.5455 71.2445 76.2954 71.399Z" fill="#171717"/>
<path d="M16.8984 64.1811C16.8984 64.1811 17.4968 66.4992 20.2299 69.2082C20.4264 69.3991 20.4622 69.7082 20.3014 69.9264L19.4975 71.09L16.4875 66.6265L16.291 65.2174L16.8894 64.172L16.8984 64.1811Z" fill="#171717"/>
<path d="M29.08 67.0719C29.08 67.0719 30.518 69.8536 31.8756 72.099C32.0364 72.3627 31.956 72.699 31.7059 72.8626L30.5359 73.6172L27.8027 68.4628L29.0889 67.081L29.08 67.0719Z" fill="#171717"/>
<path d="M52.7394 92.2075C52.7394 92.2075 52.525 90.5439 54.3739 89.3531C54.3739 89.3531 57.0713 89.0531 58.8487 90.5167C60.6262 91.9803 59.0899 93.2257 59.0899 93.2257L53.4361 92.6439L52.7305 92.1984L52.7394 92.2075Z" fill="#171717"/>
<path d="M51.7148 47.8906C51.7148 47.8906 51.5629 48.5087 51.7505 50.0541C51.7505 50.0541 50.5447 51.5268 49.0441 53.2904C47.5436 55.054 47.3203 52.8995 47.3203 52.8995L50.5983 49.1269L51.7148 47.8906Z" fill="#171717"/>
<path d="M62.6257 51.9359C62.6257 51.9359 62.0809 52.8359 61.8755 54.5267C61.8755 54.5267 57.5882 55.7813 57.3381 54.4086C57.097 53.0359 59.3835 52.2541 59.3835 52.2541L62.6168 51.9268L62.6257 51.9359Z" fill="#171717"/>
<path d="M99.51 71.9172C100.635 72.3081 103.619 73.0172 106.37 75.9171C106.414 75.9716 111.121 84.6259 103.056 93.762C94.6064 103.334 85.8086 96.8529 83.9419 95.2711C83.8883 95.2256 83.9419 95.1347 84.0044 95.162C85.3799 95.7983 89.8994 97.2983 96.0087 93.2439C103.395 88.3531 103.69 80.2352 103.69 80.2352C103.69 80.2352 104.458 74.5717 99.4832 72.0081C99.4296 71.9808 99.4564 71.8899 99.51 71.9172Z" fill="#0D6EDE"/>
<path d="M83.1094 95.4074L83.3863 94.8438C83.5738 94.5438 83.94 94.4347 84.2616 94.5801C85.4495 95.1256 89.7636 96.6164 95.6675 92.7165C102.679 88.0712 103.054 80.2987 103.063 80.2169C103.099 79.9442 103.697 74.908 99.1955 72.5808L98.6775 72.308L98.874 71.6899C99.0169 71.3535 99.3742 71.1899 99.7136 71.3081C99.8297 71.3444 99.9637 71.3899 100.124 71.4444C101.464 71.8717 104.26 72.7717 106.823 75.4807C106.913 75.5807 111.968 84.635 103.527 94.1983C94.6403 104.262 85.3245 97.271 83.5381 95.771L83.1094 95.4165V95.4074ZM102.607 73.8353C104.751 76.7352 104.313 80.2805 104.305 80.326C104.305 80.6078 103.92 88.7712 96.3463 93.7892C92.4967 96.3346 89.2098 96.7619 86.9143 96.5528C90.496 98.5527 96.5785 100.125 102.581 93.3347C109.967 84.9713 106.198 76.9897 105.85 76.3079C104.76 75.1716 103.635 74.3898 102.607 73.8353Z" fill="#171717"/>
<path d="M102.708 100.044L102.127 98.9073C106.2 96.7346 107.343 93.4256 107.352 93.3984L108.549 93.8075C108.495 93.962 107.263 97.6346 102.708 100.053V100.044Z" fill="#171717"/>
<path d="M48.3125 62.6993L48.5894 61.4448C49.0806 61.5539 49.9113 61.4084 50.1882 61.3357L50.4829 62.5811C50.3489 62.6084 49.17 62.8902 48.3125 62.6902V62.6993Z" fill="#171717"/>
<path d="M64.8006 95.5529L64.5684 94.2893C64.7827 94.2529 64.9256 93.253 64.7917 92.2803L66.0421 92.0984C66.1136 92.6166 66.3994 95.2438 64.8095 95.5529H64.8006Z" fill="#171717"/>
<path d="M91.0868 94.9816L90.6621 96.1883L97.2291 98.5828L97.6539 97.3761L91.0868 94.9816Z" fill="#171717"/>
<path d="M96.2197 92.6482L95.7949 93.8549L101.403 95.8999L101.828 94.6932L96.2197 92.6482Z" fill="#171717"/>
<path d="M104.376 79.8094L103.951 81.0161L107.23 82.2118L107.655 81.0051L104.376 79.8094Z" fill="#171717"/>
<path d="M53.7344 92.0711C54.1988 90.8621 55.0563 90.1348 55.092 90.1075L55.36 90.4348C55.36 90.4348 54.5472 91.1257 54.1274 92.2257L53.7344 92.0711Z" fill="#FAFAFA"/>
<path d="M50.3122 50.1997C50.196 49.627 50.0977 48.7997 50.0977 48.7633L50.5178 48.7179C50.5178 48.7179 50.6162 49.5633 50.7235 50.1179L50.3122 50.2088V50.1997Z" fill="#FAFAFA"/>
<path d="M60.5391 53.7995C60.6821 52.9996 60.8967 52.3814 60.9056 52.3541L61.299 52.4996C61.299 52.4996 61.0844 53.1177 60.9503 53.8814L60.5391 53.8086V53.7995Z" fill="#FAFAFA"/>
<path d="M108.387 99.3891L108.923 98.2255C108.985 98.2528 114.8 101.025 119.676 102.707L119.275 103.925C114.326 102.216 108.449 99.4164 108.396 99.3891H108.387Z" fill="#171717"/>
<path d="M120.48 104.353L120.98 103.171C120.98 103.171 122.864 103.998 124.24 104.307L123.972 105.562C122.462 105.225 120.551 104.38 120.471 104.344L120.48 104.353Z" fill="#171717"/>
<path d="M137.214 95.4621C137.839 94.6348 137.687 93.4439 136.874 92.7985C136.062 92.1622 134.892 92.3167 134.257 93.1439C134.025 93.4439 133.873 94.153 133.873 94.153L133.436 96.362C133.337 96.6166 133.409 96.9075 133.632 97.0893C133.855 97.262 134.15 97.2529 134.365 97.0893L136.347 96.0893C136.347 96.0893 136.973 95.7621 137.205 95.4621H137.214Z" fill="#FAFAFA"/>
<path d="M133.401 97.3075C133.106 97.0529 133.008 96.6348 133.151 96.253L133.579 94.0985C133.597 94.0167 133.758 93.3076 134.017 92.9621C134.374 92.4894 134.883 92.1894 135.464 92.1167C136.045 92.044 136.616 92.1985 137.072 92.5622C138.036 93.3076 138.206 94.6985 137.474 95.6712C137.206 96.0166 136.58 96.353 136.509 96.3893L134.517 97.3893C134.222 97.6075 133.776 97.6075 133.445 97.3529C133.428 97.3438 133.419 97.3257 133.401 97.3166V97.3075ZM136.75 93.1167C136.75 93.1167 136.706 93.0803 136.679 93.0621C136.348 92.8076 135.946 92.6985 135.535 92.7531C135.125 92.8076 134.758 93.0167 134.508 93.353C134.374 93.5349 134.24 93.9894 134.187 94.2348L133.749 96.4348C133.696 96.5984 133.696 96.7257 133.829 96.8438C133.937 96.9257 134.08 96.9257 134.187 96.8438L136.214 95.8166C136.429 95.7075 136.831 95.453 136.965 95.2803C137.465 94.6166 137.366 93.6712 136.75 93.1258V93.1167Z" fill="#171717"/>
<path d="M138.582 95.5803C139.387 94.0894 138.609 92.7349 138.6 92.7167L139.145 92.3895C139.181 92.4531 140.111 94.0712 139.136 95.8894L138.582 95.5803Z" fill="#171717"/>
<path d="M131.754 94.5245L131.361 96.7618L131.986 96.8751L132.379 94.6378L131.754 94.5245Z" fill="#171717"/>
<path d="M136.216 94.7257C136.011 94.9984 135.618 95.053 135.341 94.8439C135.073 94.6348 135.019 94.2348 135.225 93.953C135.43 93.6803 135.823 93.6257 136.1 93.8348C136.368 94.0439 136.422 94.4439 136.216 94.7257Z" fill="#171717"/>
<mask id="mask0_2219_10932" style="mask-type:luminance" maskUnits="userSpaceOnUse" x="16" y="0" width="92" height="86">
<path d="M37.4661 70.8536C37.4661 70.8536 40.3868 76.817 45.862 80.026C45.862 80.026 49.3365 82.2441 50.7209 83.7896L54.5169 85.5168C54.5169 85.5168 59.4383 83.2532 64.2258 84.9441C64.2258 84.9441 67.1643 83.6987 68.6559 83.7714L79.7046 82.3896L107.911 58.9266L94.6117 23.764L57.5269 0.355591L16.0566 48.7451C16.0566 48.7451 20.4511 61.8447 32.7591 66.2446C34.7419 66.9537 37.2428 70.4627 37.4661 70.8445V70.8536Z" fill="white"/>
</mask>
<g mask="url(#mask0_2219_10932)">
<path d="M98.4951 54.5632L62.107 51.7451L46.3066 18.2642V18.2551L82.6947 21.0732L98.4951 54.5541V54.5632Z" fill="#FAFAFA"/>
<path d="M61.7287 52.3632L61.559 52.0723L45.5801 18.2097L45.9641 17.6006H46.3214L83.1918 20.4551L83.299 20.8369L99.2333 54.6177L98.7957 55.245L98.4384 55.1995L61.7287 52.3541V52.3632ZM47.3396 18.9733L62.5147 51.136L97.4738 53.845L82.2986 21.6823L47.3396 18.9733Z" fill="#171717"/>
<path d="M86.6339 53.7541L74.8618 52.7905L60.3477 21.9823L72.1198 22.9459L86.6339 53.7541Z" fill="#FAFAFA"/>
<path d="M41.4898 82.4169L25.6895 48.9269L46.2862 18.2642C46.2862 18.2642 46.2951 18.2642 46.304 18.2642L62.1043 51.745L41.5076 82.4078C41.5076 82.4078 41.4987 82.4078 41.4898 82.4078V82.4169Z" fill="#FAFAFA"/>
<path d="M41.0895 83.0351L40.9198 82.6896L24.9766 48.8906L25.1552 48.5815L45.9752 17.5824L46.7165 17.6369L46.8773 17.9915L62.8473 51.845L62.5794 52.1723L41.8308 83.0805L41.0984 83.0351H41.0895ZM26.4146 48.9815L41.5897 81.1442L61.3736 51.6814L46.1985 19.5187L26.4146 48.9815Z" fill="#171717"/>
<path d="M77.8979 85.2441L41.5098 82.426C41.5098 82.426 41.5009 82.426 41.5098 82.4169L62.1065 51.7542L98.4946 54.5722C98.4946 54.5722 98.5036 54.5723 98.4946 54.5813L77.8979 85.2441Z" fill="#171717"/>
<path d="M41.0908 83.0441L40.7871 82.3714L40.9836 82.0623L61.7947 51.0632L62.1877 51.1087L98.9152 53.9541L99.2189 54.6268L99.0224 54.9359L78.256 85.8622L77.854 85.8895L41.0908 83.0441ZM62.411 52.4177L42.636 81.8805L77.595 84.5895L97.37 55.1268L62.411 52.4177Z" fill="#171717"/>
<path d="M57.0527 77.7352L73.5765 53.1268L74.2732 53.6086L59.1428 76.1261L60.4736 75.6807L60.7594 76.7715L63.037 75.9716L63.3854 77.2897L65.7612 76.2806L66.0202 77.4988L68.3604 76.4625L68.5658 77.7624L69.5662 77.4624L85.304 54.0267L86.0007 54.5085L70.0931 78.1988L67.8781 78.8533L67.6994 77.6897L65.4218 78.6988L65.1539 77.4715L62.8227 78.4533L62.4654 77.0806L60.1789 77.8806L59.893 76.7806L57.0527 77.7352Z" fill="#FAFAFA"/>
<path d="M49.1836 39.1363L53.2744 33.0364L53.6406 33.0637L90.1358 36.0727L90.0376 37.3545L53.9085 34.3819L50.2286 39.8544L49.1836 39.1363Z" fill="#171717"/>
<path d="M58.3669 44.3907L57.9746 50.3864L58.608 50.4293L59.0003 44.4336L58.3669 44.3907Z" fill="#171717"/>
<path d="M56.9804 42.2707L56.2812 52.9558L56.9146 52.9987L57.6137 42.3136L56.9804 42.2707Z" fill="#171717"/>
<path d="M55.2909 44.8377L54.5918 55.5229L55.2251 55.5658L55.9243 44.8807L55.2909 44.8377Z" fill="#171717"/>
<path d="M53.6015 47.4132L52.9023 58.0984L53.5357 58.1413L54.2348 47.4562L53.6015 47.4132Z" fill="#171717"/>
<path d="M51.912 49.9803L51.2129 60.6655L51.8462 60.7084L52.5454 50.0232L51.912 49.9803Z" fill="#171717"/>
<path d="M50.2752 52.4798L49.5742 63.1648L50.2076 63.2078L50.9085 52.5228L50.2752 52.4798Z" fill="#171717"/>
<path d="M48.58 55.0455L47.8809 65.7307L48.5142 65.7736L49.2133 55.0884L48.58 55.0455Z" fill="#171717"/>
<path d="M46.8906 57.612L46.1914 68.2972L46.8247 68.3401L47.5239 57.6549L46.8906 57.612Z" fill="#171717"/>
<path d="M45.2011 60.1791L44.502 70.8643L45.1353 70.9072L45.8344 60.222L45.2011 60.1791Z" fill="#171717"/>
<path d="M43.412 62.8919L42.7129 73.5771L43.3462 73.62L44.0454 62.9349L43.412 62.8919Z" fill="#171717"/>
<path d="M93.6918 54.1953L85.6133 58.0942L85.7931 58.4802L93.8716 54.5813L93.6918 54.1953Z" fill="#FAFAFA"/>
<path d="M92.2692 56.2863L84.1914 60.1866L84.3713 60.5727L92.4491 56.6723L92.2692 56.2863Z" fill="#FAFAFA"/>
<path d="M90.7926 58.4485L82.7148 62.3488L82.8948 62.7348L90.9726 58.8345L90.7926 58.4485Z" fill="#FAFAFA"/>
<path d="M89.3291 60.5984L81.252 64.5001L81.432 64.8861L89.5091 60.9844L89.3291 60.5984Z" fill="#FAFAFA"/>
<path d="M89.1038 53.4916L88.498 53.7839L88.6779 54.1701L89.2837 53.8777L89.1038 53.4916Z" fill="#FAFAFA"/>
<path d="M90.8689 54.095L87.0273 55.949L87.2072 56.3351L91.0487 54.4811L90.8689 54.095Z" fill="#FAFAFA"/>
<path d="M87.8662 62.7649L79.7891 66.6667L79.9691 67.0527L88.0462 63.1509L87.8662 62.7649Z" fill="#FAFAFA"/>
<path d="M86.3122 65.0656L78.2344 68.9659L78.4143 69.352L86.4921 65.4516L86.3122 65.0656Z" fill="#FAFAFA"/>
<path d="M41.7245 65.4681L41.0254 76.1533L41.6587 76.1962L42.3579 65.511L41.7245 65.4681Z" fill="#171717"/>
<path d="M40.0234 68.0346L39.3242 78.7198L39.9576 78.7627L40.6567 68.0776L40.0234 68.0346Z" fill="#171717"/>
<path d="M38.3342 70.5939L38.0137 75.492L38.647 75.5349L38.9675 70.6368L38.3342 70.5939Z" fill="#171717"/>
<path d="M30.8906 41.2831L30.1914 51.9683L30.8247 52.0112L31.5239 41.326L30.8906 41.2831Z" fill="#171717"/>
<path d="M29.2011 43.8593L28.502 54.5444L29.1353 54.5874L29.8344 43.9022L29.2011 43.8593Z" fill="#171717"/>
<path d="M27.5107 46.4288L27.1348 52.626L27.7683 52.6657L28.1443 46.4686L27.5107 46.4288Z" fill="#171717"/>
<path d="M82.6989 43.9151L81.5625 44.4697L83.9458 49.5281L85.0822 48.9734L82.6989 43.9151Z" fill="#171717"/>
<path d="M42.4567 57.0903C42.3049 59.0721 41.2777 60.6084 40.1523 60.5266C39.0269 60.4357 38.232 58.763 38.3838 56.7812C38.5357 54.7995 39.5628 53.2632 40.6882 53.345C41.8136 53.4359 42.6086 55.1086 42.4567 57.0903Z" fill="#FAFAFA"/>
<path d="M39.096 60.4993C38.8281 60.263 38.5958 59.9448 38.4083 59.5448C38.0421 58.7721 37.8813 57.7721 37.9617 56.7449C38.1314 54.4904 39.3372 52.8087 40.7216 52.9177C42.0971 53.0268 43.0439 54.8722 42.8742 57.1267C42.7938 58.163 42.4901 59.1176 42.0167 59.8266C41.4897 60.6084 40.8198 61.0084 40.1142 60.9539C39.7391 60.9266 39.3997 60.7721 39.096 60.4993ZM41.186 54.0086C41.0253 53.8632 40.8466 53.7814 40.6501 53.7632C39.7838 53.6995 38.9174 55.1177 38.7923 56.7994C38.7298 57.6903 38.8549 58.5267 39.1585 59.1721C39.3104 59.4994 39.6498 60.0539 40.1768 60.0903C40.7037 60.1266 41.1146 59.6357 41.32 59.3357C41.713 58.7448 41.972 57.9358 42.0346 57.054C42.1328 55.7358 41.7577 54.5177 41.186 54.0086Z" fill="#171717"/>
<path d="M40.6333 46.7088L38.2128 41.5817C37.9181 40.9635 37.9895 39.9999 38.3736 39.4363L41.5265 34.7455C41.9106 34.1819 42.4554 34.2182 42.7413 34.8364L45.1618 39.9635C45.4565 40.5817 45.3851 41.5453 45.001 42.1089L41.8481 46.7997C41.464 47.3633 40.9192 47.327 40.6333 46.7088Z" fill="#171717"/>
<path d="M46.1612 44.4271L45.3127 47.5452C45.2145 47.9179 45.2145 48.336 45.3306 48.6633L46.2595 51.4269C46.5364 52.2541 46.1255 53.3723 45.5539 53.3177L43.6603 53.1268C43.437 53.1086 43.2048 53.2814 43.053 53.5904L41.7579 56.2358C41.3649 57.0267 40.6682 56.7722 40.5699 55.7995L40.2484 52.5632C40.2127 52.1814 40.0608 51.8723 39.8554 51.7359L38.1226 50.6087C37.6046 50.2724 37.5867 48.9997 38.0869 48.4542L39.775 46.6452C39.9804 46.427 40.1144 46.0634 40.1412 45.6634L40.3645 42.318C40.436 41.3181 41.1237 40.7817 41.5346 41.4181L42.9011 43.5362C43.0619 43.7907 43.2941 43.8725 43.5174 43.7634L45.3931 42.8271C45.9558 42.5453 46.4024 43.4907 46.1434 44.4271H46.1612Z" fill="#FAFAFA"/>
<path d="M40.6337 56.8995C40.3836 56.6813 40.2139 56.3086 40.1693 55.8359L39.8477 52.5996C39.8209 52.2996 39.7138 52.136 39.6423 52.0905L37.9095 50.9633C37.6059 50.7633 37.3915 50.3724 37.329 49.8633C37.2486 49.2088 37.4362 48.5361 37.7934 48.1543L39.4815 46.3452C39.6155 46.1998 39.7138 45.9271 39.7316 45.6362L39.9549 42.2908C40.0085 41.509 40.3926 40.8817 40.9106 40.7454C41.2858 40.6454 41.652 40.809 41.8931 41.1817L43.2597 43.2999C43.2954 43.3544 43.3311 43.3817 43.3401 43.3817L45.2157 42.4453C45.5284 42.2908 45.8767 42.3362 46.1447 42.5635C46.5823 42.9362 46.7699 43.7817 46.5644 44.5453L45.7159 47.6634C45.6355 47.9543 45.6445 48.2815 45.7159 48.527L46.6448 51.2905C46.8681 51.9632 46.7431 52.8178 46.3501 53.3359C46.1179 53.6359 45.8231 53.7814 45.5016 53.745L43.608 53.5541C43.608 53.5541 43.5098 53.6086 43.4205 53.7905L42.1253 56.4358C41.8753 56.9449 41.4644 57.2085 41.0357 57.1267C40.8749 57.0995 40.732 57.0267 40.6069 56.9176L40.6337 56.8995ZM40.205 51.4542C40.464 51.6814 40.6337 52.0632 40.6784 52.5178L40.9999 55.754C41.0357 56.1086 41.1607 56.2631 41.2054 56.2722C41.2143 56.2722 41.3036 56.2177 41.3929 56.0359L42.6881 53.3905C42.9203 52.9087 43.3043 52.645 43.7152 52.6905L45.6087 52.8814C45.6087 52.8814 45.6802 52.845 45.7517 52.7359C45.9124 52.4723 46.0107 51.9723 45.8678 51.5633L44.9389 48.7997C44.796 48.3815 44.787 47.8815 44.9121 47.427L45.7517 44.3089C45.9124 43.7089 45.6891 43.2453 45.5909 43.1999L43.7152 44.1453C43.2954 44.3544 42.8488 44.2089 42.563 43.7726L41.1964 41.6544C41.1518 41.5817 41.125 41.5726 41.1161 41.5726C41.0446 41.5908 40.8302 41.8454 40.7945 42.3453L40.5712 45.6907C40.5355 46.1907 40.3658 46.6452 40.0889 46.9361L38.4008 48.7452C38.2132 48.9451 38.115 49.3724 38.1596 49.7633C38.1864 50.0269 38.2847 50.1997 38.3561 50.2451L40.0889 51.3723C40.0889 51.3723 40.1604 51.4269 40.1961 51.4542H40.205Z" fill="#171717"/>
<path d="M61.1504 24.8549L61.6595 23.6822L63.1422 24.3458L64.0443 23.0004L65.9646 24.3368L66.5809 23.4186L68.3673 24.664L69.2694 23.3368L70.9128 24.4822L71.4755 23.6459L73.7978 25.264L73.0833 26.3185L71.806 25.4276L71.2433 26.264L69.5909 25.1185L68.6978 26.4549L66.9025 25.2004L66.2862 26.1185L64.3658 24.7822L63.5888 25.9458L61.1504 24.8549Z" fill="#171717"/>
<path d="M79.8837 69.6718L73.9351 69.2082C72.9705 69.1354 72.6311 68.4082 73.1759 67.5991L77.9009 60.563C78.4457 59.7448 79.6783 59.1448 80.6429 59.2266L86.5915 59.6903C87.5561 59.763 87.8955 60.4902 87.3507 61.2993L82.6258 68.3355C82.0809 69.1536 80.8483 69.7536 79.8837 69.6718Z" fill="#171717"/>
<path d="M72.8969 69.2628C72.7719 69.1537 72.6736 69.0264 72.6022 68.8719C72.3878 68.4264 72.4682 67.8901 72.8255 67.3628L77.5504 60.3266C78.1845 59.3812 79.5511 58.7176 80.6676 58.7994L86.6161 59.263C87.2414 59.3085 87.6969 59.5903 87.9113 60.0357C88.1256 60.4812 88.0452 61.0175 87.688 61.5448L82.963 68.581C82.3289 69.5264 80.9623 70.19 79.8459 70.1082L73.8973 69.6446C73.4864 69.6082 73.1381 69.4809 72.8969 69.2628ZM87.0717 60.2903C86.9645 60.1994 86.7859 60.1357 86.5536 60.1176L80.6051 59.6539C79.7833 59.5903 78.7026 60.1176 78.2381 60.8084L73.5132 67.8446C73.3346 68.0991 73.281 68.3446 73.3614 68.4991C73.4328 68.6537 73.6561 68.7628 73.9598 68.79L79.9084 69.2537C80.7301 69.3173 81.8108 68.79 82.2753 68.0991L87.0002 61.063C87.1789 60.8084 87.2324 60.563 87.1521 60.4085C87.1342 60.363 87.1074 60.3266 87.0627 60.2994L87.0717 60.2903Z" fill="#FAFAFA"/>
<path d="M63.5625 71.099L58.257 70.6263C57.8551 70.5991 57.7122 70.29 57.9355 69.9536L59.9183 66.9992C60.1505 66.6537 60.6596 66.4083 61.0705 66.4355L66.376 66.9082C66.7779 66.9355 66.9208 67.2446 66.6975 67.581L64.7147 70.5354C64.4825 70.8809 63.9733 71.1263 63.5625 71.099Z" fill="#0D6EDE"/>
<path d="M70.8761 72.4536C69.0272 72.3081 68.3752 70.9263 69.4202 69.3718L70.3759 67.9446C71.4209 66.381 73.77 65.2356 75.6278 65.381C77.4767 65.5265 78.1287 66.9083 77.0837 68.4628L76.128 69.89C75.083 71.4536 72.7339 72.599 70.8761 72.4536Z" fill="#171717"/>
<path d="M69.1532 72.2445C68.9567 72.0718 68.796 71.8627 68.6888 71.6263C68.3494 70.8991 68.4834 70.0082 69.0818 69.1264L70.0464 67.6992C71.1897 65.9992 73.6549 64.7902 75.6734 64.9447C76.7274 65.0265 77.4955 65.472 77.8349 66.1992C78.1743 66.9265 78.0404 67.8173 77.4419 68.6991L76.4862 70.1264C75.343 71.8263 72.8778 73.0354 70.8592 72.8808C70.1536 72.8263 69.573 72.6081 69.1622 72.2445H69.1532ZM76.8078 66.2265C76.5398 65.9901 76.12 65.8356 75.602 65.7992C73.8871 65.6629 71.6988 66.7356 70.7342 68.181L69.7695 69.6082C69.3497 70.2355 69.2336 70.8172 69.4391 71.2536C69.6445 71.69 70.1625 71.9627 70.9039 72.0263C72.6188 72.1627 74.8071 71.09 75.7717 69.6446L76.7274 68.2173C77.1472 67.5901 77.2633 67.0083 77.0579 66.5719C76.9953 66.4446 76.906 66.3265 76.7988 66.2265H76.8078Z" fill="#FAFAFA"/>
</g>
<path d="M148.08 96.0983C146.704 91.9893 144.721 89.3985 142.658 87.7712C139.076 84.944 134.075 84.9168 130.261 87.4076C126.375 89.9439 120.043 94.0529 116.184 96.471L103.849 103.507C103.849 103.507 78.2509 111.052 76.2323 113.334C74.2138 115.616 74.2941 116.816 74.2941 116.816L64.621 132.988C64.621 132.988 61.1466 144.733 59.8782 150.888C58.6099 157.042 59.8336 161.696 59.8336 161.696C61.2984 162.669 63.7993 162.615 63.7993 162.615C63.7993 162.615 63.7368 164.442 63.8886 166.851C64.0405 169.251 64.5764 171.105 64.5764 171.105C66.9701 172.651 69.5692 170.996 69.5692 170.996L69.7211 171.942C71.5521 173.696 73.3742 172.423 74.5978 171.123C75.5803 170.078 76.9648 166.205 77.4649 164.742C77.5543 164.469 77.8847 164.378 78.108 164.56L79.5818 165.805C82.6186 166.151 84.8247 163.587 86.6111 160.624C88.3974 157.66 92.2649 151.669 92.2649 151.669C92.2649 151.669 107.261 138.715 111.156 136.143C111.156 136.143 116.72 131.961 119.596 129.697C123.982 126.243 129.359 118.916 129.359 118.916C130.627 117.461 135.602 114.716 142.613 111.48C146.919 109.498 149.625 104.925 149.035 100.153C148.875 98.8527 148.571 97.4982 148.106 96.1164L148.08 96.0983Z" fill="#FAFAFA"/>
<path d="M71.5955 173.551C70.5237 173.551 69.702 172.987 69.175 172.487L68.9874 172.305L68.9517 172.105C67.8442 172.523 65.9596 172.905 64.1464 171.732L63.9053 171.578L63.8249 171.296C63.7981 171.214 63.2622 169.333 63.1103 166.869C63.021 165.369 63.0031 164.105 63.0121 163.333C62.0832 163.269 60.5201 163.051 59.4126 162.315L59.1714 162.151L59.091 161.86C59.0374 161.66 57.8316 156.96 59.1267 150.697C60.3951 144.579 63.8517 132.852 63.8874 132.734L63.9678 132.552L73.5427 116.543C73.6141 115.98 73.9714 114.707 75.6684 112.789C77.7138 110.48 99.0608 104.089 103.562 102.762L115.826 95.771C119.506 93.4711 125.49 89.5803 129.867 86.7349C134.047 84.0077 139.388 84.1714 143.139 87.1349C145.631 89.1076 147.543 92.0257 148.811 95.8256C149.275 97.2164 149.597 98.6255 149.775 100.016C150.392 105.007 147.569 109.998 142.916 112.143C135.913 115.37 131.054 118.079 129.911 119.389C129.733 119.643 124.463 126.797 120.05 130.27C117.201 132.515 111.655 136.688 111.592 136.724C107.894 139.17 94.0322 151.106 92.8264 152.151C92.3262 152.924 88.8875 158.269 87.244 160.987C85.6899 163.569 83.18 166.96 79.4823 166.533L79.259 166.505L77.9996 165.442C77.2851 167.496 76.0971 170.596 75.1325 171.614C73.7838 173.042 72.5959 173.523 71.6134 173.523L71.5955 173.551ZM70.3987 171.523C71.14 172.151 72.2297 172.469 74.016 170.569C74.6145 169.942 75.6416 167.605 76.7134 164.469C76.8385 164.105 77.1332 163.824 77.4994 163.715C77.8656 163.605 78.2586 163.696 78.5623 163.942L79.8574 165.033C81.9475 165.16 83.8499 163.66 85.94 160.196C87.7174 157.251 91.567 151.288 91.6117 151.224L91.7546 151.06C92.3709 150.533 106.831 138.052 110.726 135.47C110.744 135.452 116.281 131.288 119.113 129.061C123.364 125.716 128.679 118.498 128.732 118.425C130.545 116.343 138.003 112.725 142.282 110.743C146.337 108.871 148.802 104.544 148.257 100.216C148.096 98.9346 147.802 97.6255 147.364 96.3346C146.185 92.8257 144.452 90.1439 142.192 88.3621C138.941 85.7895 134.306 85.6622 130.67 88.0349C126.294 90.8893 120.301 94.7801 116.585 97.1074L104.063 104.225C94.2465 107.125 78.1604 112.289 76.7938 113.825C75.0968 115.743 75.0521 116.761 75.0521 116.77V116.979L74.9449 117.189L65.3254 133.279C64.9949 134.406 61.8152 145.251 60.6273 151.015C59.5823 156.051 60.27 160.06 60.5022 161.16C61.5741 161.715 63.2086 161.824 63.7802 161.805L64.5841 161.787L64.5573 162.605C64.5573 162.605 64.4948 164.433 64.6377 166.76C64.7448 168.505 65.0664 169.96 65.2182 170.551C67.1118 171.56 69.1304 170.314 69.1482 170.296L70.1128 169.687L70.4076 171.505L70.3987 171.523Z" fill="#171717"/>
<path d="M64.0236 163.333L63.5234 161.869C63.5949 161.842 65.1669 161.233 65.6671 158.842C66.2744 155.96 68.945 146.151 69.0522 145.733L69.1058 145.588L72.1158 139.724C72.1605 139.679 76.3227 134.988 76.9836 131.497C77.6357 128.015 77.1801 126.252 77.1712 126.243L78.636 125.816C78.6628 125.897 79.2077 127.897 78.4752 131.788C77.7786 135.497 73.8932 140.024 73.3127 140.697L70.4992 146.233C70.2401 147.179 67.7214 156.469 67.1497 159.169C66.462 162.451 64.1129 163.296 64.0147 163.333H64.0236Z" fill="#171717"/>
<path d="M69.9425 171.632L69.1476 170.314L69.5495 170.969L69.1387 170.314C69.1387 170.314 70.6928 169.214 71.1483 165.505C71.6664 161.26 75.9447 149.133 76.1233 148.624L76.1769 148.47L76.2841 148.351C76.2841 148.351 79.2673 145.097 80.6875 141.97C82.0272 139.024 81.4288 136.824 81.4199 136.806L82.8758 136.361C82.9115 136.47 83.6707 139.106 82.063 142.624C80.6785 145.67 78.0705 148.651 77.4988 149.288C76.9986 150.706 73.1223 161.86 72.6578 165.687C72.113 170.142 70.1658 171.478 69.9515 171.614L69.9425 171.632Z" fill="#171717"/>
<path d="M78.1054 165.087L76.7656 164.351L81.4369 155.542C81.4816 155.488 85.5634 150.26 87.0015 147.67C88.4127 145.106 88.6181 142.679 87.5106 141.47L88.627 140.415C90.2169 142.152 90.1008 145.215 88.3323 148.424C86.9032 151.006 83.1518 155.842 82.6785 156.451L78.1143 165.078L78.1054 165.087Z" fill="#171717"/>
<path d="M98.7129 129.252L97.8823 127.316C97.2213 125.988 95.7118 124.343 93.863 122.952C91.7729 121.388 89.1827 120.57 86.5925 120.689L83.1895 120.825L83.127 119.279L86.53 119.143C89.4864 119.025 92.3981 119.934 94.7651 121.707C95.7476 122.443 98.1413 124.388 99.2578 126.652L100.106 128.625L98.7129 129.243V129.252Z" fill="#171717"/>
<path d="M97.9529 133.288C95.97 131.761 92.2723 129.643 90.7896 130.443L90.084 129.07C92.8975 127.561 98.2744 131.588 98.8729 132.052L97.9529 133.288Z" fill="#171717"/>
<path d="M129.376 120.07L127.982 119.461C130.198 114.234 129.769 109.362 129.76 109.316L131.269 109.162C131.287 109.371 131.752 114.461 129.376 120.07Z" fill="#171717"/>
<path d="M128.994 107.443C128.137 104.98 126.815 104.334 126.797 104.325L127.395 102.907C127.476 102.944 129.334 103.789 130.423 106.925L128.994 107.443Z" fill="#171717"/>
<path d="M76.0788 148.979C75.9001 147.388 75.0695 145.788 75.0605 145.77L76.4003 145.042C76.436 145.115 77.3739 146.924 77.5793 148.806L76.0698 148.979H76.0788Z" fill="#171717"/>
<path d="M71.444 141.351C71.2654 139.761 70.4347 138.161 70.4258 138.142L71.7655 137.415C71.8013 137.488 72.7391 139.297 72.9445 141.179L71.4351 141.351H71.444Z" fill="#171717"/>
<path d="M82.4312 156.924L81.0915 156.187C81.547 155.333 80.9664 153.397 80.502 152.378L81.8774 151.715C82.0382 152.051 83.3959 155.097 82.4312 156.915V156.924Z" fill="#171717"/>
<path d="M59.3418 154.842L60.5208 155.142C60.9942 155.26 61.3157 155.715 61.2621 156.206C61.1549 157.315 61.0567 159.406 61.4497 161.905L59.6991 161.215L59.3418 154.851V154.842Z" fill="#171717"/>
<path d="M63.6191 164.987L64.95 165.324C65.3698 165.433 65.6645 165.796 65.6913 166.233C65.7538 167.187 65.9146 169.042 66.3076 171.523L64.557 170.832L63.6191 164.996V164.987Z" fill="#171717"/>
<path d="M116.877 104.68L117.94 105.444C118.092 105.553 118.289 105.58 118.467 105.516L119.682 105.062C120.129 104.898 120.566 105.316 120.423 105.78L120.039 107.044C119.986 107.225 120.021 107.425 120.138 107.58L120.941 108.616C121.236 108.998 120.977 109.553 120.504 109.562L119.209 109.58C119.021 109.58 118.842 109.68 118.744 109.834L118.021 110.934C117.762 111.334 117.154 111.253 117.003 110.798L116.583 109.553C116.52 109.371 116.377 109.234 116.199 109.18L114.948 108.825C114.493 108.698 114.385 108.089 114.761 107.798L115.797 107.007C115.949 106.889 116.029 106.707 116.029 106.516L115.975 105.198C115.957 104.716 116.484 104.425 116.877 104.698V104.68Z" fill="#FAFAFA"/>
<path d="M117.549 111.562C117.549 111.562 117.468 111.562 117.424 111.562C117.066 111.516 116.763 111.262 116.647 110.916L116.227 109.671C116.209 109.607 116.155 109.562 116.102 109.543L114.851 109.189C114.503 109.089 114.244 108.798 114.172 108.434C114.101 108.071 114.244 107.707 114.539 107.48L115.575 106.689C115.628 106.653 115.655 106.589 115.655 106.525L115.602 105.207C115.584 104.834 115.78 104.498 116.102 104.316C116.423 104.134 116.807 104.162 117.102 104.38L118.165 105.144C118.219 105.18 118.281 105.189 118.344 105.171L119.558 104.716C119.898 104.589 120.273 104.671 120.541 104.925C120.809 105.18 120.907 105.562 120.8 105.916L120.416 107.18C120.398 107.243 120.416 107.307 120.452 107.362L121.255 108.398C121.479 108.689 121.523 109.08 121.371 109.416C121.211 109.752 120.889 109.962 120.523 109.971L119.228 109.989C119.165 109.989 119.103 110.025 119.067 110.08L118.344 111.18C118.165 111.452 117.87 111.607 117.558 111.607L117.549 111.562ZM116.557 104.962C116.557 104.962 116.477 104.98 116.459 104.989C116.432 105.007 116.352 105.062 116.361 105.171L116.414 106.489C116.423 106.807 116.28 107.107 116.03 107.298L114.994 108.089C114.905 108.153 114.914 108.243 114.923 108.28C114.923 108.316 114.958 108.398 115.057 108.434L116.307 108.789C116.611 108.871 116.852 109.107 116.95 109.407L117.37 110.652C117.406 110.752 117.486 110.78 117.522 110.78C117.558 110.78 117.647 110.78 117.709 110.698L118.433 109.598C118.612 109.334 118.897 109.171 119.21 109.171L120.505 109.153C120.612 109.153 120.657 109.071 120.675 109.043C120.693 109.007 120.719 108.925 120.648 108.834L119.844 107.798C119.648 107.543 119.594 107.216 119.683 106.916L120.067 105.653C120.103 105.553 120.041 105.48 120.014 105.453C119.987 105.425 119.916 105.371 119.817 105.407L118.603 105.862C118.308 105.971 117.986 105.925 117.727 105.744L116.673 104.98C116.673 104.98 116.593 104.944 116.566 104.944L116.557 104.962Z" fill="#171717"/>
<path d="M117.971 107.38C118.087 107.316 118.194 107.289 118.319 107.289C118.435 107.289 118.551 107.325 118.649 107.398C118.748 107.471 118.837 107.562 118.899 107.689C119.016 107.907 119.042 108.116 118.971 108.307C118.899 108.498 118.739 108.671 118.471 108.816C118.247 108.943 118.042 109.007 117.854 109.016L117.622 108.58C117.72 108.58 117.819 108.553 117.935 108.525C118.042 108.498 118.131 108.462 118.203 108.425C118.301 108.371 118.364 108.307 118.39 108.234C118.417 108.162 118.417 108.089 118.372 108.007C118.328 107.934 118.274 107.889 118.194 107.871C118.113 107.862 118.024 107.88 117.917 107.943C117.837 107.989 117.756 108.053 117.676 108.143H117.426L116.943 107.062L118.06 106.443L118.301 106.889L117.64 107.253L117.756 107.525C117.819 107.471 117.863 107.434 117.89 107.425C117.917 107.407 117.944 107.389 117.971 107.38Z" fill="#171717"/>
<path d="M117.815 103.489C116.86 102.434 115.895 102.925 115.859 102.944L115.502 102.262C116.02 101.98 117.279 101.762 118.378 102.962L117.824 103.489H117.815Z" fill="#171717"/>
<path d="M117.502 113.625C116.323 113.625 115.626 112.789 115.412 112.307L116.1 111.98C116.1 111.98 116.582 112.989 117.734 112.834L117.833 113.598C117.717 113.616 117.609 113.616 117.502 113.616V113.625Z" fill="#171717"/>
<path d="M48.5534 129.079C48.4462 129.079 48.3658 128.97 48.4194 128.87L64.6931 97.7528C65.2022 96.6164 66.4616 95.871 68.3284 95.7983L80.154 95.3256C80.2076 95.3256 80.2612 95.3528 80.288 95.4074L99.8397 134.088L108.968 149.615C109.022 149.715 108.959 149.842 108.843 149.842C106.86 149.815 104.484 148.524 103.377 146.851L86.8797 121.816L78.0551 108.434C77.6085 107.752 76.7242 107.207 75.8846 107.034C75.8221 107.025 75.7596 107.052 75.7239 107.116L65.3362 128.116C65.3094 128.161 65.2648 128.188 65.2201 128.197L48.5534 129.088V129.079Z" fill="#FAFAFA"/>
<path d="M108.851 150.515H108.842C106.636 150.479 104.055 149.069 102.84 147.224L77.5097 108.816C77.2328 108.389 76.6969 108.007 76.1253 107.798L65.9252 128.416C65.8001 128.67 65.5411 128.843 65.2553 128.861L48.5886 129.752C48.3028 129.779 48.0259 129.625 47.874 129.379C47.7222 129.134 47.7043 128.816 47.8383 128.561L64.1209 97.4255C64.773 96.0437 66.2914 95.2074 68.31 95.1256L80.1356 94.6529C80.4304 94.6347 80.743 94.8165 80.877 95.0983L100.429 133.779L109.539 149.279C109.691 149.533 109.691 149.851 109.539 150.115C109.396 150.369 109.128 150.524 108.851 150.524V150.515ZM75.8662 106.362C75.9198 106.362 75.9734 106.362 76.0181 106.38C77.0542 106.589 78.0724 107.252 78.6083 108.071L103.939 146.479C104.743 147.697 106.342 148.715 107.878 149.051L99.2407 134.334L79.8588 95.9983L68.3635 96.4619C66.8183 96.5255 65.7287 97.0801 65.2999 98.0255L65.1392 98.3255L49.4371 128.361L64.8891 127.534L75.1428 106.807C75.2857 106.525 75.5626 106.353 75.8662 106.353V106.362Z" fill="#171717"/>
<path d="M92.5818 181.432C90.5453 181.514 88.0177 180.187 86.8654 178.441L70.3684 153.406L61.5438 140.024C60.9811 139.17 59.7485 138.524 58.7571 138.561C55.1844 138.706 50.7006 136.306 48.7982 133.224C46.8868 130.152 48.2533 127.516 51.8261 127.37L63.7411 126.888L97.3782 181.114C97.3782 181.114 97.3782 181.214 97.3246 181.223L92.5997 181.414L92.5818 181.432Z" fill="#FAFAFA"/>
<path d="M92.4058 182.114C90.1907 182.114 87.5559 180.696 86.3233 178.823L60.9927 140.415C60.5551 139.752 59.5547 139.233 58.7776 139.252C54.9995 139.406 50.2567 136.87 48.2292 133.606C47.1753 131.906 46.9698 130.243 47.6576 128.906C48.3453 127.579 49.8101 126.797 51.7841 126.725L64.0831 126.234L98.1222 181.114L97.9435 181.523C97.8274 181.759 97.5863 181.905 97.3272 181.914L92.6023 182.105C92.5398 182.105 92.4683 182.105 92.3969 182.105L92.4058 182.114ZM58.8402 137.906C60.037 137.906 61.4215 138.643 62.0913 139.661L87.4219 178.069C88.449 179.623 90.7177 180.841 92.5666 180.76L96.2733 180.614L63.3864 127.597L51.8466 128.061C50.3639 128.125 49.2921 128.643 48.8366 129.534C48.381 130.425 48.5597 131.615 49.3546 132.888C51.1231 135.743 55.4014 138.033 58.733 137.906C58.7687 137.906 58.8044 137.906 58.8491 137.906H58.8402Z" fill="#171717"/>
<path d="M53.0776 133.106C53.7922 134.261 55.4535 135.143 56.7843 135.088C58.1152 135.034 58.6243 134.061 57.9097 132.906C57.1952 131.752 55.5339 130.87 54.2031 130.925C52.8722 130.979 52.3631 131.952 53.0776 133.106Z" fill="#FAFAFA"/>
<path d="M77.5609 156.624L90.3066 176.05C91.0032 177.105 93.9686 177.714 95.2012 177.669L95.1744 178.169L65.2708 129.961L62.3054 129.724C61.0192 129.779 60.5548 130.734 61.2872 131.834L66.4408 139.688L77.5609 156.633V156.624Z" fill="#FAFAFA"/>
<path d="M95.7279 180.296L94.4953 178.305C93.0305 178.178 90.5475 177.614 89.7615 176.414L77.0158 156.987L78.1144 156.242L90.8601 175.66C91.1816 176.141 92.4142 176.587 93.5753 176.814L64.8954 130.579L62.2516 130.37C61.9747 130.388 61.7157 130.488 61.6353 130.652C61.5549 130.824 61.6263 131.124 61.8318 131.434L66.9854 139.288L65.8868 140.033L60.7332 132.179C60.2508 131.443 60.1437 130.661 60.4563 130.043C60.76 129.434 61.4209 129.061 62.2784 129.025L65.6546 129.288L95.2277 176.969L95.8976 176.941L95.7279 180.278V180.296Z" fill="#171717"/>
<path d="M69.2711 142.766L68.1719 143.513L74.2391 152.758L75.3384 152.011L69.2711 142.766Z" fill="#171717"/>
<path d="M97.8441 180.85L113.698 150.16C113.948 149.679 113.886 148.86 113.555 148.324L80.9094 95.6983C80.5789 95.171 80.1145 95.1256 79.8644 95.6074L64.0105 126.297C63.7604 126.779 63.8229 127.597 64.1534 128.134L96.7991 180.759C97.1295 181.287 97.594 181.332 97.8441 180.85Z" fill="#FAFAFA"/>
<path d="M97.3806 181.859C96.9429 181.859 96.5231 181.596 96.2373 181.123L63.5917 128.497C63.1361 127.761 63.0647 126.688 63.4219 125.988L79.2759 95.2983C79.4902 94.8711 79.8564 94.6165 80.2762 94.6074C80.7228 94.5892 81.1605 94.862 81.4642 95.3438L114.11 147.97C114.565 148.706 114.637 149.779 114.28 150.479L98.4256 181.169C98.2023 181.596 97.8451 181.85 97.4253 181.859C97.4074 181.859 97.3985 181.859 97.3806 181.859ZM80.3655 96.0801L64.5831 126.616C64.458 126.861 64.4848 127.425 64.6992 127.779L97.327 180.387L113.101 149.851C113.226 149.606 113.199 149.042 112.975 148.688L80.3477 96.0801H80.3655Z" fill="#171717"/>
<path d="M95.7816 173.76L109.51 147.179C109.697 146.815 109.644 146.197 109.403 145.806L80.9102 99.8618C80.6601 99.4618 80.3117 99.4345 80.1241 99.7982L66.396 126.379C66.2084 126.743 66.262 127.361 66.5032 127.752L94.9956 173.696C95.2457 174.096 95.594 174.123 95.7816 173.76Z" fill="#171717"/>
<path d="M94.716 142.942L97.869 136.834C98.0208 136.543 97.9851 136.034 97.7796 135.706L94.2605 130.034C94.0551 129.706 93.7693 129.688 93.6174 129.979L90.4645 136.088C90.3127 136.379 90.3484 136.888 90.5538 137.215L94.0729 142.888C94.2784 143.215 94.5642 143.233 94.716 142.942Z" fill="#171717"/>
<path d="M94.4421 143.533C94.1831 143.533 93.933 143.37 93.7633 143.088L90.2442 137.415C89.9673 136.97 89.9226 136.324 90.137 135.906L93.2899 129.797C93.4239 129.543 93.6382 129.397 93.8794 129.388C94.1384 129.388 94.4064 129.534 94.585 129.834L98.1041 135.506C98.381 135.952 98.4257 136.597 98.2113 137.015L95.0584 143.115C94.9244 143.37 94.71 143.515 94.4689 143.524C94.46 143.524 94.451 143.524 94.4421 143.524V143.533ZM93.933 130.225L90.8069 136.27C90.7265 136.424 90.7443 136.779 90.8783 137.006L94.3974 142.679C94.3974 142.679 94.4064 142.697 94.4153 142.697L97.5414 136.652C97.6218 136.497 97.6039 136.143 97.47 135.915L93.9508 130.243C93.9508 130.243 93.9508 130.225 93.9419 130.225H93.933Z" fill="#FAFAFA"/>
<path d="M95.658 166.551L99.6148 158.897C99.8024 158.524 99.7577 157.897 99.4987 157.487L95.0864 150.37C94.8363 149.96 94.4701 149.933 94.2825 150.297L90.3258 157.951C90.1382 158.324 90.1829 158.951 90.4419 159.36L94.8542 166.478C95.1043 166.887 95.4705 166.914 95.658 166.551Z" fill="#0D6EDE"/>
<path d="M95.3003 167.196C95.0055 167.196 94.7286 167.015 94.5232 166.687L90.1109 159.578C89.7804 159.051 89.7268 158.278 89.9859 157.787L93.9426 150.133C94.0856 149.851 94.3267 149.679 94.6036 149.67C94.9073 149.67 95.202 149.842 95.4075 150.179L99.8198 157.297C100.15 157.824 100.204 158.597 99.9448 159.087L95.988 166.742C95.8451 167.024 95.604 167.196 95.3271 167.205H95.3003V167.196ZM94.6215 150.433L90.6647 158.142C90.5486 158.36 90.5664 158.851 90.7629 159.16L95.1752 166.269C95.2467 166.378 95.3003 166.415 95.3181 166.415L95.6575 166.542L95.3181 166.36L99.2749 158.706C99.391 158.487 99.3732 157.997 99.1767 157.688L94.7644 150.57C94.7018 150.46 94.6393 150.424 94.6215 150.424V150.433Z" fill="#171717"/>
<path d="M81.6346 123.252L85.5914 115.598C85.779 115.225 85.7343 114.598 85.4753 114.189L81.063 107.071C80.8129 106.662 80.4467 106.634 80.2591 106.998L76.3023 114.652C76.1148 115.025 76.1594 115.652 76.4184 116.061L80.8307 123.179C81.0808 123.588 81.447 123.616 81.6346 123.252Z" fill="#FAFAFA"/>
<path d="M81.2768 123.897C80.9821 123.897 80.7052 123.716 80.4998 123.388L76.0875 116.27C75.757 115.743 75.7034 114.97 75.9624 114.48L79.9192 106.825C80.0621 106.543 80.3033 106.371 80.5802 106.362C80.8481 106.362 81.1697 106.534 81.384 106.871L85.7963 113.98C86.1268 114.507 86.1804 115.28 85.9214 115.77L81.9646 123.425C81.8217 123.707 81.5805 123.879 81.3036 123.888C81.2947 123.888 81.2858 123.888 81.2768 123.888V123.897ZM80.598 107.134L76.6412 114.843C76.5251 115.07 76.543 115.552 76.7395 115.861L81.1518 122.979C81.2143 123.088 81.2768 123.125 81.2947 123.125V123.07L85.2515 115.416C85.3676 115.189 85.3497 114.707 85.1532 114.398L80.7409 107.28C80.6784 107.171 80.6159 107.134 80.598 107.134Z" fill="#171717"/>
<path d="M101.49 155.26L105.447 147.606C105.634 147.233 105.59 146.606 105.331 146.197L100.918 139.079C100.668 138.67 100.302 138.643 100.115 139.006L96.1578 146.66C95.9702 147.033 96.0149 147.66 96.2739 148.07L100.686 155.187C100.936 155.597 101.303 155.624 101.49 155.26Z" fill="#FAFAFA"/>
<path d="M101.132 155.906C100.838 155.906 100.561 155.724 100.355 155.397L95.9429 148.288C95.6125 147.76 95.5589 146.988 95.8179 146.497L99.7747 138.843C99.9176 138.561 100.159 138.388 100.436 138.379C100.713 138.37 101.025 138.552 101.239 138.888L105.652 146.006C105.982 146.533 106.036 147.306 105.777 147.797L101.82 155.451C101.668 155.733 101.436 155.906 101.159 155.915C101.15 155.915 101.141 155.915 101.132 155.915V155.906ZM100.453 139.143L96.4967 146.851C96.3806 147.079 96.3985 147.56 96.595 147.87L101.007 154.988C101.07 155.097 101.132 155.133 101.15 155.133L101.49 155.26L101.15 155.078L105.107 147.424C105.223 147.197 105.205 146.715 105.009 146.406L100.596 139.288C100.534 139.179 100.471 139.143 100.453 139.143Z" fill="#171717"/>
<path d="M88.2518 133.934L92.2086 126.279C92.3961 125.907 92.3515 125.279 92.0925 124.87L87.6802 117.752C87.4301 117.343 87.0639 117.316 86.8763 117.679L82.9195 125.334C82.7319 125.707 82.7766 126.334 83.0356 126.743L87.4479 133.861C87.698 134.27 88.0642 134.297 88.2518 133.934Z" fill="#FAFAFA"/>
<path d="M87.9057 134.579C87.611 134.579 87.3341 134.397 87.1287 134.07L82.7164 126.952C82.3859 126.425 82.3323 125.652 82.5913 125.161L86.5481 117.507C86.691 117.225 86.9322 117.052 87.2091 117.043C87.486 117.034 87.7986 117.216 88.0129 117.552L92.4252 124.67C92.7557 125.197 92.8093 125.97 92.5503 126.461L88.5935 134.115C88.4417 134.397 88.2094 134.57 87.9325 134.579C87.9325 134.579 87.9147 134.579 87.9057 134.579ZM87.2269 117.816L83.2702 125.525C83.154 125.752 83.1719 126.234 83.3684 126.543L87.7807 133.661C87.8432 133.77 87.9057 133.806 87.9236 133.806L88.263 133.934L87.9236 133.752L91.8804 126.097C91.9965 125.879 91.9786 125.388 91.7821 125.079L87.3698 117.961C87.3073 117.852 87.2448 117.816 87.2269 117.816Z" fill="#171717"/>
<path d="M75.6552 132.87L78.7992 126.788C78.951 126.497 78.9153 125.997 78.7099 125.67L75.2086 120.016C75.0121 119.688 74.7174 119.67 74.5655 119.961L71.4215 126.043C71.2697 126.334 71.3054 126.834 71.5109 127.161L75.0121 132.815C75.2086 133.143 75.5034 133.161 75.6552 132.87Z" fill="#171717"/>
<path d="M75.3715 133.461C75.1125 133.461 74.8624 133.297 74.6927 133.024L71.1914 127.37C70.9145 126.925 70.8699 126.279 71.0842 125.861L74.2282 119.779C74.3622 119.525 74.5766 119.379 74.8177 119.37C75.1125 119.343 75.3447 119.525 75.5233 119.807L79.0246 125.461C79.3015 125.906 79.3461 126.552 79.1318 126.97L75.9878 133.052C75.8538 133.306 75.6394 133.452 75.3983 133.461C75.3983 133.461 75.3804 133.461 75.3715 133.461ZM74.8624 120.207L71.7541 126.225C71.6737 126.379 71.6916 126.734 71.8256 126.961L75.3268 132.615C75.3268 132.615 75.3268 132.624 75.3358 132.634L78.444 126.616C78.5244 126.461 78.5065 126.106 78.3726 125.879L74.8713 120.225C74.8713 120.225 74.8713 120.216 74.8624 120.207Z" fill="#FAFAFA"/>
<path d="M89.0272 155.869L92.984 148.215C93.1715 147.842 93.1269 147.215 92.8679 146.806L88.4555 139.688C88.2055 139.279 87.8393 139.252 87.6517 139.615L83.6949 147.27C83.5073 147.642 83.552 148.27 83.811 148.679L88.2233 155.797C88.4734 156.206 88.8396 156.233 89.0272 155.869Z" fill="#FAFAFA"/>
<path d="M88.6811 156.515C88.3864 156.515 88.1095 156.333 87.9041 156.006L83.4918 148.897C83.1613 148.369 83.1077 147.597 83.3667 147.106L87.3235 139.452C87.4664 139.17 87.7076 138.997 87.9845 138.988C88.2881 138.97 88.5829 139.161 88.7883 139.497L93.2006 146.615C93.5311 147.142 93.5847 147.915 93.3257 148.406L89.3689 156.06C89.217 156.342 88.9848 156.515 88.7079 156.524C88.699 156.524 88.6901 156.524 88.6811 156.524V156.515ZM88.0023 139.752L84.0455 147.46C83.9294 147.679 83.9473 148.17 84.1438 148.479L88.5561 155.597C88.6186 155.706 88.6811 155.742 88.699 155.742L89.0384 155.869L88.699 155.687L92.6558 148.033C92.7719 147.806 92.754 147.324 92.5575 147.015L88.1452 139.897C88.0827 139.788 88.0202 139.752 88.0023 139.752Z" fill="#171717"/>
<path d="M82.4178 145.215L86.3746 137.561C86.5622 137.188 86.5175 136.561 86.2585 136.152L81.8462 129.034C81.5961 128.625 81.2299 128.597 81.0423 128.961L77.0855 136.615C76.898 136.988 76.9426 137.615 77.2016 138.024L81.6139 145.142C81.864 145.551 82.2302 145.579 82.4178 145.215Z" fill="#FAFAFA"/>
<path d="M82.0718 145.86C81.777 145.86 81.5001 145.679 81.2947 145.351L76.8824 138.233C76.5519 137.706 76.4983 136.933 76.7573 136.442L80.7141 128.788C80.866 128.506 81.0982 128.334 81.3751 128.325C81.6788 128.297 81.9735 128.497 82.1789 128.834L86.5912 135.943C86.9217 136.47 86.9753 137.242 86.7163 137.733L82.7595 145.388C82.6166 145.67 82.3754 145.842 82.0986 145.851C82.0896 145.851 82.0807 145.851 82.0718 145.851V145.86ZM81.3929 129.097L77.4362 136.806C77.3201 137.024 77.3379 137.515 77.5344 137.824L81.9467 144.933C82.0092 145.042 82.0718 145.079 82.0896 145.079L82.429 145.206L82.0896 145.024L86.0464 137.37C86.1625 137.152 86.1447 136.661 85.9482 136.352L81.5359 129.243C81.4733 129.134 81.4108 129.097 81.3929 129.097Z" fill="#171717"/>
<path d="M102.147 166.951L106.613 158.306C106.703 158.133 106.676 157.851 106.56 157.66L106.524 157.597C106.408 157.415 106.247 157.397 106.158 157.569L101.692 166.214C101.603 166.387 101.629 166.669 101.745 166.86L101.781 166.924C101.897 167.105 102.058 167.124 102.147 166.951Z" fill="#171717"/>
<path d="M101.978 167.587C101.728 167.587 101.496 167.442 101.344 167.196C101.094 166.787 101.067 166.305 101.237 165.978L105.703 157.333C105.828 157.097 106.042 156.951 106.283 156.942C106.551 156.924 106.783 157.069 106.944 157.333C107.194 157.733 107.221 158.224 107.051 158.551L102.585 167.196C102.46 167.433 102.246 167.578 102.005 167.587H101.978Z" fill="#171717"/>
<path d="M61.1539 101.016C61.4754 100.616 62.0381 100.38 62.7527 100.353L68.1207 100.134C70.6662 100.035 73.5601 100.598 76.4272 101.762C76.5255 101.798 76.5791 101.88 76.588 101.934C76.588 101.934 76.5791 101.98 76.5523 101.998L66.2003 121.916C66.2003 121.916 66.2003 121.916 66.1825 121.916L53.2582 120.988L50.7483 121.034C50.7394 121.034 50.7305 121.025 50.7305 121.016C50.8644 120.761 61.1271 101.044 61.1539 101.007V101.016Z" fill="#FAFAFA"/>
<path d="M66.5749 122.616L66.1283 122.588L53.2129 121.661L50.3905 121.716L49.9707 121.07L50.1404 120.716C50.194 120.607 51.4355 118.225 53.0522 115.125C60.4298 100.962 60.5817 100.662 60.6442 100.58C61.0908 100.035 61.8232 99.7072 62.7253 99.6709L68.0933 99.4527C70.7371 99.3436 73.7025 99.9254 76.6678 101.125C77.0072 101.262 77.2305 101.562 77.2395 101.898L77.2573 102.289L77.0608 102.434L66.5749 122.607V122.616ZM53.2487 120.316L65.8068 121.216L75.6942 102.189C73.0683 101.18 70.4781 100.707 68.138 100.798L62.77 101.016C62.2876 101.034 61.8946 101.171 61.6892 101.398C61.2783 102.18 57.0447 110.307 54.2133 115.752C53.204 117.689 52.3376 119.352 51.8196 120.343L53.2397 120.316H53.2487Z" fill="#171717"/>
<path d="M66.0382 121.716C63.1711 120.552 60.2772 119.989 57.7317 120.089L52.3637 120.307C51.6491 120.334 51.0864 120.57 50.7649 120.97C50.622 121.152 50.6398 121.407 50.8006 121.679C51.1043 122.17 51.8099 122.543 52.3726 122.525L66.0918 121.97C66.2437 121.97 66.199 121.788 66.0293 121.716H66.0382Z" fill="#171717"/>
<path d="M52.3374 123.198C51.5514 123.198 50.6671 122.707 50.2563 122.043C49.9347 121.525 49.9437 120.952 50.2652 120.552C50.7118 120.007 51.4531 119.679 52.3463 119.643L57.7143 119.425C60.3581 119.316 63.3235 119.898 66.2888 121.098C66.6818 121.261 66.9141 121.643 66.8515 122.025C66.789 122.37 66.4943 122.634 66.137 122.643L52.4088 123.198C52.4088 123.198 52.3552 123.198 52.3374 123.198ZM51.3727 121.307C51.596 121.634 52.0426 121.861 52.3642 121.861L63.0912 121.434C61.2334 120.934 59.4381 120.698 57.7679 120.77L52.3999 120.988C51.9533 121.007 51.5871 121.125 51.3727 121.316V121.307Z" fill="#171717"/>
<path d="M98.7554 117.452C98.7554 117.452 101.426 119.043 100.756 123.188C100.086 127.334 97.7908 134.724 95.3078 140.961C93.4499 145.642 91.8422 150.015 93.8608 153.269C95.4328 155.806 98.9073 156.433 101.337 154.733C102.534 153.897 103.802 152.551 104.883 150.397C107.125 145.906 109.259 139.497 110.224 136.443C110.608 135.233 111.01 133.452 111.635 132.361C112.76 130.406 114.315 128.743 116.181 127.506C118.254 126.143 120.996 123.997 122.309 121.516L98.7644 117.443L98.7554 117.452Z" fill="#FAFAFA"/>
<path d="M98.2822 156.451C97.8624 156.451 97.4516 156.406 97.0318 156.324C95.4151 155.987 94.0575 155.051 93.209 153.678C90.8956 149.96 92.8606 145.024 94.5934 140.67C97.13 134.306 99.3451 127.061 99.9971 123.061C100.578 119.479 98.3894 118.134 98.3715 118.125L99.1397 116.789C99.2647 116.861 102.257 118.698 101.507 123.316C100.837 127.416 98.577 134.788 96.0135 141.252C94.0843 146.097 92.7534 150.033 94.5041 152.86C95.1293 153.869 96.1386 154.569 97.3444 154.815C98.5859 155.069 99.881 154.815 100.899 154.097C102.203 153.188 103.311 151.824 104.195 150.051C106.383 145.679 108.447 139.506 109.483 136.215C109.572 135.924 109.67 135.588 109.768 135.243C110.09 134.134 110.447 132.879 110.965 131.979C112.144 129.925 113.806 128.152 115.762 126.87C117.762 125.561 120.397 123.507 121.63 121.161L122.97 121.888C121.585 124.516 118.736 126.752 116.583 128.161C114.824 129.315 113.341 130.906 112.278 132.752C111.85 133.488 111.519 134.652 111.224 135.67C111.117 136.033 111.019 136.37 110.93 136.679C109.876 140.015 107.786 146.279 105.544 150.742C104.543 152.742 103.266 154.297 101.757 155.36C100.738 156.069 99.5237 156.451 98.2822 156.451Z" fill="#171717"/>
<path d="M94.3984 152.86C94.3984 152.86 94.6128 150.215 95.6042 147.897C95.8275 147.379 96.3366 147.033 96.8904 147.079C98.0783 147.179 100.222 147.506 101.83 148.597C102.187 148.842 102.375 149.269 102.357 149.706C102.321 150.515 102.062 151.987 100.945 154.087L98.9269 155.633L95.5953 154.942L94.3984 152.851V152.86Z" fill="#171717"/>
<path d="M106.439 138.188C104.054 136.761 100.544 136.297 100.508 136.297L100.695 134.761C100.856 134.779 104.563 135.27 107.207 136.861L106.439 138.197V138.188Z" fill="#171717"/>
<path d="M99.2919 154.378H99.1669C99.1669 154.378 98.4791 154.369 97.6931 154.197L96.7285 153.86L96.8893 153.369L97.8182 153.697C98.3362 153.806 98.8186 153.842 99.0418 153.851C99.8814 152.678 99.9886 150.66 99.9886 150.633L100.498 150.66C100.498 150.751 100.382 152.997 99.3634 154.278L99.283 154.378H99.2919Z" fill="#FAFAFA"/>
<path d="M139.521 124.634V126.17C139.521 126.325 139.647 126.525 139.798 126.616L141.031 127.343C141.183 127.434 141.308 127.379 141.308 127.225V125.688C141.308 125.534 141.183 125.334 141.031 125.243L139.798 124.516C139.647 124.425 139.521 124.479 139.521 124.634Z" fill="#171717"/>
<path d="M139.521 120.87V122.407C139.521 122.561 139.647 122.761 139.798 122.852L141.031 123.579C141.183 123.67 141.308 123.616 141.308 123.461V121.925C141.308 121.77 141.183 121.57 141.031 121.479L139.798 120.752C139.647 120.661 139.521 120.716 139.521 120.87Z" fill="#171717"/>
<path d="M139.512 117.116V118.652C139.512 118.807 139.637 119.007 139.789 119.098L141.021 119.825C141.173 119.916 141.298 119.861 141.298 119.707V118.17C141.298 118.016 141.173 117.816 141.021 117.725L139.789 116.998C139.637 116.907 139.512 116.961 139.512 117.116Z" fill="#171717"/>
<path d="M136.484 130.379V131.915C136.484 132.07 136.609 132.27 136.761 132.361L137.994 133.088C138.146 133.179 138.271 133.125 138.271 132.97V131.434C138.271 131.279 138.146 131.079 137.994 130.988L136.761 130.27C136.609 130.179 136.484 130.234 136.484 130.388V130.379Z" fill="#171717"/>
<path d="M136.484 126.616V128.152C136.484 128.307 136.609 128.507 136.761 128.597L137.994 129.325C138.146 129.416 138.271 129.361 138.271 129.207V127.67C138.271 127.516 138.146 127.316 137.994 127.225L136.761 126.507C136.609 126.416 136.484 126.47 136.484 126.625V126.616Z" fill="#171717"/>
<path d="M136.484 122.852V124.388C136.484 124.543 136.609 124.743 136.761 124.834L137.994 125.561C138.146 125.652 138.271 125.597 138.271 125.443V123.907C138.271 123.752 138.146 123.552 137.994 123.461L136.761 122.734C136.609 122.643 136.484 122.698 136.484 122.852Z" fill="#171717"/>
<path d="M136.475 119.089V120.625C136.475 120.779 136.6 120.979 136.752 121.07L137.984 121.798C138.136 121.888 138.261 121.834 138.261 121.679V120.143C138.261 119.989 138.136 119.789 137.984 119.698L136.752 118.97C136.6 118.879 136.475 118.934 136.475 119.089Z" fill="#171717"/>
<path d="M133.268 132.252V133.788C133.268 133.943 133.393 134.143 133.544 134.234L134.777 134.961C134.929 135.052 135.054 134.997 135.054 134.843V133.306C135.054 133.152 134.929 132.952 134.777 132.861L133.544 132.134C133.393 132.043 133.268 132.097 133.268 132.252Z" fill="#171717"/>
<path d="M133.268 128.488V130.025C133.268 130.179 133.393 130.379 133.544 130.47L134.777 131.197C134.929 131.288 135.054 131.234 135.054 131.079V129.543C135.054 129.388 134.929 129.188 134.777 129.097L133.544 128.37C133.393 128.279 133.268 128.334 133.268 128.488Z" fill="#171717"/>
<path d="M133.268 124.725V126.261C133.268 126.416 133.393 126.616 133.544 126.707L134.777 127.434C134.929 127.525 135.054 127.47 135.054 127.316V125.779C135.054 125.625 134.929 125.425 134.777 125.334L133.544 124.607C133.393 124.516 133.268 124.57 133.268 124.725Z" fill="#171717"/>
<path d="M133.268 120.961V122.498C133.268 122.652 133.393 122.852 133.544 122.943L134.777 123.67C134.929 123.761 135.054 123.707 135.054 123.552V122.016C135.054 121.861 134.929 121.661 134.777 121.57L133.544 120.843C133.393 120.752 133.268 120.807 133.268 120.961Z" fill="#171717"/>
<path d="M130.232 130.461V131.997C130.232 132.152 130.357 132.352 130.509 132.443L131.742 133.17C131.894 133.261 132.019 133.206 132.019 133.052V131.515C132.019 131.361 131.894 131.161 131.742 131.07L130.509 130.343C130.357 130.252 130.232 130.306 130.232 130.461Z" fill="#171717"/>
<path d="M130.232 126.707V128.243C130.232 128.397 130.357 128.597 130.509 128.688L131.742 129.416C131.894 129.506 132.019 129.452 132.019 129.297V127.761C132.019 127.607 131.894 127.407 131.742 127.316L130.509 126.588C130.357 126.497 130.232 126.552 130.232 126.707Z" fill="#171717"/>
<path d="M130.221 122.943V124.479C130.221 124.634 130.346 124.834 130.498 124.925L131.73 125.652C131.882 125.743 132.007 125.688 132.007 125.534V123.998C132.007 123.843 131.882 123.643 131.73 123.552L130.498 122.825C130.346 122.734 130.221 122.789 130.221 122.943Z" fill="#171717"/>
<path d="M127.193 132.443V133.979C127.193 134.134 127.318 134.334 127.47 134.425L128.703 135.152C128.855 135.243 128.98 135.188 128.98 135.034V133.497C128.98 133.343 128.855 133.143 128.703 133.052L127.47 132.334C127.318 132.243 127.193 132.297 127.193 132.452V132.443Z" fill="#171717"/>
<path d="M127.193 128.679V130.215C127.193 130.37 127.318 130.57 127.47 130.661L128.703 131.388C128.855 131.479 128.98 131.425 128.98 131.27V129.734C128.98 129.579 128.855 129.379 128.703 129.288L127.47 128.561C127.318 128.47 127.193 128.525 127.193 128.679Z" fill="#171717"/>
<path d="M127.186 124.916V126.452C127.186 126.607 127.311 126.807 127.462 126.897L128.695 127.625C128.847 127.716 128.972 127.661 128.972 127.507V125.97C128.972 125.816 128.847 125.616 128.695 125.525L127.462 124.798C127.311 124.707 127.186 124.761 127.186 124.916Z" fill="#171717"/>
<path d="M123.979 130.552V132.088C123.979 132.243 124.104 132.443 124.255 132.534L125.488 133.261C125.64 133.352 125.765 133.297 125.765 133.143V131.606C125.765 131.452 125.64 131.252 125.488 131.161L124.255 130.434C124.104 130.343 123.979 130.397 123.979 130.552Z" fill="#171717"/>
<path d="M123.979 134.315V135.852C123.979 136.006 124.104 136.206 124.255 136.297L125.488 137.024C125.64 137.115 125.765 137.061 125.765 136.906V135.37C125.765 135.215 125.64 135.015 125.488 134.925L124.255 134.197C124.104 134.106 123.979 134.161 123.979 134.315Z" fill="#171717"/>
<path d="M123.969 126.788V128.325C123.969 128.479 124.094 128.679 124.246 128.77L125.478 129.497C125.63 129.588 125.755 129.534 125.755 129.379V127.843C125.755 127.688 125.63 127.488 125.478 127.397L124.246 126.67C124.094 126.579 123.969 126.634 123.969 126.788Z" fill="#171717"/>
<path d="M120.932 128.77V130.306C120.932 130.461 121.057 130.661 121.209 130.752L122.441 131.479C122.593 131.57 122.718 131.515 122.718 131.361V129.825C122.718 129.67 122.593 129.47 122.441 129.379L121.209 128.652C121.057 128.561 120.932 128.616 120.932 128.77Z" fill="#171717"/>
<path d="M120.941 132.534V134.07C120.941 134.225 121.066 134.425 121.218 134.515L122.451 135.243C122.603 135.334 122.728 135.279 122.728 135.125V133.588C122.728 133.434 122.603 133.234 122.451 133.143L121.218 132.416C121.066 132.325 120.941 132.379 120.941 132.534Z" fill="#171717"/>
<path d="M120.932 136.097V137.633C120.932 137.788 121.057 137.988 121.209 138.079L122.441 138.806C122.593 138.897 122.718 138.843 122.718 138.688V137.152C122.718 136.997 122.593 136.797 122.441 136.706L121.209 135.979C121.057 135.888 120.932 135.943 120.932 136.097Z" fill="#171717"/>
<path d="M117.898 130.552V132.088C117.898 132.243 118.023 132.443 118.175 132.534L119.408 133.261C119.56 133.352 119.685 133.297 119.685 133.143V131.606C119.685 131.452 119.56 131.252 119.408 131.161L118.175 130.434C118.023 130.343 117.898 130.397 117.898 130.552Z" fill="#171717"/>
<path d="M117.898 134.315V135.852C117.898 136.006 118.023 136.206 118.175 136.297L119.408 137.024C119.56 137.115 119.685 137.061 119.685 136.906V135.37C119.685 135.215 119.56 135.015 119.408 134.925L118.175 134.197C118.023 134.106 117.898 134.161 117.898 134.315Z" fill="#171717"/>
<path d="M117.898 137.888V139.424C117.898 139.579 118.023 139.779 118.175 139.87L119.408 140.597C119.56 140.688 119.685 140.633 119.685 140.479V138.943C119.685 138.788 119.56 138.588 119.408 138.497L118.175 137.77C118.023 137.679 117.898 137.733 117.898 137.888Z" fill="#171717"/>
<path d="M114.859 136.097V137.633C114.859 137.788 114.984 137.988 115.136 138.079L116.369 138.806C116.521 138.897 116.646 138.843 116.646 138.688V137.152C116.646 136.997 116.521 136.797 116.369 136.706L115.136 135.979C114.984 135.888 114.859 135.943 114.859 136.097Z" fill="#171717"/>
</g>
<path d="M20.1292 201.925H17.8752V205.453H16.0832V195.219H20.1292C22.1872 195.219 23.5172 196.563 23.5172 198.565C23.5172 200.539 22.1732 201.925 20.1292 201.925ZM19.7792 196.815H17.8752V200.329H19.7512C20.9832 200.329 21.6412 199.671 21.6412 198.551C21.6412 197.431 20.9692 196.815 19.7792 196.815ZM26.4946 205.453H24.8006V195.037H26.4946V205.453ZM30.3443 205.635C28.8743 205.635 27.9783 204.781 27.9783 203.479C27.9783 202.205 28.9023 201.407 30.5403 201.281L32.6123 201.127V200.973C32.6123 200.035 32.0523 199.657 31.1843 199.657C30.1763 199.657 29.6163 200.077 29.6163 200.805H28.1603C28.1603 199.307 29.3923 198.327 31.2683 198.327C33.1303 198.327 34.2783 199.335 34.2783 201.253V205.453H32.7803L32.6543 204.431C32.3603 205.145 31.4223 205.635 30.3443 205.635ZM30.9043 204.347C31.9543 204.347 32.6263 203.717 32.6263 202.653V202.289L31.1843 202.401C30.1203 202.499 29.7143 202.849 29.7143 203.409C29.7143 204.039 30.1343 204.347 30.9043 204.347ZM38.2125 205.453H36.5045V199.965H35.1745V198.537H36.5045V196.381H38.2125V198.537H39.5565V199.965H38.2125V205.453ZM42.6353 205.635C41.1653 205.635 40.2693 204.781 40.2693 203.479C40.2693 202.205 41.1933 201.407 42.8313 201.281L44.9033 201.127V200.973C44.9033 200.035 44.3433 199.657 43.4753 199.657C42.4673 199.657 41.9073 200.077 41.9073 200.805H40.4513C40.4513 199.307 41.6833 198.327 43.5593 198.327C45.4213 198.327 46.5693 199.335 46.5693 201.253V205.453H45.0713L44.9453 204.431C44.6513 205.145 43.7133 205.635 42.6353 205.635ZM43.1953 204.347C44.2453 204.347 44.9173 203.717 44.9173 202.653V202.289L43.4753 202.401C42.4113 202.499 42.0053 202.849 42.0053 203.409C42.0053 204.039 42.4253 204.347 43.1953 204.347ZM47.5339 198.537H48.5279V197.697C48.5279 195.821 49.5219 195.037 51.0199 195.037C51.2859 195.037 51.6079 195.051 51.9019 195.107V196.563H51.2999C50.4319 196.563 50.2219 197.011 50.2219 197.697V198.537H51.8739V199.965H50.2219V205.453H48.5279V199.965H47.5339V198.537ZM52.353 201.981C52.353 199.825 53.907 198.341 56.049 198.341C58.191 198.341 59.745 199.825 59.745 201.981C59.745 204.137 58.191 205.621 56.049 205.621C53.907 205.621 52.353 204.137 52.353 201.981ZM54.061 201.981C54.061 203.241 54.873 204.095 56.049 204.095C57.225 204.095 58.037 203.241 58.037 201.981C58.037 200.721 57.225 199.867 56.049 199.867C54.873 199.867 54.061 200.721 54.061 201.981ZM65.4388 198.509V200.091H64.8088C63.5768 200.091 62.8068 200.749 62.8068 202.093V205.453H61.0988V198.551H62.7088L62.8068 199.559C63.1008 198.873 63.7588 198.411 64.6828 198.411C64.9208 198.411 65.1588 198.439 65.4388 198.509ZM68.3029 205.453H66.5949V198.537H68.1629L68.3029 199.349C68.6529 198.775 69.3529 198.327 70.3469 198.327C71.3969 198.327 72.1249 198.845 72.4889 199.643C72.8389 198.845 73.6509 198.327 74.7009 198.327C76.3809 198.327 77.3049 199.335 77.3049 200.931V205.453H75.6109V201.379C75.6109 200.385 75.0789 199.867 74.2669 199.867C73.4409 199.867 72.8109 200.399 72.8109 201.533V205.453H71.1029V201.365C71.1029 200.399 70.5849 199.881 69.7729 199.881C68.9609 199.881 68.3029 200.413 68.3029 201.533V205.453ZM81.0396 205.635C79.5696 205.635 78.6736 204.781 78.6736 203.479C78.6736 202.205 79.5976 201.407 81.2356 201.281L83.3076 201.127V200.973C83.3076 200.035 82.7476 199.657 81.8796 199.657C80.8716 199.657 80.3116 200.077 80.3116 200.805H78.8556C78.8556 199.307 80.0876 198.327 81.9636 198.327C83.8256 198.327 84.9736 199.335 84.9736 201.253V205.453H83.4756L83.3496 204.431C83.0556 205.145 82.1176 205.635 81.0396 205.635ZM81.5996 204.347C82.6496 204.347 83.3216 203.717 83.3216 202.653V202.289L81.8796 202.401C80.8156 202.499 80.4096 202.849 80.4096 203.409C80.4096 204.039 80.8296 204.347 81.5996 204.347ZM93.267 205.635C91.265 205.635 90.019 204.165 90.019 202.023C90.019 199.867 91.279 198.327 93.365 198.327C94.331 198.327 95.185 198.733 95.619 199.419V195.037H97.313V205.453H95.745L95.633 204.375C95.213 205.173 94.317 205.635 93.267 205.635ZM93.645 204.067C94.835 204.067 95.605 203.213 95.605 201.967C95.605 200.721 94.835 199.853 93.645 199.853C92.455 199.853 91.727 200.735 91.727 201.967C91.727 203.199 92.455 204.067 93.645 204.067ZM102.187 205.635C100.129 205.635 98.6869 204.137 98.6869 201.995C98.6869 199.825 100.101 198.327 102.131 198.327C104.203 198.327 105.519 199.713 105.519 201.869V202.387L100.311 202.401C100.437 203.619 101.081 204.235 102.215 204.235C103.153 204.235 103.769 203.871 103.965 203.213H105.547C105.253 204.725 103.993 205.635 102.187 205.635ZM102.145 199.727C101.137 199.727 100.521 200.273 100.353 201.309H103.825C103.825 200.357 103.167 199.727 102.145 199.727ZM15.8312 224.659V214.537H17.4132L17.5252 215.587C17.9452 214.789 18.8552 214.327 19.9052 214.327C21.8512 214.327 23.1392 215.741 23.1392 217.911C23.1392 220.067 21.9632 221.635 19.9052 221.635C18.8692 221.635 17.9732 221.229 17.5392 220.529V224.659H15.8312ZM17.5532 217.995C17.5532 219.241 18.3232 220.095 19.4992 220.095C20.7032 220.095 21.4172 219.227 21.4172 217.995C21.4172 216.763 20.7032 215.881 19.4992 215.881C18.3232 215.881 17.5532 216.749 17.5532 217.995ZM26.5572 221.635C25.0872 221.635 24.1912 220.781 24.1912 219.479C24.1912 218.205 25.1152 217.407 26.7532 217.281L28.8252 217.127V216.973C28.8252 216.035 28.2652 215.657 27.3972 215.657C26.3892 215.657 25.8292 216.077 25.8292 216.805H24.3732C24.3732 215.307 25.6052 214.327 27.4812 214.327C29.3432 214.327 30.4912 215.335 30.4912 217.253V221.453H28.9932L28.8672 220.431C28.5732 221.145 27.6352 221.635 26.5572 221.635ZM27.1172 220.347C28.1672 220.347 28.8392 219.717 28.8392 218.653V218.289L27.3972 218.401C26.3332 218.499 25.9272 218.849 25.9272 219.409C25.9272 220.039 26.3472 220.347 27.1172 220.347ZM31.7771 217.841C31.7771 215.825 33.0931 214.313 35.0671 214.313C36.1031 214.313 36.9151 214.747 37.3211 215.489L37.4191 214.537H39.0011V221.103C39.0011 223.413 37.6151 224.855 35.3751 224.855C33.3871 224.855 32.0291 223.721 31.8191 221.873H33.5271C33.6391 222.769 34.3251 223.301 35.3751 223.301C36.5511 223.301 37.3071 222.559 37.3071 221.411V220.263C36.8731 220.907 36.0191 221.313 35.0251 221.313C33.0651 221.313 31.7771 219.843 31.7771 217.841ZM33.4991 217.799C33.4991 218.961 34.2411 219.829 35.3611 219.829C36.5371 219.829 37.2651 219.003 37.2651 217.799C37.2651 216.623 36.5511 215.811 35.3611 215.811C34.2271 215.811 33.4991 216.665 33.4991 217.799ZM42.8267 221.635C41.3567 221.635 40.4607 220.781 40.4607 219.479C40.4607 218.205 41.3847 217.407 43.0227 217.281L45.0947 217.127V216.973C45.0947 216.035 44.5347 215.657 43.6667 215.657C42.6587 215.657 42.0987 216.077 42.0987 216.805H40.6427C40.6427 215.307 41.8747 214.327 43.7507 214.327C45.6127 214.327 46.7607 215.335 46.7607 217.253V221.453H45.2627L45.1367 220.431C44.8427 221.145 43.9047 221.635 42.8267 221.635ZM43.3867 220.347C44.4367 220.347 45.1087 219.717 45.1087 218.653V218.289L43.6667 218.401C42.6027 218.499 42.1967 218.849 42.1967 219.409C42.1967 220.039 42.6167 220.347 43.3867 220.347ZM50.1466 221.453H48.4386V214.537H50.0066L50.1466 215.349C50.4966 214.775 51.1966 214.327 52.1906 214.327C53.2406 214.327 53.9686 214.845 54.3326 215.643C54.6826 214.845 55.4946 214.327 56.5446 214.327C58.2246 214.327 59.1486 215.335 59.1486 216.931V221.453H57.4546V217.379C57.4546 216.385 56.9226 215.867 56.1106 215.867C55.2846 215.867 54.6546 216.399 54.6546 217.533V221.453H52.9466V217.365C52.9466 216.399 52.4286 215.881 51.6166 215.881C50.8046 215.881 50.1466 216.413 50.1466 217.533V221.453ZM63.9194 221.635C61.8614 221.635 60.4194 220.137 60.4194 217.995C60.4194 215.825 61.8334 214.327 63.8634 214.327C65.9354 214.327 67.2514 215.713 67.2514 217.869V218.387L62.0434 218.401C62.1694 219.619 62.8134 220.235 63.9474 220.235C64.8854 220.235 65.5014 219.871 65.6974 219.213H67.2794C66.9854 220.725 65.7254 221.635 63.9194 221.635ZM63.8774 215.727C62.8694 215.727 62.2534 216.273 62.0854 217.309H65.5574C65.5574 216.357 64.8994 215.727 63.8774 215.727ZM70.3263 221.453H68.6183V214.537H70.2003L70.3403 215.433C70.7743 214.733 71.6143 214.327 72.5523 214.327C74.2883 214.327 75.1843 215.405 75.1843 217.197V221.453H73.4763V217.603C73.4763 216.441 72.9023 215.881 72.0203 215.881C70.9703 215.881 70.3263 216.609 70.3263 217.729V221.453ZM79.2145 221.453H77.5065V215.965H76.1765V214.537H77.5065V212.381H79.2145V214.537H80.5585V215.965H79.2145V221.453ZM81.1459 217.981C81.1459 215.825 82.6999 214.341 84.8419 214.341C86.9839 214.341 88.5379 215.825 88.5379 217.981C88.5379 220.137 86.9839 221.621 84.8419 221.621C82.6999 221.621 81.1459 220.137 81.1459 217.981ZM82.8539 217.981C82.8539 219.241 83.6659 220.095 84.8419 220.095C86.0179 220.095 86.8299 219.241 86.8299 217.981C86.8299 216.721 86.0179 215.867 84.8419 215.867C83.6659 215.867 82.8539 216.721 82.8539 217.981ZM89.3598 219.353H90.9838C90.9978 219.955 91.4458 220.333 92.2298 220.333C93.0278 220.333 93.4618 220.011 93.4618 219.507C93.4618 219.157 93.2798 218.905 92.6638 218.765L91.4178 218.471C90.1718 218.191 89.5698 217.603 89.5698 216.497C89.5698 215.139 90.7178 214.327 92.3138 214.327C93.8678 214.327 94.9178 215.223 94.9318 216.567H93.3078C93.2938 215.979 92.9018 215.601 92.2438 215.601C91.5718 215.601 91.1798 215.909 91.1798 216.427C91.1798 216.819 91.4878 217.071 92.0758 217.211L93.3218 217.505C94.4838 217.771 95.0718 218.303 95.0718 219.367C95.0718 220.767 93.8818 221.635 92.1738 221.635C90.4518 221.635 89.3598 220.711 89.3598 219.353ZM99.7397 217.981C99.7397 215.825 101.294 214.341 103.436 214.341C105.578 214.341 107.132 215.825 107.132 217.981C107.132 220.137 105.578 221.621 103.436 221.621C101.294 221.621 99.7397 220.137 99.7397 217.981ZM101.448 217.981C101.448 219.241 102.26 220.095 103.436 220.095C104.612 220.095 105.424 219.241 105.424 217.981C105.424 216.721 104.612 215.867 103.436 215.867C102.26 215.867 101.448 216.721 101.448 217.981ZM110.194 221.453H108.486V214.537H110.068L110.208 215.433C110.642 214.733 111.482 214.327 112.42 214.327C114.156 214.327 115.052 215.405 115.052 217.197V221.453H113.344V217.603C113.344 216.441 112.77 215.881 111.888 215.881C110.838 215.881 110.194 216.609 110.194 217.729V221.453ZM118.452 221.453H116.758V211.037H118.452V221.453ZM121.097 213.151C120.509 213.151 120.047 212.689 120.047 212.115C120.047 211.541 120.509 211.093 121.097 211.093C121.657 211.093 122.119 211.541 122.119 212.115C122.119 212.689 121.657 213.151 121.097 213.151ZM120.243 221.453V214.537H121.951V221.453H120.243ZM125.424 221.453H123.716V214.537H125.298L125.438 215.433C125.872 214.733 126.712 214.327 127.65 214.327C129.386 214.327 130.282 215.405 130.282 217.197V221.453H128.574V217.603C128.574 216.441 128 215.881 127.118 215.881C126.068 215.881 125.424 216.609 125.424 217.729V221.453ZM135.054 221.635C132.996 221.635 131.554 220.137 131.554 217.995C131.554 215.825 132.968 214.327 134.998 214.327C137.07 214.327 138.386 215.713 138.386 217.869V218.387L133.178 218.401C133.304 219.619 133.948 220.235 135.082 220.235C136.02 220.235 136.636 219.871 136.832 219.213H138.414C138.12 220.725 136.86 221.635 135.054 221.635ZM135.012 215.727C134.004 215.727 133.388 216.273 133.22 217.309H136.692C136.692 216.357 136.034 215.727 135.012 215.727Z" fill="#171717"/>
<defs>
<clipPath id="clip0_2219_10932">
<rect width="134.182" height="182.54" fill="white" transform="translate(15.6621 0.229919)"/>
</clipPath>
</defs>
</svg>
