<svg width="22" height="17" viewBox="0 0 22 17" fill="none" xmlns="http://www.w3.org/2000/svg">
<g clip-path="url(#clip0_2503_18887)">
<rect y="0.193359" width="22" height="16" rx="2" fill="#249F58"/>
<path fill-rule="evenodd" clip-rule="evenodd" d="M10.9997 2.32666L18.8569 8.19333L10.9997 14.06L3.14258 8.19333" fill="#FFDA2C"/>
<g clip-path="url(#clip1_2503_18887)">
<path d="M11.0007 11.9266C13.0257 11.9266 14.6673 10.2552 14.6673 8.19329C14.6673 6.13143 13.0257 4.45996 11.0007 4.45996C8.97561 4.45996 7.33398 6.13143 7.33398 8.19329C7.33398 10.2552 8.97561 11.9266 11.0007 11.9266Z" fill="#1A47B8"/>
</g>
</g>
<path d="M0.5 4.19336C0.5 2.26036 2.067 0.693359 4 0.693359H18C19.933 0.693359 21.5 2.26036 21.5 4.19336V12.1934C21.5 14.1264 19.933 15.6934 18 15.6934H4C2.067 15.6934 0.5 14.1264 0.5 12.1934V4.19336Z" stroke="#DEE1E4"/>
<defs>
<clipPath id="clip0_2503_18887">
<path d="M0 4.19336C0 1.98422 1.79086 0.193359 4 0.193359H18C20.2091 0.193359 22 1.98422 22 4.19336V12.1934C22 14.4025 20.2091 16.1934 18 16.1934H4C1.79086 16.1934 0 14.4025 0 12.1934V4.19336Z" fill="white"/>
</clipPath>
<clipPath id="clip1_2503_18887">
<rect x="7.33398" y="4.45996" width="7.33333" height="7.46667" rx="3.66667" fill="white"/>
</clipPath>
</defs>
</svg>
