<svg width="22" height="17" viewBox="0 0 22 17" fill="none" xmlns="http://www.w3.org/2000/svg">
<g clip-path="url(#clip0_2503_18915)">
<path d="M0 4.19336C0 1.98422 1.79086 0.193359 4 0.193359H18C20.2091 0.193359 22 1.98422 22 4.19336V12.1934C22 14.4025 20.2091 16.1934 18 16.1934H4C1.79086 16.1934 0 14.4025 0 12.1934V4.19336Z" fill="#FAFAFA"/>
<g clip-path="url(#clip1_2503_18915)">
<path fill-rule="evenodd" clip-rule="evenodd" d="M0 11.1934H22V16.1934H0V11.1934ZM0 0.193359H22V5.19336H0V0.193359Z" fill="#3ECBF8"/>
<path d="M10.9992 9.79326C11.867 9.79326 12.5706 9.07692 12.5706 8.19326C12.5706 7.30961 11.867 6.59326 10.9992 6.59326C10.1313 6.59326 9.42773 7.30961 9.42773 8.19326C9.42773 9.07692 10.1313 9.79326 10.9992 9.79326Z" fill="#FFDA2C"/>
</g>
</g>
<path d="M0.5 4.19336C0.5 2.26036 2.067 0.693359 4 0.693359H18C19.933 0.693359 21.5 2.26036 21.5 4.19336V12.1934C21.5 14.1264 19.933 15.6934 18 15.6934H4C2.067 15.6934 0.5 14.1264 0.5 12.1934V4.19336Z" stroke="#DEE1E4"/>
<defs>
<clipPath id="clip0_2503_18915">
<path d="M0 4.19336C0 1.98422 1.79086 0.193359 4 0.193359H18C20.2091 0.193359 22 1.98422 22 4.19336V12.1934C22 14.4025 20.2091 16.1934 18 16.1934H4C1.79086 16.1934 0 14.4025 0 12.1934V4.19336Z" fill="white"/>
</clipPath>
<clipPath id="clip1_2503_18915">
<rect y="0.193359" width="22" height="16" rx="2" fill="white"/>
</clipPath>
</defs>
</svg>
