<svg width="22" height="17" viewBox="0 0 22 17" fill="none" xmlns="http://www.w3.org/2000/svg">
<g clip-path="url(#clip0_2503_18894)">
<g clip-path="url(#clip1_2503_18894)">
<rect y="0.193359" width="22" height="16" rx="2" fill="#1A47B8"/>
<path d="M19.9048 0.193359H2.09524C0.93807 0.193359 0 1.14849 0 2.32669V14.06C0 15.2382 0.93807 16.1934 2.09524 16.1934H19.9048C21.0619 16.1934 22 15.2382 22 14.06V2.32669C22 1.14849 21.0619 0.193359 19.9048 0.193359Z" fill="#1A47B8"/>
<path fill-rule="evenodd" clip-rule="evenodd" d="M10.9999 2.19336L11.2761 2.81312L11.9509 2.88434L11.4469 3.3386L11.5877 4.00238L10.9999 3.66336L10.4121 4.00238L10.5529 3.3386L10.0488 2.88434L10.7236 2.81312L10.9999 2.19336ZM6.27614 7.81312L5.99988 7.19336L5.72363 7.81312L5.04883 7.88434L5.55289 8.3386L5.4121 9.00238L5.99988 8.66336L6.58767 9.00238L6.44688 8.3386L6.95094 7.88434L6.27614 7.81312ZM16.2761 7.81312L15.9999 7.19336L15.7236 7.81312L15.0488 7.88434L15.5529 8.3386L15.4121 9.00238L15.9999 8.66336L16.5877 9.00238L16.4469 8.3386L16.9509 7.88434L16.2761 7.81312ZM11.2761 12.8131L10.9999 12.1934L10.7236 12.8131L10.0488 12.8843L10.5529 13.3386L10.4121 14.0024L10.9999 13.6634L11.5877 14.0024L11.4469 13.3386L11.9509 12.8843L11.2761 12.8131ZM7.49988 10.6934L7.77614 11.3131L8.45094 11.3843L7.94688 11.8386L8.08767 12.5024L7.49988 12.1634L6.9121 12.5024L7.05289 11.8386L6.54883 11.3843L7.22363 11.3131L7.49988 10.6934ZM7.77614 4.31312L7.49988 3.69336L7.22363 4.31312L6.54883 4.38434L7.05289 4.8386L6.9121 5.50238L7.49988 5.16336L8.08767 5.50238L7.94688 4.8386L8.45094 4.38434L7.77614 4.31312ZM14.4999 10.6934L14.7761 11.3131L15.4509 11.3843L14.9469 11.8386L15.0877 12.5024L14.4999 12.1634L13.9121 12.5024L14.0529 11.8386L13.5488 11.3843L14.2236 11.3131L14.4999 10.6934ZM14.7761 4.31312L14.4999 3.69336L14.2236 4.31312L13.5488 4.38434L14.0529 4.8386L13.9121 5.50238L14.4999 5.16336L15.0877 5.50238L14.9469 4.8386L15.4509 4.38434L14.7761 4.31312Z" fill="#FFFF00"/>
</g>
</g>
<path d="M0.5 4.19336C0.5 2.26036 2.067 0.693359 4 0.693359H18C19.933 0.693359 21.5 2.26036 21.5 4.19336V12.1934C21.5 14.1264 19.933 15.6934 18 15.6934H4C2.067 15.6934 0.5 14.1264 0.5 12.1934V4.19336Z" stroke="#DEE1E4"/>
<defs>
<clipPath id="clip0_2503_18894">
<path d="M0 4.19336C0 1.98422 1.79086 0.193359 4 0.193359H18C20.2091 0.193359 22 1.98422 22 4.19336V12.1934C22 14.4025 20.2091 16.1934 18 16.1934H4C1.79086 16.1934 0 14.4025 0 12.1934V4.19336Z" fill="white"/>
</clipPath>
<clipPath id="clip1_2503_18894">
<rect y="0.193359" width="22" height="16" rx="2" fill="white"/>
</clipPath>
</defs>
</svg>
