<svg width="136" height="45" viewBox="0 0 136 45" fill="none" xmlns="http://www.w3.org/2000/svg">
<path d="M108.175 33.1698H110.224V19.4185H108.175L108.175 33.1698ZM126.633 24.3721L124.284 30.3339H124.214L121.776 24.372H119.568L123.224 32.7049L121.14 37.3399H123.278L128.912 24.372L126.633 24.3721ZM115.012 31.608C114.34 31.608 113.404 31.2719 113.404 30.4401C113.404 29.3787 114.57 28.9718 115.576 28.9718C116.478 28.9718 116.901 29.1664 117.449 29.4321C117.289 30.7056 116.194 31.608 115.012 31.608ZM115.259 24.0712C113.775 24.0712 112.239 24.726 111.603 26.1767L113.421 26.9372C113.81 26.1767 114.534 25.9287 115.294 25.9287C116.354 25.9287 117.431 26.566 117.449 27.6982V27.8396C117.077 27.6273 116.283 27.3089 115.311 27.3089C113.351 27.3089 111.355 28.3878 111.355 30.4048C111.355 32.2448 112.962 33.4302 114.763 33.4302C116.142 33.4302 116.901 32.811 117.378 32.0858H117.449V33.1471H119.427V27.8748C119.427 25.4338 117.608 24.0712 115.259 24.0712ZM102.594 26.046H99.6794V21.3324H102.594C104.126 21.3324 104.996 22.6029 104.996 23.6891C104.996 24.7548 104.126 26.046 102.594 26.046ZM102.541 19.4185H97.6311V33.1698H99.6793V27.9599H102.541C104.812 27.9599 107.045 26.3129 107.045 23.6891C107.045 21.0655 104.812 19.4185 102.541 19.4185ZM75.7655 31.6105C74.3498 31.6105 73.1645 30.4233 73.1645 28.7926C73.1645 27.1448 74.3498 25.9395 75.7655 25.9395C77.1632 25.9395 78.2601 27.1448 78.2601 28.7926C78.2601 30.4233 77.1632 31.6105 75.7655 31.6105ZM78.1186 25.142H78.0478C77.5879 24.5928 76.7028 24.0966 75.5884 24.0966C73.2529 24.0966 71.1122 26.1522 71.1122 28.7926C71.1122 31.4155 73.2528 33.4534 75.5884 33.4534C76.7028 33.4534 77.5879 32.9571 78.0478 32.3903H78.1186V33.0637C78.1186 34.8538 77.1632 35.8107 75.624 35.8107C74.3678 35.8107 73.5893 34.9066 73.2704 34.1448L71.4838 34.889C71.9969 36.1295 73.3593 37.6537 75.624 37.6537C78.0302 37.6537 80.0649 36.2356 80.0649 32.7801V24.3802H78.1186V25.142ZM81.4801 33.1698H83.5325V19.418H81.4801V33.1698ZM86.5581 28.6332C86.5049 26.8255 87.9558 25.9042 88.9996 25.9042C89.814 25.9042 90.5037 26.3116 90.7332 26.8969L86.5581 28.6332ZM92.9275 27.0738C92.5387 26.0279 91.3526 24.0966 88.9287 24.0966C86.5225 24.0966 84.5234 25.9927 84.5234 28.775C84.5234 31.3979 86.5049 33.4534 89.1587 33.4534C91.2999 33.4534 92.5387 32.142 93.0516 31.3801L91.4591 30.3166C90.9287 31.0965 90.2028 31.6105 89.1587 31.6105C88.1149 31.6105 87.372 31.1318 86.894 30.1929L93.1394 27.6054L92.9275 27.0738ZM43.1689 25.5321V27.5168H47.9105C47.769 28.6332 47.3974 29.4483 46.8311 30.0155C46.1413 30.7068 45.062 31.4687 43.1689 31.4687C40.2495 31.4687 37.9673 29.1118 37.9673 26.1878C37.9673 23.2638 40.2495 20.9066 43.1689 20.9066C44.7437 20.9066 45.8934 21.527 46.7427 22.3245L48.1405 20.9246C46.9552 19.7902 45.3803 18.9219 43.1689 18.9219C39.1702 18.9219 35.8086 22.1827 35.8086 26.1878C35.8086 30.1929 39.1702 33.4534 43.1689 33.4534C45.3276 33.4534 46.9552 32.7449 48.2289 31.4155C49.5382 30.104 49.9453 28.2611 49.9453 26.7727C49.9453 26.3116 49.91 25.8866 49.8389 25.5321H43.1689ZM55.336 31.6105C53.9203 31.6105 52.6994 30.4408 52.6994 28.775C52.6994 27.0914 53.9203 25.9395 55.336 25.9395C56.7512 25.9395 57.9721 27.0914 57.9721 28.775C57.9721 30.4409 56.7512 31.6105 55.336 31.6105ZM55.336 24.0966C52.7526 24.0966 50.6471 26.0636 50.6471 28.775C50.6471 31.4687 52.7526 33.4534 55.336 33.4534C57.9189 33.4534 60.0244 31.4687 60.0244 28.775C60.0244 26.0636 57.9189 24.0966 55.336 24.0966ZM65.564 31.6105C64.1488 31.6105 62.9278 30.4408 62.9278 28.775C62.9278 27.0914 64.1488 25.9395 65.564 25.9395C66.9793 25.9395 68.2002 27.0914 68.2002 28.775C68.2002 30.4409 66.9792 31.6105 65.564 31.6105ZM65.564 24.0966C62.9807 24.0966 60.8756 26.0636 60.8756 28.775C60.8756 31.4687 62.9807 33.4534 65.564 33.4534C68.147 33.4534 70.2526 31.4687 70.2526 28.775C70.2526 26.0636 68.147 24.0966 65.564 24.0966Z" fill="#FAFAFA"/>
<path d="M2.278 8.54263C1.90945 8.87568 1.68945 9.4312 1.68945 10.1686V10.0019V34.3351V34.1748C1.68945 34.8558 1.87815 35.3817 2.19771 35.7204L2.27928 35.7986V35.799C2.53793 36.0328 2.8696 36.1569 3.24972 36.1565C3.62114 36.1565 4.03903 36.0379 4.48005 35.7875L20.421 26.7154L25.8966 23.5989C26.592 23.2032 26.9824 22.6927 27.0477 22.1728V22.1706C26.9824 21.6495 26.592 21.1394 25.8966 20.7436L20.4206 17.6275L4.4801 8.55548C4.03814 8.30459 3.61995 8.18555 3.24755 8.18555C2.86787 8.18555 2.53665 8.30929 2.2781 8.54263H2.278Z" fill="#00C1FF"/>
<path d="M2.27933 35.7988L2.19771 35.7206C1.87815 35.382 1.68945 34.856 1.68945 34.175V34.3353V10.0081V10.1688C1.68945 9.4314 1.90945 8.87588 2.278 8.54283L15.8848 22.1713L2.27933 35.7988Z" fill="url(#paint0_linear_3487_5303)"/>
<path d="M20.421 26.7148L15.8848 22.1705L20.4206 17.627L25.8966 20.743C26.592 21.1388 26.9824 21.6489 27.0477 22.1701V22.1722C26.9824 22.6921 26.592 23.2027 25.8966 23.5983L20.421 26.7148" fill="url(#paint1_linear_3487_5303)"/>
<path d="M3.24964 36.1562C2.86957 36.1566 2.5379 36.0324 2.2793 35.7987V35.7983L15.8848 22.1708L20.421 26.7151L4.47997 35.7872C4.03895 36.0377 3.62106 36.1562 3.24964 36.1562Z" fill="url(#paint2_linear_3487_5303)"/>
<path d="M15.8842 22.1709L2.27734 8.54245C2.536 8.30911 2.86722 8.18537 3.24685 8.18537C3.61925 8.18537 4.03749 8.30436 4.4794 8.5553L20.4199 17.6273L15.8841 22.1709" fill="url(#paint3_linear_3487_5303)"/>
<path d="M3.24962 36.3174C2.86955 36.3174 2.53744 36.1932 2.27879 35.9595L2.27834 35.9599C2.27728 35.9588 2.27614 35.9578 2.27493 35.9569L2.20419 35.8877C2.20196 35.8855 2.19989 35.883 2.19727 35.8805L2.27884 35.7987C2.53749 36.0325 2.86911 36.1567 3.24928 36.1562C3.62065 36.1562 4.03853 36.0377 4.47956 35.7872L20.4205 26.7152L20.5226 26.8175L20.4192 26.8763L4.47951 35.9478C4.07759 36.176 3.69529 36.295 3.34998 36.3149C3.31655 36.3165 3.28309 36.3174 3.24962 36.3174Z" fill="url(#paint4_linear_3487_5303)"/>
<path d="M2.19771 35.8809C1.87815 35.5422 1.68945 35.0167 1.68945 34.3353V34.175C1.68945 34.856 1.87815 35.3819 2.19771 35.7206L2.27928 35.7988L2.19771 35.8809Z" fill="url(#paint5_linear_3487_5303)"/>
<path d="M20.5221 26.8173L20.4199 26.715L25.8955 23.5985C26.591 23.2029 26.9814 22.6923 27.0466 22.1724C27.0466 22.3632 27.0041 22.554 26.9197 22.7397C26.7493 23.1139 26.4079 23.4675 25.8956 23.7592L20.5221 26.8174" fill="url(#paint6_linear_3487_5303)"/>
<path d="M27.0471 22.1709C26.9818 21.6497 26.5914 21.1396 25.896 20.7439L20.4199 17.6278L20.5221 17.5254H20.5225L25.896 20.5836C26.6627 21.0202 27.0466 21.5955 27.0471 22.1709Z" fill="url(#paint7_linear_3487_5303)"/>
<path d="M1.68945 10.168V9.99988C1.68945 9.93927 1.69108 9.88 1.6942 9.82246V9.81984C1.6942 9.81904 1.6942 9.8182 1.6945 9.81731V9.81084C1.72757 9.22427 1.90945 8.76674 2.19771 8.46122L2.278 8.54195C1.90945 8.87505 1.68945 9.43057 1.68945 10.168Z" fill="url(#paint8_linear_3487_5303)"/>
<path d="M20.4201 17.627L4.47956 8.55483C4.03764 8.30394 3.61946 8.18495 3.24705 8.18495C2.86738 8.18495 2.53615 8.30869 2.27755 8.54203L2.19727 8.46125C2.22234 8.43466 2.24839 8.40902 2.27538 8.38438C2.27622 8.38349 2.27755 8.3826 2.27839 8.38176C2.53497 8.1502 2.86268 8.02645 3.23895 8.02423H3.24705C3.61946 8.02423 4.03764 8.14327 4.47956 8.39426L20.5226 17.5243L20.5222 17.5246L20.4201 17.627Z" fill="url(#paint9_linear_3487_5303)"/>
<path d="M38.6207 13.5254H36.4707V7.54974H38.5634C40.3292 7.54974 41.5472 8.76776 41.5472 10.5498C41.5472 12.3074 40.3537 13.5254 38.6207 13.5254ZM38.4653 8.51434H37.5171V12.5608H38.5226C39.7161 12.5608 40.4436 11.7924 40.4436 10.5498C40.4436 9.28276 39.6997 8.51434 38.4653 8.51434ZM42.8734 8.67784C42.5301 8.67784 42.2603 8.40807 42.2603 8.07291C42.2603 7.73775 42.5301 7.47617 42.8734 7.47617C43.2004 7.47617 43.4701 7.73775 43.4701 8.07291C43.4701 8.40807 43.2004 8.67784 42.8734 8.67784ZM42.3747 13.5254V9.48712H43.372V13.5254H42.3747ZM44.0918 12.2992H45.04C45.0482 12.6507 45.3098 12.8714 45.7676 12.8714C46.2335 12.8714 46.487 12.6834 46.487 12.3891C46.487 12.1848 46.3807 12.0376 46.021 11.9559L45.2935 11.7842C44.5659 11.6207 44.2144 11.2774 44.2144 10.6316C44.2144 9.83863 44.8847 9.3645 45.8166 9.3645C46.724 9.3645 47.3371 9.88768 47.3453 10.6724H46.397C46.3889 10.3291 46.16 10.1084 45.7758 10.1084C45.3834 10.1084 45.1545 10.2882 45.1545 10.5907C45.1545 10.8196 45.3343 10.9667 45.6777 11.0485L46.4052 11.2201C47.0837 11.3755 47.427 11.6861 47.427 12.3074C47.427 13.1248 46.7322 13.6317 45.7349 13.6317C44.7294 13.6317 44.0918 13.0921 44.0918 12.2992ZM48.1864 15.3974V9.48712H49.1101L49.1755 10.1002C49.4208 9.63427 49.9521 9.3645 50.5652 9.3645C51.7015 9.3645 52.4535 10.1901 52.4535 11.4572C52.4535 12.7161 51.7669 13.6317 50.5652 13.6317C49.9603 13.6317 49.4371 13.3946 49.1837 12.9859V15.3974H48.1864ZM49.1919 11.5063C49.1919 12.2338 49.6415 12.7325 50.3281 12.7325C51.0312 12.7325 51.4481 12.2256 51.4481 11.5063C51.4481 10.7869 51.0312 10.2719 50.3281 10.2719C49.6415 10.2719 49.1919 10.7787 49.1919 11.5063ZM53.0106 11.4981C53.0106 10.2392 53.9179 9.37268 55.1687 9.37268C56.4194 9.37268 57.3268 10.2392 57.3268 11.4981C57.3268 12.757 56.4194 13.6235 55.1687 13.6235C53.9179 13.6235 53.0106 12.757 53.0106 11.4981ZM54.0079 11.4981C54.0079 12.2338 54.482 12.7325 55.1687 12.7325C55.8553 12.7325 56.3295 12.2338 56.3295 11.4981C56.3295 10.7624 55.8553 10.2637 55.1687 10.2637C54.482 10.2637 54.0079 10.7624 54.0079 11.4981ZM59.1146 13.5254H58.1173V9.48712H59.041L59.1228 10.0103C59.3762 9.60157 59.8667 9.3645 60.4144 9.3645C61.428 9.3645 61.9512 9.99395 61.9512 11.0403V13.5254H60.9539V11.2774C60.9539 10.5989 60.6187 10.2719 60.1037 10.2719C59.4906 10.2719 59.1146 10.697 59.1146 11.3509V13.5254ZM64.6069 7.79498L63.8139 9.00482H63.07L63.6831 7.79498H64.6069ZM62.9311 13.5254V9.48712H63.9284V13.5254H62.9311ZM66.1032 13.5254L64.501 9.48712H65.5637L66.2667 11.3428C66.4384 11.8251 66.5773 12.242 66.6264 12.4627C66.6836 12.2093 66.8307 11.7842 67.0024 11.3428L67.7381 9.48712H68.7681L67.0841 13.5254H66.1032ZM70.9484 13.6317C69.7468 13.6317 68.9048 12.757 68.9048 11.5063C68.9048 10.2392 69.7304 9.3645 70.9157 9.3645C72.1256 9.3645 72.894 10.1738 72.894 11.4327V11.7351L69.853 11.7433C69.9266 12.4545 70.3027 12.8142 70.9648 12.8142C71.5125 12.8142 71.8722 12.6017 71.9866 12.2175H72.9104C72.7387 13.1003 72.003 13.6317 70.9484 13.6317ZM70.9239 10.182C70.3354 10.182 69.9757 10.5008 69.8776 11.1057H71.9049C71.9049 10.5498 71.5207 10.182 70.9239 10.182ZM74.6977 13.5254H73.7085V7.44347H74.6977V13.5254ZM78.9444 13.5254H77.9471V9.48712H78.8709L78.9526 10.0103C79.206 9.60157 79.6965 9.3645 80.2442 9.3645C81.2579 9.3645 81.781 9.99395 81.781 11.0403V13.5254H80.7837V11.2774C80.7837 10.5989 80.4486 10.2719 79.9336 10.2719C79.3205 10.2719 78.9444 10.697 78.9444 11.3509V13.5254ZM82.5238 11.4981C82.5238 10.2392 83.4312 9.37268 84.6819 9.37268C85.9327 9.37268 86.8401 10.2392 86.8401 11.4981C86.8401 12.757 85.9327 13.6235 84.6819 13.6235C83.4312 13.6235 82.5238 12.757 82.5238 11.4981ZM83.5212 11.4981C83.5212 12.2338 83.9953 12.7325 84.6819 12.7325C85.3686 12.7325 85.8427 12.2338 85.8427 11.4981C85.8427 10.7624 85.3686 10.2637 84.6819 10.2637C83.9953 10.2637 83.5212 10.7624 83.5212 11.4981Z" fill="#A8B0B3"/>
<defs>
<linearGradient id="paint0_linear_3487_5303" x1="10.385" y1="9.75101" x2="-1.34099" y2="21.4959" gradientUnits="userSpaceOnUse">
<stop stop-color="#00A0FF"/>
<stop offset="0.00657" stop-color="#00A1FF"/>
<stop offset="0.2601" stop-color="#00BEFF"/>
<stop offset="0.5122" stop-color="#00D2FF"/>
<stop offset="0.7604" stop-color="#00DFFF"/>
<stop offset="1" stop-color="#00E3FF"/>
</linearGradient>
<linearGradient id="paint1_linear_3487_5303" x1="27.8949" y1="22.092" x2="1.3212" y2="22.092" gradientUnits="userSpaceOnUse">
<stop stop-color="#FFE000"/>
<stop offset="0.4087" stop-color="#FFBD00"/>
<stop offset="0.7754" stop-color="#FFA500"/>
<stop offset="1" stop-color="#FF9C00"/>
</linearGradient>
<linearGradient id="paint2_linear_3487_5303" x1="18.0126" y1="26.4913" x2="-1.85796" y2="46.2486" gradientUnits="userSpaceOnUse">
<stop stop-color="#FF3A44"/>
<stop offset="1" stop-color="#C31162"/>
</linearGradient>
<linearGradient id="paint3_linear_3487_5303" x1="-1.22952" y1="6.52197" x2="7.62636" y2="15.3409" gradientUnits="userSpaceOnUse">
<stop stop-color="#32A071"/>
<stop offset="0.0685" stop-color="#2DA771"/>
<stop offset="0.4762" stop-color="#15CF74"/>
<stop offset="0.8009" stop-color="#06E775"/>
<stop offset="1" stop-color="#00F076"/>
</linearGradient>
<linearGradient id="paint4_linear_3487_5303" x1="18.0023" y1="29.6436" x2="2.08893" y2="45.5827" gradientUnits="userSpaceOnUse">
<stop stop-color="#CC2E36"/>
<stop offset="1" stop-color="#9C0E4E"/>
</linearGradient>
<linearGradient id="paint5_linear_3487_5303" x1="3.50208" y1="9.75094" x2="-6.82836" y2="20.0982" gradientUnits="userSpaceOnUse">
<stop stop-color="#008DE0"/>
<stop offset="0.00657" stop-color="#008DE0"/>
<stop offset="0.2601" stop-color="#00A7E0"/>
<stop offset="0.5122" stop-color="#00B8E0"/>
<stop offset="0.7604" stop-color="#00C4E0"/>
<stop offset="1" stop-color="#00C7E0"/>
</linearGradient>
<linearGradient id="paint6_linear_3487_5303" x1="27.8939" y1="22.1714" x2="1.32013" y2="22.1714" gradientUnits="userSpaceOnUse">
<stop stop-color="#E0C500"/>
<stop offset="0.4087" stop-color="#E0A600"/>
<stop offset="0.7754" stop-color="#E09100"/>
<stop offset="1" stop-color="#E08900"/>
</linearGradient>
<linearGradient id="paint7_linear_3487_5303" x1="27.8943" y1="22.172" x2="1.32066" y2="22.172" gradientUnits="userSpaceOnUse">
<stop stop-color="#FFE840"/>
<stop offset="0.4087" stop-color="#FFCE40"/>
<stop offset="0.7754" stop-color="#FFBC40"/>
<stop offset="1" stop-color="#FFB540"/>
</linearGradient>
<linearGradient id="paint8_linear_3487_5303" x1="3.49087" y1="9.76887" x2="-6.45917" y2="19.3032" gradientUnits="userSpaceOnUse">
<stop stop-color="#40B8FF"/>
<stop offset="0.00657" stop-color="#40B9FF"/>
<stop offset="0.2601" stop-color="#40CEFF"/>
<stop offset="0.5122" stop-color="#40DDFF"/>
<stop offset="0.7604" stop-color="#40E7FF"/>
<stop offset="1" stop-color="#40EAFF"/>
</linearGradient>
<linearGradient id="paint9_linear_3487_5303" x1="-1.24919" y1="9.40371" x2="5.85684" y2="16.5213" gradientUnits="userSpaceOnUse">
<stop stop-color="#65B895"/>
<stop offset="0.0685" stop-color="#62BD95"/>
<stop offset="0.4762" stop-color="#50DB97"/>
<stop offset="0.8009" stop-color="#44ED98"/>
<stop offset="1" stop-color="#40F498"/>
</linearGradient>
</defs>
</svg>
