<svg width="94" height="227" viewBox="0 0 94 227" fill="none" xmlns="http://www.w3.org/2000/svg">
<path d="M7.34922 187.454L5.64859 188.453C5.47446 188.556 5.16975 188.541 4.9695 188.423L3.36754 187.481C3.1673 187.363 3.14408 187.182 3.31821 187.082L5.01884 186.084C5.19296 185.98 5.49768 185.995 5.69792 186.113L7.29988 187.055C7.50013 187.174 7.52334 187.354 7.34922 187.454Z" fill="#171717"/>
<path d="M11.5172 185.004L9.81656 186.003C9.64243 186.106 9.33771 186.091 9.13747 185.973L7.53551 185.031C7.33527 184.913 7.31205 184.733 7.48618 184.632L9.1868 183.634C9.36093 183.531 9.66565 183.545 9.86589 183.663L11.4679 184.606C11.6681 184.724 11.6913 184.901 11.5172 185.004Z" fill="#171717"/>
<path d="M11.3082 189.778L9.60757 190.776C9.43345 190.88 9.12873 190.865 8.92849 190.747L7.32653 189.805C7.12628 189.686 7.10307 189.506 7.27719 189.406L8.97782 188.407C9.15195 188.304 9.45666 188.319 9.65691 188.437L11.2589 189.379C11.4591 189.497 11.4823 189.678 11.3082 189.778Z" fill="#171717"/>
<path d="M7.14219 192.227L5.44156 193.225C5.26743 193.328 4.96271 193.314 4.76247 193.196L3.16051 192.253C2.96027 192.135 2.93705 191.955 3.11118 191.855L4.8118 190.856C4.98593 190.753 5.29065 190.768 5.49089 190.886L7.09285 191.828C7.29309 191.946 7.31631 192.126 7.14219 192.227Z" fill="#171717"/>
<path d="M15.4742 187.329L13.7736 188.328C13.5995 188.431 13.2947 188.416 13.0945 188.298L11.4925 187.356C11.2923 187.238 11.2691 187.058 11.4432 186.957L13.1438 185.959C13.318 185.855 13.6227 185.87 13.8229 185.988L15.4249 186.93C15.6251 187.049 15.6483 187.229 15.4742 187.329Z" fill="#171717"/>
<path d="M19.6402 184.881L17.9396 185.879C17.7655 185.982 17.4608 185.967 17.2605 185.849L15.6586 184.907C15.4583 184.789 15.4351 184.609 15.6092 184.508L17.3099 183.51C17.484 183.407 17.7887 183.421 17.9889 183.54L19.5909 184.482C19.7911 184.6 19.8144 184.78 19.6402 184.881Z" fill="#171717"/>
<path d="M15.4918 192.234L13.7912 193.233C13.617 193.336 13.3123 193.321 13.1121 193.203L11.5101 192.261C11.3099 192.143 11.2867 191.966 11.4608 191.862L13.1614 190.864C13.3355 190.761 13.6403 190.775 13.8405 190.893L15.4425 191.836C15.6427 191.954 15.6659 192.134 15.4918 192.234Z" fill="#171717"/>
<path d="M11.3258 194.685L9.62515 195.683C9.45103 195.787 9.14631 195.772 8.94606 195.654L7.34411 194.712C7.14386 194.594 7.12065 194.413 7.29477 194.313L8.9954 193.315C9.16952 193.211 9.47424 193.226 9.67449 193.344L11.2764 194.286C11.4767 194.405 11.4999 194.585 11.3258 194.685Z" fill="#171717"/>
<path d="M19.6598 189.787L17.9591 190.785C17.785 190.888 17.4803 190.874 17.28 190.756L15.6781 189.813C15.4778 189.695 15.4546 189.518 15.6288 189.415L17.3294 188.416C17.5035 188.313 17.8082 188.328 18.0085 188.446L19.6104 189.388C19.8107 189.506 19.8339 189.686 19.6598 189.787Z" fill="#171717"/>
<path d="M23.8277 187.341L22.1271 188.339C21.953 188.443 21.6483 188.428 21.448 188.31L19.8461 187.367C19.6458 187.249 19.6226 187.069 19.7967 186.969L21.4974 185.97C21.6715 185.867 21.9762 185.882 22.1764 186L23.7784 186.942C23.9786 187.06 24.0019 187.237 23.8277 187.341Z" fill="#171717"/>
<path d="M19.4488 194.559L17.7482 195.558C17.5741 195.661 17.2694 195.646 17.0691 195.528L15.4672 194.586C15.2669 194.468 15.2437 194.287 15.4178 194.187L17.1184 193.189C17.2926 193.085 17.5973 193.1 17.7975 193.218L19.3995 194.16C19.5997 194.279 19.623 194.459 19.4488 194.559Z" fill="#171717"/>
<path d="M23.6129 192.111L21.9123 193.11C21.7381 193.213 21.4334 193.198 21.2332 193.08L19.6312 192.138C19.431 192.02 19.4078 191.84 19.5819 191.739L21.2825 190.741C21.4566 190.638 21.7614 190.652 21.9616 190.77L23.5635 191.713C23.7638 191.831 23.787 192.011 23.6129 192.111Z" fill="#171717"/>
<path d="M73.8495 218.116L75.5501 219.114C75.7242 219.217 76.0289 219.203 76.2292 219.084L77.8311 218.142C78.0314 218.024 78.0546 217.844 77.8805 217.744L76.1798 216.745C76.0057 216.642 75.701 216.657 75.5007 216.775L73.8988 217.717C73.6986 217.835 73.6753 218.015 73.8495 218.116Z" fill="#171717"/>
<path d="M69.8963 220.44L71.597 221.439C71.7711 221.542 72.0758 221.527 72.2761 221.409L73.878 220.467C74.0782 220.349 74.1015 220.169 73.9273 220.068L72.2267 219.07C72.0526 218.966 71.7479 218.981 71.5476 219.099L69.9457 220.042C69.7454 220.16 69.7222 220.34 69.8963 220.44Z" fill="#171717"/>
<path d="M74.0624 222.886L75.763 223.885C75.9371 223.988 76.2418 223.973 76.4421 223.855L78.044 222.913C78.2443 222.795 78.2675 222.615 78.0934 222.514L76.3927 221.516C76.2186 221.412 75.9139 221.427 75.7136 221.545L74.1117 222.487C73.9114 222.606 73.8882 222.783 74.0624 222.886Z" fill="#171717"/>
<path d="M65.7088 222.898L67.4095 223.896C67.5836 224 67.8883 223.985 68.0885 223.867L69.6905 222.924C69.8908 222.806 69.914 222.626 69.7398 222.526L68.0392 221.527C67.8651 221.424 67.5604 221.439 67.3601 221.557L65.7582 222.499C65.5579 222.617 65.5347 222.797 65.7088 222.898Z" fill="#171717"/>
<path d="M69.8768 225.347L71.5774 226.345C71.7516 226.448 72.0563 226.434 72.2565 226.315L73.8585 225.373C74.0587 225.255 74.0819 225.075 73.9078 224.974L72.2072 223.976C72.0331 223.873 71.7283 223.887 71.5281 224.006L69.9261 224.948C69.7259 225.066 69.7027 225.246 69.8768 225.347Z" fill="#171717"/>
<path d="M61.5409 220.449L63.2415 221.447C63.4156 221.551 63.7203 221.536 63.9206 221.418L65.5225 220.476C65.7228 220.358 65.746 220.18 65.5719 220.077L63.8712 219.079C63.6971 218.975 63.3924 218.99 63.1922 219.108L61.5902 220.05C61.39 220.169 61.3667 220.349 61.5409 220.449Z" fill="#171717"/>
<path d="M57.3788 218L59.0794 218.999C59.2535 219.102 59.5582 219.087 59.7585 218.969L61.3604 218.027C61.5607 217.909 61.5839 217.729 61.4098 217.628L59.7091 216.63C59.535 216.526 59.2303 216.541 59.03 216.659L57.4281 217.602C57.2278 217.72 57.2046 217.9 57.3788 218Z" fill="#171717"/>
<path d="M53.2108 215.553L54.9114 216.551C55.0855 216.654 55.3903 216.64 55.5905 216.521L57.1925 215.579C57.3927 215.461 57.4159 215.281 57.2418 215.18L55.5412 214.182C55.367 214.079 55.0623 214.093 54.8621 214.212L53.2601 215.154C53.0599 215.272 53.0367 215.452 53.2108 215.553Z" fill="#171717"/>
<path d="M49.0428 213.103L50.7434 214.101C50.9176 214.205 51.2223 214.19 51.4225 214.072L53.0245 213.13C53.2247 213.011 53.248 212.831 53.0738 212.731L51.3732 211.732C51.1991 211.629 50.8944 211.644 50.6941 211.762L49.0922 212.704C48.8919 212.822 48.8687 213.002 49.0428 213.103Z" fill="#171717"/>
<path d="M61.7538 225.222L63.4544 226.22C63.6285 226.323 63.9332 226.309 64.1335 226.19L65.7354 225.248C65.9357 225.13 65.9589 224.95 65.7848 224.849L64.0841 223.851C63.91 223.748 63.6053 223.763 63.405 223.881L61.8031 224.823C61.6028 224.941 61.5796 225.121 61.7538 225.222Z" fill="#171717"/>
<path d="M57.5877 222.774L59.2884 223.772C59.4625 223.876 59.7672 223.861 59.9675 223.743L61.5694 222.8C61.7697 222.682 61.7929 222.505 61.6188 222.402L59.9181 221.403C59.744 221.3 59.4393 221.315 59.239 221.433L57.6371 222.375C57.4368 222.493 57.4136 222.673 57.5877 222.774Z" fill="#171717"/>
<path d="M53.4237 220.325L55.1243 221.324C55.2984 221.427 55.6031 221.412 55.8034 221.294L57.4054 220.352C57.6056 220.234 57.6288 220.053 57.4547 219.953L55.7541 218.955C55.5799 218.851 55.2752 218.866 55.075 218.984L53.473 219.926C53.2728 220.045 53.2496 220.222 53.4237 220.325Z" fill="#171717"/>
<path d="M49.305 217.477C49.1048 217.595 49.0816 217.775 49.2557 217.875L50.9563 218.874C51.1305 218.977 51.4352 218.962 51.6354 218.844L53.2374 217.902C53.4376 217.784 53.4608 217.604 53.2867 217.503L51.5861 216.505C51.412 216.402 51.1072 216.416 50.907 216.534L49.305 217.477Z" fill="#171717"/>
<path d="M63.7453 80.1878C63.7453 80.1878 62.1521 77.9844 59.8855 73.793C59.903 73.666 62.094 58.0527 59.517 46.7371C60.0597 47.8181 67.4803 62.631 69.8687 72.5259L72.35 82.8019C72.35 82.8019 69.7033 89.3709 63.2462 96.7847L60.2193 99.5287C59.9494 99.7739 59.5315 99.7296 59.3167 99.4313L56.5917 95.6535C56.4698 95.4821 56.435 95.2695 56.5104 95.0716C57.0879 93.5091 59.7201 86.5029 61.0348 84.6568C62.8341 82.1314 63.7453 80.1908 63.7453 80.1908V80.1878Z" fill="#171717"/>
<path d="M59.8119 100.59C59.7626 100.59 59.7104 100.59 59.6581 100.581C59.2373 100.537 58.8543 100.312 58.6018 99.9666L55.8738 96.1888C55.572 95.7694 55.4965 95.2318 55.6765 94.7504C56.4223 92.7389 58.9558 86.0281 60.3111 84.1229C61.53 82.4127 62.3339 80.9684 62.7053 80.2624C62.1249 79.4088 60.8074 77.3796 59.1038 74.231L58.9616 73.9681L59.0023 73.6697C59.0893 73.0229 61.1324 57.8851 58.6395 46.9475L58.4596 46.1618L59.9571 45.6095L60.3169 46.3302C61.1295 47.9429 68.347 62.4516 70.7296 72.314L73.2835 82.8765L73.1732 83.1482C73.0629 83.4229 70.393 89.9447 63.9126 97.388L60.8103 100.209C60.5346 100.46 60.1776 100.596 59.809 100.596L59.8119 100.59ZM57.3974 95.2377L59.8584 98.6463L62.6589 96.1091C68.1584 89.7852 70.8573 84.0048 71.4174 82.7229L69.0058 72.7452C67.4648 66.3652 63.8313 57.9501 61.3094 52.5064C62.2207 61.8283 61.0482 71.741 60.8045 73.6195C62.9375 77.5332 64.4582 79.654 64.4582 79.654L64.7745 80.0911L64.5453 80.5814C64.5075 80.6641 63.5789 82.6254 61.7534 85.1892C60.79 86.5391 58.8194 91.4127 57.3945 95.2407L57.3974 95.2377Z" fill="#171717"/>
<path d="M61.2969 65.69C61.2969 65.69 64.3876 63.8676 66.5613 58.6484C66.5613 58.6484 65.5717 48.0327 59.1609 45.6845C52.7502 43.3363 58.1365 60.1282 58.1365 60.1282L61.2998 65.69H61.2969Z" fill="#FAFAFA"/>
<path d="M60.9724 66.9273L57.2897 60.4084C56.6309 58.3586 53.4937 47.9999 56.2623 45.2677C56.8021 44.7331 57.8004 44.2251 59.4604 44.8335C66.3239 47.3471 67.4006 58.1045 67.4441 58.5624L67.4644 58.7898L67.3773 58.9995C65.1137 64.4343 61.8779 66.3897 61.7415 66.4724L60.9724 66.9243V66.9273ZM58.9497 59.7586L61.5673 64.3635C62.5279 63.5394 64.2692 61.7287 65.6477 58.5151C65.462 57.0235 64.1734 48.4873 58.8597 46.5378C57.8875 46.1804 57.5944 46.4728 57.5015 46.5673C56.0534 47.9969 57.4725 55.1065 58.9526 59.7586H58.9497Z" fill="#171717"/>
<path d="M63.9684 81.0637L63.5215 79.3122C65.0799 78.8957 66.6615 79.2058 66.7283 79.2177L66.3917 80.9958C66.3917 80.9958 65.1263 80.7565 63.9684 81.0637Z" fill="#171717"/>
<path d="M61.5312 197.436C61.5312 197.436 62.8545 198.006 64.4188 201.929C65.6434 205.001 69.985 210.545 71.7785 212.048C73.572 213.552 70.934 219.385 65.1211 216.73C62.5585 215.56 58.9599 212.772 57.1577 211.898C54.6706 210.692 52.9149 208.315 52.5231 205.541C52.2474 203.574 52.1284 201.436 52.6159 200.177C53.6984 197.395 58.3418 196.216 58.3418 196.216L61.5341 197.436H61.5312Z" fill="#FAFAFA"/>
<path d="M67.9584 218.316C67.0066 218.316 65.9357 218.091 64.7603 217.554C63.26 216.868 61.4461 215.669 59.8442 214.612C58.6456 213.82 57.5138 213.073 56.7767 212.715C53.9936 211.366 52.0753 208.734 51.6429 205.671C51.2685 203.021 51.3178 201.06 51.788 199.846C53.0214 196.665 57.9172 195.392 58.1261 195.339L58.396 195.271L61.8815 196.603C62.1601 196.724 63.6256 197.528 65.245 201.589C66.3739 204.424 70.6168 209.901 72.3464 211.348C73.4521 212.275 73.5276 214.151 72.5176 215.805C71.7079 217.134 70.1379 218.316 67.9555 218.316H67.9584ZM58.3003 197.167C56.974 197.557 54.1416 198.718 53.4451 200.511C53.0997 201.4 53.0852 203.143 53.4044 205.414C53.7498 207.877 55.2966 209.992 57.5399 211.082C58.3844 211.49 59.5104 212.234 60.8106 213.097C62.3574 214.119 64.1103 215.276 65.4859 215.906C68.3009 217.19 70.1814 216.204 71.0056 214.854C71.5483 213.965 71.5512 213.032 71.2146 212.751C69.2702 211.12 64.859 205.441 63.5966 202.274C62.3516 199.149 61.3126 198.366 61.1617 198.266L58.2974 197.173L58.3003 197.167Z" fill="#171717"/>
<path d="M61.4336 197.776C61.4336 197.776 62.6031 202.044 63.8249 204.336C64.8 206.162 62.9427 207.745 59.4225 205.468C55.8993 203.193 55.0664 197.93 55.0664 197.93L60.8213 197.026L61.4336 197.776Z" fill="#171717"/>
<path d="M62.4978 207.506C61.4791 207.506 60.2516 207.078 58.9456 206.233C55.1294 203.767 54.2268 198.305 54.1891 198.075L54.0469 197.174L61.1831 196.055L62.2395 197.348L62.2888 197.534C62.3004 197.576 63.4468 201.732 64.6047 203.908C65.1764 204.981 65.0632 206.133 64.3145 206.844C63.8443 207.29 63.2233 207.509 62.4949 207.509L62.4978 207.506ZM56.1422 198.675C56.5369 200.181 57.5845 203.208 59.8975 204.703C61.6591 205.84 62.7967 205.805 63.1014 205.518C63.2668 205.359 63.1827 205.025 63.0434 204.768C61.9203 202.665 60.8726 199.076 60.6288 198.205L60.4576 197.995L56.1422 198.675Z" fill="#171717"/>
<path d="M13.3669 158.758C13.3669 158.758 11.5618 165.377 13.9096 170.65C16.2603 175.922 10.7753 179.591 6.15806 173.896C1.54373 168.201 1.4944 161.092 1.4944 161.092C0.707933 159.972 0.620866 155.754 1.61338 154.818C3.00929 153.501 5.36289 152.136 8.7003 153.016C14.4929 154.54 13.3698 158.761 13.3698 158.761L13.3669 158.758Z" fill="#FAFAFA"/>
<path d="M11.0492 177.658C9.34277 177.658 7.32292 176.751 5.47428 174.468C1.14726 169.131 0.665513 162.7 0.613275 161.342C-0.208018 159.705 -0.324103 155.408 1.01086 154.149C2.56058 152.687 5.19278 151.154 8.92197 152.135C11.203 152.738 12.7963 153.807 13.6611 155.319C14.7029 157.142 14.2444 158.917 14.227 158.994C14.2096 159.056 12.538 165.374 14.7233 170.274C16.1308 173.434 15.0512 175.936 13.3564 177.014C12.7121 177.425 11.9227 177.658 11.055 177.658H11.0492ZM6.64963 153.641C4.64718 153.641 3.17002 154.578 2.21523 155.479C1.63481 156.028 1.63481 159.735 2.21523 160.562L2.37774 160.795V161.082C2.38065 161.15 2.49383 167.955 6.84407 173.319C8.94808 175.918 11.1595 176.276 12.4103 175.481C13.4492 174.822 14.0645 173.189 13.101 171.024C10.669 165.566 12.4016 158.923 12.509 158.527C12.596 158.164 13.1822 155.13 8.47505 153.89C7.82498 153.718 7.21554 153.644 6.65253 153.644L6.64963 153.641Z" fill="#171717"/>
<path d="M13.3674 158.757L11.9047 163.418C10.9093 164.401 7.96079 162.174 7.37747 160.892C7.10758 160.299 6.8638 159.563 6.69838 158.665C6.08604 155.345 8.70083 153.015 8.70083 153.015L13.3703 158.76L13.3674 158.757Z" fill="#171717"/>
<path d="M11.2401 164.565C11.0892 164.565 10.9238 164.551 10.7467 164.515C9.1535 164.214 7.11913 162.48 6.56774 161.272C6.234 160.54 5.98441 159.718 5.8219 158.829C5.12539 155.046 7.98976 152.438 8.11165 152.328L8.79945 151.714L14.3599 158.558L12.6795 163.904L12.5199 164.063C12.2762 164.306 11.867 164.563 11.2372 164.563L11.2401 164.565ZM8.66885 154.399C8.05361 155.226 7.24102 156.709 7.56896 158.499C7.70536 159.24 7.91141 159.916 8.1813 160.513C8.6021 161.437 10.4827 162.734 11.1734 162.764L12.3719 158.953L8.66885 154.399Z" fill="#171717"/>
<path d="M56.8252 107.039C56.8252 107.039 59.6577 125.839 47.3325 144.176L41.061 149.289L30.2217 152.204L13.0819 158.761C12.7975 158.871 12.4812 158.853 12.2113 158.717L11.5932 158.407C10.1479 157.683 9.12059 156.31 8.81877 154.7L8.62143 153.64C8.54307 153.22 8.69979 152.798 9.03353 152.541C10.9489 151.07 17.5105 146.055 21.5822 143.178C27.694 138.859 31.5015 136.399 35.7328 135.483C39.9611 134.568 34.0438 106.129 34.0438 106.129L45.3416 100.63L56.8281 107.039H56.8252Z" fill="#FAFAFA"/>
<path d="M12.6977 159.731C12.3959 159.731 12.0941 159.663 11.8184 159.525L11.2003 159.214C9.51414 158.373 8.29817 156.745 7.94411 154.864L7.74676 153.803C7.60456 153.041 7.89187 152.279 8.49841 151.815C10.4138 150.344 16.9841 145.323 21.0761 142.431C26.8774 138.335 31.0187 135.576 35.5488 134.595C37.3394 134.208 36.2279 120.99 33.1749 106.313L33.0298 105.616L45.3695 99.6115L57.6425 106.458L57.7092 106.898C57.7382 107.09 60.4517 126.266 48.0714 144.682L47.8914 144.877L41.472 150.111L30.4527 153.077L13.3971 159.604C13.1737 159.69 12.9357 159.734 12.6977 159.734V159.731ZM35.0555 106.632C36.9331 115.792 40.4011 135.393 35.9174 136.362C31.7123 137.271 27.7132 139.944 22.0889 143.914C18.0231 146.785 11.476 151.792 9.56928 153.257C9.50834 153.304 9.47932 153.381 9.49383 153.463L9.69117 154.524C9.93784 155.847 10.7969 156.993 11.9838 157.59L12.602 157.9C12.6542 157.924 12.7152 157.929 12.7674 157.909L29.9072 151.355L40.6507 148.46L46.6726 143.551C57.5438 127.297 56.3104 110.499 55.9999 107.607L45.3115 101.644L35.0526 106.635L35.0555 106.632Z" fill="#171717"/>
<path d="M47.7522 113.008C47.7522 113.008 24.6893 103.353 24.5906 112.642C24.4949 121.931 33.1286 136.538 39.0866 142.096C45.0446 147.655 49.2381 159.952 49.2381 159.952C49.2381 159.952 47.1979 172.585 50.2451 180.504C52.7932 187.12 54.2326 195.148 54.636 197.606C54.7144 198.072 55.0249 198.462 55.4602 198.633L55.7678 198.755C57.4191 199.401 59.2533 199.387 60.8958 198.713C61.4124 198.5 61.7432 197.987 61.7171 197.419C61.4559 191.689 60.089 161.449 59.9381 154.898C59.8279 150.063 54.0237 131.88 50.4483 121.081C50.4483 121.081 49.4935 118.239 51.2841 117.368L47.7464 113.008H47.7522Z" fill="#FAFAFA"/>
<path d="M58.2814 200.133C57.3237 200.133 56.3661 199.956 55.449 199.596L55.1414 199.474C54.4187 199.191 53.8906 198.529 53.7629 197.752C53.3827 195.44 51.9433 187.382 49.4213 180.828C46.5134 173.275 48.0545 161.865 48.3272 160.034C47.7468 158.403 43.7942 147.705 38.4892 142.757C32.537 137.204 23.6072 122.356 23.7059 112.627C23.7233 110.975 24.3879 109.661 25.6271 108.825C31.0192 105.186 46.3625 111.442 48.0951 112.166L47.4189 113.841C42.9555 111.974 30.5171 107.703 26.6109 110.334C25.8563 110.842 25.4965 111.578 25.4849 112.644C25.392 121.564 33.9067 136.026 39.6935 141.422C45.7473 147.07 49.9089 159.136 50.083 159.647L50.1556 159.862L50.1178 160.09C50.0975 160.214 48.1531 172.572 51.0755 180.163C53.6642 186.88 55.1298 195.091 55.5186 197.448C55.5448 197.602 55.6434 197.726 55.7856 197.782L56.0962 197.903C57.5443 198.47 59.1346 198.458 60.5712 197.868C60.7424 197.797 60.8469 197.634 60.8382 197.454C60.5683 191.496 59.2101 161.448 59.0592 154.912C58.9779 151.432 55.626 139.517 49.6158 121.361C49.1689 120.026 48.9367 117.503 50.913 116.543L51.6792 118.177C50.6431 118.679 51.3019 120.785 51.3019 120.785C55.5941 133.749 60.7308 150.186 60.8382 154.87C60.9862 161.386 62.3444 191.417 62.6172 197.371C62.6607 198.317 62.1064 199.191 61.2387 199.545C60.2926 199.935 59.2914 200.127 58.293 200.127L58.2814 200.133Z" fill="#171717"/>
<path d="M16.5735 55.9622C19.937 49.5261 32.9965 44.5609 32.9965 44.5609L38.3653 45.3968L46.5521 41.5452C46.5521 41.5452 58.1692 43.3853 59.9366 45.7572C61.7011 48.129 62.6936 64.8352 61.1497 71.2359C60.1078 75.5542 60.3197 90.3523 60.5692 99.5235C60.6998 104.291 58.2824 108.76 54.2485 111.185L54.1962 111.214C52.5072 112.224 50.557 107.014 50.557 107.014L50.1856 106.946C49.3614 110.703 48.6271 113.007 48.6271 113.007C48.6271 113.007 18.9968 119.074 21.3155 105.035C23.6314 90.9991 20.7641 69.3248 20.7641 69.3248C20.7641 69.3248 13.21 62.3984 16.5706 55.9622H16.5735Z" fill="#FAFAFA"/>
<path d="M35.7351 115.217C30.5635 115.217 25.1918 114.429 22.3622 111.64C20.6268 109.93 19.9767 107.656 20.4352 104.882C22.5538 92.0542 20.2582 72.4799 19.9187 69.7596C18.5663 68.4304 12.4574 61.8997 15.7832 55.5345C19.2628 48.8739 32.1336 43.9176 32.6792 43.7108L32.8968 43.6281L38.228 44.4581L46.4177 40.6064L46.6847 40.6478C48.6842 40.9638 58.7516 42.674 60.6379 45.2054C62.6491 47.908 63.5429 65.075 62.0048 71.4461C61.2445 74.6037 61.0471 84.5636 61.4505 99.4916C61.5898 104.593 59.0012 109.369 54.6944 111.953C54.1721 112.269 53.6439 112.32 53.1186 112.131C52.0884 111.761 51.1887 110.414 50.5677 109.224C49.9611 111.726 49.4939 113.203 49.4707 113.28L49.3111 113.785L48.8003 113.888C48.3476 113.983 42.2009 115.211 35.7351 115.214V115.217ZM17.3532 56.3852C14.3611 62.1154 21.2855 68.5869 21.3581 68.6519L21.599 68.8735L21.6425 69.2013C21.7615 70.0904 24.504 91.171 22.191 105.183C21.8311 107.363 22.2926 109.05 23.6014 110.341C28.7671 115.433 44.8418 112.783 47.9355 112.216C48.1908 111.345 48.7335 109.407 49.3198 106.746L49.5055 105.898L51.209 106.211L51.389 106.687C52.1551 108.734 53.3072 110.409 53.7455 110.435C57.5472 108.146 59.7992 103.987 59.6802 99.5448C59.39 88.873 59.2594 75.2594 60.2839 71.0149C61.8974 64.3277 60.6553 48.2182 59.2246 46.2982C58.177 44.8923 51.3541 43.2382 46.6789 42.4761L38.4921 46.3248L33.0942 45.486C31.4138 46.1565 20.293 50.7583 17.3561 56.3822L17.3532 56.3852Z" fill="#171717"/>
<path d="M38.1035 38.9376C38.1035 38.9376 38.0919 41.1381 36.7656 44.396C36.7656 44.396 38.1615 46.7118 40.6922 48.6553C43.513 50.8204 47.3002 51.1778 50.5564 49.7866C50.5564 49.7866 48.7919 44.1716 49.1227 40.6891C49.4536 37.2067 38.1006 38.9376 38.1006 38.9376H38.1035Z" fill="#FAFAFA"/>
<path d="M46.5499 51.5142C44.2515 51.5142 41.9965 50.7876 40.1595 49.3757C37.5244 47.3524 36.0705 44.9688 36.0124 44.8684L35.7773 44.4755L35.9515 44.0502C37.182 41.0256 37.2197 38.9314 37.2197 38.9314L37.2284 38.1605L37.9771 38.0423C39.4833 37.8149 47.1071 36.7781 49.3272 38.9225C49.8438 39.4217 50.0818 40.0627 50.015 40.7745C49.7045 44.0325 51.3935 49.4525 51.4109 49.5086L51.6605 50.2973L50.9089 50.6192C49.5013 51.2188 48.0184 51.5142 46.5528 51.5142H46.5499ZM37.7682 44.2865C38.2528 44.9865 39.4514 46.5667 41.2304 47.9313C43.5346 49.7006 46.6254 50.1732 49.4694 49.2339C48.9848 47.5031 47.969 43.4447 48.2389 40.6032C48.2534 40.4466 48.2186 40.3521 48.0967 40.2369C47.0026 39.1795 42.31 39.2977 38.9319 39.7348C38.8274 40.6357 38.5459 42.2455 37.7653 44.2894L37.7682 44.2865Z" fill="#171717"/>
<path d="M37.6984 41.5432C37.6984 41.5432 31.9145 42.5386 31.1426 46.6679C31.1426 46.6679 35.0517 54.8379 45.6763 55.9632L46.4801 50.6052C46.4801 50.6052 43.3836 50.6465 39.9678 48.2068C37.9103 46.7329 36.8974 44.0804 37.6665 41.6407L37.6984 41.5432Z" fill="#FAFAFA"/>
<path d="M46.4259 56.9488L45.5843 56.8602C34.5941 55.6994 30.5109 47.4142 30.3425 47.0627L30.2148 46.791L30.27 46.4956C31.1493 41.8022 37.2901 40.6945 37.5513 40.6473L38.9995 40.3992L38.5119 41.9174C37.8851 43.9023 38.6948 46.1855 40.4795 47.4615C43.6109 49.7004 46.4695 49.6945 46.4695 49.6945H47.5113L46.4259 56.9488ZM32.0838 46.5399C32.8325 47.8957 36.5008 53.7204 44.9285 54.9521L45.4595 51.4224C44.1855 51.2452 41.8958 50.684 39.4609 48.9413C37.4556 47.5058 36.3673 45.1162 36.5501 42.7799C35.0381 43.279 32.6729 44.3867 32.0867 46.5399H32.0838Z" fill="#171717"/>
<path d="M48.3262 50.4523L51.3327 55.0098C51.3327 55.0098 55.4276 51.8346 53.3787 45.7559L49.0488 46.3732C49.0488 46.3732 50.1197 48.5914 48.3262 50.4523Z" fill="#FAFAFA"/>
<path d="M51.1237 56.3081L47.1855 50.3416L47.6934 49.8158C49.0081 48.4512 48.2825 46.8296 48.2506 46.7617L47.7369 45.6511L53.9852 44.7532L54.2231 45.4591C56.4519 52.0754 51.9218 55.6878 51.8753 55.7233L51.1237 56.3051V56.3081ZM49.4405 50.51L51.4748 53.5936C52.3542 52.5273 53.6717 50.2382 52.7547 46.7558L50.1892 47.1221C50.3401 48.0082 50.314 49.2812 49.4376 50.51H49.4405Z" fill="#171717"/>
<path d="M54.9761 25.1912C54.9761 25.1912 56.9814 29.6956 56.2298 36.4212C55.9222 39.1622 55.1212 41.8206 54.0097 44.3371L53.3828 45.7549C53.1333 46.3161 52.5877 46.6765 51.984 46.6676C49.8365 46.6381 44.6679 46.1064 40.4134 42.0362L38.8433 40.1694C38.1497 39.3454 37.7667 38.2938 37.7667 37.2069C37.7667 37.2069 35.8977 36.7993 35.1722 34.8203C34.792 33.7865 34.94 32.6286 35.4247 31.6421C35.7526 30.9745 36.5246 30.6674 37.2095 30.9332L43.8379 22.1577L54.9819 25.1882L54.9761 25.1912Z" fill="#171717"/>
<path d="M51.9985 47.5705H51.9637C49.8075 47.541 44.3022 47.0064 39.7981 42.6939L38.1614 40.7563C37.4707 39.9352 37.0353 38.925 36.9106 37.8587C36.1473 37.525 34.9284 36.7599 34.3335 35.1354C33.8924 33.9332 33.9969 32.5125 34.6237 31.2365C35.0503 30.3711 35.9296 29.8896 36.8322 29.9369L43.4867 21.1289L55.6087 24.4282L55.7829 24.8181C55.867 25.0101 57.8811 29.6297 57.1091 36.5236C56.8102 39.1849 56.0412 41.9407 54.8165 44.7084L54.1896 46.1262C53.8007 47.0064 52.9446 47.5705 52.0014 47.5705H51.9985ZM36.6929 31.7445C36.4956 31.7445 36.304 31.8568 36.2111 32.0488C35.8049 32.8758 35.7265 33.7708 35.9964 34.5033C36.5362 35.9713 37.8944 36.308 37.9524 36.3228L38.6402 36.4852L38.6489 37.206C38.6489 38.0773 38.9565 38.9191 39.5137 39.5807L41.0838 41.4475C45.0683 45.2519 50.0396 45.7333 51.9898 45.7628C52.2597 45.7156 52.4629 45.6181 52.5674 45.3848L53.1942 43.967C54.3405 41.3677 55.0661 38.795 55.3418 36.3198C55.9367 31.0091 54.7468 27.1397 54.3115 25.9494L44.1687 23.1906L37.5055 32.0222L36.8844 31.78C36.8206 31.7564 36.7567 31.7445 36.6929 31.7445Z" fill="#171717"/>
<path d="M51.069 107.054L49.3045 106.835C52.2008 82.7123 48.3991 59.4902 48.3613 59.2569L50.1142 58.9526C50.1548 59.186 53.9972 82.6591 51.069 107.051V107.054Z" fill="#171717"/>
<path d="M27.8532 125.744L27.5137 123.969C29.4784 123.579 30.883 122.675 31.6811 121.278C33.3556 118.356 32.0206 114.192 32.0061 114.15L33.6922 113.577C33.759 113.778 35.2942 118.569 33.2163 122.19C32.1454 124.057 30.3432 125.253 27.8503 125.747L27.8532 125.744Z" fill="#171717"/>
<path d="M49.91 160.539L48.5605 159.361C49.9855 157.668 51.2131 157.033 51.2653 157.007L52.0634 158.622C52.0634 158.622 51.0825 159.148 49.91 160.536V160.539Z" fill="#171717"/>
<path d="M57.5145 196.6C56.4407 196.6 55.1986 196.375 53.8027 195.758L54.5108 194.098C58.5535 195.882 60.8461 193.64 60.939 193.546L62.2043 194.816C62.1085 194.913 60.4398 196.6 57.5116 196.6H57.5145Z" fill="#171717"/>
<path d="M15.1806 158.545C15.021 158.427 11.2715 155.565 10.6562 150.741L12.4178 150.508C12.9373 154.575 16.2022 157.062 16.2341 157.089L15.1806 158.545Z" fill="#171717"/>
<path d="M63.6133 211.198V209.388C65.8943 209.388 67.4121 207.314 67.4121 207.314L68.8458 208.383C68.7645 208.499 66.7853 211.198 63.6133 211.198Z" fill="#171717"/>
<path d="M10.7772 167.672C9.68308 167.672 8.38294 167.415 7.16406 166.526L8.19721 165.055C10.2374 166.541 12.7158 165.519 12.7158 165.519L13.4007 167.188C13.3223 167.22 12.2282 167.672 10.7772 167.672Z" fill="#171717"/>
<path d="M10.5399 171.161C9.65476 171.161 8.5926 170.969 7.3418 170.443L8.02089 168.771C11.3003 170.15 12.6294 168.641 12.6845 168.576L14.063 169.719C14.0021 169.799 12.8964 171.161 10.5399 171.161Z" fill="#171717"/>
<path d="M66.4513 213.197L65.9551 211.461C67.9198 210.879 69.3505 209.071 69.3505 209.071L70.7464 210.194C70.6768 210.285 68.9762 212.453 66.4513 213.2V213.197Z" fill="#171717"/>
<path d="M34.2086 50.274L32.627 49.444C34.1418 46.4637 37.4328 44.9248 37.5721 44.8599L38.3064 46.508C38.2773 46.5228 35.4333 47.8608 34.2086 50.274Z" fill="#171717"/>
<path d="M38.4666 37.6677L37.1113 37.4875C37.3319 35.7626 38.2838 34.7672 38.3244 34.7258L39.2995 35.7035C39.2995 35.7035 38.6262 36.4301 38.4666 37.6707V37.6677Z" fill="#FAFAFA"/>
<path d="M62.3663 19.5115C62.3663 18.2976 61.7017 17.2549 60.7324 16.7026C60.7324 16.614 60.7237 16.5224 60.7179 16.4308C61.426 15.8371 61.8874 14.951 61.8874 13.9438C61.8874 12.1982 60.5235 10.7863 58.8228 10.7243C58.7358 10.5943 58.6487 10.4614 58.5558 10.3314C58.6487 10.0272 58.7126 9.71409 58.7126 9.38032C58.7126 7.59628 57.2905 6.14896 55.5377 6.14896C55.172 6.14896 54.8296 6.22576 54.5016 6.34095C54.4029 6.26711 54.3072 6.19327 54.2056 6.11942C54.1882 4.35015 52.7778 2.9176 51.0336 2.9176C50.4039 2.9176 49.8205 3.10959 49.3272 3.43155C49.1414 3.36066 48.9586 3.30454 48.7729 3.2366C48.4624 1.78338 47.1941 0.696411 45.6734 0.696411C44.5503 0.696411 43.5665 1.29601 43.0035 2.19099C42.9484 2.19099 42.8961 2.1969 42.841 2.1969C42.2606 1.54117 41.4277 1.11879 40.4903 1.11879C39.2018 1.11879 38.099 1.90448 37.5998 3.02689C37.2545 3.13618 36.9178 3.26023 36.5812 3.38724C36.1023 3.09482 35.5509 2.9176 34.9531 2.9176C33.2322 2.9176 31.8392 4.31471 31.7869 6.05444C31.578 6.21099 31.3719 6.36753 31.1717 6.52999C30.7306 6.29665 30.2401 6.14896 29.709 6.14896C27.9562 6.14896 26.5341 7.59628 26.5341 9.38032C26.5341 9.96515 26.6967 10.5027 26.9636 10.9753C26.836 11.1525 26.7199 11.3357 26.598 11.5159C26.4964 11.504 26.3977 11.4834 26.2904 11.4834C24.5375 11.4834 23.1155 12.9307 23.1155 14.7147C23.1155 15.2818 23.2722 15.8046 23.5218 16.2684C22.3899 16.7616 21.5948 17.9047 21.5948 19.2398C21.5948 20.0757 21.914 20.8289 22.4248 21.4019C21.5048 21.969 20.8809 22.9851 20.8809 24.1607C20.8809 25.5667 21.7689 26.7511 22.9994 27.1941C23.0197 27.2946 23.0342 27.398 23.0545 27.4984C22.1781 28.0744 21.5919 29.0698 21.5919 30.2128C21.5919 31.9969 23.0139 33.4442 24.7668 33.4442H24.8103C24.79 33.586 24.7668 33.7337 24.7668 33.8873C24.7668 35.6713 26.1888 37.1186 27.9417 37.1186C28.2609 37.1186 28.5656 37.0566 28.8558 36.965C29.0009 38.6132 30.3446 39.9069 32.0017 39.9069C32.7417 39.9069 33.415 39.6381 33.9548 39.2069C35.2114 39.52 36.2823 39.6322 36.9701 39.6677C37.2255 39.6824 37.359 39.3752 37.179 39.1892C36.7408 38.7402 36.0878 37.9073 35.3072 36.3979C35.2085 36.2089 35.1417 36.0346 35.0605 35.8544C34.9908 35.5856 34.8864 35.3346 34.7558 35.0983C34.039 33.007 34.541 31.5715 35.6699 30.2867C37.0194 28.7537 39.7503 31.0694 39.7503 31.0694C39.7503 31.0694 39.3353 26.8072 45.0495 24.2818C48.7468 22.6484 51.8259 23.5788 53.8399 24.7278C54.2491 26.0304 55.4361 26.9785 56.8494 26.9785C58.6023 26.9785 60.0243 25.5312 60.0243 23.7472C60.0243 23.3691 59.9488 23.0117 59.8299 22.675C61.2751 22.3707 62.3605 21.0711 62.3605 19.5115H62.3663Z" fill="#171717"/>
<path d="M32.002 40.6047C30.2578 40.6047 28.7865 39.4379 28.3163 37.7927C26.0469 38.0467 24.1837 36.2775 24.0851 34.071C22.2655 33.7343 20.9073 32.1334 20.9073 30.2135C20.9073 29.1768 21.3078 28.1991 22.0043 27.4754C20.8957 26.7665 20.1934 25.5201 20.1934 24.1584C20.1934 23.033 20.6577 21.9933 21.4645 21.2549C21.1017 20.6464 20.9044 19.9494 20.9044 19.2375C20.9044 17.9024 21.5661 16.6826 22.634 15.9648C22.4947 15.5601 22.4251 15.1407 22.4251 14.7154C22.4251 12.6094 24.0648 10.8844 26.1107 10.7929C25.9337 10.338 25.8437 9.86539 25.8437 9.38098C25.8437 7.21591 27.5763 5.45255 29.7035 5.45255C30.1708 5.45255 30.6293 5.54411 31.0762 5.72134L31.1255 5.68294C31.3519 3.71577 32.9684 2.22119 34.9505 2.22119C35.528 2.22119 36.1026 2.36001 36.6308 2.62585C36.7904 2.56677 36.9529 2.5077 37.1155 2.45158C37.7917 1.20807 39.0831 0.422381 40.4877 0.422381C41.3438 0.422381 42.1738 0.720705 42.85 1.25533C43.5726 0.457825 44.5884 0 45.6737 0C47.3192 0 48.7819 1.08401 49.3159 2.63766C49.8499 2.36297 50.439 2.22119 51.0339 2.22119C52.9435 2.22119 54.5454 3.65669 54.8415 5.52344C57.2502 5.03312 59.3977 6.97962 59.3977 9.37803C59.3977 9.60251 59.3745 9.8329 59.3281 10.0751C61.1825 10.3734 62.5755 11.9891 62.5755 13.9445C62.5755 14.8837 62.2418 15.7817 61.6382 16.4906C62.5262 17.229 63.0544 18.3366 63.0544 19.5122C63.0544 21.119 62.0851 22.5457 60.666 23.1423C60.7008 23.3461 60.7153 23.547 60.7153 23.7478C60.7153 25.9129 58.9856 27.6763 56.8555 27.6763C55.2768 27.6763 53.878 26.6986 53.2917 25.2158C51.4663 24.2322 48.6658 23.4495 45.3284 24.9205C40.183 27.1919 40.4239 30.8515 40.4384 31.0051L40.5748 32.6592L39.3211 31.6047C39.2978 31.584 37.0487 29.7704 36.1868 30.7511C35.0666 32.0241 34.8431 33.2174 35.409 34.8685C35.5222 35.0517 35.647 35.3589 35.7283 35.6779L35.766 35.7399C35.8124 35.8492 35.8589 35.9585 35.9198 36.0737C36.6773 37.5387 37.2896 38.3096 37.6698 38.6995C37.9542 38.9919 38.0325 39.4202 37.87 39.7894C37.7075 40.1586 37.3331 40.3684 36.9442 40.3625C36.2913 40.327 35.293 40.2266 34.1089 39.9548C33.4762 40.3802 32.7594 40.6017 32.0107 40.6017L32.002 40.6047ZM29.4597 36.05L29.5352 36.9037C29.6513 38.221 30.7105 39.2135 32.002 39.2135C32.5505 39.2135 33.0816 39.0215 33.5314 38.6611L33.7926 38.4514L34.1147 38.5312C34.8257 38.7084 35.4729 38.8177 36.0185 38.8856C35.5832 38.3008 35.142 37.5771 34.7009 36.7205C34.6255 36.5728 34.5645 36.437 34.5036 36.2981L34.4368 36.1446C34.344 35.8315 34.2656 35.6306 34.1582 35.4416C33.3834 33.2115 33.7171 31.4629 35.1595 29.8236C36.239 28.5978 37.9019 29.0645 39.1643 29.8118C39.472 28.202 40.6241 25.4817 44.777 23.6474C48.7674 21.884 52.0903 22.9356 54.1769 24.1259L54.4119 24.2588L54.4932 24.5187C54.8269 25.5762 55.773 26.2851 56.8526 26.2851C58.2253 26.2851 59.3426 25.1479 59.3426 23.7508C59.3426 23.479 59.2933 23.2043 59.1888 22.909L58.9276 22.1558L59.6967 21.9963C60.8459 21.7541 61.6788 20.7114 61.6788 19.5152C61.6788 18.6084 61.1854 17.7636 60.3932 17.3117L60.042 17.1138L60.013 16.1184L60.2771 15.8969C60.8633 15.4066 61.1999 14.6977 61.1999 13.9474C61.1999 12.5799 60.1436 11.4722 58.797 11.422L58.4488 11.4102L58.2543 11.1148C58.1731 10.9908 58.0889 10.8667 58.0018 10.7426L57.8016 10.462L57.9032 10.1283C57.9873 9.84767 58.028 9.60842 58.028 9.38098C58.028 7.98388 56.9106 6.8467 55.538 6.8467C55.2826 6.8467 55.0156 6.89691 54.7254 6.99734L54.3887 7.11549L53.5239 6.48044V6.12304C53.5065 4.73775 52.3921 3.61239 51.031 3.61239C50.5609 3.61239 50.0994 3.75121 49.6931 4.01705L49.4029 4.20608L49.0808 4.08203C48.9705 4.04068 48.8631 4.00228 48.7529 3.96683L48.1812 3.76598L48.0999 3.38495C47.8532 2.23005 46.8288 1.3912 45.6679 1.3912C44.8176 1.3912 44.037 1.8313 43.5726 2.56382L43.3695 2.88873L42.6904 2.87987L42.3276 2.65834C41.843 2.1119 41.19 1.81062 40.4848 1.81062C39.5097 1.81062 38.6217 2.39841 38.2183 3.30816L38.0906 3.59171L37.7975 3.68623C37.4666 3.78961 37.1416 3.91071 36.8166 4.03477L36.506 4.15292L36.2216 3.97865C35.8182 3.73054 35.3887 3.60648 34.9447 3.60648C33.5923 3.60648 32.504 4.68754 32.4634 6.06692L32.4547 6.4066L32.1848 6.60745C31.9846 6.75809 31.7814 6.90873 31.587 7.06823L31.2387 7.34883L30.844 7.13912C29.1376 6.23528 27.2048 7.58217 27.2048 9.37508C27.2048 9.80336 27.318 10.2257 27.5444 10.6245L27.7649 11.0173L27.5037 11.3806C27.4283 11.487 27.3557 11.5963 27.2832 11.7056L26.9175 12.2431L26.279 12.1752C24.9064 12.1752 23.7862 13.3124 23.7862 14.7124C23.7862 15.126 23.8935 15.5365 24.1083 15.9294L24.4739 16.6028L23.7803 16.907C22.8633 17.3087 22.2684 18.2244 22.2684 19.2375C22.2684 19.8578 22.5005 20.4604 22.9213 20.9329L23.4785 21.5591L22.7675 21.9963C22.0072 22.463 21.5544 23.2693 21.5544 24.1584C21.5544 25.2217 22.2219 26.1787 23.2173 26.5361L23.583 26.6691L23.8152 27.821L23.4147 28.0839C22.695 28.5535 22.2684 29.351 22.2684 30.2135C22.2684 31.6106 23.3857 32.7507 24.7584 32.7507H25.5477L25.481 33.5394C25.4578 33.693 25.4432 33.7875 25.4432 33.8879C25.4432 35.285 26.5606 36.4222 27.9361 36.4222C28.1538 36.4222 28.3831 36.3838 28.653 36.2981L29.4568 36.05H29.4597Z" fill="#171717"/>
<path d="M35.8179 38.586C35.7018 38.4649 32.9768 35.5643 33.8561 32.2296C34.2682 30.6612 35.1359 29.6008 36.2968 29.2464C37.3212 28.9362 38.4501 29.1932 39.4513 29.9523L39.7589 29.8223C39.8518 28.4784 40.6441 24.9428 46.2683 23.1086C52.8938 20.9464 55.3693 24.3018 56.4286 25.7344L56.5592 25.9116L55.4709 26.7564L55.3316 26.5703C54.3013 25.1732 52.386 22.5739 46.6833 24.4348C40.8327 26.3399 41.1113 30.1856 41.1171 30.224L41.1636 30.7321L39.2076 31.5709L38.8854 31.2785C38.1773 30.6376 37.3531 30.3776 36.6914 30.5814C35.992 30.7941 35.4697 31.4882 35.1794 32.59C34.5033 35.1567 36.7785 37.5935 36.8017 37.6172L35.8208 38.586H35.8179Z" fill="#FAFAFA"/>
<path d="M31.8668 33.2367C28.9096 33.1629 26.7011 32.2827 25.2965 30.6256C23.4101 28.3926 23.7293 25.5925 23.7439 25.4744L25.102 25.6457C25.102 25.6457 24.8496 27.9732 26.3441 29.7307C27.4847 31.0716 29.3536 31.7835 31.8987 31.8485L31.8639 33.2397L31.8668 33.2367Z" fill="#FAFAFA"/>
<path d="M57.1479 22.2116L56.0045 21.4466C57.6732 18.8621 57.8096 16.1358 56.4108 13.3446C52.8354 6.20544 44.6457 5.72399 44.5645 5.72103L44.6283 4.32983C44.9969 4.34756 53.6886 4.84083 57.6297 12.7125C59.667 16.7856 58.4916 20.1233 57.1479 22.2086V22.2116Z" fill="#FAFAFA"/>
<path d="M48.4081 11.3241C41.8726 7.75599 36.849 11.1409 36.6372 11.2857L35.8652 10.1367C36.1032 9.97127 41.7652 6.11373 49.0552 10.0983L48.4081 11.3241Z" fill="#FAFAFA"/>
<path d="M26.895 27.2209C26.8631 27.1293 26.0969 24.9613 26.9444 23.1241C27.3826 22.1759 28.1516 21.4966 29.2341 21.1067L29.6926 22.4181C28.9584 22.684 28.4651 23.1093 28.1836 23.7148C27.5857 25.0115 28.1836 26.7424 28.1836 26.7424L26.9008 27.2209H26.895Z" fill="#FAFAFA"/>
<path d="M50.9406 38.5066C50.4618 38.5066 50.0555 38.4504 49.7305 38.3412L50.16 37.0208C50.4096 37.1065 50.8188 37.1331 51.315 37.1006L51.4369 36.947L50.5808 33.0511L51.9157 32.7468L52.7719 36.6428C52.8676 37.077 52.7719 37.5289 52.5107 37.8833C52.2466 38.2407 51.8432 38.4623 51.4021 38.4918C51.2425 38.5007 51.0886 38.5066 50.9406 38.5066Z" fill="#FAFAFA"/>
<path d="M47.7925 32.2872C47.9898 33.321 47.5603 34.278 46.8348 34.4197C46.1093 34.5645 45.3605 33.8408 45.1632 32.8041C44.9659 31.7703 45.3954 30.8133 46.1209 30.6715C46.8464 30.5297 47.5952 31.2504 47.7925 32.2872Z" fill="#FAFAFA"/>
<path d="M55.4794 30.8599C55.6768 31.8937 55.3633 32.827 54.78 32.9422C54.1967 33.0574 53.5669 32.3101 53.3696 31.2763C53.1723 30.2425 53.4857 29.3092 54.069 29.194C54.6523 29.0788 55.2821 29.8261 55.4794 30.8599Z" fill="#FAFAFA"/>
<path d="M50.924 42.9606C49.5658 42.9606 48.6401 42.2813 48.582 42.237L49.3946 41.1145C49.4527 41.1559 50.8196 42.1218 52.5521 41.0791L53.2515 42.2754C52.4041 42.7863 51.6118 42.9606 50.9269 42.9606H50.924Z" fill="#FAFAFA"/>
<path d="M36.1039 71.1886C34.9692 73.1912 33.1293 74.2723 31.9917 73.6047C30.8569 72.9372 30.8569 70.7751 31.9917 68.7725C33.1264 66.7728 34.9663 65.6888 36.1039 66.3563C37.2387 67.0239 37.2387 69.186 36.1039 71.1886Z" fill="#FAFAFA"/>
<path d="M32.733 74.701C32.3122 74.701 31.9117 74.6006 31.549 74.3879C29.9644 73.4575 29.8222 70.7932 31.2239 68.321C31.8508 67.2163 32.6953 66.3154 33.6037 65.7808C34.6513 65.1635 35.7251 65.0896 36.5493 65.574C37.3735 66.0584 37.8436 67.042 37.8436 68.2737C37.8436 69.343 37.4983 70.5392 36.8743 71.6409C35.7918 73.5461 34.1522 74.701 32.733 74.701ZM35.3478 67.0657C35.107 67.0657 34.8109 67.1602 34.4946 67.3463C33.859 67.7184 33.2293 68.4037 32.765 69.2248C31.7811 70.9586 31.9146 72.5123 32.4399 72.8195C32.9623 73.1326 34.3524 72.468 35.3362 70.7342C35.8005 69.913 36.0675 69.0151 36.0675 68.2708C36.0675 67.7125 35.9166 67.2872 35.6612 67.1395C35.5742 67.0893 35.4697 67.0657 35.3478 67.0657Z" fill="#171717"/>
<path d="M37.059 71.6955C35.9243 73.6981 34.0844 74.7791 32.9467 74.1116C31.812 73.4441 31.812 71.282 32.9467 69.2793C34.0815 67.2767 35.9214 66.1957 37.059 66.8632C38.1937 67.5307 38.1937 69.6929 37.059 71.6955Z" fill="#0D6EDE"/>
<path d="M33.7009 75.2097C33.2685 75.2097 32.8622 75.1063 32.5053 74.8937C31.6811 74.4093 31.2109 73.4257 31.2109 72.194C31.2109 71.1247 31.5563 69.9285 32.1802 68.8238C33.5819 66.3515 35.9239 65.1464 37.5056 66.0768C39.0901 67.0073 39.2323 69.6745 37.8306 72.1438C37.2038 73.2485 36.3592 74.1493 35.4509 74.684C34.8589 75.0325 34.261 75.2068 33.7038 75.2068L33.7009 75.2097ZM36.307 67.5744C35.6627 67.5744 34.5454 68.2714 33.7183 69.7335C33.254 70.5547 32.987 71.4526 32.987 72.1969C32.987 72.7552 33.1379 73.1776 33.3933 73.3282C33.6487 73.4788 34.0869 73.3991 34.5599 73.1214C35.1955 72.7493 35.8253 72.064 36.2896 71.2429C37.2734 69.5091 37.1399 67.9554 36.6146 67.6482C36.5305 67.598 36.4289 67.5744 36.307 67.5744Z" fill="#171717"/>
<path d="M85.9165 71.9523C82.6633 69.1906 79.9469 70.44 72.4392 70.2982C65.9849 70.1771 59.5452 71.5861 53.7439 74.4659C47.9804 77.3251 44.4804 79.1269 42.5476 82.5561L39.6484 84.9427L41.0327 91.7954L41.0879 91.9637C42.153 96.5567 46.7324 100.116 54.7306 101.676C62.6853 103.226 70.962 101.997 78.2985 98.5032C88.6619 93.5646 93.0179 86.8508 92.0574 81.1945L90.7021 74.3301L85.9165 71.9582V71.9523Z" fill="#171717"/>
<path d="M61.5674 103.231C59.2022 103.231 56.8544 103.01 54.5618 102.564C46.5027 100.993 41.4095 97.3004 40.2225 92.1728L40.1906 92.0901L38.6699 84.5876L41.8651 81.9588C44.0069 78.2933 47.9392 76.3409 53.3574 73.656C59.2226 70.7466 65.8277 69.2697 72.459 69.3967C74.5543 69.4381 76.2462 69.3672 77.7408 69.3052C81.5309 69.1516 83.841 69.057 86.4036 71.1896L91.4851 73.7091L92.942 81.0845C94.0651 87.6949 88.7339 94.5298 78.6753 99.3237C73.2571 101.905 67.3687 103.234 61.5703 103.234L61.5674 103.231ZM40.6259 85.2995L41.929 91.6706C42.9708 96.1485 47.5677 99.3532 54.8955 100.783C62.4526 102.254 70.6278 101.152 77.9178 97.6785C87.0652 93.3188 92.1468 87.0599 91.1775 81.3415L89.9151 74.9408L85.3443 72.6458C83.2722 70.8883 81.4439 70.9622 77.8047 71.1099C76.2869 71.1719 74.563 71.2398 72.4184 71.2014C66.0222 71.0656 59.742 72.4922 54.1294 75.2776C48.2381 78.2017 45.0806 79.8706 43.3162 83.0045L43.1043 83.2585L40.623 85.2995H40.6259Z" fill="#171717"/>
<path d="M81.0918 65.2717C92.2358 69.0554 94.1425 78.5545 85.3491 86.4852C76.5558 94.4159 60.394 97.7772 49.25 93.9935C38.106 90.2098 36.1993 80.7107 44.9926 72.78C53.786 64.8493 69.9477 61.488 81.0918 65.2717Z" fill="#FAFAFA"/>
<path d="M59.423 96.4395C55.7199 96.4395 52.1474 95.9314 48.9726 94.8533C43.267 92.9157 39.6481 89.4599 38.7775 85.1238C37.9069 80.7878 39.9064 76.1623 44.4047 72.1039C53.3954 63.9959 69.9808 60.546 81.3773 64.4154C87.08 66.353 90.7018 69.8088 91.5724 74.1449C92.443 78.4809 90.4435 83.1064 85.9423 87.1648C79.4562 93.0161 69.0144 96.4395 59.4201 96.4395H59.423ZM70.8573 64.6192C61.7186 64.6192 51.7673 67.883 45.5858 73.4567C41.5809 77.0691 39.7816 81.0831 40.5188 84.7605C41.2559 88.4379 44.4598 91.4093 49.5356 93.1343C60.3952 96.8235 76.2 93.536 84.767 85.8091C88.7719 82.1967 90.5712 78.1826 89.8311 74.5052C89.094 70.8279 85.8901 67.8564 80.8143 66.1315C77.7904 65.1036 74.3833 64.6192 70.8573 64.6192Z" fill="#171717"/>
<path d="M76.4811 70.5429C68.8021 68.4162 57.5159 70.7644 51.2706 75.7857C45.0282 80.8071 46.189 86.5993 53.8679 88.7259C61.5469 90.8526 72.8331 88.5044 79.0784 83.4831C85.3237 78.4618 84.16 72.6696 76.4811 70.5429Z" fill="#171717"/>
<path d="M60.1215 90.4018C57.8202 90.4018 55.6088 90.1449 53.6354 89.5984C49.5811 88.476 47.0389 86.3168 46.4759 83.5226C45.9158 80.7284 47.422 77.7275 50.7188 75.075C57.1469 69.909 68.8046 67.484 76.7128 69.6697C80.767 70.7921 83.3093 72.9513 83.8694 75.7455C84.4295 78.5397 82.9233 81.5407 79.6265 84.1931C74.8032 88.0684 67.0372 90.4048 60.1186 90.4048L60.1215 90.4018ZM70.1512 70.6592C63.6505 70.6592 56.3517 72.8509 51.8186 76.4958C49.0762 78.6992 47.7963 81.0681 48.2171 83.1593C48.638 85.2506 50.7275 86.9164 54.0997 87.8498C61.5291 89.9056 72.4874 87.6283 78.5237 82.7694C81.2662 80.566 82.546 78.1971 82.1252 76.1059C81.7044 74.0146 79.6178 72.3458 76.2427 71.4124C74.3882 70.8985 72.3103 70.6563 70.1483 70.6563L70.1512 70.6592Z" fill="#171717"/>
<path d="M77.2574 74.4146C69.5785 72.2879 58.2923 74.6361 52.0469 79.6574C49.792 81.471 48.518 83.385 48.1523 85.1897C49.1826 86.705 51.0922 87.9574 53.8666 88.7224C61.5455 90.8491 72.8317 88.5009 79.0771 83.4795C81.332 81.666 82.6089 79.752 82.9717 77.9472C81.9414 76.432 80.0318 75.1826 77.2574 74.4146Z" fill="#FAFAFA"/>
<path d="M60.1203 90.4037C57.8161 90.4037 55.6076 90.1468 53.6342 89.6003C50.7611 88.8058 48.6135 87.4589 47.4208 85.7073L47.2031 85.3883L47.2786 85.0103C47.6994 82.9249 49.1562 80.8278 51.4924 78.9492C57.9206 73.7803 69.5812 71.3553 77.4865 73.544C80.3596 74.3415 82.5071 75.6854 83.6999 77.4369L83.9146 77.7559L83.8392 78.134C83.4184 80.2223 81.9615 82.3165 79.6253 84.195C74.802 88.0703 67.036 90.4067 60.1174 90.4067L60.1203 90.4037ZM49.1156 84.9925C50.111 86.239 51.8262 87.2226 54.0985 87.8517C61.525 89.9075 72.4862 87.6302 78.5225 82.7713C80.3712 81.2856 81.5697 79.6936 82.005 78.1488C81.0067 76.9023 79.2945 75.9187 77.0192 75.2866C69.5957 73.2279 58.6345 75.5082 52.5952 80.367C50.7466 81.8557 49.548 83.4448 49.1127 84.9896L49.1156 84.9925Z" fill="#171717"/>
<path d="M85.5179 87.1741L84.1758 87.453L85.3096 93.105L86.6517 92.8261L85.5179 87.1741Z" fill="#FAFAFA"/>
<path d="M66.4377 70.079L65.0957 70.3584L65.8291 74.0075L67.1711 73.7281L66.4377 70.079Z" fill="#FAFAFA"/>
<path d="M51.6484 80.4531L52.2695 83.5486L56.7967 84.2575L58.1114 80.592L58.1636 80.5447L74.7433 86.1745C75.9535 85.5837 77.0853 84.9221 78.1097 84.1984L79.5202 82.9254L78.8962 79.8299L57.5194 75.4525L51.6484 80.4531Z" fill="#171717"/>
<path d="M74.7894 86.9233L58.5464 81.4057L57.2463 85.0299L51.6946 84.1615L50.8965 80.1829L57.3333 74.7008L79.4821 79.2318L80.2715 83.172L78.5651 84.7109C77.4652 85.4966 76.3014 86.1789 75.039 86.7933L74.7894 86.9144V86.9233ZM57.9515 79.8048L58.381 79.8846L74.6937 85.4257C75.7936 84.8734 76.8093 84.2708 77.7176 83.6269L78.7711 82.6729L78.3184 80.4221L57.7048 76.2042L52.3969 80.7234L52.8409 82.9387L56.3437 83.4881L57.5249 80.1947L57.9486 79.8107L57.9515 79.8048Z" fill="#171717"/>
<path d="M57.5426 77.4479L57.4904 77.4952L56.1757 81.1607L51.6484 80.4518L53.5609 75.3655L56.8983 72.3557L78.8991 79.8286L74.9755 83.3671L57.5426 77.4479Z" fill="#FAFAFA"/>
<path d="M75.1359 84.153L57.9265 78.3106L56.6263 81.9348L50.709 81.0073L52.9842 74.9552L56.7424 71.5643L79.5819 79.3208V80.2541L79.2859 80.4077L75.1359 84.1501V84.153ZM57.3374 76.7067L57.764 76.7865L74.8225 82.5787L77.5708 80.1006L57.0617 73.1416L54.1451 75.7734L52.5953 79.8967L55.7296 80.3871L56.9108 77.0907L57.3374 76.7097V76.7067Z" fill="#171717"/>
<path d="M79.7776 91.0785L78.4355 91.3577L79.5704 97.0095L80.9124 96.7303L79.7776 91.0785Z" fill="#FAFAFA"/>
<path d="M48.7025 93.9656L47.3633 94.2441L48.4981 99.8959L49.8373 99.6174L48.7025 93.9656Z" fill="#FAFAFA"/>
<path d="M32.0957 103.503C33.7441 104.372 41.0603 105.919 43.4197 105.89C44.9113 105.869 46.7077 105.792 48.5651 105.589C51.4904 105.267 55.7797 100.547 47.9005 99.5394L44.1046 99.0727L43.826 98.7212L46.4669 96.9165L45.9938 96.2135H43.559C43.559 96.2135 40.4305 95.9181 38.5732 99.5217C36.7158 103.125 35.8075 104.129 35.8075 104.129L32.0957 103.506V103.503Z" fill="#171717"/>
<path d="M43.3536 106.793C40.7794 106.793 33.4516 105.237 31.69 104.306L26.7188 101.684L35.4337 103.146C35.8197 102.602 36.6062 101.394 37.7902 99.099C39.8972 95.0081 43.4958 95.2917 43.6467 95.3094H46.4646L47.7125 97.1584L45.9219 98.3813L48.0143 98.6383C52.3936 99.1995 53.299 100.895 53.2874 102.221C53.27 104.303 50.7452 106.256 48.6673 106.486C47.0363 106.666 45.2776 106.77 43.4377 106.793C43.4377 106.793 43.3855 106.793 43.3565 106.793H43.3536ZM37.0125 104.011C39.4676 104.552 42.184 104.974 43.4116 104.986C45.1964 104.962 46.8999 104.862 48.4728 104.69C49.8252 104.543 51.4968 103.175 51.5055 102.209C51.5113 101.583 50.5362 100.792 47.7909 100.44L43.6409 99.929L42.5265 98.5231L44.5782 97.123H43.5625C43.3826 97.1141 40.9013 96.9576 39.3603 99.9438C38.2604 102.076 37.4826 103.326 37.0096 104.014L37.0125 104.011Z" fill="#171717"/>
<path d="M39.2601 99.1964L36.2768 97.7934C36.2768 97.7934 27.5589 92.5712 25.0224 90.5509C22.486 88.5305 18.7017 86.2385 14.9493 85.7895C14.9493 85.7895 25.6551 70.3652 26.4271 63.8523C27.199 57.3394 23.641 55.0089 23.641 55.0089C23.641 55.0089 23.6294 55 23.6062 54.9882C21.4703 53.6531 18.2286 53.7299 17.0214 55.9659C14.2731 61.0433 5.78737 77.7879 2.94041 86.4186C2.6444 87.3195 3.00716 88.3031 3.79943 88.8023C8.67205 91.8594 25.1792 103.208 34.9505 103.973L38.3372 104.374C42.1854 99.4415 39.1789 98.7858 39.2543 99.1993L39.2601 99.1964Z" fill="#171717"/>
<path d="M38.7288 105.328L34.8487 104.868C25.9799 104.173 12.0527 95.1853 5.36047 90.867C4.55659 90.3501 3.8746 89.9071 3.33481 89.5703C2.17687 88.8437 1.66901 87.4289 2.09852 86.1293C4.96869 77.4276 13.4689 60.6535 16.2433 55.5288C16.8179 54.4684 17.7785 53.73 19.0206 53.3963C20.6342 52.9621 22.567 53.2781 24.0732 54.2174C24.2879 54.3562 28.139 56.9673 27.3119 63.9617C26.6386 69.6298 19.0119 81.3679 16.4755 85.1398C20.3237 86.0141 23.7568 88.3948 25.5707 89.8391C28.0345 91.8004 36.6421 96.9635 36.7292 97.0166L39.2569 98.2011C39.7677 98.1331 40.3597 98.4019 40.7428 98.9011C41.4219 99.7872 41.6773 101.554 39.0422 104.938L38.7346 105.334L38.7288 105.328ZM20.5152 55.0119C20.1524 55.0119 19.8013 55.0533 19.4734 55.1419C18.9423 55.2837 18.2196 55.6174 17.7988 56.3972C15.0477 61.4835 6.61418 78.1159 3.78464 86.7023C3.61922 87.2015 3.81946 87.7449 4.26928 88.0285C4.81488 88.3711 5.50558 88.8171 6.31526 89.3399C12.3748 93.2507 26.5632 102.407 35.0228 103.069L37.9452 103.414C39.3121 101.562 39.4369 100.623 39.4136 100.266L35.905 98.6146C35.4697 98.3606 27.0304 93.2979 24.4766 91.2628C22.9559 90.0518 18.9742 87.1808 14.8474 86.6875L13.3615 86.5103L14.2235 85.2668C14.3279 85.1132 24.8074 69.9548 25.5445 63.7431C26.2352 57.9331 23.2809 55.8508 23.1532 55.7651C22.3696 55.2748 21.4149 55.0119 20.5152 55.0119Z" fill="#171717"/>
<path d="M9.78624 88.8769L8.97656 87.7574C11.8612 85.5924 14.7256 85.1198 14.8446 85.1021L15.0564 86.4785C15.0303 86.4814 12.3923 86.9274 9.78624 88.8769Z" fill="#FAFAFA"/>
<path d="M10.2547 65.3281C10.1241 65.6767 10.3447 66.0843 10.7074 66.1227C11.8102 66.2349 14.1029 67.0147 17.4722 70.8457C20.2089 73.953 21.2072 76.0737 21.5525 77.3379C21.6831 77.8105 22.31 77.8932 22.5654 77.4797C24.9828 73.5926 31.1875 62.0495 24.5881 55.0049C24.5881 55.0049 16.7612 48.0755 10.2547 65.3281Z" fill="#FAFAFA"/>
<path d="M22.0924 78.6532C22.0228 78.6532 21.9502 78.6473 21.8806 78.6384C21.3089 78.5527 20.8562 78.1481 20.6994 77.5839C20.386 76.4438 19.4573 74.4559 16.8135 71.452C13.5051 67.6919 11.3808 67.1042 10.6205 67.0274C10.1793 66.9831 9.78756 66.732 9.55249 66.3391C9.31162 65.9404 9.26519 65.4442 9.4277 65.01C12.0889 57.9506 15.3393 53.8893 19.0859 52.9382C22.5568 52.058 25.07 54.2348 25.1774 54.3264C32.1569 61.7698 26.2047 73.3365 23.3229 77.9649C23.053 78.3962 22.5858 78.6532 22.0924 78.6532ZM11.227 65.2906C12.7216 65.583 15.0375 66.7261 18.1369 70.244C20.5572 72.9939 21.6745 75.0319 22.1853 76.3965C24.5273 72.4622 29.841 61.9204 23.9498 55.6319C23.9498 55.6319 22.0576 54.0369 19.4893 54.6986C16.4537 55.4843 13.6009 59.1439 11.227 65.2876V65.2906Z" fill="#171717"/>
<path d="M35.7117 104.2C35.642 104.097 34.0488 101.619 36.62 98.1749L37.7083 99.0167C35.7262 101.672 36.8435 103.418 36.8435 103.418L35.7117 104.2Z" fill="#FAFAFA"/>
<path d="M32.1958 103.207C32.1639 103.089 31.4297 100.289 33.9138 96.9632L35.0021 97.805C32.9533 100.546 33.4901 102.744 33.5134 102.835L32.1958 103.204V103.207Z" fill="#FAFAFA"/>
<path d="M51.367 101.462C51.0449 101.11 50.6734 100.777 50.2555 100.47C48.4736 99.161 46.0794 98.6943 43.6794 99.1965L43.276 99.2762L43.0293 97.9057L43.4037 97.8319C46.1781 97.25 48.967 97.8023 51.0565 99.3412C51.5469 99.7016 51.9881 100.097 52.3711 100.514L51.367 101.459V101.462Z" fill="#FAFAFA"/>
<path d="M88.062 91.9265L86.312 91.8526C85.6735 91.826 85.0496 92.0623 84.5824 92.5083L80.264 96.6376C79.7039 97.1752 79.4311 97.955 79.5356 98.7288C79.7126 100.055 80.9112 100.985 82.2171 100.805L83.8655 100.578C85.5371 100.347 87.0985 99.5972 88.3377 98.4305C89.4608 97.3701 90.1399 95.911 90.2269 94.3544C90.2995 93.0725 89.3244 91.9796 88.0649 91.9265H88.062Z" fill="#171717"/>
<path d="M81.8992 101.737C80.2885 101.737 78.881 100.523 78.6575 98.8545C78.5182 97.7911 78.8926 96.716 79.6588 95.9805L83.9771 91.8512C84.6127 91.2427 85.4514 90.909 86.3539 90.9503L88.101 91.0242C88.9513 91.0596 89.7348 91.4318 90.3066 92.0757C90.8783 92.7167 91.1656 93.5466 91.1133 94.4091C91.0118 96.205 90.2427 97.8709 88.9426 99.0967C87.5612 100.396 85.846 101.22 83.9858 101.477L82.3403 101.705C82.1923 101.725 82.0443 101.734 81.8992 101.734V101.737ZM86.2204 92.758C85.8431 92.758 85.4717 92.9057 85.1989 93.1715L80.8806 97.3008C80.5294 97.6346 80.3582 98.1279 80.422 98.6123C80.4743 99.014 80.6774 99.3714 80.9966 99.6165C81.313 99.8617 81.7018 99.971 82.1023 99.9148L83.7478 99.6874C85.2453 99.4806 86.6267 98.819 87.7382 97.7734C88.6988 96.8696 89.2676 95.6379 89.3402 94.3117C89.3634 93.9336 89.2386 93.5732 88.989 93.2956C88.7394 93.015 88.3999 92.8525 88.0313 92.8378L86.2204 92.7639V92.758Z" fill="#171717"/>
<path d="M79.4868 98.915L78.2012 98.4394C78.2998 98.1647 80.6534 91.7168 86.2139 90.8927L86.4112 92.2691C81.6518 92.9751 79.5071 98.8529 79.4839 98.912L79.4868 98.915Z" fill="#FAFAFA"/>
</svg>
