<svg width="54" height="48" viewBox="0 0 54 48" fill="none" xmlns="http://www.w3.org/2000/svg">
<path d="M4.50547 34.79L2.80484 35.7884C2.63072 35.8918 2.32597 35.877 2.12573 35.7589L0.523802 34.8166C0.323557 34.6985 0.300328 34.5183 0.474453 34.4179L2.17508 33.4195C2.3492 33.3162 2.65391 33.3309 2.85416 33.4491L4.45612 34.3913C4.65636 34.5095 4.67959 34.6896 4.50547 34.79Z" fill="#171717"/>
<path d="M8.46054 37.1138L6.75992 38.1122C6.5858 38.2156 6.28105 38.2008 6.08081 38.0827L4.47888 37.1404C4.27864 37.0223 4.25541 36.8421 4.42953 36.7417L6.13015 35.7433C6.30428 35.64 6.60899 35.6547 6.80923 35.7729L8.4112 36.7151C8.61144 36.8332 8.63467 37.0105 8.46054 37.1138Z" fill="#171717"/>
<path d="M4.2965 39.5616L2.59587 40.56C2.42175 40.6633 2.117 40.6486 1.91676 40.5304L0.314797 39.5882C0.114553 39.47 0.0913584 39.2899 0.265484 39.1894L1.96611 38.1911C2.14023 38.0877 2.44494 38.1025 2.64519 38.2206L4.24715 39.1628C4.44739 39.281 4.47062 39.4582 4.2965 39.5616Z" fill="#171717"/>
<path d="M12.4176 39.4376L10.717 40.436C10.5428 40.5394 10.2381 40.5246 10.0378 40.4065L8.43591 39.4642C8.23567 39.3461 8.21244 39.1659 8.38656 39.0655L10.0872 38.0671C10.2613 37.9637 10.566 37.9785 10.7663 38.0967L12.3682 39.0389C12.5685 39.157 12.5917 39.3343 12.4176 39.4376Z" fill="#171717"/>
<path d="M8.24962 41.8863L6.549 42.8847C6.37487 42.988 6.07013 42.9733 5.86988 42.8551L4.26792 41.9129C4.06768 41.7947 4.04448 41.6146 4.21861 41.5141L5.91923 40.5158C6.09336 40.4124 6.39807 40.4272 6.59831 40.5453L8.20027 41.4876C8.40052 41.6057 8.42375 41.7859 8.24962 41.8863Z" fill="#171717"/>
<path d="M16.6011 41.896L14.9005 42.8944C14.7264 42.9977 14.4217 42.983 14.2214 42.8648L12.6195 41.9226C12.4192 41.8044 12.396 41.6243 12.5702 41.5239L14.2708 40.5255C14.4449 40.4221 14.7496 40.4369 14.9499 40.555L16.5518 41.4973C16.7521 41.6154 16.7753 41.7956 16.6011 41.896Z" fill="#171717"/>
<path d="M12.4332 44.3448L10.7326 45.3431C10.5585 45.4465 10.2537 45.4317 10.0535 45.3136L8.45154 44.3713C8.25129 44.2532 8.22806 44.073 8.40219 43.9726L10.1028 42.9742C10.277 42.8708 10.5817 42.8856 10.7819 43.0038L12.3839 43.946C12.5841 44.0641 12.6073 44.2443 12.4332 44.3448Z" fill="#171717"/>
<path d="M20.5523 44.2198L18.8517 45.2182C18.6776 45.3215 18.3729 45.3068 18.1726 45.1886L16.5707 44.2464C16.3704 44.1282 16.3472 43.9481 16.5213 43.8476L18.222 42.8493C18.3961 42.7459 18.7008 42.7607 18.901 42.8788L20.503 43.8211C20.7033 43.9392 20.7264 44.1194 20.5523 44.2198Z" fill="#171717"/>
<path d="M16.3902 46.6685L14.6896 47.6669C14.5155 47.7703 14.2108 47.7555 14.0105 47.6373L12.4086 46.6951C12.2083 46.577 12.1851 46.3968 12.3592 46.2964L14.0598 45.298C14.234 45.1946 14.5387 45.2094 14.739 45.3276L16.3409 46.2698C16.5412 46.3879 16.5644 46.5681 16.3902 46.6685Z" fill="#171717"/>
<path d="M24.5094 46.5455L22.8087 47.5439C22.6346 47.6472 22.3299 47.6325 22.1296 47.5143L20.5277 46.5721C20.3274 46.4539 20.3042 46.2767 20.4784 46.1733L22.179 45.175C22.3531 45.0716 22.6578 45.0864 22.8581 45.2045L24.46 46.1467C24.6603 46.2649 24.6835 46.4451 24.5094 46.5455Z" fill="#171717"/>
<path d="M32.8609 46.5571L31.1603 47.5555C30.9862 47.6589 30.6815 47.6441 30.4812 47.526L28.8793 46.5837C28.679 46.4656 28.6558 46.2884 28.8299 46.185L30.5305 45.1866C30.7047 45.0832 31.0094 45.098 31.2097 45.2162L32.8116 46.1584C33.0119 46.2766 33.0351 46.4567 32.8609 46.5571Z" fill="#171717"/>
<path d="M37.0289 44.1084L35.3283 45.1068C35.1542 45.2102 34.8494 45.1954 34.6492 45.0772L33.0472 44.135C32.847 44.0168 32.8238 43.8367 32.9979 43.7363L34.6985 42.7379C34.8727 42.6345 35.1774 42.6493 35.3776 42.7674L36.9796 43.7097C37.1798 43.8278 37.203 44.008 37.0289 44.1084Z" fill="#171717"/>
<path d="M41.1988 41.6597L39.4982 42.658C39.3241 42.7614 39.0193 42.7467 38.8191 42.6285L37.2171 41.6863C37.0169 41.5681 36.9937 41.3879 37.1678 41.2875L38.8685 40.2892C39.0426 40.1858 39.3473 40.2006 39.5475 40.3187L41.1495 41.2609C41.3497 41.3791 41.3729 41.5593 41.1988 41.6597Z" fill="#171717"/>
<path d="M45.3609 39.211L43.6603 40.2093C43.4862 40.3127 43.1815 40.2979 42.9812 40.1798L41.3793 39.2375C41.179 39.1194 41.1558 38.9392 41.3299 38.8388L43.0306 37.8404C43.2047 37.7371 43.5094 37.7518 43.7096 37.87L45.3116 38.8122C45.5118 38.9303 45.5351 39.1105 45.3609 39.211Z" fill="#171717"/>
<path d="M49.527 36.7622L47.8263 37.7606C47.6522 37.864 47.3475 37.8492 47.1472 37.731L45.5453 36.7888C45.345 36.6707 45.3218 36.4905 45.496 36.3901L47.1966 35.3917C47.3707 35.2883 47.6754 35.3031 47.8757 35.4212L49.4776 36.3635C49.6779 36.4816 49.7011 36.6618 49.527 36.7622Z" fill="#171717"/>
<path d="M53.6949 34.3135L51.9943 35.3119C51.8202 35.4152 51.5154 35.4005 51.3152 35.2823L49.7133 34.3401C49.513 34.2219 49.4898 34.0418 49.6639 33.9413L51.3645 32.943C51.5387 32.8396 51.8434 32.8544 52.0436 32.9725L53.6456 33.9148C53.8458 34.0329 53.869 34.2131 53.6949 34.3135Z" fill="#171717"/>
<path d="M24.5172 41.6752L22.8166 42.6735C22.6424 42.7769 22.3377 42.7622 22.1375 42.644L20.5355 41.7018C20.3353 41.5836 20.312 41.4035 20.4862 41.303L22.1868 40.3047C22.3609 40.2013 22.6657 40.2161 22.8659 40.3342L24.4679 41.2764C24.6681 41.3946 24.6913 41.5748 24.5172 41.6752Z" fill="#171717"/>
<path d="M28.7047 44.1346L27.0041 45.133C26.8299 45.2363 26.5252 45.2216 26.3249 45.1034L24.723 44.1612C24.5228 44.043 24.4995 43.8629 24.6737 43.7624L26.3743 42.7641C26.5484 42.6607 26.8531 42.6755 27.0534 42.7936L28.6553 43.7359C28.8556 43.854 28.8788 44.0342 28.7047 44.1346Z" fill="#171717"/>
<path d="M32.8668 41.6858L31.1662 42.6842C30.992 42.7876 30.6873 42.7728 30.4871 42.6546L28.8851 41.7124C28.6849 41.5942 28.6617 41.4141 28.8358 41.3136L30.5364 40.3153C30.7105 40.2119 31.0152 40.2267 31.2155 40.3448L32.8174 41.2871C33.0177 41.4052 33.0409 41.5824 32.8668 41.6858Z" fill="#171717"/>
<path d="M40.982 46.4303L39.2814 47.4286C39.1073 47.532 38.8026 47.5172 38.6023 47.3991L37.0004 46.4568C36.8001 46.3387 36.7769 46.1585 36.951 46.0581L38.6516 45.0597C38.8258 44.9564 39.1305 44.9711 39.3308 45.0893L40.9327 46.0315C41.133 46.1496 41.1562 46.3298 40.982 46.4303Z" fill="#171717"/>
<path d="M45.148 43.9805L43.4474 44.9789C43.2733 45.0823 42.9686 45.0675 42.7683 44.9494L41.1664 44.0071C40.9661 43.889 40.9429 43.7088 41.117 43.6084L42.8177 42.61C42.9918 42.5067 43.2965 42.5214 43.4967 42.6396L45.0987 43.5818C45.299 43.6999 45.3221 43.8801 45.148 43.9805Z" fill="#171717"/>
<path d="M49.316 41.5318L47.6154 42.5302C47.4412 42.6336 47.1365 42.6188 46.9363 42.5006L45.3343 41.5584C45.1341 41.4403 45.1109 41.2601 45.285 41.1596L46.9856 40.1613C47.1598 40.0579 47.4645 40.0727 47.6647 40.1908L49.2667 41.1331C49.4669 41.2512 49.4902 41.4314 49.316 41.5318Z" fill="#171717"/>
<path d="M53.484 39.086L51.7834 40.0844C51.6092 40.1878 51.3045 40.173 51.1043 40.0548L49.5023 39.1126C49.3021 38.9944 49.2789 38.8143 49.453 38.7139L51.1536 37.7155C51.3277 37.6121 51.6324 37.6269 51.8327 37.745L53.4346 38.6873C53.6349 38.8054 53.6581 38.9826 53.484 39.086Z" fill="#171717"/>
<path d="M48.7472 12.6694C46.0685 9.32879 43.1694 10.0288 35.8242 8.43972C29.5121 7.07215 22.9272 7.20801 16.6906 8.9123C10.4976 10.6048 6.72487 11.6977 4.18844 14.6898L0.894531 16.4709L0.972893 23.4682L0.996133 23.6425C1.18187 28.3566 5.0126 32.7369 12.5755 35.8177C20.0977 38.8807 28.4499 39.2735 36.3059 37.262C47.4006 34.4176 52.9088 28.6697 53.0219 22.9306V15.9303L48.7443 12.6753L48.7472 12.6694Z" fill="#171717"/>
<path d="M26.5425 39.3977C21.5974 39.3977 16.7189 38.4762 12.2468 36.6567C4.62883 33.5553 0.316327 28.9475 0.107376 23.681L0.0928868 23.5865L0 15.9305L3.62762 13.9663C6.41653 10.7822 10.642 9.62729 16.4607 8.03819C22.764 6.31322 29.523 6.14486 36.0092 7.55378C38.0551 7.99683 39.7297 8.25675 41.2097 8.48419C44.9621 9.06607 47.2461 9.42051 49.3646 12.0109L53.9093 15.4697V22.9928C53.7758 29.6977 47.2925 35.3748 36.5228 38.1335C33.2348 38.9753 29.8712 39.3948 26.5425 39.3948V39.3977ZM1.7906 17.0115L1.87765 23.5245C2.06338 28.1175 5.9783 32.1552 12.9056 34.976C20.0506 37.8854 28.2838 38.3846 36.0875 36.382C45.885 33.8743 52.02 28.7112 52.1361 22.9072V16.3795L48.0558 13.2397C46.3493 11.11 44.5414 10.8294 40.9399 10.2741C39.4395 10.0408 37.7359 9.77497 35.6377 9.32305C29.4272 7.97616 22.9556 8.13566 16.9221 9.78678C10.5927 11.5147 7.18268 12.5426 4.86101 15.2807L4.60562 15.4904L1.7906 17.0145V17.0115Z" fill="#171717"/>
<path d="M45.2611 5.17994C55.4968 11.0519 55.5926 20.746 45.4788 26.8306C35.365 32.9153 18.8695 33.0896 8.63379 27.2176C-1.59899 21.3456 -1.69767 11.6515 8.41613 5.56688C18.5299 -0.517767 35.0254 -0.692035 45.2611 5.17994Z" fill="#FAFAFA"/>
<path d="M26.6311 32.3932C19.9592 32.3932 13.3076 30.9341 8.19701 28.0011C2.95873 24.9972 0.0508352 20.9033 0.00440165 16.4787C-0.0391298 12.051 2.78752 7.89813 7.96196 4.78492C18.3021 -1.43855 35.2271 -1.61282 45.695 4.38912C50.9332 7.39599 53.8441 11.4869 53.8876 15.9145C53.9311 20.3392 51.1045 24.4921 45.93 27.6082C40.6395 30.7923 33.6223 32.3932 26.6311 32.3932ZM27.258 1.78394C20.5948 1.78394 13.9083 3.30806 8.86741 6.34447C4.26178 9.11505 1.74275 12.7097 1.78048 16.4609C1.81821 20.2151 4.40688 23.7536 9.07054 26.4267C19.0421 32.1481 35.172 31.9797 45.0246 26.0516C49.6302 23.2781 52.1492 19.6864 52.1115 15.9322C52.0738 12.181 49.4851 8.63951 44.8214 5.96641C39.9517 3.1722 33.6165 1.78394 27.258 1.78394Z" fill="#171717"/>
<path d="M39.7408 9.46026C32.5988 5.88923 21.0804 6.00739 14.0109 9.72906C6.94139 13.4507 7.00232 19.3611 14.1444 22.9351C21.2864 26.5061 32.8048 26.388 39.8743 22.6663C46.9409 18.9446 46.8829 13.0313 39.7408 9.46026Z" fill="#171717"/>
<path d="M26.6653 26.4269C21.99 26.4269 17.3351 25.5379 13.7568 23.7479C9.98698 21.8634 7.89456 19.2524 7.86554 16.3991C7.83652 13.5458 9.8767 10.8904 13.6088 8.92619C20.8843 5.09523 32.7858 4.97117 40.1397 8.64854C43.9096 10.533 46.002 13.1441 46.031 15.9974C46.06 18.8507 44.0199 21.5061 40.2878 23.4703C36.5528 25.4374 31.596 26.4269 26.6653 26.4269ZM27.2254 7.75653C22.5908 7.75653 17.9358 8.68694 14.4272 10.533C11.3219 12.1694 9.62421 14.2429 9.64452 16.3784C9.66484 18.5139 11.4061 20.552 14.5433 22.1234C21.4502 25.5763 32.6349 25.4611 39.4693 21.8605C42.5746 20.2241 44.2723 18.1506 44.252 16.0151C44.2288 13.8796 42.4904 11.8415 39.3533 10.2701C35.9926 8.58948 31.6192 7.75358 27.2254 7.75358V7.75653Z" fill="#171717"/>
<path d="M39.7834 13.4124C32.6413 9.84132 21.1229 9.95947 14.0534 13.6811C11.4996 15.0251 9.89182 16.6555 9.19531 18.3598C9.92374 20.0464 11.5663 21.6443 14.1463 22.9351C21.2883 26.5061 32.8067 26.388 39.8762 22.6663C42.4301 21.3224 44.0378 19.6919 44.7343 17.9876C44.0059 16.3011 42.3633 14.7031 39.7834 13.4124Z" fill="#FAFAFA"/>
<path d="M26.6646 26.4271C21.9893 26.4271 17.3343 25.538 13.7561 23.7481C11.0832 22.4101 9.2259 20.6733 8.38429 18.7238L8.23047 18.3694L8.37557 18.012C9.17945 16.0448 11.002 14.2696 13.6458 12.8784C20.9242 9.04748 32.8228 8.92047 40.1767 12.6008C42.8467 13.9359 44.704 15.6726 45.5485 17.6221L45.7023 17.9765L45.5572 18.3369C44.7533 20.3041 42.9308 22.0793 40.287 23.4705C36.552 25.4376 31.5952 26.4271 26.6646 26.4271ZM10.1807 18.3517C10.9265 19.7665 12.424 21.0661 14.5425 22.1265C21.4495 25.5794 32.6342 25.4672 39.4686 21.8636C41.5639 20.7619 43.0324 19.4298 43.7521 18.0002C43.0034 16.5824 41.5059 15.2857 39.3903 14.2253C32.4804 10.7695 21.2986 10.8906 14.4613 14.4853C12.3659 15.587 10.8975 16.9162 10.1778 18.3487L10.1807 18.3517Z" fill="#171717"/>
<path d="M45.5172 27.5167L44.1504 27.5308L44.2078 33.2991L45.5746 33.285L45.5172 27.5167Z" fill="#FAFAFA"/>
<path d="M29.9586 7.09139L28.5918 7.10596L28.6301 10.8304L29.9969 10.8158L29.9586 7.09139Z" fill="#FAFAFA"/>
<path d="M13.5137 14.3844L13.5456 17.5449L17.8581 19.1163L19.8315 15.7697L19.8925 15.7343L35.1168 24.4684C36.417 24.1228 37.6504 23.6945 38.7909 23.1776L40.4161 22.1999L40.3812 19.0395L20.2117 10.6066L13.5137 14.3785V14.3844Z" fill="#171717"/>
<path d="M35.0204 25.2164L20.1036 16.6595L18.1534 19.9677L12.8629 18.0389L12.8223 13.9775L20.1646 9.84235L41.0597 18.5765L41.1003 22.5994L39.1356 23.7809C37.9022 24.3392 36.6311 24.7852 35.2845 25.1426L35.0175 25.2134L35.0204 25.2164ZM19.8221 14.97L20.2255 15.1295L35.209 23.7248C36.3873 23.3999 37.4959 23.0011 38.5145 22.5463L39.7276 21.8137L39.7044 19.5157L20.2546 11.3842L14.2008 14.7957L14.224 17.0553L17.5614 18.2693L19.3375 15.2624L19.8279 14.97H19.8221Z" fill="#171717"/>
<path d="M19.8634 12.5744L19.8025 12.6128L17.8291 15.9564L13.5137 14.3851L16.3432 9.7625L20.1827 7.4527L40.3841 19.046L35.8714 21.7605L19.8634 12.5744Z" fill="#FAFAFA"/>
<path d="M35.8791 22.5634L20.0743 13.4955L18.1212 16.8037L12.4824 14.7479L15.8459 9.24809L20.1701 6.64587L41.1638 18.6882L40.981 19.4916L35.8791 22.5634ZM19.7928 11.806L20.1962 11.9655L35.8617 20.9536L39.0162 19.0544L20.1875 8.25269L16.8298 10.2701L14.54 14.0154L17.5263 15.1023L19.3023 12.0955L19.7928 11.8031V11.806Z" fill="#171717"/>
<path d="M39.1695 30.2119L37.8027 30.2265L37.8621 35.9948L39.2289 35.9802L39.1695 30.2119Z" fill="#FAFAFA"/>
<path d="M8.97617 27.7216L7.60938 27.7361L7.66873 33.5044L9.03553 33.4898L8.97617 27.7216Z" fill="#FAFAFA"/>
</svg>
