<svg width="32" height="33" viewBox="0 0 32 33" fill="none" xmlns="http://www.w3.org/2000/svg">
<rect x="0.771484" y="0.0234375" width="31.2385" height="31.2385" rx="12" transform="rotate(1.41423 0.771484 0.0234375)" fill="#0D6EDE"/>
<path d="M9.2721 19.7999C9.30778 18.3547 10.3883 17.1497 11.8211 16.9571L11.9501 16.9398C13.0974 16.7856 14.2619 16.8144 15.4002 17.025L15.5282 17.0487C16.9497 17.3116 17.9695 18.5686 17.9338 20.0138C17.9184 20.6384 17.3995 21.1323 16.7748 21.1169L10.3752 20.9589C9.75057 20.9435 9.25668 20.4246 9.2721 19.7999Z" stroke="#FAFAFA" stroke-width="1.07333"/>
<path d="M16.3241 12.0777C16.2896 13.4729 15.1306 14.5761 13.7354 14.5416C12.3401 14.5072 11.237 13.3482 11.2714 11.953C11.3059 10.5577 12.4649 9.45455 13.8601 9.489C15.2554 9.52345 16.3585 10.6824 16.3241 12.0777Z" stroke="#FAFAFA" stroke-width="1.07333"/>
<path d="M18.0667 14.6486C19.4619 14.683 20.6209 13.5799 20.6554 12.1846C20.6898 10.7894 19.5867 9.63039 18.1914 9.59595M19.6313 21.1874L21.1061 21.2239C21.7307 21.2393 22.2496 20.7454 22.2651 20.1207C22.3007 18.6755 21.281 17.4186 19.8595 17.1556V17.1556C19.7742 17.1398 19.6877 17.1308 19.6011 17.1287C19.3703 17.123 19.2986 17.1212 18.9023 17.1114" stroke="#FAFAFA" stroke-width="1.07333" stroke-linecap="round"/>
</svg>
