<svg width="32" height="33" viewBox="0 0 32 33" fill="none" xmlns="http://www.w3.org/2000/svg">
<rect x="0.771484" y="0.0234375" width="31.2385" height="31.2385" rx="12" transform="rotate(1.41423 0.771484 0.0234375)" fill="#0D6EDE"/>
<g clip-path="url(#clip0_2219_12203)">
<path d="M16.001 23.8334C20.3137 23.8334 23.8107 20.3364 23.8107 16.0237C23.8107 11.7111 20.3137 8.21411 16.001 8.21411C11.6884 8.21411 8.19141 11.7111 8.19141 16.0237C8.19141 20.3364 11.6884 23.8334 16.001 23.8334Z" stroke="#FAFAFA" stroke-width="1.61" stroke-miterlimit="10"/>
<path d="M16.0002 23.8334C17.9179 23.8334 19.4712 20.3364 19.4712 16.0237C19.4712 11.7111 17.9179 8.21411 16.0002 8.21411C14.0825 8.21411 12.5293 11.7111 12.5293 16.0237C12.5293 20.3364 14.0825 23.8334 16.0002 23.8334Z" stroke="#FAFAFA" stroke-width="1.61" stroke-miterlimit="10"/>
<path d="M8.19141 15.6592C13.3544 16.6137 18.6476 16.6137 23.8107 15.6592" stroke="#FAFAFA" stroke-width="1.61" stroke-miterlimit="10"/>
</g>
<defs>
<clipPath id="clip0_2219_12203">
<rect x="5.58789" y="5.61084" width="20.8257" height="20.8257" rx="10.4128" fill="white"/>
</clipPath>
</defs>
</svg>
