<svg width="76" height="99" viewBox="0 0 76 99" fill="none" xmlns="http://www.w3.org/2000/svg">
<path d="M60.2152 19.2157C60.1629 18.5836 60.0875 17.9722 60.0033 17.3696L65.8307 11.7487C65.9961 11.5892 65.9642 11.3116 65.7669 11.1934L50.9778 2.55677C46.4128 0.181986 40.5012 0.267644 33.9686 3.26566C16.0482 11.4917 0.884766 36.8346 0.884766 57.4308C0.884766 66.9211 4.10899 73.6289 9.33566 76.8544C9.33566 76.8544 22.1861 84.3716 24.3453 85.6328C24.5165 85.7332 24.7313 85.6594 24.8154 85.4792L27.8017 79.176L24.9808 77.578C26.8063 76.9164 28.6868 76.0362 30.6138 74.902C31.084 74.6273 31.5483 74.3349 32.0126 74.0365C33.5217 77.0848 33.542 82.4103 33.0458 87.6C32.9413 88.6988 33.3215 89.3043 33.9019 89.4667L47.8348 97.6515C48.0177 97.7578 48.2527 97.6721 48.3253 97.4713L49.7734 93.531L49.1118 76.6447H41.5808L55.4935 44.4699C59.0398 36.0282 60.8739 27.1582 60.2123 19.2157H60.2152Z" fill="#FAFAFA"/>
<path d="M48.0064 98.6036C47.7946 98.6036 47.5827 98.5475 47.3941 98.4382L33.5424 90.3007C33.0432 90.1206 31.9724 89.4973 32.1639 87.5154C32.6834 82.0924 32.486 77.9306 31.6009 75.3638C31.421 75.4731 31.241 75.5824 31.0611 75.6887C29.7348 76.4685 28.397 77.1508 27.0649 77.7238L28.9687 78.8049L25.6197 85.8761C25.4746 86.1892 25.2018 86.4284 24.8767 86.5318C24.5546 86.6352 24.2005 86.5938 23.9074 86.4225C22.3142 85.4921 8.86299 77.6205 8.86299 77.6205C3.15457 74.0967 0 66.9251 0 57.4348C0 36.3601 15.7032 10.6628 33.6062 2.44558C40.1505 -0.558347 46.4654 -0.803504 51.3845 1.75736C51.3845 1.75736 52.1796 2.20042 52.5366 2.42785L66.2084 10.4147C66.545 10.6126 66.7743 10.9641 66.8178 11.3569C66.8642 11.7498 66.722 12.1426 66.4405 12.4143L60.944 17.7133C61.0049 18.1829 61.06 18.6585 61.0978 19.1459C61.7478 26.9407 60.0907 35.8225 56.3093 44.8284L42.9423 75.7449H49.9653L50.6676 93.6798L49.1586 97.7913C49.0338 98.134 48.7668 98.4057 48.4243 98.5298C48.2879 98.58 48.1457 98.6036 48.0035 98.6036H48.0064ZM32.367 72.7439L32.8053 73.6329C34.178 76.4035 34.5552 81.1354 33.9284 87.6897C33.8906 88.1002 33.94 88.5403 34.1373 88.5964L34.3463 88.6851L47.7162 96.5419L48.8742 93.3874L48.2502 77.5525H40.2114L54.6725 44.1106C58.335 35.3824 59.9427 26.7989 59.3188 19.2994C59.2665 18.6851 59.194 18.0914 59.1127 17.5065L59.0489 17.0428L64.679 11.6139L50.5429 3.35827C46.0707 1.0337 40.4523 1.28477 34.3289 4.0967C16.983 12.0599 1.76737 36.9833 1.76737 57.4378C1.76737 66.2693 4.61723 72.8945 9.79166 76.0875C10.0674 76.2558 21.1156 82.7127 24.2673 84.5528L26.6354 79.5581L22.8308 77.3989L24.6794 76.7284C26.4961 76.0698 28.3418 75.1925 30.1673 74.1233C30.6258 73.8545 31.0843 73.568 31.537 73.2756L32.3641 72.7468L32.367 72.7439Z" fill="#171717"/>
<path d="M54.6624 46.4995L55.4982 44.5648C59.0446 36.126 60.8787 27.2531 60.217 19.3105C60.1648 18.6785 60.0893 18.067 60.0052 17.4645L65.8326 11.8436C65.998 11.6841 65.9661 11.4035 65.7688 11.2883L50.9797 2.65162C46.4147 0.276834 40.5031 0.362492 33.9705 3.36051C26.1871 6.93154 18.929 13.7339 13.2031 21.9718L54.6595 46.4995H54.6624Z" fill="#FAFAFA"/>
<path d="M55.075 47.7943L11.918 22.2595L12.481 21.4532C18.5435 12.7279 26.0483 6.01116 33.6082 2.54055C40.1524 -0.463376 46.4674 -0.708534 51.3864 1.85233C51.3864 1.85233 52.1845 2.29539 52.5386 2.52283L66.2103 10.5097C66.547 10.7076 66.7733 11.0561 66.8198 11.446C66.8662 11.8359 66.7269 12.2317 66.4454 12.5034L60.9459 17.8053C61.0069 18.275 61.0591 18.7505 61.0998 19.2379C61.7498 27.0357 60.0956 35.9175 56.3113 44.9204L55.0721 47.7914L55.075 47.7943ZM14.4979 21.6954L54.2479 45.2128L54.6832 44.2056C58.3486 35.4803 59.9563 26.8968 59.3295 19.3944C59.2772 18.78 59.2047 18.1864 59.1234 17.5986L59.0596 17.1378L64.6867 11.7089L50.5506 3.45324C46.0814 1.12867 40.4659 1.37974 34.3366 4.19167C27.2933 7.42598 20.276 13.6229 14.4979 21.6983V21.6954Z" fill="#171717"/>
<path d="M69.9329 52.9213C73.4793 44.4825 75.3134 35.6096 74.6517 27.6671C73.3545 12.1099 62.2714 5.35178 48.4081 11.717C30.4877 19.9431 15.3242 45.2859 15.3242 65.8822C15.3242 85.1788 28.6361 93.0002 45.0562 83.3534C45.5263 83.0787 45.9907 82.7863 46.455 82.4909C47.967 85.5391 47.9844 90.8646 47.4881 96.0543C47.2124 98.9283 50.248 98.4468 51.5569 95.4193L69.9329 52.9242V52.9213Z" fill="#171717"/>
<path d="M48.687 98.874C48.4984 98.874 48.3126 98.8504 48.1298 98.8002C47.2824 98.5727 46.435 97.7102 46.6033 95.9616C47.1228 90.5386 46.9254 86.3769 46.0403 83.8101C45.8604 83.9194 45.6804 84.0287 45.5005 84.135C37.2702 88.9702 29.4867 89.7234 23.5868 86.2558C17.6839 82.7881 14.4336 75.5515 14.4336 65.884C14.4336 44.8093 30.1397 19.112 48.0427 10.8948C54.9729 7.71364 61.5607 7.62503 66.6016 10.6378C71.7064 13.692 74.8842 19.7116 75.5401 27.5921C76.1901 35.387 74.533 44.2688 70.7516 53.2776L52.3727 95.7844C51.5659 97.6482 50.0626 98.877 48.6928 98.877L48.687 98.874ZM46.8035 81.1901L47.2447 82.0792C48.6203 84.8498 48.9975 89.5816 48.3707 96.1359C48.333 96.5524 48.3823 96.9954 48.5796 97.0486C48.9888 97.1579 50.0771 96.5878 50.7417 95.0519L69.1148 52.5628C72.7802 43.8257 74.3879 35.2452 73.764 27.7457C73.1575 20.4648 70.2902 14.9443 65.6962 12.1974C61.166 9.48882 55.1558 9.61288 48.7712 12.543C31.4254 20.5062 16.2097 45.4296 16.2097 65.884C16.2097 74.881 19.1437 81.5594 24.4719 84.6903C29.8002 87.8212 36.9509 87.071 44.6067 82.5695C45.0652 82.3007 45.5208 82.0172 45.9735 81.7248L46.8006 81.1931L46.8035 81.1901Z" fill="#171717"/>
<path d="M1.71715 60.7115L0.830078 62.281L15.2644 70.7321L16.1514 69.1627L1.71715 60.7115Z" fill="#171717"/>
<path d="M35.514 2.19176L34.627 3.76123L49.0612 12.2124L49.9483 10.6429L35.514 2.19176Z" fill="#171717"/>
<path d="M53.7269 49.513C53.7269 51.5363 53.1058 53.5241 51.8608 55.4854C50.6158 57.4437 48.8746 59.2012 46.6342 60.7607V64.6714L44.4112 65.977V62.1431C41.7703 63.6317 39.4544 64.444 37.4636 64.5858V59.5497C38.4038 59.5438 39.5386 59.3607 40.8648 59.0003C42.1911 58.64 43.3722 58.1939 44.4112 57.6593V51.746L43.3229 51.8878C41.1811 52.1536 39.6633 51.9675 38.7695 51.3295C37.8757 50.6915 37.4316 49.513 37.4316 47.7969C37.4316 45.9538 38.0469 44.0752 39.2745 42.1642C40.502 40.2531 42.2143 38.5252 44.4112 36.9804V34.0621L46.6342 32.7566V35.5981C49.1126 34.2689 51.353 33.5364 53.3554 33.4035L51.8289 38.7644C50.1399 38.9417 48.4103 39.4645 46.6342 40.3299V45.9567C48.744 45.6702 50.2473 45.6141 51.1382 45.7884C52.0321 45.9626 52.685 46.3466 53.1029 46.9433C53.5208 47.537 53.7269 48.3935 53.7269 49.513ZM42.3159 44.9259C42.3159 45.4871 42.4813 45.8504 42.8121 46.0187C43.143 46.1871 43.674 46.2462 44.4112 46.196V41.7122C43.0153 42.7726 42.3159 43.8448 42.3159 44.9259ZM48.8398 52.6705C48.8398 52.1359 48.6569 51.7933 48.2884 51.6397C47.9198 51.4861 47.3684 51.4299 46.6313 51.4683V56.2179C48.1026 55.0601 48.8398 53.8786 48.8398 52.6705Z" fill="#FAFAFA"/>
<path d="M45.5803 73.085C34.4362 79.6333 25.3672 74.3048 25.3672 61.2081C25.3672 48.1113 34.4333 32.1259 45.5803 25.5775C56.7243 19.0291 65.7904 24.3576 65.7904 37.4544C65.7904 50.5511 56.7243 66.5366 45.5803 73.085ZM45.5803 28.0202C35.5826 33.8951 27.4451 48.2354 27.4451 59.9882C27.4451 71.741 35.5797 76.5201 45.5803 70.6452C55.578 64.7703 63.7155 50.43 63.7155 38.6772C63.7155 26.9244 55.5809 22.1453 45.5803 28.0202Z" fill="#FAFAFA"/>
</svg>
