<svg width="101" height="216" viewBox="0 0 101 216" fill="none" xmlns="http://www.w3.org/2000/svg">
<path d="M36.1461 207.522L34.4454 208.52C34.2713 208.623 33.9666 208.609 33.7664 208.491L32.1644 207.548C31.9642 207.43 31.941 207.25 32.1151 207.15L33.8157 206.151C33.9898 206.048 34.2946 206.063 34.4948 206.181L36.0968 207.123C36.297 207.241 36.3202 207.421 36.1461 207.522Z" fill="#171717"/>
<path d="M40.0992 209.846L38.3986 210.845C38.2244 210.948 37.9197 210.933 37.7195 210.815L36.1175 209.873C35.9173 209.755 35.8941 209.575 36.0682 209.474L37.7688 208.476C37.943 208.372 38.2477 208.387 38.4479 208.505L40.0499 209.448C40.2501 209.566 40.2734 209.746 40.0992 209.846Z" fill="#171717"/>
<path d="M35.9332 212.295L34.2326 213.294C34.0584 213.397 33.7537 213.382 33.5535 213.264L31.9515 212.322C31.7513 212.204 31.7281 212.023 31.9022 211.923L33.6028 210.925C33.777 210.821 34.0817 210.836 34.2819 210.954L35.8839 211.896C36.0841 212.015 36.1073 212.195 35.9332 212.295Z" fill="#171717"/>
<path d="M44.2848 212.307L42.5841 213.305C42.41 213.409 42.1053 213.394 41.9051 213.276L40.3031 212.333C40.1029 212.215 40.0796 212.035 40.2538 211.935L41.9544 210.936C42.1285 210.833 42.4332 210.848 42.6335 210.966L44.2354 211.908C44.4357 212.026 44.4589 212.206 44.2848 212.307Z" fill="#171717"/>
<path d="M40.1187 214.756L38.4181 215.754C38.244 215.857 37.9393 215.843 37.739 215.724L36.1371 214.782C35.9368 214.664 35.9136 214.484 36.0877 214.383L37.7884 213.385C37.9625 213.282 38.2672 213.296 38.4675 213.415L40.0694 214.357C40.2696 214.475 40.2929 214.655 40.1187 214.756Z" fill="#171717"/>
<path d="M48.4508 209.858L46.7502 210.856C46.576 210.96 46.2713 210.945 46.0711 210.827L44.4691 209.885C44.2689 209.766 44.2456 209.586 44.4198 209.486L46.1204 208.488C46.2945 208.384 46.5993 208.399 46.7995 208.517L48.4015 209.459C48.6017 209.577 48.6249 209.755 48.4508 209.858Z" fill="#171717"/>
<path d="M52.6187 207.409L50.9181 208.408C50.744 208.511 50.4393 208.496 50.239 208.378L48.6371 207.436C48.4368 207.318 48.4136 207.138 48.5877 207.037L50.2884 206.039C50.4625 205.935 50.7672 205.95 50.9675 206.068L52.5694 207.011C52.7697 207.129 52.7929 207.309 52.6187 207.409Z" fill="#171717"/>
<path d="M56.7848 204.962L55.0841 205.96C54.91 206.063 54.6053 206.049 54.405 205.93L52.8031 204.988C52.6028 204.87 52.5796 204.69 52.7538 204.589L54.4544 203.591C54.6285 203.488 54.9332 203.502 55.1335 203.621L56.7354 204.563C56.9357 204.681 56.9589 204.861 56.7848 204.962Z" fill="#171717"/>
<path d="M60.9508 202.512L59.2502 203.51C59.076 203.614 58.7713 203.599 58.5711 203.481L56.9691 202.538C56.7688 202.42 56.7457 202.24 56.9198 202.14L58.6204 201.141C58.7945 201.038 59.0992 201.053 59.2995 201.171L60.9014 202.113C61.1017 202.231 61.1249 202.411 60.9508 202.512Z" fill="#171717"/>
<path d="M48.2418 214.632L46.5412 215.63C46.367 215.733 46.0623 215.718 45.8621 215.6L44.2601 214.658C44.0599 214.54 44.0367 214.363 44.2108 214.259L45.9114 213.261C46.0855 213.158 46.3903 213.172 46.5905 213.291L48.1924 214.233C48.3927 214.351 48.4159 214.531 48.2418 214.632Z" fill="#171717"/>
<path d="M52.4019 212.183L50.7013 213.181C50.5272 213.285 50.2225 213.27 50.0222 213.152L48.4203 212.209C48.22 212.091 48.1968 211.911 48.3709 211.811L50.0716 210.812C50.2457 210.709 50.5504 210.724 50.7507 210.842L52.3526 211.784C52.5529 211.902 52.5761 212.082 52.4019 212.183Z" fill="#171717"/>
<path d="M56.5699 209.735L54.8693 210.733C54.6952 210.837 54.3904 210.822 54.1902 210.704L52.5882 209.762C52.388 209.644 52.3648 209.463 52.5389 209.363L54.2395 208.365C54.4137 208.261 54.7184 208.276 54.9186 208.394L56.5206 209.336C56.7208 209.454 56.744 209.635 56.5699 209.735Z" fill="#171717"/>
<path d="M60.6905 206.885C60.8908 207.003 60.914 207.183 60.7399 207.283L59.0392 208.282C58.8651 208.385 58.5604 208.37 58.3601 208.252L56.7582 207.31C56.5579 207.192 56.5347 207.012 56.7088 206.911L58.4095 205.913C58.5836 205.81 58.8883 205.824 59.0885 205.942L60.6905 206.885Z" fill="#171717"/>
<path d="M84.0797 165.113L82.3791 166.111C82.2049 166.214 81.9002 166.199 81.7 166.081L80.098 165.139C79.8978 165.021 79.8745 164.841 80.0487 164.74L81.7493 163.742C81.9234 163.639 82.2282 163.653 82.4284 163.772L84.0303 164.714C84.2306 164.832 84.2538 165.012 84.0797 165.113Z" fill="#171717"/>
<path d="M88.2477 162.664L86.547 163.662C86.3729 163.766 86.0682 163.751 85.868 163.633L84.266 162.69C84.0657 162.572 84.0425 162.392 84.2166 162.292L85.9173 161.293C86.0914 161.19 86.3961 161.205 86.5964 161.323L88.1983 162.265C88.3986 162.383 88.4218 162.563 88.2477 162.664Z" fill="#171717"/>
<path d="M88.0328 167.437L86.3322 168.436C86.1581 168.539 85.8534 168.524 85.6531 168.406L84.0511 167.464C83.8509 167.346 83.8277 167.166 84.0018 167.065L85.7024 166.067C85.8765 165.963 86.1813 165.978 86.3815 166.096L87.9835 167.039C88.1837 167.157 88.2069 167.334 88.0328 167.437Z" fill="#171717"/>
<path d="M83.8687 169.885L82.1681 170.883C81.994 170.987 81.6893 170.972 81.489 170.854L79.8871 169.912C79.6868 169.793 79.6636 169.613 79.8377 169.513L81.5384 168.514C81.7125 168.411 82.0172 168.426 82.2174 168.544L83.8194 169.486C84.0196 169.604 84.0429 169.785 83.8687 169.885Z" fill="#171717"/>
<path d="M92.2027 164.988L90.5021 165.987C90.328 166.09 90.0233 166.075 89.823 165.957L88.2211 165.015C88.0208 164.897 87.9976 164.717 88.1717 164.616L89.8724 163.618C90.0465 163.515 90.3512 163.529 90.5515 163.647L92.1534 164.59C92.3537 164.708 92.3769 164.888 92.2027 164.988Z" fill="#171717"/>
<path d="M96.3687 162.541L94.6681 163.539C94.494 163.642 94.1893 163.628 93.989 163.51L92.3871 162.567C92.1868 162.449 92.1636 162.269 92.3377 162.169L94.0384 161.17C94.2125 161.067 94.5172 161.082 94.7175 161.2L96.3194 162.142C96.5197 162.26 96.5429 162.44 96.3687 162.541Z" fill="#171717"/>
<path d="M92.2203 169.895L90.5197 170.893C90.3456 170.996 90.0408 170.982 89.8406 170.864L88.2386 169.921C88.0384 169.803 88.0152 169.623 88.1893 169.523L89.8899 168.524C90.0641 168.421 90.3688 168.436 90.569 168.554L92.171 169.496C92.3712 169.614 92.3945 169.794 92.2203 169.895Z" fill="#171717"/>
<path d="M88.0504 172.343L86.3497 173.342C86.1756 173.445 85.8709 173.43 85.6707 173.312L84.0687 172.37C83.8685 172.252 83.8453 172.072 84.0194 171.971L85.72 170.973C85.8941 170.87 86.1988 170.884 86.3991 171.002L88.0011 171.945C88.2013 172.063 88.2245 172.243 88.0504 172.343Z" fill="#171717"/>
<path d="M96.3863 167.449L94.6857 168.447C94.5116 168.551 94.2069 168.536 94.0066 168.418L92.4047 167.475C92.2044 167.357 92.1812 167.177 92.3553 167.077L94.0559 166.078C94.2301 165.975 94.5348 165.99 94.735 166.108L96.337 167.05C96.5372 167.168 96.5605 167.348 96.3863 167.449Z" fill="#171717"/>
<path d="M100.554 165L98.8537 165.999C98.6795 166.102 98.3748 166.087 98.1746 165.969L96.5726 165.027C96.3724 164.909 96.3492 164.728 96.5233 164.628L98.2239 163.63C98.398 163.526 98.7028 163.541 98.903 163.659L100.505 164.601C100.705 164.72 100.728 164.9 100.554 165Z" fill="#171717"/>
<path d="M96.1734 172.219L94.4728 173.218C94.2987 173.321 93.9939 173.306 93.7937 173.188L92.1918 172.246C91.9915 172.128 91.9683 171.948 92.1424 171.847L93.843 170.849C94.0172 170.746 94.3219 170.76 94.5221 170.878L96.1241 171.821C96.3243 171.939 96.3476 172.119 96.1734 172.219Z" fill="#171717"/>
<path d="M100.341 169.772L98.6408 170.77C98.4667 170.873 98.1619 170.859 97.9617 170.741L96.3597 169.798C96.1595 169.68 96.1363 169.5 96.3104 169.4L98.011 168.401C98.1851 168.298 98.4898 168.313 98.6901 168.431L100.292 169.373C100.492 169.491 100.516 169.671 100.341 169.772Z" fill="#171717"/>
<path d="M84.5312 114.63C84.5312 114.63 87.5639 108.841 91.5311 107.878C91.5717 107.869 91.6094 107.857 91.6501 107.849C94.8801 107.11 98.7602 109.78 98.5397 113.195C98.3975 115.422 98.2494 118.429 97.9766 121.388C97.3933 127.659 101.302 136.337 95.002 136.337C91.325 136.337 89.4184 131.635 88.1792 126.206C86.94 120.78 86.5163 116.045 86.5163 116.045L84.5342 114.63H84.5312Z" fill="#FAFAFA"/>
<path d="M95.0008 137.241C90.3226 137.241 88.3724 131.059 87.3102 126.41C86.2684 121.85 85.8011 117.83 85.6676 116.548L83.375 114.908L83.7435 114.202C83.8741 113.951 87.0142 108.041 91.3209 106.995C93.4221 106.514 95.6712 107.128 97.3283 108.57C98.7706 109.825 99.5338 111.532 99.4236 113.251L99.3162 115.035C99.2001 117.003 99.0666 119.23 98.8606 121.474C98.6864 123.347 98.9389 125.489 99.1827 127.562C99.5803 130.941 99.9547 134.131 98.3904 135.924C97.6301 136.798 96.4895 137.241 95.0008 137.241ZM85.7141 114.368L87.3625 115.546L87.4002 115.966C87.4031 116.013 87.8326 120.704 89.0428 126.002C90.4909 132.347 92.4382 135.434 95.0008 135.434C95.973 135.434 96.6463 135.203 97.0613 134.728C98.0944 133.54 97.7636 130.743 97.4153 127.781C97.1599 125.616 96.8959 123.374 97.0874 121.306C97.2934 119.097 97.424 116.881 97.5401 114.929L97.6504 113.136C97.752 111.565 96.7682 110.466 96.1732 109.946C94.9514 108.886 93.2508 108.407 91.8404 108.729C88.9963 109.423 86.6195 112.876 85.7112 114.368H85.7141Z" fill="#171717"/>
<path d="M84.7518 113.194C84.7518 113.194 86.3364 112.367 88.0863 111.103C89.8363 109.836 92.6368 112.037 92.0245 116.048C91.4121 120.059 89.3023 120.174 85.9301 121.264C82.5578 122.354 83.1005 116.048 83.1005 116.048L84.7518 113.197V113.194Z" fill="#FAFAFA"/>
<path d="M85.199 122.296C84.5025 122.296 83.9975 122.027 83.6638 121.755C81.8993 120.314 82.1808 116.409 82.2185 115.969L82.2359 115.765L84.1223 112.51L84.3516 112.392C84.3516 112.392 85.9071 111.577 87.5758 110.366C88.5364 109.675 89.7494 109.663 90.8232 110.339C92.0769 111.125 93.3742 113.13 92.9098 116.187C92.283 120.281 90.1035 120.94 87.3465 121.773C86.9837 121.882 86.6036 121.997 86.2031 122.127C85.8345 122.246 85.5008 122.296 85.2019 122.296H85.199ZM83.9743 116.326C83.8901 117.72 84.073 119.77 84.7753 120.343C84.8565 120.411 85.08 120.591 85.6633 120.402C86.0725 120.27 86.4643 120.151 86.8386 120.039C89.4883 119.239 90.6955 118.875 91.1482 115.91C91.482 113.727 90.6781 112.374 89.8858 111.878C89.6188 111.71 89.0965 111.485 88.6031 111.843C87.1956 112.859 85.9042 113.594 85.3905 113.875L83.9714 116.323L83.9743 116.326Z" fill="#171717"/>
<path d="M47.9271 186.414L48.5945 182.312H56.3489V188.482L47.6484 198.067L47.9271 186.414Z" fill="#FAFAFA"/>
<path d="M46.7051 200.441L47.0563 186.267L47.8456 181.408H57.2455V188.836L46.708 200.444L46.7051 200.441ZM48.8207 186.5L48.6002 195.689L55.4665 188.127V183.218H49.3547L48.8207 186.5Z" fill="#171717"/>
<path d="M39.0215 107.146C39.0215 107.146 42.0513 121.052 52.4727 131.074C52.4727 131.074 65.3174 131.952 72.4681 127.066C79.6189 122.181 86.0412 120.677 86.0412 120.677C86.0412 120.677 89.7965 119.174 88.5863 114.539C87.3762 109.905 83.1333 113.411 71.8645 114.915C60.5957 116.418 57.3221 106.647 57.3221 106.647L53.6858 99.381L39.0244 107.149L39.0215 107.146Z" fill="#FAFAFA"/>
<path d="M54.9126 132.045C53.4818 132.045 52.5532 131.986 52.4168 131.978L52.1004 131.957L51.8683 131.735C41.3685 121.64 38.2865 107.931 38.1617 107.352L38.0137 106.67L54.0768 98.1605L58.1194 106.239C58.2935 106.726 61.39 115.398 71.7534 114.019C75.4739 113.523 78.4021 112.808 80.7557 112.238C85.3759 111.11 88.423 110.371 89.4533 114.308C90.5735 118.591 87.9297 120.898 86.3771 121.518C86.1884 121.572 79.888 123.093 72.9752 127.819C67.5251 131.543 59.0916 132.048 54.9213 132.048L54.9126 132.045ZM52.8521 130.188C54.8429 130.276 65.7722 130.554 71.9769 126.312C78.8403 121.625 84.9696 120.009 85.7676 119.811C86.2465 119.596 88.6552 118.314 87.7295 114.769C87.1897 112.702 86.2378 112.758 81.1649 113.992C78.7707 114.574 75.7931 115.301 71.9827 115.809C60.1276 117.383 56.5203 107.039 56.4826 106.936L53.3048 100.6L40.0597 107.615C40.8113 110.454 44.2154 121.737 52.8521 130.185V130.188Z" fill="#171717"/>
<path d="M71.6229 93.1158C71.6229 93.1158 77.9582 97 75.5175 108.398C73.2829 118.828 59.9101 144.886 57.6494 149.242C57.4491 149.632 57.4259 150.081 57.5884 150.489C58.2936 152.252 60.1161 157.51 59.26 163.018C58.3458 168.899 56.3521 176.422 56.3521 182.312C56.3521 182.312 52.5939 185.945 48.5977 182.312C48.5977 182.312 48.0115 167.629 45.2255 156.606C42.4395 145.583 46.2847 133.957 49.1375 126.691C51.9902 119.425 52.1121 116.294 52.1121 116.294L52.9596 100.603L71.62 93.1158H71.6229Z" fill="#FAFAFA"/>
<path d="M52.4007 184.832C51.0222 184.832 49.4986 184.348 48.004 182.989L47.7225 182.735L47.708 182.351C47.7022 182.206 47.0927 167.633 44.3619 156.834C41.5468 145.699 45.2673 134.105 48.3087 126.358C51.0454 119.387 51.2195 116.285 51.2195 116.256L52.0989 99.978L71.6996 92.1123L72.074 92.3427C72.3555 92.514 78.9258 96.6965 76.3778 108.594C74.1431 119.035 61.0344 144.641 58.4283 149.668C58.35 149.819 58.3413 149.99 58.4051 150.15C59.2177 152.176 61.0112 157.502 60.1318 163.161C59.8445 165.013 59.4586 166.989 59.0494 169.08C58.1584 173.638 57.2356 178.349 57.2356 182.313V182.703L56.957 182.971C56.0689 183.828 54.3799 184.835 52.3949 184.835L52.4007 184.832ZM49.4637 181.879C52.1801 184.094 54.6527 182.531 55.4624 181.89C55.5233 177.847 56.4288 173.215 57.3081 168.729C57.7144 166.655 58.0975 164.697 58.3819 162.877C59.2119 157.522 57.3545 152.303 56.7654 150.829C56.5013 150.176 56.539 149.444 56.8612 148.818C59.4469 143.826 72.4599 118.415 74.6452 108.204C76.5954 99.089 72.6921 95.1103 71.4935 94.1356L53.814 101.23L52.9985 116.342C52.9927 116.46 52.8389 119.7 49.96 127.025C47.0086 134.539 43.3984 145.758 46.0828 156.379C48.6019 166.357 49.3448 179.439 49.4637 181.876V181.879Z" fill="#171717"/>
<path d="M41.9788 37.9937C41.9788 37.9937 36.1165 36.3662 32.2364 42.6281C28.3592 48.8929 29.6913 50.1453 26.1769 55.5299C22.6624 60.9175 22.0559 63.2982 19.0261 66.9312C15.9963 70.5643 13.9359 72.3188 9.6959 81.5875C5.45594 90.8592 3.88009 93.1129 3.88009 93.1129C3.88009 93.1129 1.94151 94.1142 1.21308 95.8688C0.487556 97.6233 1.21308 98.6245 1.21308 98.6245C1.21308 98.6245 2.75986 101.478 3.97294 103.232C4.81164 104.446 6.86926 105.421 8.53796 105.613C9.50436 105.725 10.3546 104.969 10.3634 103.965C10.3779 102.701 10.4969 100.734 10.9989 98.722C11.8463 95.34 10.5433 100.128 9.57109 96.4949L10.5404 94.3653C10.5404 94.3653 16.2372 87.0992 19.8706 84.3434C23.5069 81.5876 30.6548 67.3064 30.7767 66.6802C30.8986 66.054 34.7758 60.1672 34.7758 60.1672L41.973 37.9937H41.9788Z" fill="#FAFAFA"/>
<path d="M8.72606 106.535C8.63029 106.535 8.53452 106.53 8.43876 106.518C6.66558 106.314 4.31198 105.301 3.24981 103.759C2.02222 101.984 0.501545 99.1866 0.437699 99.0684C0.397069 99.0241 -0.499682 97.689 0.397065 95.524C1.09067 93.8463 2.6752 92.7829 3.25853 92.4344C3.67352 91.7757 5.35094 88.949 8.8915 81.2103C12.6323 73.0344 14.7566 70.5563 17.2147 67.6882C17.5833 67.2599 17.9576 66.8198 18.3523 66.3502C20.0646 64.2974 20.9816 62.6492 22.1396 60.5668C22.9899 59.0398 23.9563 57.3059 25.4363 55.0345C27.1137 52.4648 27.6448 50.8668 28.2107 49.1744C28.7998 47.408 29.4702 45.4025 31.4843 42.1504C35.6662 35.3983 42.1495 37.1055 42.2133 37.1262L41.749 38.8718C41.5371 38.8157 36.4527 37.5249 32.9905 43.1163C31.0896 46.1882 30.4831 48.0047 29.8969 49.7592C29.2932 51.5669 28.7244 53.2741 26.9222 56.0388C25.4741 58.257 24.5251 59.9613 23.6893 61.4618C22.482 63.6269 21.5301 65.34 19.7105 67.5228C19.3129 68.0013 18.9327 68.4473 18.5584 68.8786C16.0916 71.7584 14.1414 74.0298 10.5079 81.9753C6.2825 91.2145 4.67766 93.5479 4.61091 93.6425L4.48611 93.8227L4.29169 93.9231C4.29169 93.9231 2.62879 94.8062 2.03966 96.224C1.5376 97.435 1.93517 98.0878 1.95258 98.1144C2.01643 98.2207 3.54003 101.024 4.70667 102.716C5.34803 103.644 7.11543 104.542 8.64483 104.719C8.85958 104.74 9.0685 104.678 9.22812 104.533C9.39063 104.388 9.48063 104.184 9.48063 103.957C9.49514 102.678 9.61121 100.764 10.0784 98.7731C9.28617 98.4954 8.93791 97.5443 8.72025 96.7321L8.63611 96.413L9.85498 93.802C10.09 93.5007 15.665 86.4118 19.3478 83.6176C22.6532 81.1128 29.5022 67.7118 29.9317 66.4358C30.0158 65.9721 31.4059 63.6712 34.0468 59.663L35.524 60.6702C33.7595 63.3492 31.8268 66.4181 31.641 66.9232C31.4553 67.895 24.0956 82.2736 20.4099 85.0679C17.1131 87.5667 11.9503 94.0324 11.3089 94.8446L10.5254 96.5637C10.5544 96.6553 10.5834 96.735 10.6095 96.8C11.0506 96.4219 11.4366 96.5046 11.6949 96.6464C12.3479 97.0156 12.226 97.503 11.8632 98.9473C11.3844 100.858 11.2683 102.737 11.2567 103.975C11.248 104.71 10.9375 105.407 10.4006 105.889C9.93624 106.305 9.3384 106.532 8.72606 106.532V106.535Z" fill="#171717"/>
<path d="M56.1184 3.76409C56.1184 3.76409 59.035 -1.40491 62.2099 2.16613C62.2099 2.16613 66.7487 -0.465626 69.201 3.76409C71.6562 7.99085 72.1989 12.8911 69.7466 17.1592C67.2914 21.4273 65.2919 25.849 65.112 32.1433C64.9378 38.1896 68.0373 37.906 69.4071 36.5385C69.4767 36.4705 69.5841 36.503 69.5928 36.6005C69.6596 37.4364 69.5812 40.2808 65.5647 41.1581C60.8981 42.18 57.3837 38.1512 55.477 35.1443C53.5674 32.1374 56.841 10.7142 56.841 10.7142L56.1184 3.76113V3.76409Z" fill="#FAFAFA"/>
<path d="M64.1096 42.22C60.7345 42.22 57.4522 39.9368 54.7213 35.6333C52.7508 32.5289 55.3453 14.5851 55.9344 10.6921L55.1943 3.56484L55.3394 3.31083C55.5136 3.00069 57.1126 0.283271 59.4923 0.0203906C60.5197 -0.0918504 61.4832 0.259644 62.3741 1.06601C64.3911 0.171032 67.8939 -0.2543 69.9573 3.30197C72.7607 8.12833 72.9609 13.3446 70.5058 17.6127C67.9171 22.1112 66.1585 26.3084 65.9901 32.1656C65.9263 34.4341 66.3674 36.0025 67.1713 36.3599C67.7082 36.6021 68.3815 36.2831 68.7761 35.8873L69.1795 35.4856L69.8296 35.6569C70.1924 35.7957 70.439 36.1265 70.471 36.5223C70.6422 38.6549 69.49 41.2217 65.7463 42.0399C65.2007 42.158 64.6551 42.22 64.1125 42.22H64.1096ZM57.0256 3.97541L57.7278 10.7365L57.7105 10.8546C56.4655 19.0039 54.9593 32.6737 56.2159 34.6526C58.1545 37.7068 61.3178 41.1626 65.372 40.2706C67.2903 39.8512 68.129 38.9503 68.4772 38.1085C67.8388 38.3034 67.1307 38.3152 66.4603 38.0169C65.372 37.5325 64.1009 36.1147 64.2141 32.1124C64.394 25.8713 66.2455 21.4377 68.9706 16.7C71.0891 13.0138 70.8889 8.46505 68.425 4.22352C66.4864 0.882877 63.0242 2.7319 62.6382 2.95343L62.0201 3.30491L61.5412 2.77029C60.9114 2.0614 60.2817 1.74831 59.6839 1.8192C58.5637 1.9403 57.4841 3.26947 57.0285 3.97246L57.0256 3.97541Z" fill="#171717"/>
<path d="M52.8359 6.48528C52.8359 6.48528 54.0171 1.88044 58.5618 4.60672C63.1065 7.33004 63.2748 11.9112 60.5555 11.8285C57.8363 11.7458 52.8359 10.2424 52.8359 10.2424V6.48528Z" fill="#FAFAFA"/>
<path d="M60.6257 12.736C60.5937 12.736 60.5618 12.736 60.5299 12.736C57.7265 12.6504 52.7958 11.1765 52.5868 11.1144L51.9629 10.9224V6.25852C51.9861 6.16401 52.5956 3.931 54.5197 3.12464C55.814 2.57821 57.3289 2.81745 59.0179 3.83057C62.4337 5.8775 63.6612 8.92278 63.1098 10.8722C62.7819 12.0301 61.8358 12.739 60.6286 12.739L60.6257 12.736ZM53.7274 9.56078C55.1407 9.95658 58.5681 10.8634 60.5821 10.9254C61.032 10.9431 61.2844 10.7688 61.3976 10.3671C61.7023 9.29789 60.881 7.04717 58.1124 5.38719C56.9284 4.67829 55.9475 4.4804 55.1958 4.79644C54.2614 5.18929 53.8348 6.29397 53.7274 6.62183V9.56078Z" fill="#171717"/>
<path d="M51.0212 38.8094C51.0212 38.8094 50.3857 39.722 47.5677 41.32C44.7498 42.918 40.9335 44.3535 39.024 36.7418C37.1144 29.13 38.7512 20.6736 38.7512 20.6736C38.7512 20.6736 38.5712 17.008 41.9783 13.0619C45.3854 9.1157 58.201 20.2039 58.201 20.2039L59.1094 26.3122C59.1094 26.3122 63.1084 25.748 62.0172 29.13C60.926 32.512 57.9282 33.2652 57.9282 33.2652C57.9282 33.2652 58.7321 37.2291 61.431 40.6229C62.7921 42.3331 68.7443 44.6961 68.5615 46.4979C67.7982 54.0091 75.9908 79.6887 72.1049 77.7924C67.2874 75.4442 36.6152 56.4725 36.6152 56.4725L37.3872 43.8809L39.5231 40.1238L51.0212 38.8094Z" fill="#FAFAFA"/>
<path d="M72.4706 78.7959C72.253 78.7959 72.0034 78.7457 71.7219 78.6068C66.9218 76.2675 37.4075 58.0195 36.1538 57.2426L35.6953 56.9591L36.5137 43.6113L38.7541 39.6681L39.1691 39.9132C38.7831 39.0803 38.4465 38.0967 38.1621 36.9625C36.3164 29.593 37.6716 21.615 37.8603 20.596C37.8603 19.8841 38.0141 16.2835 41.3109 12.4644C45.0981 8.07222 56.5236 17.5655 58.7757 19.5119L59.0282 19.7305L59.8669 25.3692C60.6765 25.3898 61.8432 25.5848 62.5426 26.4384C62.9605 26.9464 63.3523 27.8769 62.8589 29.4098C61.997 32.08 60.099 33.3117 58.9875 33.8227C59.3503 35.0839 60.2703 37.7275 62.116 40.0491C62.5658 40.6162 63.8369 41.396 65.0674 42.1492C67.5052 43.6467 69.6092 44.9375 69.4409 46.5857C69.1129 49.82 70.6017 56.9768 71.9135 63.2918C74.0262 73.4467 74.6936 77.3899 73.3064 78.5005C73.17 78.6098 72.8827 78.7929 72.4677 78.7929L72.4706 78.7959ZM37.5352 55.9814C41.3167 58.3178 67.1743 74.2649 72.2443 76.8523C72.5635 75.1185 71.1966 68.5524 70.1809 63.6699C68.7734 56.9089 67.3194 49.9204 67.6764 46.4025C67.5951 45.8177 65.3547 44.4413 64.1504 43.7028C62.7283 42.8285 61.3847 42.0045 60.7375 41.1922C57.9341 37.6684 57.0895 33.6189 57.0547 33.4476L56.8835 32.5939L57.7135 32.3842C57.8122 32.3576 60.2557 31.6842 61.1728 28.8486C61.3063 28.4381 61.4137 27.8887 61.1786 27.6022C60.8506 27.1975 59.8175 27.1296 59.2255 27.2093L58.3607 27.3275L57.3682 20.6787C52.3098 16.3662 44.5583 11.4395 42.6429 13.6636C39.5435 17.2524 39.6334 20.6019 39.6363 20.6373V20.7436L39.6189 20.8529C39.6044 20.9356 38.046 29.206 39.8801 36.5224C40.5708 39.2693 41.5459 40.9382 42.788 41.4816C44.1172 42.0635 45.7279 41.328 47.1296 40.5335C49.6428 39.1098 50.3044 38.271 50.3044 38.271L51.741 39.3343C51.6162 39.5145 50.8442 40.4981 47.9944 42.1137C46.317 43.0648 44.1317 44.0366 42.0857 43.1416C41.2528 42.7783 40.5302 42.1492 39.9121 41.2453L38.2578 44.1548L37.5323 55.9873L37.5352 55.9814Z" fill="#171717"/>
<path d="M41.091 11.5224C39.8518 13.336 39.0683 15.4863 39.1902 17.7016C39.2598 18.9776 39.6139 20.3806 40.5687 21.6152C43.1138 24.9027 50.0208 21.8043 51.6576 22.3684C53.2943 22.9326 53.5671 27.4429 53.5671 27.4429C53.5671 27.4429 56.565 29.6966 59.1101 26.3146C59.1101 26.3146 60.5815 26.1167 61.2055 26.5479C61.2055 26.5479 64.0205 24.3415 63.292 18.2332C62.5636 12.125 57.1106 7.61761 52.8387 6.48929C49.0776 5.49685 44.5445 6.47158 41.0939 11.5254L41.091 11.5224Z" fill="#FAFAFA"/>
<path d="M55.8417 29.0911C54.6751 29.0911 53.6507 28.6303 53.0383 28.1666L52.7046 27.9155L52.6785 27.4932C52.5653 25.65 51.982 23.4318 51.3725 23.2221C51.0533 23.1128 49.8025 23.3491 48.8883 23.5204C45.9485 24.0698 41.9204 24.823 39.8715 22.1735C38.9254 20.9507 38.3972 19.465 38.3044 17.7518C38.1825 15.4922 38.8964 13.1588 40.3649 11.0056C43.5775 6.29734 48.2063 4.33017 53.0615 5.61208C57.9457 6.90285 63.4365 11.933 64.1736 18.124C64.9543 24.6665 61.8781 27.1594 61.7475 27.2628L61.2367 27.6645L60.7028 27.2953C60.5577 27.1978 60.0498 27.1535 59.5651 27.1801C58.3608 28.6156 57.0287 29.0941 55.8417 29.0941V29.0911ZM54.4139 26.9113C55.1278 27.2864 56.8342 27.8506 58.4014 25.7623L58.6248 25.464L58.9905 25.4137C59.3097 25.3694 60.2065 25.2808 60.9872 25.4846C61.6256 24.7167 62.9112 22.5841 62.4063 18.3396C61.6953 12.3613 56.2538 8.32359 52.6146 7.36363C50.2117 6.72858 45.609 6.49228 41.8246 12.0394C40.9569 13.3065 39.9528 15.3121 40.0805 17.6544C40.153 18.9894 40.5506 20.1325 41.2674 21.057C42.6546 22.8529 46.0704 22.209 48.5662 21.7452C50.0927 21.4587 51.1926 21.2549 51.9442 21.5119C53.7667 22.141 54.2775 25.3724 54.4168 26.9142L54.4139 26.9113Z" fill="#171717"/>
<path d="M36.2357 77.208C36.2357 77.208 38.1134 81.9044 36.9032 87.9181C36.2503 91.1584 36.4331 94.9628 37.0222 97.7333C37.3269 97.6595 37.6723 97.6418 38.0989 97.754C40.4786 98.3802 44.7186 102.891 46.5382 102.766C48.3549 102.642 52.8386 98.2561 57.688 95.1252C60.3318 93.418 62.2327 92.1301 63.4168 91.309C64.3309 90.6769 64.8301 89.5811 64.7227 88.4498C64.4644 85.6911 63.9449 80.1499 63.411 74.3695C63.2107 72.1985 63.1846 70.3022 63.2513 68.6777C62.5751 68.1637 61.8206 67.2629 61.0777 65.6856C58.8953 61.0512 61.0515 56.7417 63.1033 54.1277C65.4279 51.1681 67.3085 49.4667 68.5593 46.5012H68.9481C70.1554 43.6332 66.8876 43.2403 66.0431 43.6893C65.1986 44.1382 64.2729 47.1156 61.1531 51.4989C58.3555 55.4303 53.8079 62.1795 47.5046 59.5478C41.2041 56.916 38.0234 54.6623 39.1117 47.6473C39.5383 44.8974 40.1013 42.815 41.12 41.3263C39.5383 39.4625 39.161 38.0891 39.161 38.0891C39.161 38.0891 35.992 42.0116 35.6292 49.0266C35.3651 54.1454 32.9593 60.7263 31.6766 63.9163C30.2836 67.381 30.655 71.4335 32.9506 74.3399C33.1421 74.5821 33.3482 74.8214 33.5687 75.0606L36.2357 77.2169V77.208Z" fill="#171717"/>
<path d="M46.4678 103.669C45.1937 103.669 43.5744 102.449 41.7054 101.044C40.3559 100.03 38.8266 98.8784 37.8776 98.6274C37.6454 98.5683 37.451 98.5624 37.2246 98.6126L36.3453 98.8194L36.1537 97.9214C35.6139 95.3783 35.3005 91.3672 36.0348 87.7341C37.036 82.7748 35.8171 78.7076 35.4921 77.7565L33.0224 75.7568C32.6915 75.4142 32.4681 75.1572 32.2649 74.8973C29.8301 71.8106 29.2903 67.4687 30.8603 63.5668C32.204 60.2291 34.4937 53.8934 34.7491 48.9726C35.1235 41.7419 38.3448 37.6776 38.4841 37.5092L39.5695 36.1682L40.028 37.843C40.028 37.843 40.3966 39.0747 41.8041 40.7317L42.2568 41.2634L41.8621 41.8393C41.0147 43.0799 40.4575 44.858 40.0019 47.7852C38.9978 54.2567 41.7577 56.1648 47.855 58.708C53.3196 60.9912 57.458 55.1694 60.1976 51.3148L60.4472 50.9663C62.0636 48.6949 63.0735 46.8222 63.8078 45.4517C64.5797 44.0162 65.0063 43.2217 65.6448 42.8849C66.4371 42.4626 68.2654 42.4951 69.3363 43.5023C69.8325 43.9719 70.5522 45.0293 69.7832 46.8577L69.551 47.4071H69.1476C68.2044 49.4156 66.9711 50.8836 65.5606 52.5613C65.0121 53.2141 64.4288 53.9082 63.8136 54.6909C62.2 56.7467 59.8058 60.8553 61.8953 65.2918C62.4844 66.5442 63.1258 67.4391 63.7991 67.9501L64.1763 68.2366L64.156 68.7152C64.0806 70.4933 64.1328 72.3659 64.3098 74.2859C64.8438 80.0633 65.3633 85.6045 65.6216 88.3632C65.7551 89.8253 65.1079 91.2401 63.9297 92.0554C62.7833 92.8499 60.8534 94.1584 58.1748 95.8863C56.2101 97.1564 54.286 98.6481 52.5912 99.9654C49.6252 102.269 47.884 103.578 46.61 103.666C46.5664 103.666 46.5229 103.669 46.4794 103.669H46.4678ZM37.747 96.7783C37.9385 96.7931 38.13 96.8256 38.3245 96.8788C39.6043 97.2155 41.1395 98.3704 42.7618 99.5903C43.9691 100.497 45.78 101.862 46.4475 101.862H46.4794C47.2833 101.806 49.5237 100.063 51.5029 98.527C53.2267 97.1889 55.1828 95.6707 57.2113 94.3593C59.8696 92.6432 61.7792 91.3465 62.9197 90.5608C63.5611 90.1148 63.9151 89.338 63.8397 88.5345C63.5814 85.7758 63.0619 80.2346 62.5279 74.4542C62.3596 72.6141 62.2987 70.8123 62.3509 69.0903C61.5906 68.3932 60.8941 67.383 60.2817 66.0745C57.7743 60.746 60.5429 55.9492 62.4147 53.5626C63.0416 52.7622 63.6394 52.0533 64.1995 51.3857C65.6999 49.6017 66.884 48.1898 67.7488 46.1429L67.981 45.5935H68.3089C68.396 45.1032 68.2103 44.9171 68.1377 44.8462C67.7024 44.4091 66.7186 44.3707 66.4574 44.4888C66.2687 44.6306 65.787 45.5285 65.3633 46.3172C64.6029 47.729 63.564 49.6608 61.8808 52.0237L61.6341 52.3723C58.7552 56.4248 53.9435 63.2006 47.1759 60.3798C41.1627 57.8691 37.004 55.4766 38.2432 47.4987C38.6786 44.6897 39.227 42.8082 40.0338 41.3874C39.6159 40.8469 39.2938 40.3536 39.0442 39.9253C38.133 41.5499 36.7516 44.6838 36.5252 49.0671C36.2553 54.2538 33.8901 60.8081 32.5058 64.2521C31.1795 67.5484 31.6177 71.1933 33.6492 73.766C33.8262 73.9875 34.0149 74.212 34.218 74.4306L36.975 76.6518L37.0621 76.8703C37.1433 77.0712 39.0297 81.8946 37.776 88.1033C37.1695 91.119 37.3436 94.4242 37.747 96.7813V96.7783Z" fill="#171717"/>
<path d="M38.2277 198.068C38.959 197.208 39.8064 196.458 40.6596 195.728C41.5448 194.972 43.2425 192.222 44.2582 189.986C45.8399 186.51 48.6114 185.807 50.8402 187.73C53.069 189.656 49.749 195.058 49.749 195.058C49.749 195.058 52.0126 191.174 55.1643 189.133C55.8985 188.657 56.3541 187.833 56.3541 186.938V185.473C56.3541 185.473 59.7467 186.223 59.294 190.264C59.0937 192.036 58.9835 193.41 58.9196 194.393C58.8384 195.646 58.2608 196.801 57.306 197.577C54.2995 200.02 47.4535 205.062 41.983 205.204C35.462 205.372 33.8861 203.166 38.2306 198.062L38.2277 198.068Z" fill="#FAFAFA"/>
<path d="M41.2928 206.122C37.8248 206.122 35.8688 205.402 35.1578 203.869C34.4352 202.312 35.2188 200.221 37.555 197.477C38.3472 196.546 39.2411 195.761 40.0885 195.037C40.7647 194.458 42.3811 191.962 43.452 189.608C44.3836 187.561 45.7824 186.238 47.393 185.877C48.7628 185.57 50.1907 185.984 51.4154 187.044C52.3295 187.833 52.5733 188.976 52.4775 190.169C53.145 189.519 53.885 188.893 54.686 188.376C55.1706 188.06 55.4609 187.526 55.4609 186.944V184.356L56.5404 184.596C57.9857 184.915 60.6034 186.536 60.1709 190.376C60.0026 191.874 59.8778 193.247 59.7995 194.461C59.7037 195.967 58.9956 197.364 57.8551 198.292C54.3377 201.151 47.602 205.972 41.998 206.116C41.7543 206.122 41.5163 206.125 41.287 206.125L41.2928 206.122ZM38.8986 198.661C36.4493 201.538 36.5914 202.72 36.7656 203.098C36.9513 203.496 37.8161 204.409 41.9574 204.306C47.2276 204.167 54.0592 199.063 56.7494 196.877C57.4981 196.266 57.9654 195.344 58.0292 194.343C58.1076 193.099 58.2353 191.693 58.4065 190.166C58.6096 188.376 57.9131 187.405 57.2398 186.894V186.944C57.2398 188.149 56.642 189.254 55.6408 189.903C52.9941 191.617 50.9713 194.774 50.5825 195.412C50.5505 195.468 50.5215 195.512 50.5012 195.545L48.9834 194.603C48.9834 194.603 49.0269 194.532 49.0821 194.44C50.0339 192.825 51.4618 189.463 50.2632 188.424C49.4593 187.729 48.6032 187.461 47.7732 187.647C46.7198 187.883 45.7563 188.849 45.0656 190.37C44.0673 192.565 42.2882 195.521 41.2319 196.425C40.4396 197.102 39.6067 197.831 38.8986 198.664V198.661Z" fill="#171717"/>
<path d="M40.3464 197.934L38.5762 197.762C38.6574 196.891 38.9302 196.221 38.9621 196.147L40.5989 196.856C40.5989 196.856 40.4045 197.337 40.3493 197.934H40.3464Z" fill="#171717"/>
<path d="M42.8727 201.804L42.6173 200.011C43.218 199.923 43.8942 199.618 44.6226 199.11L45.6297 200.599C44.6604 201.278 43.7607 201.671 42.8756 201.801L42.8727 201.804ZM41.233 201.724C41.0763 201.683 40.9195 201.633 40.7628 201.571C39.7326 201.166 39.0245 200.428 38.7227 199.435L40.4175 198.898C40.5597 199.361 40.8731 199.677 41.4013 199.884C41.4884 199.92 41.5754 199.946 41.6625 199.97L41.233 201.727V201.724ZM46.7411 199.722L45.5803 198.351C46.1317 197.867 46.7295 197.261 47.3593 196.555L48.6798 197.769C47.992 198.543 47.3593 199.184 46.744 199.725L46.7411 199.722Z" fill="#171717"/>
<path d="M49.568 196.72L48.2012 195.559C48.4827 195.22 48.7642 194.862 49.0457 194.499L50.4416 195.618C50.1485 195.997 49.8554 196.366 49.5652 196.72H49.568Z" fill="#171717"/>
<path d="M88.9371 129.08C88.9371 129.08 88.2638 126.93 86.5138 122.771C84.7639 118.612 90.954 117.103 92.5299 121.625L88.9371 129.08Z" fill="#FAFAFA"/>
<path d="M88.0859 129.355C88.0859 129.355 87.401 127.187 85.6916 123.129C84.8878 121.215 85.5291 119.939 85.9819 119.348C86.7973 118.288 88.2165 117.777 89.6791 118.022C91.3623 118.3 92.7379 119.534 93.3619 121.324L91.6873 121.93C91.2781 120.754 90.4424 119.983 89.3947 119.809C88.5763 119.667 87.7927 119.93 87.3806 120.462C86.9105 121.073 87.0905 121.862 87.3255 122.414C89.0697 126.567 89.7488 128.714 89.7778 128.806L88.083 129.355H88.0859Z" fill="#171717"/>
<path d="M90.69 133.151C90.3446 133.151 90.127 133.112 90.127 133.112L90.4085 131.325C90.4897 131.337 91.4967 131.476 92.2281 130.8L93.418 132.144C92.4632 133.021 91.2965 133.151 90.6871 133.151H90.69ZM94.4134 130.676L92.7679 129.987C92.9594 129.515 93.0552 128.915 93.0552 128.206C93.0552 128.032 93.0494 127.846 93.0378 127.654L94.8109 127.536C94.8254 127.769 94.8342 127.991 94.8342 128.203C94.8342 129.151 94.692 129.981 94.4134 130.673V130.676ZM92.881 126.369C92.7475 125.583 92.5328 124.715 92.2455 123.785L93.9432 123.244C94.2537 124.251 94.4859 125.196 94.6339 126.059L92.881 126.372V126.369ZM91.8247 122.503C91.6651 122.048 91.4851 121.575 91.2878 121.076L92.9362 120.4C93.1422 120.92 93.328 121.416 93.4963 121.888L91.8247 122.503Z" fill="#171717"/>
<path d="M39.0215 107.147C39.0215 107.147 40.4029 113.161 44.2569 120.238C44.2569 120.238 47.6639 120.991 51.9474 117.514L51.9939 116.918C51.9939 116.918 55.369 123.156 71.3856 120.306C71.3856 120.306 76.6297 110.535 75.9419 101.26C75.2541 91.9854 66.4085 89.2296 66.4085 89.2296L51.1406 102.382L39.0215 107.144V107.147Z" fill="#FAFAFA"/>
<path d="M63.7211 121.957C56.8866 121.957 53.5812 119.862 52.1504 118.498C47.7538 121.886 44.219 121.156 44.0652 121.124L43.6734 121.038L43.479 120.681C39.6105 113.574 38.2117 107.602 38.1565 107.35L37.9824 106.588L50.682 101.597L66.2053 88.2222L66.6696 88.367C66.7625 88.3965 76.1043 91.4181 76.8298 101.195C77.5293 110.629 72.3839 120.332 72.1662 120.74L71.9601 121.121L71.5393 121.197C68.5241 121.732 65.9383 121.954 63.7211 121.954V121.957ZM51.3437 113.843L52.7715 116.483C52.7976 116.528 56.1292 121.983 70.7993 119.493C71.728 117.623 75.64 109.214 75.0538 101.334C74.4995 93.8638 68.3383 90.9396 66.5912 90.2603L51.4568 103.233L40.0806 107.702C40.5653 109.471 41.996 114.126 44.814 119.399C45.7107 119.464 48.1136 119.345 51.0883 117.047L51.3408 113.846L51.3437 113.843Z" fill="#171717"/>
<path d="M51.1997 117.324C51.1561 117.238 50.1404 115.138 50.0098 112.338L51.7858 112.252C51.8961 114.674 52.79 116.512 52.79 116.512L51.1997 117.321V117.324Z" fill="#171717"/>
<path d="M67.6301 106.195C66.2458 106.195 65.2707 106.051 65.1836 106.036L65.4506 104.246C65.4912 104.252 69.6064 104.863 72.7958 103.437L73.5126 105.094C71.5159 105.989 69.2814 106.195 67.6301 106.195Z" fill="#FAFAFA"/>
<path d="M66.8667 110.496L66.8086 108.688C68.5992 108.629 70.146 108.313 71.4055 107.749L72.1223 109.406C70.6539 110.065 68.8865 110.431 66.8696 110.499L66.8667 110.496Z" fill="#FAFAFA"/>
<path d="M67.4034 114.642L67.1074 112.858C68.039 112.699 68.8777 112.45 69.6061 112.125L70.3229 113.783C69.4639 114.169 68.4801 114.459 67.4063 114.642H67.4034Z" fill="#FAFAFA"/>
<path d="M49.5887 22.9536L47.9316 22.2978C48.0071 22.097 49.8586 17.3592 54.6848 16.2723L55.0679 18.0386C51.1878 18.9099 49.6032 22.9122 49.5887 22.9506V22.9536Z" fill="#171717"/>
<path d="M51.8306 15.2922L50.7598 13.8479C50.8991 13.7386 54.2365 11.2161 57.8989 12.5925L57.2837 14.2909C54.5528 13.2601 51.8567 15.2716 51.8306 15.2922Z" fill="#171717"/>
<path d="M60.9959 6.23848L59.2285 6.04057C59.243 5.91652 59.5826 2.96281 61.6924 1.42688L62.7256 2.90078C61.2803 3.9523 60.9959 6.23552 60.9959 6.23552V6.23848Z" fill="#171717"/>
<path d="M68.0588 22.4921L66.4191 21.7891C70.4501 12.0359 65.8126 8.67756 65.6152 8.53873L66.599 7.03235C66.8486 7.20071 72.6935 11.2739 68.0588 22.4921Z" fill="#171717"/>
<path d="M64.4515 38.777C59.0072 38.777 57.115 33.6317 57.0918 33.5697L58.7634 32.9523C58.8476 33.1827 60.8819 38.5585 67.252 36.4761L67.7947 38.2011C66.5555 38.6057 65.4469 38.777 64.4515 38.777Z" fill="#171717"/>
<path d="M43.2495 23.1328L41.5547 22.5834C41.5924 22.4593 42.524 19.5263 44.1869 17.7098L45.487 18.9415C44.094 20.4656 43.2553 23.1062 43.2495 23.1328Z" fill="#171717"/>
<path d="M43.5413 35.6688C42.4356 35.6688 41.6694 35.149 41.623 35.1165L41.2051 34.827L41.9393 29.1766L43.5674 29.3951L42.9812 33.9202C43.3381 34.0207 43.8837 34.0709 44.496 33.7578L45.2303 35.2523C44.6237 35.5625 44.0491 35.6688 43.5442 35.6688H43.5413Z" fill="#171717"/>
<path d="M48.468 29.4051C48.3577 30.7608 47.667 31.8064 46.927 31.7414C46.1869 31.6765 45.6762 30.5275 45.7865 29.1717C45.8967 27.816 46.5874 26.7703 47.3275 26.8353C48.0675 26.9003 48.5783 28.0523 48.468 29.4051Z" fill="#171717"/>
<path d="M41.4563 27.8882C41.346 29.2439 40.6553 30.2895 39.9153 30.2245C39.1752 30.1596 38.6645 29.0106 38.7747 27.6548C38.885 26.2991 39.5757 25.2534 40.3158 25.3184C41.0558 25.3834 41.5665 26.5324 41.4563 27.8882Z" fill="#171717"/>
<path d="M44.0782 38.8625C43.0189 38.8625 42.067 38.5494 41.9277 38.5021L42.453 36.9189C42.8419 37.0519 44.0259 37.3443 44.8182 37.0991L45.2913 38.7C44.8966 38.8211 44.4816 38.8654 44.0811 38.8654L44.0782 38.8625Z" fill="#171717"/>
<path d="M58.7881 33.7014C57.781 33.7014 56.6637 33.3588 56.5273 33.3145L57.0526 31.5865C57.3747 31.687 58.3585 31.9292 58.968 31.8849L59.1189 33.6866C59.0115 33.6955 58.8983 33.7014 58.7851 33.7014H58.7881Z" fill="#171717"/>
<path d="M51.7352 85.2672L49.042 84.9807C47.028 84.5435 45.2548 83.6988 43.9517 82.5823C41.2412 80.2606 36.7662 79.1146 36.7227 79.1028L37.1493 77.3453C37.3495 77.3955 42.0654 78.6007 45.0981 81.197C46.1835 82.1244 47.6838 82.8363 49.3264 83.1966L51.8309 83.4625C53.5287 83.4507 55.1945 82.9869 56.5468 82.1126L57.5016 83.6397C55.8649 84.6971 53.8711 85.2613 51.741 85.2672H51.7352Z" fill="#FAFAFA"/>
<path d="M44.1557 197.716L42.8613 196.476C42.8933 196.443 45.8534 193.206 48.3376 187.933L49.9395 188.716C47.3277 194.257 44.2834 197.577 44.1557 197.716Z" fill="#FAFAFA"/>
<path d="M90.1706 129.05C88.4178 123.627 86.9754 121.247 86.9609 121.22L88.4671 120.26C88.531 120.361 90.0284 122.815 91.8568 128.486L90.1677 129.05H90.1706Z" fill="#FAFAFA"/>
<path d="M48.2616 158.035C46.1518 157.961 44.3438 155.708 44.1465 155.451L45.5395 154.328C45.9139 154.807 47.2343 156.189 48.3226 156.228L48.2616 158.035Z" fill="#171717"/>
<path d="M50.912 68.2367C50.912 69.2793 50.082 70.1241 49.0576 70.1241C48.0331 70.1241 47.2031 69.2793 47.2031 68.2367C47.2031 67.194 48.0331 66.3492 49.0576 66.3492C50.082 66.3492 50.912 67.194 50.912 68.2367Z" fill="#171717"/>
<path d="M49.0569 70.8208C47.6581 70.8208 46.5176 69.663 46.5176 68.2364C46.5176 66.8097 47.6581 65.6519 49.0569 65.6519C50.4557 65.6519 51.5962 66.8127 51.5962 68.2364C51.5962 69.66 50.4557 70.8208 49.0569 70.8208ZM49.0569 67.0431C48.4097 67.0431 47.8845 67.5777 47.8845 68.2364C47.8845 68.895 48.4097 69.4297 49.0569 69.4297C49.7041 69.4297 50.2293 68.895 50.2293 68.2364C50.2293 67.5777 49.7041 67.0431 49.0569 67.0431Z" fill="#0D6EDE"/>
<path d="M53.1034 70.8685C53.1034 71.9112 52.2734 72.7559 51.249 72.7559C50.2245 72.7559 49.3945 71.9112 49.3945 70.8685C49.3945 69.8258 50.2245 68.9811 51.249 68.9811C52.2734 68.9811 53.1034 69.8258 53.1034 70.8685Z" fill="#171717"/>
<path d="M51.2483 73.4526C49.8495 73.4526 48.709 72.2948 48.709 70.8681C48.709 69.4415 49.8495 68.2836 51.2483 68.2836C52.6471 68.2836 53.7876 69.4415 53.7876 70.8681C53.7876 72.2948 52.6471 73.4526 51.2483 73.4526ZM51.2483 69.6778C50.6011 69.6778 50.0759 70.2124 50.0759 70.8681C50.0759 71.5239 50.6011 72.0614 51.2483 72.0614C51.8955 72.0614 52.4208 71.5268 52.4208 70.8681C52.4208 70.2094 51.8955 69.6778 51.2483 69.6778Z" fill="#0D6EDE"/>
<path d="M49.9035 84.6275C47.8749 80.8408 44.9003 80.9885 37.9672 78.0466C32.0092 75.5182 25.5114 74.4195 19.0774 74.9245C12.6841 75.4267 8.77793 75.793 5.74234 78.2593L2.18147 79.3935L0.991613 86.2845L0.982899 86.4617C0.312515 91.1316 3.28716 96.1529 10.1622 100.598C16.9996 105.017 25.1399 106.972 33.2252 106.467C44.6449 105.752 51.1224 101.139 52.2745 95.5178L53.4934 88.6268L49.9006 84.6304L49.9035 84.6275Z" fill="#171717"/>
<path d="M30.7675 107.445C23.2162 107.445 15.813 105.321 9.68378 101.36C2.75648 96.8821 -0.64478 91.5477 0.101058 86.3315V86.237L1.39829 78.6962L5.31902 77.4467C8.63031 74.8416 12.9951 74.496 19.0053 74.0234C25.506 73.5213 32.1866 74.6171 38.3071 77.2134C40.2399 78.0316 41.839 78.6016 43.2494 79.1038C46.8335 80.3798 49.0129 81.1536 50.6265 84.0955L54.4428 88.343L53.131 95.7479C51.7873 102.311 44.3609 106.674 33.2778 107.365C32.442 107.418 31.6033 107.445 30.7675 107.445ZM2.96252 80.0903L1.86842 86.4378V86.5058C1.22126 91.0545 4.33813 95.7568 10.6386 99.827C17.1306 104.024 25.1229 106.059 33.1704 105.557C43.2523 104.925 50.2405 101.008 51.4043 95.3255L52.5448 88.9012L49.1232 85.0555C47.8318 82.6453 46.1051 82.0279 42.6661 80.8051C41.2324 80.2941 39.6073 79.7152 37.628 78.8763C31.7658 76.3893 25.3754 75.323 19.1475 75.8222C12.612 76.3361 9.07142 76.7083 6.29993 78.962L6.01262 79.1185L2.96833 80.0874L2.96252 80.0903Z" fill="#171717"/>
<path d="M47.8319 76.6109C56.8284 84.3023 55.1713 93.8458 44.1288 97.9308C33.0864 102.016 16.8434 99.0945 7.84399 91.4031C-1.1525 83.7116 0.504594 74.1681 11.5471 70.0832C22.5895 65.9982 38.8325 68.9194 47.8319 76.6109Z" fill="#FAFAFA"/>
<path d="M32.9191 100.669C23.6353 100.669 13.655 97.5559 7.27332 92.1004C2.6706 88.166 0.549188 83.5966 1.30663 79.237C2.06408 74.8773 5.59303 71.3269 11.2463 69.2357C22.5355 65.0591 39.208 68.0572 48.4047 75.9199C53.0103 79.8572 55.1289 84.4237 54.3714 88.7833C53.614 93.143 50.085 96.6934 44.4317 98.7846C40.9782 100.064 37.014 100.669 32.9191 100.669ZM22.8199 69.1412C18.9165 69.1412 15.1438 69.7171 11.8499 70.937C6.8206 72.7949 3.69797 75.8579 3.05661 79.553C2.41524 83.2481 4.3161 87.212 8.41386 90.7151C17.1811 98.2086 33.0642 101.068 43.8223 97.0862C48.8516 95.2254 51.9743 92.1653 52.6156 88.4732C53.257 84.7781 51.3532 80.8142 47.2555 77.3111C41.1727 72.1126 31.6625 69.1441 22.817 69.1441L22.8199 69.1412Z" fill="#171717"/>
<path d="M41.6338 79.7852C35.2608 74.9353 23.9166 72.8942 16.2957 75.2277C8.67477 77.5611 7.66484 83.3829 14.0378 88.2328C20.4108 93.0828 31.7551 95.1239 39.376 92.7904C46.9969 90.457 48.0068 84.6352 41.6338 79.7852Z" fill="#171717"/>
<path d="M32.3201 94.6494C25.6221 94.6494 18.2305 92.5493 13.5088 88.9576C10.1453 86.3968 8.55781 83.4371 9.04826 80.6282C9.53581 77.8192 12.02 75.5921 16.0452 74.3604C23.8896 71.9561 35.6111 74.068 42.1727 79.0597C45.5363 81.6206 47.1208 84.5773 46.6332 87.3892C46.1457 90.1982 43.6615 92.4253 39.6363 93.657C37.4365 94.3304 34.932 94.6494 32.323 94.6494H32.3201ZM23.4281 75.1608C20.9758 75.1608 18.6223 75.4621 16.556 76.0942C13.207 77.1192 11.161 78.8412 10.7982 80.9442C10.4325 83.0473 11.7733 85.3777 14.5738 87.5074C20.7379 92.1979 31.7542 94.1798 39.1226 91.9232C42.4716 90.8982 44.5176 89.1762 44.8804 87.0732C45.2461 84.9701 43.9053 82.6397 41.1048 80.5071C36.6704 77.131 29.7228 75.1579 23.431 75.1579L23.4281 75.1608Z" fill="#171717"/>
<path d="M40.9595 83.6754C34.5865 78.8254 23.2423 76.7844 15.6214 79.1178C12.8673 79.9596 10.9925 81.2622 10 82.804C10.4121 84.5999 11.7355 86.4784 14.0368 88.23C20.4098 93.08 31.7541 95.121 39.375 92.7876C42.1291 91.9458 44.0039 90.6432 44.9964 89.1013C44.5843 87.3055 43.2609 85.4269 40.9595 83.6754Z" fill="#FAFAFA"/>
<path d="M32.3198 94.6487C25.6218 94.6487 18.2301 92.5486 13.5084 88.9569C11.1258 87.1433 9.6138 85.0876 9.13786 83.0111L9.05078 82.633L9.25976 82.3111C10.4032 80.527 12.5159 79.124 15.3686 78.2527C23.213 75.8454 34.9317 77.9603 41.4962 82.955C43.8788 84.7686 45.3908 86.8214 45.8668 88.8978L45.9538 89.2759L45.7449 89.5979C44.6014 91.3819 42.4887 92.7849 39.636 93.6563C37.4362 94.3297 34.9317 94.6487 32.3227 94.6487H32.3198ZM10.972 82.9816C11.4479 84.5145 12.6842 86.0711 14.5735 87.5096C20.7375 92.2001 31.7539 94.182 39.1223 91.9254C41.3801 91.2342 43.0662 90.2034 44.0297 88.9303C43.5538 87.3974 42.3146 85.8408 40.4282 84.4053C34.2642 79.7118 23.2478 77.7358 15.8794 79.9865C13.6216 80.6777 11.9355 81.7085 10.972 82.9816Z" fill="#171717"/>
<path d="M52.1414 92.317L51.1562 97.9978L52.5023 98.2396L53.4875 92.5588L52.1414 92.317Z" fill="#FAFAFA"/>
<path d="M31.1205 75.3473L30.4844 79.0153L31.8305 79.2571L32.4666 75.5892L31.1205 75.3473Z" fill="#FAFAFA"/>
<path d="M14.9636 79.7088L14.4238 82.8191L18.3794 85.1732L20.9245 82.2549L20.9913 82.2313L34.3757 93.671C35.7136 93.5735 37.005 93.3845 38.221 93.0921L39.9942 92.4363L40.5311 89.3231L22.2305 77.2543L14.9636 79.7088Z" fill="#171717"/>
<path d="M34.1461 94.3865L21.0344 83.1801L18.5154 86.0659L13.666 83.1801L14.3596 79.1808L22.3259 76.4929L41.2853 88.996L40.5975 92.9569L38.4528 93.7485C37.1411 94.0675 35.8119 94.2684 34.4218 94.3688L34.1461 94.3865ZM21.0634 81.467L21.432 81.7003L34.6017 92.9569C35.8177 92.8565 36.9815 92.6734 38.0639 92.4164L39.3873 91.9231L39.782 89.6606L22.1343 78.0229L15.5669 80.2412L15.1809 82.4683L18.2397 84.2878L20.5295 81.6649L21.0634 81.4699V81.467Z" fill="#171717"/>
<path d="M21.5323 79.119L21.4655 79.1455L18.9204 82.0638L14.9648 79.7097L18.5809 75.6956L22.7715 74.1449L40.5323 89.324L35.6045 91.1494L21.5323 79.119Z" fill="#FAFAFA"/>
<path d="M35.4667 91.9402L21.5744 80.0663L19.0583 82.9521L13.8867 79.8743L18.1876 75.0982L22.9093 73.3525L41.268 89.0426L41.1519 89.787L40.8356 89.9494L35.4696 91.9402H35.4667ZM21.6034 78.3532L21.9719 78.5865L35.7453 90.3571L39.193 89.081L22.6365 74.9328L18.9741 76.2885L16.043 79.5406L18.7826 81.171L21.0723 78.5452L21.6063 78.3502L21.6034 78.3532Z" fill="#171717"/>
<path d="M1.04775 93.3702C0.206143 91.1875 0.0232974 88.1451 0.0174932 88.0181L0.0117188 87.9354L0.853298 83.0884L2.19987 83.3306L1.38731 88.0122C1.41923 88.4907 1.63108 91.0664 2.32177 92.8593L1.04775 93.3673V93.3702Z" fill="#FAFAFA"/>
<path d="M14.0516 96.8629L13.0664 102.544L14.4125 102.785L15.3977 97.1047L14.0516 96.8629Z" fill="#FAFAFA"/>
<path d="M68.9491 46.4979C70.0026 47.6616 71.0067 48.9642 71.8628 50.3968C75.9838 57.2878 75.4991 62.6724 75.4991 70.3166C75.4991 76.7143 74.3934 88.9988 74.0365 92.8268C73.9523 93.7129 73.6476 94.5488 73.1368 95.2666C71.7032 97.278 68.1626 101.109 61.3224 102.488C61.3224 102.488 52.7177 105.02 49.4471 107.524C46.1764 110.029 25.0898 108.777 25.0898 108.777C25.0898 108.777 22.06 108.653 22.9074 106.396C23.7548 104.142 35.842 105.144 38.0999 104.391C38.0999 104.391 39.2665 103.011 37.2089 101.384C35.1484 99.7562 35.7231 97.1245 38.1028 97.7506C40.4825 98.3768 44.7224 102.887 46.5421 102.763C48.3588 102.639 52.8425 98.2528 57.6919 95.1218C60.3328 93.4146 62.2366 92.1268 63.4206 91.3056C64.3377 90.6706 64.834 89.5807 64.7266 88.4465C64.4683 85.6847 63.9488 80.1436 63.4148 74.3661C62.6574 66.1814 64.3754 60.8056 64.3754 60.8056L68.9549 46.4979H68.9491Z" fill="#FAFAFA"/>
<path d="M35.8688 110.002C30.7669 110.002 26.0539 109.739 25.0382 109.677C24.8466 109.671 23.0096 109.559 22.2173 108.333C21.9329 107.89 21.6775 107.14 22.078 106.071C22.7832 104.192 26.6082 103.979 32.8158 103.849C34.6905 103.811 36.6204 103.77 37.5201 103.604C37.5984 103.327 37.552 102.804 36.661 102.101C35.239 100.975 34.6789 99.2977 35.3 98.0158C35.7005 97.1858 36.7104 96.4474 38.3239 96.8787C39.6067 97.2154 41.139 98.3703 42.7613 99.5902C43.9685 100.497 45.7795 101.862 46.4469 101.862H46.4789C47.2827 101.805 49.5231 100.063 51.5024 98.5268C53.2262 97.1888 55.1822 95.6706 57.2108 94.3591C59.8923 92.6283 61.7932 91.3345 62.9192 90.5607C63.5634 90.1147 63.9175 89.3378 63.8392 88.5344C63.5809 85.7727 63.0614 80.2316 62.5274 74.4541C61.7642 66.1778 63.4561 60.7577 63.5287 60.5303L65.2206 61.0886C65.2061 61.1417 63.5722 66.4082 64.3006 74.2857C64.8346 80.0602 65.354 85.6014 65.6123 88.3631C65.7487 89.8252 65.1016 91.2371 63.9204 92.0553C62.7857 92.8409 60.8674 94.1406 58.1656 95.8862C56.2009 97.1563 54.2768 98.6479 52.5819 99.9653C49.616 102.269 47.8747 103.578 46.6007 103.666C45.3238 103.752 43.6377 102.5 41.7078 101.043C40.3583 100.027 38.8289 98.8783 37.8799 98.6273C37.6449 98.5682 37.0703 98.4559 36.899 98.8133C36.7278 99.1678 36.8816 99.9771 37.7551 100.668C38.6983 101.416 39.2207 102.243 39.3078 103.135C39.4122 104.195 38.8405 104.904 38.7738 104.981L38.6113 105.17L38.3762 105.249C37.4853 105.545 35.6976 105.598 32.8535 105.657C30.0907 105.716 24.3446 105.834 23.7293 106.738C23.6336 107.001 23.6191 107.208 23.7003 107.335C23.9006 107.648 24.658 107.846 25.1281 107.869C33.164 108.348 46.7168 108.478 48.9108 106.797C52.2743 104.222 60.7165 101.72 61.0735 101.613C67.6235 100.29 70.987 96.7339 72.4149 94.7284C72.8328 94.1435 73.0794 93.473 73.1491 92.7346C73.4915 89.0868 74.6088 76.6901 74.6088 70.31C74.6088 69.5628 74.6146 68.8361 74.6175 68.1272C74.6582 61.5848 74.6901 56.8588 71.1031 50.8599C70.3428 49.5839 69.3967 48.3197 68.2968 47.1027L69.6056 45.877C70.7868 47.1825 71.8025 48.5442 72.6238 49.9206C76.472 56.3567 76.4401 61.5553 76.3965 68.1391C76.3936 68.8421 76.3878 69.5657 76.3878 70.31C76.3878 76.7698 75.2618 89.2374 74.9194 92.9059C74.8207 93.9545 74.4521 94.9529 73.8543 95.7917C72.2727 98.0099 68.5638 101.947 61.4943 103.371C61.4943 103.371 53.084 105.867 49.9817 108.245C48.1446 109.651 41.7484 110.002 35.8688 110.002Z" fill="#171717"/>
</svg>
