<svg width="32" height="33" viewBox="0 0 32 33" fill="none" xmlns="http://www.w3.org/2000/svg">
<rect x="0.771484" y="0.0234375" width="31.2385" height="31.2385" rx="12" transform="rotate(1.41423 0.771484 0.0234375)" fill="#0D6EDE"/>
<path d="M8.49761 13.3773C9.06294 10.9672 10.9447 9.0854 13.3548 8.52007C15.0953 8.1118 16.9067 8.1118 18.6473 8.52007C21.0573 9.0854 22.9391 10.9672 23.5045 13.3773C23.9127 15.1178 23.9127 16.9292 23.5045 18.6697C22.9391 21.0798 21.0573 22.9616 18.6473 23.5269C16.9067 23.9352 15.0953 23.9352 13.3548 23.5269C10.9447 22.9616 9.06294 21.0798 8.49761 18.6697C8.08934 16.9292 8.08934 15.1178 8.49761 13.3773Z" fill="#0D6EDE" stroke="#FAFAFA" stroke-width="1.61"/>
<rect x="13.3965" y="13.4204" width="5.20642" height="5.20642" rx="2.60321" stroke="#FAFAFA" stroke-width="1.61"/>
<ellipse cx="19.4713" cy="11.6846" rx="0.867737" ry="0.867737" fill="#FAFAFA" stroke="#FAFAFA" stroke-width="1.61" stroke-linecap="round" stroke-linejoin="round"/>
</svg>
