<svg width="32" height="33" viewBox="0 0 32 33" fill="none" xmlns="http://www.w3.org/2000/svg">
<rect x="0.771484" y="0.0234375" width="31.2385" height="31.2385" rx="12" transform="rotate(1.41423 0.771484 0.0234375)" fill="#0D6EDE"/>
<path d="M13.2002 13.4003L18.4325 13.5295M13.1261 16.3984L16.4558 16.4806M16.8182 22.0558L17.7389 22.0785C20.2431 22.1403 22.466 20.3925 23.1169 17.8499C23.4401 16.5872 23.4728 15.2626 23.2123 13.9856L23.1435 13.6483C22.6378 11.1696 20.8385 9.20904 18.4991 8.58761L18.1704 8.50031C16.8668 8.15401 15.5049 8.12039 14.1857 8.40193L13.9911 8.44347C11.5393 8.96674 9.57788 10.9029 8.92809 13.4411C8.57279 14.829 8.53946 16.2979 8.82584 17.7016C9.35777 20.309 11.0575 22.5099 13.3843 23.5734L13.4857 23.6197C14.4926 24.0799 15.6713 23.5847 16.1152 22.5275C16.2374 22.2365 16.5159 22.0483 16.8182 22.0558Z" stroke="#FAFAFA" stroke-width="1.61" stroke-linecap="round"/>
</svg>
