<svg width="330" height="281" viewBox="0 0 330 281" fill="none" xmlns="http://www.w3.org/2000/svg">
<path d="M293.055 346.734C294.302 346.015 295.09 344.347 295.09 341.975V114.727L308.344 107.075V334.323C308.344 336.695 307.556 338.363 306.309 339.082L293.055 346.734Z" fill="#171717"/>
<path d="M181.873 137.454C178.85 134.233 176.187 130.078 174.48 125.999L178.222 122.456C181.49 130.583 188.255 138.036 189.181 134.263C190.321 129.611 177.296 121.76 179.676 112.08C180.771 107.618 184.298 107.136 188.637 109.937L190.045 104.198C190.045 104.198 190.053 104.198 190.061 104.205C190.068 104.213 190.076 104.205 190.076 104.205V104.221C190.076 104.221 190.091 104.221 190.099 104.236C190.107 104.244 191.262 105.231 194.499 108.032L193.091 113.732C195.44 116.112 197.927 119.479 199.695 122.984L196.03 126.619C196.03 126.619 196.007 126.642 195.991 126.649C193.925 122.877 191.094 118.859 189.165 117.191C187.941 116.143 186.609 115.538 186.257 116.954C185.377 120.543 193.321 126.351 195.471 133.506C197.231 139.352 194.667 147.02 186.311 141.326L184.842 147.295L180.396 143.461L181.873 137.447V137.454Z" fill="#171717"/>
<path d="M189.183 134.264C188.257 138.036 181.492 130.583 178.225 122.457L174.483 125.999C176.189 130.078 178.852 134.233 181.875 137.455L180.398 143.469L184.844 147.303L186.313 141.334C194.67 147.028 197.233 139.36 195.473 133.514C193.323 126.359 185.38 120.551 186.26 116.962C186.612 115.547 187.943 116.151 189.168 117.199C191.096 118.868 193.927 122.885 195.993 126.658C196.009 126.65 196.016 126.635 196.032 126.627L199.697 122.992C197.93 119.487 195.442 116.12 193.093 113.741L194.501 108.04C191.264 105.239 190.109 104.252 190.101 104.244C190.094 104.229 190.086 104.229 190.086 104.229V104.214C190.086 104.214 190.071 104.214 190.063 104.214C190.055 104.214 190.048 104.206 190.048 104.206L188.64 109.945C184.301 107.144 180.773 107.627 179.679 112.088C177.299 121.768 190.323 129.619 189.183 134.272V134.264ZM173.748 152.637C167.496 145.773 162.423 137.508 159.025 129.03C154.655 118.118 153.056 106.892 155.26 97.9235C159.668 79.9791 177.62 77.867 195.366 93.2021C204.38 100.992 211.604 111.789 215.943 122.87C219.188 131.134 220.825 139.567 220.427 147.02C220.305 149.262 220.007 151.42 219.509 153.448C219.188 154.741 218.797 155.95 218.346 157.083C217.389 159.47 216.134 161.475 214.642 163.105C213.265 164.613 211.696 165.806 209.951 166.671C208.276 167.505 206.439 168.048 204.48 168.278C202.529 168.515 200.447 168.446 198.274 168.064C196.032 167.673 193.69 166.962 191.295 165.898C188.685 164.75 186.015 163.22 183.321 161.269C182.02 160.335 180.712 159.294 179.403 158.169C177.436 156.463 175.546 154.611 173.748 152.637Z" fill="#FAFAFA"/>
<path d="M31.8043 -57.6843C30.3733 -58.5108 29.0725 -58.5873 28.0547 -58.0516L41.2091 -65.6503C42.2421 -66.2471 43.589 -66.1936 45.0582 -65.3365L302.461 83.2618C305.713 85.1443 308.345 90.1794 308.345 94.5182V107.076L295.091 114.728V102.17C295.091 97.8316 292.459 92.7965 289.207 90.914L31.8043 -57.6843Z" fill="#171717"/>
<path d="M295.092 341.973C295.092 344.345 294.304 346.013 293.056 346.732C292.023 347.329 290.676 347.276 289.207 346.426L31.8045 197.82C28.5523 195.945 25.9199 190.903 25.9199 186.571V-40.6841L295.092 114.725V341.973ZM195.366 93.1991C177.62 77.864 159.668 79.9761 155.26 97.9205C153.056 106.889 154.656 118.115 159.025 129.027C162.423 137.505 167.496 145.77 173.748 152.634C175.547 154.608 177.437 156.46 179.403 158.166C180.712 159.291 182.02 160.332 183.321 161.266C186.015 163.217 188.686 164.747 191.295 165.895C193.69 166.959 196.032 167.67 198.274 168.061C200.447 168.443 202.529 168.512 204.48 168.275C206.439 168.045 208.276 167.502 209.952 166.668C211.696 165.803 213.265 164.61 214.643 163.102C216.135 161.472 217.39 159.467 218.346 157.08C218.798 155.947 219.188 154.738 219.509 153.445C220.007 151.417 220.305 149.259 220.428 147.017C220.826 139.564 219.188 131.131 215.943 122.867C211.604 111.786 204.381 100.989 195.366 93.1991Z" fill="#0D6EDE"/>
<path d="M25.9199 -40.6808V-53.2381C25.9199 -55.6026 26.7081 -57.2784 27.9555 -57.9978L28.055 -58.0513C29.0727 -58.587 30.3736 -58.5105 31.8045 -57.684L289.207 90.9143C292.459 92.7968 295.092 97.8319 295.092 102.171V114.728L25.9199 -40.6808Z" fill="#171717"/>
<path d="M28.055 -58.0513C29.0727 -58.587 30.3736 -58.5105 31.8045 -57.684L289.207 90.9143C292.459 92.7968 295.092 97.8319 295.092 102.171V341.976C295.092 344.348 294.304 346.016 293.056 346.736C292.023 347.332 290.676 347.279 289.207 346.429L31.8045 197.823C28.5523 195.949 25.9199 190.906 25.9199 186.575V-53.2381C25.9199 -55.6026 26.7081 -57.2784 27.9555 -57.9978" stroke="#171717" stroke-width="2.29569" stroke-linecap="round" stroke-linejoin="round"/>
<path d="M25.9199 -40.6841L295.092 114.725L308.346 107.073" stroke="#171717" stroke-width="2.29569" stroke-linecap="round" stroke-linejoin="round"/>
<path d="M293.056 346.735L306.31 339.083C307.557 338.364 308.345 336.696 308.345 334.323V94.5182C308.345 90.1794 305.713 85.1443 302.461 83.2618L45.0581 -65.3365C43.5888 -66.1936 42.242 -66.2471 41.2089 -65.6503L27.9551 -57.9981" stroke="#171717" stroke-width="2.29569" stroke-linecap="round" stroke-linejoin="round"/>
<path d="M215.943 122.87C219.188 131.134 220.825 139.567 220.427 147.02C220.305 149.262 220.007 151.42 219.509 153.448C219.188 154.741 218.797 155.95 218.346 157.083C217.389 159.47 216.134 161.475 214.642 163.105C213.265 164.613 211.696 165.806 209.951 166.671C208.276 167.505 206.439 168.048 204.48 168.278C202.529 168.515 200.447 168.446 198.274 168.064C196.032 167.673 193.69 166.962 191.295 165.898C188.685 164.75 186.015 163.22 183.321 161.269C182.02 160.335 180.712 159.294 179.403 158.169C177.436 156.463 175.546 154.611 173.748 152.637C167.496 145.773 162.423 137.508 159.025 129.03C154.655 118.118 153.056 106.892 155.26 97.9235C159.668 79.9791 177.62 77.867 195.366 93.2021C204.38 100.992 211.604 111.789 215.943 122.87Z" stroke="#171717" stroke-width="2.29569" stroke-linecap="round" stroke-linejoin="round"/>
<path d="M148.526 74.9274L125.201 61.4595" stroke="#171717" stroke-width="2.29569" stroke-linecap="round" stroke-linejoin="round"/>
<path d="M143.951 83.3302L115.094 66.6714" stroke="#171717" stroke-width="2.29569" stroke-linecap="round" stroke-linejoin="round"/>
<path d="M141.762 93.1101L107.449 73.3062" stroke="#171717" stroke-width="2.29569" stroke-linecap="round" stroke-linejoin="round"/>
<path d="M141.624 104.083L96.8887 78.2563" stroke="#171717" stroke-width="2.29569" stroke-linecap="round" stroke-linejoin="round"/>
<path d="M143.545 116.236L91.1953 86.0171" stroke="#171717" stroke-width="2.29569" stroke-linecap="round" stroke-linejoin="round"/>
<path d="M147.798 129.742L82.5078 92.0474" stroke="#171717" stroke-width="2.29569" stroke-linecap="round" stroke-linejoin="round"/>
<path d="M326.472 232.109C326.218 244.274 319.861 256.439 307.421 266.873C303.683 270.02 299.416 272.997 294.601 275.764C291.538 277.538 288.328 279.186 285.012 280.706C278 283.895 270.481 286.535 262.603 288.584C255.38 290.485 247.84 291.9 240.173 292.829C232.802 293.716 225.283 294.181 217.764 294.181C210.245 294.181 202.748 293.737 195.356 292.85C187.71 291.942 180.17 290.527 172.947 288.647C165.069 286.599 157.529 283.98 150.517 280.791C147.137 279.228 143.843 277.559 140.717 275.764C135.986 273.04 131.783 270.125 128.108 267.063C115.266 256.355 108.846 243.852 108.846 231.37C108.846 215.276 119.469 199.204 140.717 186.933C183.232 162.412 252.106 162.412 294.622 186.933C316.186 199.394 326.81 215.783 326.493 232.13L326.472 232.109ZM255 255.953L266.701 249.174L253.226 241.402C271.579 227.505 254.662 216.036 239.645 215.403C221.313 214.621 202.896 227.505 194.827 222.837C191.617 221 193.814 218.55 197.024 216.691C202.135 213.734 213.329 210.651 223.53 209.025C223.53 209.003 223.509 208.982 223.509 208.982C223.509 208.982 223.488 208.94 223.446 208.898V208.856L223.383 208.792L216.856 198.169C207.458 199.33 197.996 202.203 190.962 205.476L178.1 198.042L166.547 204.737H166.505L166.463 204.779H166.42C166.42 204.779 166.399 204.8 166.378 204.822L179.325 212.298C170.201 219.627 169.356 227.695 179.41 233.503C201.248 246.111 227.417 223.703 237.892 229.743C246.404 234.664 224.755 243.725 203.445 244.654L209.802 255.531C220.552 254.94 232 252.279 241.419 248.16L255 255.996V255.953Z" fill="#FAFAFA"/>
<path d="M326.469 232.109V255.869C326.469 268.309 320.111 280.727 307.418 291.414V266.894C319.858 256.46 326.215 244.295 326.469 232.13V232.109Z" fill="#0D6EDE"/>
<path d="M307.425 266.893V291.414C303.686 294.539 299.42 297.538 294.604 300.305C291.542 302.058 288.332 303.727 285.016 305.226V280.727C288.332 279.206 291.542 277.559 294.604 275.785C299.42 272.997 303.686 270.04 307.425 266.893Z" fill="#0D6EDE"/>
<path d="M285.016 305.226C278.004 308.437 270.485 311.056 262.607 313.125V288.605C270.485 286.556 278.026 283.916 285.016 280.727V305.226Z" fill="#0D6EDE"/>
<path d="M266.702 249.196L255.001 255.976L241.42 248.14C232.001 252.259 220.553 254.92 209.803 255.511L203.446 244.635C224.756 243.705 246.405 234.645 237.893 229.724C227.417 223.662 201.249 246.092 179.41 233.483C169.357 227.675 170.202 219.607 179.326 212.278L166.379 204.802L166.421 204.781H166.463L166.506 204.76H166.548C167.182 204.337 169.716 202.901 178.101 198.043L190.963 205.478C198.018 202.183 207.458 199.332 216.857 198.17L223.383 208.794C223.383 208.794 223.383 208.836 223.426 208.857L223.51 209.005C223.51 209.005 223.51 209.005 223.531 209.047C213.309 210.673 202.115 213.757 197.025 216.714C193.815 218.572 191.618 221.022 194.828 222.86C202.896 227.527 221.313 214.644 239.646 215.425C254.642 216.059 271.559 227.548 253.227 241.424L266.702 249.196Z" fill="#171717"/>
<path d="M172.942 313.167C165.064 311.118 157.524 308.521 150.512 305.331V280.811C157.524 284 165.064 286.619 172.942 288.668V313.167Z" fill="#0D6EDE"/>
<path d="M150.514 280.81V305.331C147.135 303.789 143.84 302.12 140.715 300.304C135.984 297.58 131.78 294.644 128.105 291.581V267.061C131.78 270.123 135.984 273.038 140.715 275.763C143.84 277.558 147.135 279.247 150.514 280.789V280.81Z" fill="#0D6EDE"/>
<path d="M128.108 267.062V291.582C115.266 280.874 108.846 268.371 108.846 255.868V231.369C108.846 243.851 115.266 256.354 128.108 267.062Z" fill="#0D6EDE"/>
<path d="M326.472 232.109C326.218 244.274 319.861 256.418 307.421 266.873C303.683 270.02 299.416 272.997 294.601 275.764C291.538 277.538 288.328 279.186 285.012 280.706C278.021 283.895 270.481 286.535 262.603 288.584C255.38 290.464 247.84 291.9 240.173 292.829C232.802 293.737 225.283 294.181 217.764 294.181C210.245 294.181 202.748 293.737 195.356 292.85C187.71 291.942 180.17 290.527 172.947 288.647C165.069 286.599 157.529 284.001 150.517 280.791C147.116 279.249 143.843 277.559 140.717 275.764C135.986 273.04 131.783 270.125 128.108 267.063C115.266 256.355 108.846 243.852 108.846 231.37C108.846 215.276 119.469 199.204 140.717 186.933C183.232 162.412 252.106 162.412 294.622 186.933C316.186 199.394 326.81 215.783 326.493 232.13L326.472 232.109Z" stroke="#171717" stroke-width="6.3361" stroke-linecap="round" stroke-linejoin="round"/>
<path d="M285.012 305.227C278 308.437 270.481 311.056 262.603 313.126C255.38 315.006 247.84 316.442 240.173 317.371C232.802 318.258 225.283 318.723 217.764 318.723C210.245 318.723 202.748 318.279 195.356 317.392C187.71 316.463 180.17 315.069 172.947 313.189C165.069 311.141 157.529 308.543 150.517 305.354C147.137 303.812 143.843 302.144 140.717 300.327C135.986 297.603 131.783 294.667 128.108 291.605C115.266 280.897 108.846 268.394 108.846 255.89V231.391" stroke="#171717" stroke-width="6.3361" stroke-linecap="round" stroke-linejoin="round"/>
<path d="M326.475 231.369V255.868C326.475 268.308 320.118 280.748 307.425 291.413C303.686 294.539 299.42 297.538 294.604 300.305C291.542 302.058 288.332 303.726 285.016 305.226" stroke="#171717" stroke-width="6.3361" stroke-linecap="round" stroke-linejoin="round"/>
<path d="M307.418 266.893V291.414" stroke="#171717" stroke-width="6.3361" stroke-linecap="round" stroke-linejoin="round"/>
<path d="M285.016 280.706V305.226" stroke="#171717" stroke-width="6.3361" stroke-linecap="round" stroke-linejoin="round"/>
<path d="M150.512 280.811V305.331" stroke="#171717" stroke-width="6.3361" stroke-linecap="round" stroke-linejoin="round"/>
<path d="M128.105 267.061V291.581" stroke="#171717" stroke-width="6.3361" stroke-linecap="round" stroke-linejoin="round"/>
<path d="M90.7734 173.978C90.8117 174.973 90.2377 175.929 89.2582 176.327C82.593 179.059 75.4917 181.056 68.1607 182.265C68.0306 182.288 67.8929 182.296 67.7628 182.296C67.4337 182.296 67.1199 182.227 66.8291 182.105C66.6302 182.962 66.7144 183.888 67.0894 184.638C67.0894 185.181 67.9082 186 68.7193 186C76.6089 184.913 83.6797 180.834 91.5616 180.291C93.7349 180.291 95.9158 178.386 94.5537 176.212C93.6278 174.759 92.2503 174.139 90.7734 173.986V173.978Z" fill="#0D6EDE"/>
<path d="M120.387 168.321C121.321 167.05 122.384 166.124 123.502 165.359C123.494 165.145 123.486 164.931 123.471 164.724C124.007 163.783 124.489 162.911 124.94 162.076C125.078 161.816 125.224 161.541 125.346 161.273C122.775 163.439 120.249 165.436 117.785 167.272C117.365 167.586 117.02 167.708 116.768 167.663C116.783 167.785 116.814 167.915 116.852 168.045C117.395 170.218 119.568 169.407 120.387 168.321Z" fill="#0D6EDE"/>
<path d="M120.384 168.321C119.565 169.407 117.392 170.226 116.848 168.045C116.81 167.915 116.787 167.785 116.764 167.663C116.259 167.578 116.106 166.844 116.443 165.619C116.956 163.775 118.387 161.525 119.642 160.6C122.106 158.763 124.631 156.75 127.21 154.57C127.256 154.08 127.286 153.582 127.294 153.085C127.386 148.333 131.771 116.186 99.6077 98.1039C93.4475 96.1526 85.9559 97.0785 78.9693 99.8486C71.3016 102.894 58.9736 110.393 48.8878 119.607C41.84 126.042 35.8864 133.319 33.3611 140.505C40.5467 148.448 45.1611 159.628 44.6102 169.56C44.4265 172.866 43.6919 175.736 42.5134 178.115C40.3478 182.477 36.6747 185.171 32.1674 185.821C27.5148 204.34 39.9804 220.884 53.3644 232.385C64.5522 241.996 76.3827 248.095 79.3901 248.875C79.4819 248.898 79.5737 248.921 79.6503 248.929C85.3054 249.962 90.2947 249.189 94.6872 247.093C94.8632 247.008 95.0469 246.917 95.2229 246.832C109.954 239.326 117.805 216.713 121.317 197.529C123.269 186.877 124.011 176.111 123.521 165.367C122.404 166.132 121.34 167.058 120.407 168.328L120.384 168.321ZM87.8689 196.175C86.3614 197.055 84.8463 196.42 84.479 194.767C84.1193 193.106 85.0452 191.048 86.5527 190.168C88.0602 189.288 89.5754 189.923 89.9351 191.576C90.2948 193.236 89.3688 195.295 87.8613 196.175H87.8689ZM91.5574 180.289C83.6678 180.832 76.597 184.911 68.7151 185.997C67.8963 185.997 67.0851 185.178 67.0851 184.635C66.7102 183.885 66.6259 182.959 66.8249 182.102C66.075 181.789 65.4934 181.107 65.348 180.243C65.1338 178.911 66.0368 177.649 67.3683 177.434C74.3396 176.287 81.0736 174.396 87.4021 171.802C88.6494 171.29 90.0805 171.887 90.5932 173.134C90.708 173.409 90.7615 173.692 90.7692 173.976C92.2461 174.136 93.6236 174.748 94.5495 176.202C95.9116 178.376 93.7307 180.281 91.5574 180.281V180.289ZM120.43 177.197C120.307 178.842 119.121 180.61 117.79 181.146C116.458 181.689 115.479 180.786 115.601 179.149C115.724 177.511 116.91 175.736 118.241 175.2C119.573 174.664 120.552 175.56 120.43 177.197Z" fill="#FAFAFA"/>
<path d="M127.211 154.572C126.997 156.898 126.362 159.163 125.352 161.267C122.781 163.433 120.255 165.43 117.791 167.267C116.544 168.2 115.939 167.458 116.452 165.614C116.965 163.77 118.396 161.52 119.651 160.594C122.115 158.757 124.64 156.745 127.219 154.564L127.211 154.572Z" fill="#FAFAFA"/>
<path d="M118.244 175.202C119.576 174.666 120.555 175.561 120.433 177.199C120.31 178.844 119.124 180.612 117.793 181.147C116.461 181.691 115.482 180.788 115.604 179.15C115.727 177.513 116.913 175.737 118.244 175.202Z" fill="#171717"/>
<path d="M95.2104 253.841V253.963C95.2104 260.651 90.7949 267.324 81.9641 272.428C64.2948 282.628 35.6596 282.628 17.9903 272.428C9.15951 267.331 4.74414 260.643 4.74414 253.963V243.082C4.74414 249.77 9.15951 256.45 17.9903 261.546C35.6596 271.747 64.2948 271.747 81.9641 261.546C89.0272 257.468 93.2666 252.379 94.6823 247.084C94.8583 246.999 95.042 246.908 95.218 246.823V253.833L95.2104 253.841Z" fill="#171717"/>
<path d="M94.6745 247.093C93.2588 252.389 89.0194 257.477 81.9562 261.556C64.2869 271.756 35.6518 271.756 17.9825 261.556C9.15169 256.46 4.73633 249.771 4.73633 243.091C4.73633 236.411 9.15169 229.723 17.9825 224.626C19.2375 223.899 20.5461 223.234 21.9005 222.614C21.0435 225.59 19.8956 228.514 18.457 231.33C18.2733 231.689 18.0897 232.049 17.8984 232.401C17.2556 233.641 16.8041 234.972 16.5668 236.342C15.9011 240.16 16.8424 244.116 19.2758 247.139C20.9058 249.167 23.1709 251.065 26.0711 252.741C39.3556 260.408 60.897 260.408 74.1815 252.741C76.2323 251.554 77.9694 250.261 79.3851 248.884C79.4769 248.907 79.5687 248.93 79.6452 248.937C85.3003 249.963 90.2897 249.198 94.6821 247.101L94.6745 247.093Z" fill="#FAFAFA"/>
<path d="M90.5891 173.136C91.1018 174.383 90.5049 175.814 89.2499 176.327C82.5847 179.059 75.4834 181.064 68.1524 182.265C68.0223 182.288 67.8846 182.296 67.7545 182.296C66.576 182.296 65.5429 181.446 65.344 180.245C65.1297 178.913 66.0327 177.651 67.3642 177.436C74.3355 176.289 81.0695 174.398 87.398 171.804C88.6454 171.292 90.0764 171.889 90.5891 173.136Z" fill="#FAFAFA"/>
<path d="M89.9417 191.577C90.3014 193.238 89.3754 195.296 87.8678 196.176C86.3603 197.056 84.8452 196.421 84.4779 194.768C84.1182 193.108 85.0441 191.049 86.5517 190.169C88.0592 189.289 89.5744 189.925 89.934 191.577H89.9417Z" fill="#171717"/>
<path d="M71.7416 254.005C72.5757 253.607 73.3946 253.186 74.1751 252.734C76.2259 251.548 77.963 250.255 79.3787 248.878C76.3713 248.097 64.5407 241.998 53.353 232.387C50.8583 232.686 48.3025 232.762 45.7695 232.624C52.7867 241.409 61.7323 248.763 71.7416 254.005Z" fill="#171717"/>
<path d="M45.7764 232.623C40.0218 232.317 34.4202 230.894 30.0124 228.353C25.7654 225.905 23.3166 222.806 22.6662 219.607C22.4443 220.609 22.1917 221.612 21.9009 222.607C21.0439 225.583 19.896 228.506 18.4574 231.322C18.2737 231.682 18.0901 232.042 17.8988 232.394C17.256 233.633 16.8045 234.965 16.5673 236.335C15.9015 240.153 16.8428 244.109 19.2762 247.132C20.9062 249.16 23.1713 251.058 26.0715 252.733C38.5755 259.949 58.3874 260.37 71.7484 254.004C61.7468 248.762 52.7936 241.4 45.7764 232.623Z" fill="#0D6EDE"/>
<path d="M31.6118 199.223C30.9001 194.907 30.9996 190.422 32.1551 185.816C29.2701 186.237 26.0331 185.816 22.6355 184.461C20.4928 183.979 18.2048 182.854 15.9015 181.064C15.6642 180.88 15.4346 180.689 15.2051 180.498C15.6336 181.27 16.0774 182.036 16.5366 182.801C23.286 193.981 25.4133 207.181 22.6661 219.608C23.3166 222.807 25.7577 225.906 30.0124 228.355C34.4125 230.895 40.0217 232.318 45.7763 232.624C39.9682 225.362 35.4839 217.121 32.8208 208.298C31.8566 205.283 31.52 202.253 31.6195 199.223H31.6118Z" fill="#FAFAFA"/>
<path d="M53.3489 232.387C43.2937 223.748 33.759 212.262 31.6086 199.222C31.5015 202.252 31.8458 205.283 32.81 208.298C35.473 217.121 39.965 225.354 45.7655 232.624C48.2984 232.762 50.8543 232.685 53.3489 232.387Z" fill="#0D6EDE"/>
<path d="M33.3537 140.499C40.5392 148.442 45.1537 159.622 44.6027 169.554C44.419 172.86 43.6844 175.729 42.5059 178.109L28.7087 183.979C32.0834 182.471 34.5475 178.767 35.328 173.181C36.9274 161.711 30.8207 146.636 21.6838 139.519C17.0924 135.946 12.6158 135.05 9.0957 136.504L20.8267 131.507C21.6379 131.821 22.4491 132.181 23.2756 132.602C26.9563 134.461 30.3769 137.208 33.3613 140.499H33.3537Z" fill="#171717"/>
<path d="M28.707 183.977L42.5043 178.108C40.3386 182.47 36.6655 185.163 32.1583 185.814C29.2733 186.235 26.0363 185.814 22.6387 184.459C24.789 184.941 26.8092 184.788 28.5846 184.031L28.7147 183.977H28.707Z" fill="#171717"/>
<path d="M21.6844 139.519C30.8213 146.636 36.9279 161.711 35.3286 173.181C34.548 178.767 32.084 182.471 28.7093 183.979L28.5791 184.032C26.8115 184.782 24.7912 184.943 22.6332 184.461C20.4906 183.979 18.2026 182.854 15.8992 181.063C15.662 180.879 15.4324 180.688 15.2028 180.497C6.45618 173.166 0.694017 158.573 2.2551 147.393C2.9132 142.657 4.78802 139.267 7.40512 137.438C7.91018 137.078 8.44583 136.78 9.0121 136.543L9.10393 136.504C12.6317 135.05 17.1083 135.938 21.692 139.519H21.6844ZM28.7016 168.919C29.7347 161.481 25.7785 151.709 19.8555 147.095C13.9326 142.481 8.29274 144.761 7.25202 152.199C6.2113 159.637 10.1753 169.409 16.0982 174.023C22.0211 178.637 27.6609 176.357 28.7016 168.919Z" fill="#FAFAFA"/>
<path d="M70.9588 88.3336C53.4272 85.1273 36.4313 91.9071 24.2947 104.327C17.2239 111.566 11.7984 120.725 8.88281 130.941C12.3187 129.701 16.4204 129.824 20.8205 131.515C21.6316 131.829 22.4428 132.188 23.2693 132.609C26.9501 134.469 30.3706 137.216 33.3551 140.506C35.8803 133.321 41.8339 126.051 48.8817 119.608C58.9752 110.395 71.2955 102.896 78.9632 99.8501C85.9498 97.08 93.4491 96.1541 99.6016 98.1054C92.1712 93.9273 82.7893 90.4991 70.9511 88.3336H70.9588Z" fill="#171717"/>
<path d="M19.8554 147.096C25.7783 151.71 29.7422 161.482 28.7014 168.92C27.6684 176.358 22.0286 178.646 16.098 174.024C10.1751 169.409 6.21113 159.638 7.25185 152.2C8.28492 144.762 13.9248 142.474 19.8554 147.096ZM22.0209 164.558C22.5183 161.007 20.6205 156.332 17.7892 154.12C14.9578 151.917 12.2565 153.011 11.7668 156.561C11.2694 160.12 13.1672 164.788 15.9985 166.999C18.8299 169.211 21.5312 168.116 22.0209 164.558Z" fill="#171717"/>
<path d="M17.7813 154.12C20.6127 156.331 22.5028 160.999 22.0131 164.557C21.5157 168.116 18.822 169.21 15.9907 166.999C13.1593 164.795 11.2615 160.119 11.7589 156.561C12.2563 153.003 14.9499 151.916 17.7813 154.12Z" fill="#0D6EDE"/>
<path d="M20.8185 131.507L8.99565 136.534C8.42937 136.771 7.89373 137.07 7.38867 137.429C7.77129 135.226 8.26865 133.052 8.87319 130.933C12.3091 129.693 16.4108 129.815 20.8109 131.507H20.8185Z" fill="#171717"/>
<path d="M123.467 164.725C124.026 175.683 123.284 186.664 121.294 197.53C117.789 216.722 109.938 239.342 95.1995 246.833C95.0235 246.925 94.8474 247.009 94.6637 247.094C90.2789 249.206 85.282 249.955 79.6269 248.93C79.5504 248.915 79.4662 248.899 79.3667 248.876C76.3593 248.096 64.5287 241.997 53.341 232.386C39.957 220.885 27.4913 204.341 32.144 185.822" stroke="#171717" stroke-width="2.29569" stroke-linecap="round" stroke-linejoin="round"/>
<path d="M8.88281 130.941C12.3187 129.702 16.4204 129.824 20.8205 131.515C21.6316 131.829 22.4428 132.189 23.2693 132.61C26.9501 134.469 30.3706 137.216 33.3551 140.507C40.5406 148.45 45.1551 159.63 44.6041 169.562C44.4204 172.868 43.6858 175.737 42.5073 178.117C40.3417 182.479 36.6686 185.173 32.1613 185.823C29.2764 186.244 26.0394 185.823 22.6417 184.469" stroke="#171717" stroke-width="2.29569" stroke-linecap="round" stroke-linejoin="round"/>
<path d="M99.6075 98.1054C92.177 93.9273 82.7952 90.4991 70.957 88.3336C53.4254 85.1273 36.4295 91.9071 24.2929 104.327C17.2221 111.566 11.8042 120.725 8.881 130.941C8.27646 133.061 7.77145 135.234 7.39648 137.438" stroke="#171717" stroke-width="2.29569" stroke-linecap="round" stroke-linejoin="round"/>
<path d="M99.5684 207.883C99.8515 210.117 100.892 210.683 102.216 210.683C103.54 210.683 105.201 210.094 106.593 210.094C108.101 210.094 108.95 211.671 111.567 211.671C112.44 211.671 113.366 211.127 114.169 210.469C115.424 209.444 115.623 207.592 114.613 206.329C114.399 206.069 114.177 205.786 113.947 205.48C113.236 204.546 112.853 203.398 112.876 202.228C113.037 195.448 114.353 188.438 114.644 182.477C114.789 179.493 115.791 176.616 117.483 174.159C120.192 170.211 122.028 167.234 123.474 164.717C124.01 163.775 124.492 162.903 124.944 162.069C125.081 161.809 125.219 161.533 125.349 161.265C126.359 159.161 126.987 156.888 127.209 154.57C127.255 154.08 127.285 153.583 127.293 153.085C127.385 148.333 131.77 116.186 99.6067 98.104" stroke="#171717" stroke-width="2.29569" stroke-linecap="round" stroke-linejoin="round"/>
<path d="M28.5794 184.04C26.8117 184.79 24.7915 184.951 22.6335 184.468C20.4908 183.986 18.2028 182.862 15.8995 181.071C15.6623 180.887 15.4327 180.696 15.2031 180.505C6.44878 173.181 0.694265 158.581 2.25535 147.401C2.91345 142.664 4.78826 139.274 7.40537 137.446C7.91043 137.086 8.44607 136.788 9.01235 136.55" stroke="#171717" stroke-width="2.29569" stroke-linecap="round" stroke-linejoin="round"/>
<path d="M9.0957 136.504C12.6234 135.05 17.1 135.938 21.6838 139.519C30.8207 146.636 36.9274 161.711 35.328 173.181C34.5475 178.767 32.0834 182.471 28.7087 183.979" stroke="#171717" stroke-width="2.29569" stroke-linecap="round" stroke-linejoin="round"/>
<path d="M28.7014 168.92C27.6684 176.358 22.0286 178.646 16.098 174.024C10.1751 169.409 6.21113 159.638 7.25185 152.2C8.28492 144.762 13.9248 142.474 19.8554 147.096C25.7783 151.71 29.7422 161.482 28.7014 168.92Z" stroke="#171717" stroke-width="2.29569" stroke-linecap="round" stroke-linejoin="round"/>
<path d="M22.0131 164.557C21.5157 168.116 18.822 169.21 15.9907 166.999C13.1593 164.795 11.2615 160.119 11.7589 156.561C12.2563 153.003 14.9499 151.916 17.7813 154.12C20.6127 156.331 22.5028 160.999 22.0131 164.557Z" stroke="#171717" stroke-width="2.29569" stroke-linecap="round" stroke-linejoin="round"/>
<path d="M9.00586 136.542L20.8211 131.507" stroke="#171717" stroke-width="2.29569" stroke-linecap="round" stroke-linejoin="round"/>
<path d="M28.5801 184.038L42.5074 178.108" stroke="#171717" stroke-width="2.29569" stroke-linecap="round" stroke-linejoin="round"/>
<path d="M79.3757 248.878C77.96 250.255 76.223 251.548 74.1721 252.734C60.8876 260.402 39.3539 260.402 26.0617 252.734C23.1691 251.059 20.8964 249.161 19.2664 247.133C16.833 244.118 15.8917 240.162 16.5575 236.336C16.8023 234.966 17.2462 233.627 17.889 232.395C18.0803 232.035 18.2639 231.683 18.4476 231.324C19.8862 228.5 21.0341 225.584 21.8911 222.608C22.1819 221.613 22.4344 220.61 22.6564 219.608C25.3883 207.181 23.2762 193.973 16.5268 182.801C16.0677 182.036 15.6238 181.27 15.1953 180.498" stroke="#171717" stroke-width="2.29569" stroke-linecap="round" stroke-linejoin="round"/>
<path d="M21.9005 222.607C20.5461 223.227 19.2375 223.9 17.9825 224.619C9.15169 229.716 4.73633 236.404 4.73633 243.084C4.73633 249.765 9.15169 256.453 17.9825 261.549C35.6518 271.749 64.2869 271.749 81.9562 261.549C89.0194 257.47 93.2588 252.382 94.6745 247.086" stroke="#171717" stroke-width="2.29569" stroke-linecap="round" stroke-linejoin="round"/>
<path d="M95.2109 246.833V253.843" stroke="#171717" stroke-width="2.29569" stroke-linecap="round" stroke-linejoin="round"/>
<path d="M4.73633 243.082V253.963C4.73633 260.643 9.15169 267.331 17.9825 272.428C35.6518 282.628 64.2869 282.628 81.9562 272.428C90.7871 267.324 95.2025 260.643 95.2025 253.963V253.841" stroke="#171717" stroke-width="2.29569" stroke-linecap="round" stroke-linejoin="round"/>
<path d="M67.7603 182.296C66.5819 182.296 65.5488 181.446 65.3498 180.245C65.1355 178.913 66.0385 177.651 67.37 177.436C74.3414 176.289 81.0754 174.398 87.4039 171.804C88.6512 171.292 90.0822 171.889 90.595 173.136C91.1077 174.383 90.5108 175.814 89.2558 176.327C82.5906 179.059 75.4892 181.064 68.1583 182.265C68.0282 182.288 67.8904 182.296 67.7603 182.296Z" stroke="#171717" stroke-width="2.29569" stroke-linecap="round" stroke-linejoin="round"/>
<path d="M127.208 154.571C124.629 156.752 122.104 158.764 119.64 160.601C118.393 161.534 116.962 163.776 116.441 165.621C115.929 167.465 116.526 168.207 117.781 167.273C120.245 165.437 122.77 163.432 125.341 161.274" stroke="#171717" stroke-width="2.29569" stroke-linecap="round" stroke-linejoin="round"/>
<path d="M90.6777 174.75C94.3279 174.222 96.7154 174.98 99.1795 177.903" stroke="#171717" stroke-width="2.29569" stroke-linecap="round" stroke-linejoin="round"/>
<path d="M33.3535 140.499C35.8788 133.314 41.8324 126.044 48.8802 119.601C58.966 110.387 71.294 102.888 78.9617 99.8427C85.9483 97.0726 93.4476 96.1467 99.6001 98.098" stroke="#171717" stroke-width="2.29569" stroke-linecap="round" stroke-linejoin="round"/>
<path d="M53.3538 232.386C45.181 233.358 36.3502 232.011 30.0064 228.353C25.7593 225.905 23.3106 222.806 22.6602 219.607" stroke="#171717" stroke-width="2.29569" stroke-linecap="round" stroke-linejoin="round"/>
</svg>
