<svg width="32" height="33" viewBox="0 0 32 33" fill="none" xmlns="http://www.w3.org/2000/svg">
<rect x="0.771484" y="0.0234375" width="31.2385" height="31.2385" rx="12" transform="rotate(1.41423 0.771484 0.0234375)" fill="#0D6EDE"/>
<g clip-path="url(#clip0_2219_12198)">
<path d="M23.1776 12.4747C24.028 12.8999 24.028 13.5941 23.1776 14.028L21.312 14.9391L16.3833 17.3514C16.1316 17.4469 15.8366 17.4469 15.5849 17.3514L10.6909 14.9391L8.82529 14.028C7.9749 13.5941 7.9749 12.8999 8.82529 12.4747L15.611 9.15997C15.8626 9.06452 16.1577 9.06452 16.4093 9.15997L23.1776 12.4747V12.4747Z" stroke="#FAFAFA" stroke-width="1.61" stroke-miterlimit="10" stroke-linecap="round"/>
<path d="M21.3123 14.9392V19.3733C21.2949 19.6944 21.1908 19.9981 21.026 20.2671C20.8524 20.5361 20.6181 20.7617 20.3404 20.9179L16.3922 22.8703C16.2621 22.9311 16.1319 22.9571 15.9931 22.9571C15.8542 22.9571 15.7241 22.9311 15.5939 22.8703L11.6457 20.9179C11.368 20.7617 11.1251 20.5361 10.9602 20.2671C10.7866 19.9981 10.6912 19.6857 10.6738 19.3733V14.9392" stroke="#FAFAFA" stroke-width="1.61" stroke-miterlimit="10" stroke-linecap="round"/>
</g>
<defs>
<clipPath id="clip0_2219_12198">
<rect x="5.58789" y="5.61084" width="20.8257" height="20.8257" rx="10.4128" fill="white"/>
</clipPath>
</defs>
</svg>
