<svg width="32" height="33" viewBox="0 0 32 33" fill="none" xmlns="http://www.w3.org/2000/svg">
<rect x="0.771484" y="0.0234375" width="31.2385" height="31.2385" rx="12" transform="rotate(1.41423 0.771484 0.0234375)" fill="#0D6EDE"/>
<g clip-path="url(#clip0_2219_12182)">
<path d="M8.56412 13.1687L11.1934 9.79323C11.3582 9.56762 11.5838 9.39409 11.8355 9.26393C12.0871 9.14244 12.3561 9.073 12.6338 9.073H19.3674C19.6451 9.073 19.9228 9.13377 20.1658 9.26393C20.4261 9.38541 20.6343 9.56762 20.8166 9.79323L23.4458 13.1687C23.6975 13.4811 23.8189 13.8803 23.8016 14.2794C23.7755 14.6786 23.6194 15.0604 23.3417 15.3554L16.5907 22.6965C16.5213 22.7833 16.4258 22.8527 16.3217 22.896C16.2262 22.9394 16.1134 22.9655 16.0006 22.9655C15.8878 22.9655 15.775 22.9394 15.6796 22.896C15.5754 22.8527 15.48 22.7833 15.4106 22.6965L8.65089 15.3641C8.37321 15.0777 8.20834 14.6873 8.19099 14.2794C8.17364 13.8716 8.30379 13.4724 8.55544 13.1601L8.56412 13.1687Z" stroke="#FAFAFA" stroke-width="1.61" stroke-miterlimit="10"/>
<path d="M8.27734 14.3054H23.7317" stroke="#FAFAFA" stroke-width="1.61" stroke-miterlimit="10"/>
<path d="M16.8688 9.08154L18.5869 14.3053L16.0098 22.948" stroke="#FAFAFA" stroke-width="1.61" stroke-miterlimit="10"/>
</g>
<defs>
<clipPath id="clip0_2219_12182">
<rect x="5.58789" y="5.61084" width="20.8257" height="20.8257" rx="10.4128" fill="white"/>
</clipPath>
</defs>
</svg>
