<svg width="32" height="33" viewBox="0 0 32 33" fill="none" xmlns="http://www.w3.org/2000/svg">
<rect x="0.771484" y="0.0234375" width="31.2385" height="31.2385" rx="12" transform="rotate(1.41423 0.771484 0.0234375)" fill="#0D6EDE"/>
<path d="M8.49761 13.3775C9.06294 10.9674 10.9447 9.08564 13.3548 8.52032C15.0953 8.11204 16.9067 8.11204 18.6473 8.52032C21.0573 9.08564 22.9391 10.9674 23.5045 13.3775C23.9127 15.1181 23.9127 16.9294 23.5045 18.67C22.9391 21.08 21.0573 22.9619 18.6473 23.5272C16.9067 23.9354 15.0953 23.9354 13.3548 23.5272C10.9447 22.9619 9.06294 21.08 8.49761 18.67C8.08934 16.9294 8.08934 15.118 8.49761 13.3775Z" stroke="#FAFAFA"/>
<path d="M18.6035 15.5239C17.5517 15.8745 16.1494 14.4722 16.5 13.4205M16.9321 12.9884L14.6663 15.2542C13.6812 16.2393 12.9824 17.4735 12.6445 18.825L12.535 19.263C12.5009 19.3994 12.6245 19.523 12.761 19.4889L13.1989 19.3794C14.5504 19.0415 15.7847 18.3427 16.7697 17.3577L19.0356 15.0918C19.3145 14.8129 19.4712 14.4346 19.4712 14.0401C19.4712 13.2186 18.8053 12.5527 17.9838 12.5527C17.5894 12.5527 17.211 12.7094 16.9321 12.9884Z" stroke="#FAFAFA"/>
</svg>
