<svg width="32" height="33" viewBox="0 0 32 33" fill="none" xmlns="http://www.w3.org/2000/svg">
<rect x="0.771484" y="0.0234375" width="31.2385" height="31.2385" rx="12" transform="rotate(1.41423 0.771484 0.0234375)" fill="#0D6EDE"/>
<path d="M8.16414 13.0948C8.80566 10.7593 10.7138 8.9884 13.0902 8.52304L13.4861 8.44552C15.276 8.095 17.121 8.14055 18.8914 8.57897L19.283 8.67593C21.6335 9.25799 23.452 11.1209 23.9775 13.4852C24.3789 15.2914 24.3326 17.1683 23.8425 18.9525C23.201 21.288 21.2928 23.0589 18.9164 23.5243L18.5206 23.6018C16.7306 23.9523 14.8857 23.9067 13.1152 23.4683L12.7236 23.3714C10.3731 22.7893 8.55466 20.9264 8.02916 18.5621C7.62772 16.7559 7.67406 14.879 8.16414 13.0948Z" stroke="#FAFAFA" stroke-width="1.61"/>
<path fill-rule="evenodd" clip-rule="evenodd" d="M16.1104 11.6861C16.4421 11.6943 16.7047 11.9542 16.697 12.2666L16.6856 12.7295L16.7521 12.7311C17.869 12.7587 18.6647 13.6936 18.6394 14.7162C18.6317 15.0286 18.3566 15.2753 18.0249 15.2671C17.6932 15.2589 17.4306 14.999 17.4383 14.6865C17.4505 14.1942 17.0815 13.8714 16.7242 13.8626L16.6577 13.861L16.6137 15.642L17.4177 15.9398C18.1483 16.2104 18.5853 16.9081 18.5674 17.6351C18.5445 18.5605 17.7823 19.3781 16.76 19.3528L16.5222 19.347L16.5108 19.8099C16.5031 20.1223 16.228 20.369 15.8963 20.3608C15.5646 20.3526 15.302 20.0927 15.3097 19.7802L15.3211 19.3173L15.2542 19.3157C14.1373 19.2881 13.3416 18.3532 13.3669 17.3307C13.3746 17.0182 13.6497 16.7716 13.9814 16.7797C14.3131 16.7879 14.5757 17.0479 14.568 17.3603C14.5558 17.8527 14.9248 18.1754 15.2821 18.1842L15.3491 18.1858L15.393 16.4049L14.5886 16.107C13.858 15.8364 13.421 15.1387 13.4389 14.4117C13.4618 13.4863 14.224 12.6687 15.2463 12.694L15.4845 12.6998L15.4959 12.237C15.5036 11.9245 15.7788 11.6779 16.1104 11.6861ZM15.4566 13.8313L15.2184 13.8255C14.9557 13.819 14.6498 14.0462 14.6401 14.4414C14.6326 14.7436 14.8139 14.9754 15.0253 15.0538L15.4227 15.2009L15.4566 13.8313ZM16.584 16.846L16.5502 18.2155L16.7879 18.2214C17.0506 18.2278 17.3565 18.0006 17.3663 17.6055C17.3737 17.3033 17.1924 17.0714 16.981 16.9931L16.584 16.846Z" fill="#FAFAFA"/>
</svg>
