<svg width="149" height="45" viewBox="0 0 149 45" fill="none" xmlns="http://www.w3.org/2000/svg">
<path d="M32.9159 20.9591C32.884 17.4128 35.8204 15.6875 35.9547 15.6072C34.2917 13.1832 31.7141 12.852 30.8083 12.8256C28.6434 12.5979 26.5435 14.1207 25.4407 14.1207C24.3159 14.1207 22.6177 12.8476 20.7874 12.885C18.4321 12.9213 16.2287 14.2846 15.0203 16.4016C12.5263 20.7181 14.3863 27.0613 16.7757 30.5504C17.971 32.2603 19.3676 34.1671 21.1957 34.1C22.9842 34.0273 23.6522 32.9612 25.8105 32.9612C27.949 32.9612 28.5763 34.1 30.4407 34.0571C32.3601 34.0273 33.5686 32.3406 34.722 30.6164C36.1033 28.659 36.658 26.729 36.68 26.63C36.6359 26.6146 32.9534 25.2084 32.9159 20.9591ZM29.394 10.5304C30.356 9.32776 31.0141 7.69161 30.8314 6.03125C29.4392 6.09287 27.698 6.99402 26.6954 8.17024C25.8083 9.20672 25.0159 10.9056 25.2206 12.5032C26.7845 12.6199 28.3903 11.7143 29.394 10.5304Z" fill="#FAFAFA"/>
<path d="M58.8203 33.8547H56.3208L54.9517 29.5536H50.1927L48.8885 33.8547H46.4551L51.1711 19.2119H54.0833L58.8203 33.8547ZM54.5389 27.7491L53.3008 23.9256C53.1698 23.535 52.9233 22.6151 52.5623 21.1671H52.5182C52.373 21.7899 52.1407 22.7097 51.8227 23.9256L50.6054 27.7491H54.5389ZM70.9246 28.4456C70.9246 30.2413 70.437 31.6607 69.4608 32.7027C68.5869 33.6302 67.5006 34.0935 66.2052 34.0935C64.8064 34.0935 63.8004 33.595 63.1896 32.596V38.136H60.8431V26.7666C60.8431 25.6387 60.8134 24.4823 60.7562 23.2962H62.8198L62.9508 24.9698H62.9948C63.7773 23.7088 64.9649 23.0783 66.5585 23.0783C67.8044 23.0783 68.8445 23.5702 69.6765 24.5549C70.5075 25.5419 70.9246 26.8381 70.9246 28.4456ZM68.5341 28.5314C68.5341 27.5038 68.303 26.6565 67.8385 25.9886C67.3311 25.2943 66.6499 24.9467 65.7958 24.9467C65.2169 24.9467 64.6908 25.1403 64.2209 25.5221C63.7498 25.9072 63.4416 26.4101 63.2975 27.0328C63.2331 27.2657 63.1965 27.5054 63.1885 27.7469V29.5085C63.1885 30.2754 63.424 30.9235 63.8951 31.4538C64.3661 31.982 64.9781 32.2472 65.7309 32.2472C66.6147 32.2472 67.3025 31.905 67.7945 31.2261C68.2876 30.545 68.5341 29.6471 68.5341 28.5314ZM83.0718 28.4456C83.0718 30.2413 82.5843 31.6607 81.6081 32.7027C80.7331 33.6302 79.6479 34.0935 78.3514 34.0935C76.9525 34.0935 75.9466 33.595 75.3358 32.596V38.136H72.9893V26.7666C72.9893 25.6387 72.9596 24.4823 72.9024 23.2962H74.966L75.0969 24.9698H75.141C75.9224 23.7088 77.1099 23.0783 78.7047 23.0783C79.9495 23.0783 80.9895 23.5702 81.8238 24.5549C82.6536 25.5419 83.0718 26.8381 83.0718 28.4456ZM80.6803 28.5314C80.6803 27.5038 80.448 26.6565 79.9836 25.9886C79.4762 25.2943 78.7971 24.9467 77.9431 24.9467C77.3642 24.9467 76.8381 25.1403 76.3659 25.5221C75.8949 25.9072 75.5878 26.4101 75.4436 27.0328C75.3721 27.3233 75.3336 27.5599 75.3336 27.7469V29.5085C75.3336 30.2754 75.5702 30.9235 76.039 31.4538C76.5101 31.9809 77.122 32.2472 77.877 32.2472C78.7619 32.2472 79.4498 31.905 79.9407 31.2261C80.4337 30.545 80.6803 29.6471 80.6803 28.5314ZM96.6532 29.7473C96.6532 30.9939 96.2173 32.0073 95.3512 32.7896C94.3981 33.6434 93.0674 34.0715 91.3615 34.0715C89.7855 34.0715 88.522 33.7678 87.5689 33.1593L88.1115 31.2041C89.1405 31.8136 90.2708 32.1173 91.5013 32.1173C92.3862 32.1173 93.074 31.9171 93.5649 31.5199C94.0569 31.1216 94.3056 30.589 94.3056 29.9244C94.3056 29.3292 94.0998 28.8307 93.6959 28.4247C93.2898 28.0198 92.6184 27.6424 91.6752 27.2958C89.1108 26.3396 87.8275 24.9412 87.8275 23.1014C87.8275 21.8999 88.2809 20.9162 89.1856 20.1471C90.0903 19.3791 91.29 18.9951 92.7824 18.9951C94.1152 18.9951 95.2257 19.2273 96.1073 19.6905L95.5185 21.6028C94.6886 21.1539 93.752 20.9294 92.7042 20.9294C91.8766 20.9294 91.2272 21.133 90.7628 21.5379C90.3721 21.8999 90.174 22.3411 90.174 22.8649C90.174 23.4425 90.3996 23.9223 90.8486 24.2986C91.2382 24.6452 91.9492 25.0226 92.9772 25.4275C94.2385 25.9358 95.1652 26.5278 95.7584 27.2078C96.356 27.8878 96.6532 28.7361 96.6532 29.7473ZM104.431 25.0567H101.845V30.183C101.845 31.4869 102.3 32.1371 103.214 32.1371C103.633 32.1371 103.981 32.1019 104.256 32.0282L104.321 33.8096C103.859 33.9823 103.25 34.0693 102.496 34.0693C101.57 34.0693 100.845 33.7865 100.323 33.2209C99.802 32.6554 99.54 31.708 99.54 30.3744V25.0523H97.9992V23.2918H99.54V21.3586L101.845 20.6632V23.2918H104.431V25.0567ZM116.078 28.4885C116.078 30.1115 115.613 31.4439 114.686 32.4859C113.717 33.5587 112.427 34.0935 110.819 34.0935C109.267 34.0935 108.033 33.5796 107.113 32.553C106.193 31.5243 105.733 30.2281 105.733 28.6646C105.733 27.0284 106.209 25.6883 107.156 24.6463C108.106 23.6032 109.385 23.0816 110.993 23.0816C112.542 23.0816 113.787 23.5966 114.729 24.6243C115.63 25.6211 116.078 26.9085 116.078 28.4885ZM113.645 28.5424C113.645 27.5753 113.436 26.7456 113.017 26.0514C112.525 25.2129 111.82 24.7937 110.908 24.7937C109.968 24.7937 109.247 25.2129 108.756 26.0514C108.336 26.7456 108.127 27.5896 108.127 28.5865C108.127 29.5547 108.336 30.3865 108.756 31.0786C109.264 31.9171 109.971 32.3363 110.888 32.3363C111.785 32.3363 112.489 31.9083 112.997 31.0577C113.428 30.3469 113.645 29.5118 113.645 28.5424ZM123.708 25.3593C123.464 25.3152 123.216 25.2935 122.968 25.2943C122.143 25.2943 121.505 25.6046 121.056 26.2296C120.666 26.7798 120.47 27.4751 120.47 28.3147V33.8547H118.124V26.6213C118.126 25.5129 118.103 24.4047 118.055 23.2973H120.099L120.185 25.3175H120.25C120.499 24.6232 120.888 24.0631 121.423 23.6439C121.913 23.2776 122.508 23.0792 123.119 23.0783C123.336 23.0783 123.532 23.0937 123.706 23.1213L123.708 25.3593ZM134.202 28.0759C134.208 28.4325 134.179 28.7889 134.116 29.1399H127.077C127.103 30.183 127.444 30.9818 128.098 31.532C128.691 32.0227 129.459 32.2692 130.401 32.2692C131.443 32.2692 132.394 32.1041 133.249 31.7707L133.617 33.3981C132.617 33.8338 131.437 34.0506 130.076 34.0506C128.438 34.0506 127.153 33.5686 126.217 32.607C125.284 31.6442 124.816 30.3502 124.816 28.7295C124.816 27.1385 125.251 25.8126 126.122 24.7552C127.033 23.6263 128.264 23.0618 129.814 23.0618C131.336 23.0618 132.489 23.6263 133.271 24.7552C133.891 25.6497 134.202 26.7589 134.202 28.0759ZM131.965 27.4674C131.981 26.771 131.827 26.1713 131.509 25.6641C131.103 25.0105 130.478 24.6848 129.64 24.6848C128.873 24.6848 128.248 25.0028 127.772 25.6409C127.382 26.1482 127.15 26.7578 127.078 27.4652L131.965 27.4674Z" fill="#FAFAFA"/>
<path d="M49.2672 13.5254H47.1172V7.54974H49.2099C50.9756 7.54974 52.1937 8.76776 52.1937 10.5498C52.1937 12.3074 51.0002 13.5254 49.2672 13.5254ZM49.1118 8.51434H48.1636V12.5608H49.1691C50.3626 12.5608 51.0901 11.7924 51.0901 10.5498C51.0901 9.28276 50.3462 8.51434 49.1118 8.51434ZM53.5199 8.67784C53.1765 8.67784 52.9068 8.40807 52.9068 8.07291C52.9068 7.73775 53.1765 7.47617 53.5199 7.47617C53.8469 7.47617 54.1166 7.73775 54.1166 8.07291C54.1166 8.40807 53.8469 8.67784 53.5199 8.67784ZM53.0212 13.5254V9.48712H54.0185V13.5254H53.0212ZM54.7383 12.2992H55.6865C55.6947 12.6507 55.9563 12.8714 56.4141 12.8714C56.88 12.8714 57.1334 12.6834 57.1334 12.3891C57.1334 12.1848 57.0272 12.0376 56.6675 11.9559L55.9399 11.7842C55.2124 11.6207 54.8609 11.2774 54.8609 10.6316C54.8609 9.83863 55.5312 9.3645 56.4631 9.3645C57.3705 9.3645 57.9836 9.88768 57.9918 10.6724H57.0435C57.0353 10.3291 56.8065 10.1084 56.4222 10.1084C56.0299 10.1084 55.801 10.2882 55.801 10.5907C55.801 10.8196 55.9808 10.9667 56.3242 11.0485L57.0517 11.2201C57.7302 11.3755 58.0735 11.6861 58.0735 12.3074C58.0735 13.1248 57.3787 13.6317 56.3814 13.6317C55.3759 13.6317 54.7383 13.0921 54.7383 12.2992ZM58.8329 15.3974V9.48712H59.7566L59.822 10.1002C60.0672 9.63427 60.5986 9.3645 61.2117 9.3645C62.348 9.3645 63.1 10.1901 63.1 11.4572C63.1 12.7161 62.4134 13.6317 61.2117 13.6317C60.6068 13.6317 60.0836 13.3946 59.8302 12.9859V15.3974H58.8329ZM59.8383 11.5063C59.8383 12.2338 60.288 12.7325 60.9746 12.7325C61.6776 12.7325 62.0945 12.2256 62.0945 11.5063C62.0945 10.7869 61.6776 10.2719 60.9746 10.2719C60.288 10.2719 59.8383 10.7787 59.8383 11.5063ZM63.657 11.4981C63.657 10.2392 64.5644 9.37268 65.8152 9.37268C67.0659 9.37268 67.9733 10.2392 67.9733 11.4981C67.9733 12.757 67.0659 13.6235 65.8152 13.6235C64.5644 13.6235 63.657 12.757 63.657 11.4981ZM64.6544 11.4981C64.6544 12.2338 65.1285 12.7325 65.8152 12.7325C66.5018 12.7325 66.9759 12.2338 66.9759 11.4981C66.9759 10.7624 66.5018 10.2637 65.8152 10.2637C65.1285 10.2637 64.6544 10.7624 64.6544 11.4981ZM69.7611 13.5254H68.7638V9.48712H69.6875L69.7692 10.0103C70.0227 9.60157 70.5131 9.3645 71.0608 9.3645C72.0745 9.3645 72.5977 9.99395 72.5977 11.0403V13.5254H71.6004V11.2774C71.6004 10.5989 71.2652 10.2719 70.7502 10.2719C70.1371 10.2719 69.7611 10.697 69.7611 11.3509V13.5254ZM75.2533 7.79498L74.4604 9.00482H73.7165L74.3296 7.79498H75.2533ZM73.5775 13.5254V9.48712H74.5748V13.5254H73.5775ZM76.7497 13.5254L75.1474 9.48712H76.2101L76.9132 11.3428C77.0848 11.8251 77.2238 12.242 77.2729 12.4627C77.3301 12.2093 77.4772 11.7842 77.6489 11.3428L78.3846 9.48712H79.4146L77.7306 13.5254H76.7497ZM81.5949 13.6317C80.3933 13.6317 79.5513 12.757 79.5513 11.5063C79.5513 10.2392 80.3769 9.3645 81.5622 9.3645C82.7721 9.3645 83.5405 10.1738 83.5405 11.4327V11.7351L80.4995 11.7433C80.5731 12.4545 80.9491 12.8142 81.6113 12.8142C82.159 12.8142 82.5187 12.6017 82.6331 12.2175H83.5568C83.3852 13.1003 82.6495 13.6317 81.5949 13.6317ZM81.5704 10.182C80.9818 10.182 80.6222 10.5008 80.5241 11.1057H82.5514C82.5514 10.5498 82.1672 10.182 81.5704 10.182ZM85.3441 13.5254H84.355V7.44347H85.3441V13.5254ZM89.5909 13.5254H88.5936V9.48712H89.5174L89.5991 10.0103C89.8525 9.60157 90.343 9.3645 90.8907 9.3645C91.9044 9.3645 92.4275 9.99395 92.4275 11.0403V13.5254H91.4302V11.2774C91.4302 10.5989 91.0951 10.2719 90.5801 10.2719C89.967 10.2719 89.5909 10.697 89.5909 11.3509V13.5254ZM94.6091 13.6317C93.7507 13.6317 93.2276 13.133 93.2276 12.3728C93.2276 11.6289 93.7671 11.1629 94.7235 11.0894L95.9334 10.9994V10.9095C95.9334 10.3618 95.6064 10.1411 95.0995 10.1411C94.511 10.1411 94.184 10.3863 94.184 10.8114H93.3338C93.3338 9.93673 94.0532 9.3645 95.1486 9.3645C96.2358 9.3645 96.9061 9.95308 96.9061 11.073V13.5254H96.0315L95.9579 12.9286C95.7862 13.3455 95.2385 13.6317 94.6091 13.6317ZM94.9361 12.8796C95.5491 12.8796 95.9415 12.5117 95.9415 11.8905V11.6779L95.0995 11.7433C94.4783 11.8005 94.2412 12.0049 94.2412 12.3319C94.2412 12.6998 94.4864 12.8796 94.9361 12.8796Z" fill="#A8B0B3"/>
</svg>
