<svg width="120" height="40" viewBox="0 0 120 40" fill="none" xmlns="http://www.w3.org/2000/svg">
<rect x="0.5" y="0.5" width="119" height="39" rx="5.07929" stroke="#DEE1E4"/>
<path fill-rule="evenodd" clip-rule="evenodd" d="M22.3194 8.75973C20.9358 9.10756 19.7996 10.0517 19.1855 11.364C18.8146 12.1565 18.7938 12.2851 18.7455 14.0791L18.6949 15.9624L18.0529 15.7405C17.1579 15.4312 15.7894 15.442 14.9257 15.765C11.6183 17.0026 10.9519 21.3983 13.7375 23.6044C14.666 24.3398 15.3764 24.5157 17.4155 24.5157C18.4103 24.5157 19.2243 24.5649 19.2243 24.6251C19.2243 24.6852 19.1327 24.9808 19.0209 25.2817C18.8999 25.6073 18.8137 26.2356 18.8083 26.8326C18.8003 27.7045 18.85 27.945 19.1869 28.6651C19.6792 29.7171 20.4008 30.4386 21.4568 30.9351C22.1746 31.2726 22.4258 31.3258 23.2892 31.3234C25.1242 31.3183 26.5816 30.4185 27.38 28.7978C27.7853 27.9753 27.7925 27.93 27.8343 25.9795C27.8726 24.1893 27.8968 24.0058 28.0845 24.0857C28.9927 24.4726 29.3556 24.5368 30.3559 24.4875C31.1979 24.4459 31.5565 24.3644 32.0802 24.0957C33.0128 23.6172 33.6285 23.0181 34.1208 22.1103C34.5275 21.3604 34.5459 21.2694 34.5459 20.0131C34.5459 18.7567 34.5275 18.6658 34.1208 17.9158C33.6311 17.0128 33.0194 16.4154 32.0802 15.923C31.4503 15.5927 31.323 15.5743 29.3866 15.5325C28.2688 15.5085 27.3541 15.4637 27.3541 15.4331C27.3541 15.4024 27.4727 15.0275 27.6176 14.5996C28.3677 12.3843 27.161 9.82011 24.9777 8.99049C24.1885 8.69056 23.0034 8.58762 22.3194 8.75973ZM24.6502 11.4256C25.7711 12.2806 25.8663 13.7757 24.8634 14.7786C24.6075 15.0346 24.2329 15.2805 24.0313 15.3251C23.8295 15.3697 23.5942 15.4278 23.5081 15.4543C23.3982 15.4882 23.3518 15.8376 23.3518 16.6322V17.7617H26.9524C30.438 17.7617 30.5709 17.7707 31.1101 18.0431C32.7515 18.8723 32.7515 21.1539 31.1101 21.983C30.4367 22.3232 29.8394 22.3367 29.1578 22.0273C28.5337 21.7437 28.1356 21.2583 27.946 20.5494L27.8025 20.0131H26.7096H25.6169L25.5787 23.734C25.5453 26.9947 25.5135 27.5045 25.3218 27.855C24.7383 28.922 23.2788 29.345 22.225 28.7526C21.1927 28.1725 20.8015 26.8429 21.3477 25.772C21.6434 25.1925 22.1026 24.8424 22.8213 24.6489L23.3518 24.5061V23.3852V22.2644H19.7016C16.3087 22.2644 16.015 22.2468 15.5354 22.0146C13.8731 21.2099 13.8731 18.8162 15.5354 18.0115C16.4978 17.5456 17.4919 17.7603 18.222 18.5918C18.4392 18.8392 18.6304 19.2281 18.6765 19.516L18.756 20.0131H19.9282H21.1004L21.101 16.2921C21.1017 12.6059 21.1044 12.5666 21.3962 12.0846C21.5582 11.8169 21.9096 11.4622 22.1773 11.2962C22.8661 10.869 23.9981 10.9283 24.6502 11.4256ZM42.1129 17.8868V24.3907H42.8048C43.6571 24.3907 44.2727 24.1461 44.5734 23.6882C44.7669 23.3936 44.8117 22.9887 44.8646 21.0533L44.9271 18.7664L45.336 18.3579C45.6878 18.0064 45.8315 17.9493 46.3655 17.9493C46.8994 17.9493 47.0431 18.0064 47.395 18.3579L47.8038 18.7667L47.8438 21.5922L47.8839 24.4179L48.7445 24.3693C49.7048 24.315 50.1272 24.0498 50.4465 23.3003C50.6273 22.8761 50.694 19.0517 50.5373 18.1034C50.4014 17.2806 49.7609 16.3921 48.992 15.9598C48.3647 15.6069 48.2051 15.5729 47.1785 15.5729C46.1889 15.5729 45.981 15.6134 45.4587 15.9081L44.8646 16.2432L44.8641 14.4072C44.8637 12.7862 44.8341 12.5226 44.6112 12.1571C44.2954 11.6391 43.6976 11.3829 42.8048 11.3829H42.1129V17.8868ZM63.6258 13.8655V15.6249L62.6564 15.6615L61.6871 15.698L61.6511 16.8549L61.6152 18.0119H62.6204H63.6258V21.2013V24.3907H65.0016H66.3774V21.2013V18.0119H67.3155H68.2535V16.8237V15.6354H67.3155H66.3774V14.5683C66.3774 12.7291 65.9972 12.2258 64.5528 12.1529L63.6258 12.106V13.8655ZM54.9486 15.708C53.7142 16.1013 52.7235 16.957 52.1498 18.1253C51.8482 18.7392 51.8062 18.9703 51.8062 20.0131C51.8062 21.0631 51.8472 21.2847 52.1587 21.9191C52.6078 22.8337 53.4257 23.6516 54.3403 24.1007C55.0012 24.4253 55.1721 24.4532 56.4965 24.4532C57.8273 24.4532 57.9863 24.4269 58.6228 24.1011C59.5736 23.6146 60.412 22.7552 60.8281 21.8404C61.2638 20.8826 61.3167 19.4555 60.9549 18.4126C60.6282 17.4709 59.6051 16.3999 58.5955 15.9428C57.6197 15.501 55.9383 15.3927 54.9486 15.708ZM80.1356 15.6199C78.9215 16.0192 77.8256 17.0579 77.3749 18.2367C77.0012 19.2142 76.9952 20.8034 77.3616 21.7488C78.0571 23.5437 79.4275 24.5157 81.2625 24.5157C82.0449 24.5157 82.6478 24.3504 83.1566 23.9963C83.5886 23.6957 83.6377 23.704 83.6377 24.078C83.6377 24.37 83.6791 24.3907 84.2671 24.3907C85.1001 24.3907 85.7018 24.1235 86.0108 23.6165C86.2465 23.2301 86.2634 22.9913 86.2637 20.0381C86.2642 16.6001 86.2276 16.3864 85.5627 15.9506C85.3698 15.8243 84.8815 15.701 84.4307 15.6648C83.6412 15.6014 83.6377 15.6027 83.6377 15.931C83.6377 16.1124 83.6167 16.2608 83.5909 16.2608C83.5651 16.2608 83.2747 16.1102 82.9456 15.9262C82.472 15.6616 82.1488 15.584 81.3977 15.5545C80.8755 15.534 80.3076 15.5634 80.1356 15.6199ZM92.142 15.6199C91.9695 15.6763 91.6487 15.8156 91.4289 15.9291C90.9216 16.1915 90.892 16.1889 90.892 15.8813C90.892 15.6392 90.8277 15.6287 89.5474 15.6625L88.2029 15.698L88.1705 21.8579L88.138 28.0178H88.8958C89.7935 28.0178 90.3076 27.7866 90.6469 27.23C90.8526 26.8927 90.8911 26.5969 90.8915 25.3496C90.8917 24.5355 90.9342 23.8912 90.9858 23.9178C91.7735 24.3232 92.2084 24.4453 93.0183 24.4881C94.7609 24.5802 96.1369 23.762 96.9222 22.1666C97.3081 21.383 97.3333 21.2505 97.3333 20.0157C97.3333 18.8552 97.2944 18.6167 97.0038 17.9969C96.2721 16.4363 95.0714 15.6202 93.4109 15.5548C92.8853 15.5341 92.3144 15.5634 92.142 15.6199ZM102.773 15.6199C102.601 15.6763 102.28 15.8156 102.06 15.9291C101.554 16.191 101.523 16.1885 101.523 15.8856C101.523 15.6506 101.44 15.6354 100.148 15.6354H98.7717V21.8266V28.0178H99.4929C100.377 28.0178 100.98 27.7224 101.295 27.1345C101.478 26.7936 101.523 26.4249 101.523 25.2889C101.523 24.5082 101.565 23.8912 101.617 23.9178C102.568 24.4073 102.759 24.4531 103.837 24.4513C105.187 24.4491 105.853 24.1947 106.683 23.3656C108.858 21.1904 108.256 17.1665 105.564 15.8836C104.917 15.5752 103.359 15.4279 102.773 15.6199ZM69.004 16.8202V18.0049L70.6887 18.0396L72.3736 18.0744L70.4958 20.4458L68.6181 22.8172L68.6548 23.5727L68.6913 24.3281L71.8181 24.361C74.6541 24.3909 74.9848 24.3725 75.3731 24.1638C75.9292 23.8647 76.2758 23.2235 76.2306 22.5771L76.1957 22.0768L74.4259 22.0142L72.6563 21.9517L74.5272 19.5953C76.5866 17.0018 76.6251 16.9077 75.9082 16.2238C75.3394 15.6811 75.0308 15.6354 71.9351 15.6354H69.004V16.8202ZM57.467 18.2614C58.0694 18.6287 58.3716 19.2049 58.3721 19.988C58.373 21.1809 57.774 21.8978 56.7024 21.9866C55.3683 22.0973 54.5527 21.3277 54.571 19.9755C54.582 19.1648 54.8015 18.7651 55.4947 18.2933C56.0277 17.9304 56.9011 17.9163 57.467 18.2614ZM83.1125 18.5539C83.5685 19.0101 83.5751 19.0308 83.5751 20.0131C83.5751 20.9953 83.5685 21.016 83.1125 21.4722C82.704 21.8805 82.5647 21.9403 81.9243 21.9815C81.3537 22.0181 81.1117 21.9733 80.7911 21.7721C80.1974 21.3995 79.8864 20.8164 79.8861 20.0756C79.8858 19.295 80.192 18.668 80.761 18.2847C81.1272 18.0379 81.3173 17.998 81.9243 18.0405C82.5619 18.0852 82.7059 18.1473 83.1125 18.5539ZM93.6456 18.24C94.1648 18.5118 94.6455 19.3653 94.6415 20.0083C94.6344 21.1586 93.8017 22.0146 92.6908 22.0137C91.8898 22.0131 91.3231 21.664 91.0126 20.9798C90.6948 20.2797 90.7056 19.6854 91.0483 19.017C91.3793 18.3716 91.9724 18.0119 92.7056 18.0119C92.9829 18.0119 93.4059 18.1145 93.6456 18.24ZM104.281 18.2937C105.411 19.0552 105.504 20.6679 104.473 21.6311C104.012 22.0617 102.882 22.1351 102.304 21.7721C101.44 21.2298 101.13 19.9849 101.617 19.015C102.101 18.0515 103.4 17.6999 104.281 18.2937Z" fill="#EF4924"/>
</svg>
