<svg width="24" height="25" viewBox="0 0 24 25" fill="none" xmlns="http://www.w3.org/2000/svg">
<g clip-path="url(#clip0_2237_7267)">
<path d="M15.416 12.7412C15.6247 12.6021 15.75 12.368 15.75 12.1172C15.75 11.8664 15.6247 11.6322 15.416 11.4931L10.916 8.49315C10.6859 8.33972 10.39 8.32542 10.1461 8.45593C9.90224 8.58645 9.75 8.84059 9.75 9.11719V15.1172C9.75 15.3938 9.90224 15.6479 10.1461 15.7784C10.39 15.909 10.6859 15.8947 10.916 15.7412L15.416 12.7412Z" stroke="#FAFAFA" stroke-width="1.5" stroke-linecap="round" stroke-linejoin="round"/>
<path d="M2.25 12.1188C2.25 14.9126 2.54062 16.5438 2.75625 17.3876C2.81571 17.6165 2.92813 17.8283 3.08447 18.0058C3.2408 18.1833 3.43666 18.3215 3.65625 18.4094C6.79687 19.6094 12 19.5813 12 19.5813C12 19.5813 17.2031 19.6094 20.3437 18.4094C20.5633 18.3215 20.7592 18.1833 20.9155 18.0058C21.0719 17.8283 21.1843 17.6165 21.2437 17.3876C21.4594 16.5438 21.75 14.9126 21.75 12.1188C21.75 9.32506 21.4594 7.69381 21.2437 6.85006C21.1843 6.62112 21.0719 6.40936 20.9155 6.23186C20.7592 6.05436 20.5633 5.91608 20.3437 5.82818C17.2031 4.62818 12 4.65631 12 4.65631C12 4.65631 6.79687 4.62818 3.65625 5.82818C3.43666 5.91608 3.2408 6.05436 3.08447 6.23186C2.92813 6.40936 2.81571 6.62112 2.75625 6.85006C2.54062 7.69381 2.25 9.32506 2.25 12.1188Z" stroke="#FAFAFA" stroke-width="2.1" stroke-linecap="round" stroke-linejoin="round"/>
</g>
<defs>
<clipPath id="clip0_2237_7267">
<rect width="24" height="24" fill="white" transform="translate(0 0.119141)"/>
</clipPath>
</defs>
</svg>
