<svg width="24" height="25" viewBox="0 0 24 25" fill="none" xmlns="http://www.w3.org/2000/svg">
<path d="M4.30225 6.52384L10.0825 10.6535C11.2295 11.473 12.7705 11.473 13.9175 10.6535L19.6977 6.52384M2.88539 15.1747C2.37154 13.1053 2.37154 10.9416 2.88539 8.87219C3.55805 6.16327 5.70602 4.06878 8.43056 3.46506L8.88443 3.36449C10.9366 2.90975 13.0634 2.90976 15.1156 3.36449L15.5694 3.46506C18.294 4.06878 20.442 6.16328 21.1146 8.87219C21.6285 10.9416 21.6285 13.1053 21.1146 15.1747C20.442 17.8836 18.294 19.9781 15.5694 20.5818L15.1156 20.6824C13.0634 21.1371 10.9366 21.1371 8.88443 20.6824L8.43055 20.5818C5.70601 19.9781 3.55805 17.8836 2.88539 15.1747Z" stroke="#0D6EDE" stroke-width="1.5" stroke-linecap="round"/>
</svg>
