<svg width="24" height="25" viewBox="0 0 24 25" fill="none" xmlns="http://www.w3.org/2000/svg">
<path d="M6.48721 22.6187V8.44948H1.7776V22.6187H6.48771H6.48721ZM4.13339 6.51526C5.77539 6.51526 6.79764 5.42723 6.79764 4.06751C6.7669 2.6768 5.77539 1.61914 4.16462 1.61914C2.55274 1.61914 1.5 2.6768 1.5 4.06738C1.5 5.42711 2.52188 6.51513 4.10253 6.51513H4.13302L4.13339 6.51526ZM9.09405 22.6187H13.8033V14.7068C13.8033 14.2839 13.834 13.8599 13.9584 13.5578C14.2987 12.7113 15.0736 11.8351 16.375 11.8351C18.0787 11.8351 18.7606 13.1344 18.7606 15.0394V22.6187H23.4698V14.4945C23.4698 10.1425 21.1467 8.1173 18.0482 8.1173C15.5079 8.1173 14.3922 9.53714 13.7723 10.5042H13.8037V8.44997H9.0943C9.15577 9.77921 9.09393 22.6191 9.09393 22.6191L9.09405 22.6187Z" fill="#FAFAFA"/>
</svg>
