<svg width="24" height="25" viewBox="0 0 24 25" fill="none" xmlns="http://www.w3.org/2000/svg">
<path d="M15.8754 20.0304L16.0559 19.9055C16.6209 19.5148 16.9035 19.3194 17.1562 19.11C18.5294 17.9718 19.4518 16.3854 19.7588 14.6335C19.8153 14.3111 19.8446 13.97 19.9033 13.2879L19.9337 12.9352C20.0309 11.8061 20.0212 10.6705 19.9048 9.5432L19.8687 9.19436C19.665 7.22167 18.4539 5.49268 16.6644 4.6196C13.7221 3.18409 10.2779 3.18409 7.33559 4.6196C5.54608 5.49268 4.33504 7.22167 4.13127 9.19436L4.09524 9.5432C3.9788 10.6705 3.96911 11.8061 4.0663 12.9352L4.09666 13.2879C4.15537 13.97 4.18473 14.3111 4.24123 14.6335C4.54821 16.3854 5.47055 17.9718 6.8438 19.11C7.09652 19.3194 7.3791 19.5148 7.94406 19.9055L8.12461 20.0304C8.89273 20.5615 9.27682 20.8271 9.66175 21.0117C11.1393 21.7201 12.8607 21.7201 14.3382 21.0117C14.7232 20.8271 15.1073 20.5615 15.8754 20.0304Z" stroke="#0D6EDE" stroke-width="1.5"/>
<path d="M9.25 12.293L11.25 14.293L14.75 10.543" stroke="#0D6EDE" stroke-width="1.5" stroke-linecap="round" stroke-linejoin="round"/>
</svg>
