<svg width="24" height="25" viewBox="0 0 24 25" fill="none" xmlns="http://www.w3.org/2000/svg">
<path d="M12 15.8672C14.0711 15.8672 15.75 14.1883 15.75 12.1172C15.75 10.0461 14.0711 8.36719 12 8.36719C9.92893 8.36719 8.25 10.0461 8.25 12.1172C8.25 14.1883 9.92893 15.8672 12 15.8672Z" stroke="#FAFAFA" stroke-width="2.1" stroke-miterlimit="10"/>
<path d="M16.125 3.49219H7.875C5.38972 3.49219 3.375 5.50691 3.375 7.99219V16.2422C3.375 18.7275 5.38972 20.7422 7.875 20.7422H16.125C18.6103 20.7422 20.625 18.7275 20.625 16.2422V7.99219C20.625 5.50691 18.6103 3.49219 16.125 3.49219Z" stroke="#FAFAFA" stroke-width="2.1" stroke-linecap="round" stroke-linejoin="round"/>
<path d="M16.875 8.36719C17.4963 8.36719 18 7.86351 18 7.24219C18 6.62087 17.4963 6.11719 16.875 6.11719C16.2537 6.11719 15.75 6.62087 15.75 7.24219C15.75 7.86351 16.2537 8.36719 16.875 8.36719Z" fill="#FAFAFA"/>
</svg>
