<svg width="24" height="25" viewBox="0 0 24 25" fill="none" xmlns="http://www.w3.org/2000/svg">
<path d="M8.69628 9.08137H14.7279M8.69628 12.5375H12.5346M13.1107 18.9502H14.1721C17.0589 18.9502 19.5701 16.8733 20.2476 13.9255C20.5841 12.4617 20.5841 10.9347 20.2476 9.47085L20.1588 9.08432C19.5057 6.24302 17.377 4.03548 14.6641 3.38608L14.283 3.29485C12.7712 2.93297 11.2013 2.93297 9.68953 3.29485L9.46648 3.34824C6.65677 4.02082 4.45212 6.30715 3.77571 9.24986C3.40585 10.859 3.40923 12.5521 3.77909 14.1612C4.46607 17.1499 6.48688 19.6372 9.19777 20.7962L9.31593 20.8467C10.489 21.3483 11.8329 20.7443 12.3142 19.5136C12.4467 19.1749 12.7622 18.9502 13.1107 18.9502Z" stroke="#0D6EDE" stroke-width="1.5" stroke-linecap="round"/>
</svg>
