<svg width="24" height="25" viewBox="0 0 24 25" fill="none" xmlns="http://www.w3.org/2000/svg">
<path d="M15.1653 21.4265C16.0469 21.5818 16.9531 21.5818 17.8347 21.4265C19.2516 21.1768 20.3929 20.2255 20.786 18.9666L20.8694 18.6995C20.956 18.4219 21 18.1348 21 17.8464C21 16.5742 19.8623 15.543 18.4589 15.543H14.5411C13.1377 15.543 12 16.5742 12 17.8464C12 18.1348 12.044 18.4219 12.1306 18.6995L12.214 18.9666C12.6071 20.2255 13.7484 21.1768 15.1653 21.4265ZM15.1653 21.4265C9.04195 20.2919 4.25108 15.501 3.1165 9.37765M3.1165 9.37765C2.96117 8.49611 2.96117 7.58982 3.1165 6.70829C3.36618 5.29139 4.31744 4.1501 5.57641 3.75699L5.84345 3.6736C6.12103 3.58693 6.40813 3.54297 6.69661 3.54297C7.96874 3.54297 9.00001 4.68064 9 6.08403L9 10.0019C9.00001 11.4053 7.96874 12.543 6.69661 12.543C6.40813 12.543 6.12103 12.499 5.84345 12.4123L5.57641 12.329C4.31744 11.9358 3.36618 10.7946 3.1165 9.37765Z" stroke="#0D6EDE" stroke-width="1.5"/>
</svg>
