<svg width="24" height="25" viewBox="0 0 24 25" fill="none" xmlns="http://www.w3.org/2000/svg">
<path d="M9.08393 20.9106C6.72938 20.2889 4.92802 18.3894 4.43096 16.0041L4.33598 15.5483C3.88801 13.3986 3.88801 11.1795 4.33598 9.02978L4.43096 8.574C4.92801 6.18875 6.72938 4.28926 9.08394 3.66756C10.9953 3.1629 13.0047 3.1629 14.9161 3.66756C17.2706 4.28926 19.072 6.18875 19.569 8.574L19.664 9.02978C20.112 11.1795 20.112 13.3986 19.664 15.5483L19.569 16.0041C19.072 18.3894 17.2706 20.2889 14.9161 20.9106C13.0047 21.4152 10.9953 21.4152 9.08393 20.9106Z" stroke="#0D6EDE" stroke-width="1.5"/>
<path d="M12 7.28906L12 9.28906" stroke="#0D6EDE" stroke-width="1.5" stroke-linecap="round"/>
</svg>
