<svg width="24" height="25" viewBox="0 0 24 25" fill="none" xmlns="http://www.w3.org/2000/svg">
<path d="M12.8768 16.7112C13.0292 16.2964 13.6375 16.2964 13.7899 16.7112L14.2066 17.8452C14.2554 17.978 14.3637 18.0824 14.5013 18.1295L15.6774 18.5313C16.1075 18.6783 16.1075 19.2648 15.6774 19.4118L14.5013 19.8136C14.3637 19.8606 14.2554 19.9651 14.2066 20.0978L13.7899 21.2319C13.6375 21.6467 13.0292 21.6467 12.8768 21.2319L12.4601 20.0978C12.4113 19.9651 12.303 19.8606 12.1653 19.8136L10.9892 19.4118C10.5591 19.2648 10.5591 18.6783 10.9892 18.5313L12.1653 18.1295C12.303 18.0824 12.4113 17.978 12.4601 17.8452L12.8768 16.7112Z" stroke="#0D6EDE" stroke-width="1.5" stroke-linejoin="round"/>
<path d="M14.6394 4.01575C14.8711 3.38537 15.7956 3.38538 16.0272 4.01575L16.8211 6.17629C16.8953 6.37807 17.0599 6.53681 17.2691 6.60831L19.5097 7.37386C20.1634 7.59723 20.1634 8.48871 19.5097 8.71207L17.2691 9.47763C17.0599 9.54913 16.8953 9.70787 16.8211 9.90965L16.0272 12.0702C15.7956 12.7006 14.8711 12.7006 14.6394 12.0702L13.8455 9.90965C13.7714 9.70787 13.6068 9.54913 13.3975 9.47763L11.157 8.71207C10.5032 8.48871 10.5032 7.59723 11.157 7.37386L13.3975 6.60831C13.6068 6.53681 13.7714 6.37807 13.8455 6.17629L14.6394 4.01575Z" stroke="#0D6EDE" stroke-width="1.5" stroke-linejoin="round"/>
<path d="M6.48641 9.90586C6.65786 9.422 7.34214 9.422 7.51358 9.90586L7.9824 11.229C8.03728 11.3838 8.15913 11.5057 8.31401 11.5606L9.63711 12.0294C10.121 12.2008 10.121 12.8851 9.63711 13.0566L8.31401 13.5254C8.15913 13.5803 8.03728 13.7021 7.9824 13.857L7.51358 15.1801C7.34214 15.6639 6.65786 15.6639 6.48641 15.1801L6.0176 13.857C5.96272 13.7021 5.84087 13.5803 5.68599 13.5254L4.36289 13.0566C3.87904 12.8851 3.87904 12.2008 4.36289 12.0294L5.68599 11.5606C5.84087 11.5057 5.96272 11.3838 6.0176 11.229L6.48641 9.90586Z" stroke="#0D6EDE" stroke-width="1.5" stroke-linejoin="round"/>
</svg>
