<svg width="24" height="25" viewBox="0 0 24 25" fill="none" xmlns="http://www.w3.org/2000/svg">
<path d="M9 9.28906H13M9 15.2891H12M9 12.2891H15" stroke="#FAFAFA" stroke-width="1.5" stroke-linecap="round"/>
<path d="M3.35288 9.23949C4.00437 6.46207 6.17301 4.29343 8.95043 3.64194C10.9563 3.17144 13.0437 3.17144 15.0496 3.64194C17.827 4.29344 19.9956 6.46207 20.6471 9.2395C21.1176 11.2453 21.1176 13.3328 20.6471 15.3386C19.9956 18.1161 17.827 20.2847 15.0496 20.9362C13.0437 21.4067 10.9563 21.4067 8.95044 20.9362C6.17301 20.2847 4.00437 18.1161 3.35288 15.3386C2.88237 13.3328 2.88237 11.2453 3.35288 9.23949Z" stroke="#FAFAFA" stroke-width="1.5"/>
</svg>
