<svg width="103" height="65" viewBox="0 0 103 65" fill="none" xmlns="http://www.w3.org/2000/svg">
<path d="M17.4953 46.8709L5.01497 54.0777L1.48438 52.04L11.2365 46.4081L8.91878 45.0683L11.647 43.4971L17.4953 46.8709Z" fill="#FAFAFA"/>
<path d="M17.4959 46.8706V52.2039L5.01562 59.4106V54.0774L17.4959 46.8706Z" fill="#171717"/>
<path d="M5.01497 54.0773V59.4105L1.48438 57.3728V52.0396L5.01497 54.0773Z" fill="#0D6EDE"/>
<path d="M17.4953 46.8709L5.01497 54.0777L1.48438 52.04L11.2365 46.4081L8.91878 45.0683L11.647 43.4971L17.4953 46.8709Z" stroke="#171717" stroke-width="2.09801" stroke-linecap="round" stroke-linejoin="round"/>
<path d="M1.48438 52.0396V57.3729L5.01497 59.4106L17.4953 52.2039V46.8706" stroke="#171717" stroke-width="2.09801" stroke-linecap="round" stroke-linejoin="round"/>
<path d="M5.01562 59.4109V54.0776" stroke="#171717" stroke-width="2.09801" stroke-linecap="round" stroke-linejoin="round"/>
<path d="M8.91797 45.0684V47.748" stroke="#171717" stroke-width="2.09801" stroke-linecap="round" stroke-linejoin="round"/>
<path d="M37.6922 46.2924C38.1587 47.1508 38.3939 48.3488 38.3939 49.894C38.3939 51.4391 38.1625 52.9058 37.6922 54.3016C37.2257 55.6974 36.5763 56.9291 35.7515 57.9927C34.9229 59.0564 33.9825 59.8924 32.93 60.5007C31.8663 61.1128 30.9184 61.3666 30.0936 61.2583C29.7763 61.2173 29.4815 61.1202 29.2165 60.9635C28.7947 60.7209 28.4402 60.3328 28.1528 59.8065C27.6863 58.9519 27.4512 57.7501 27.4512 56.2087C27.4512 54.6674 27.6826 53.1969 28.1528 51.8011C28.6193 50.4052 29.2688 49.1736 30.0936 48.11C30.9221 47.0463 31.8663 46.2066 32.93 45.5908C33.9825 44.9824 34.9229 44.7324 35.7515 44.8443C36.0612 44.8854 36.3449 44.9787 36.6061 45.1243L36.6285 45.1355C37.0502 45.3781 37.4086 45.7625 37.6922 46.2887V46.2924ZM34.3407 55.3765C34.6878 54.5143 34.8632 53.3648 34.8632 51.9317C34.8632 50.4985 34.6878 49.5506 34.3407 49.0915C33.9937 48.6325 33.5234 48.569 32.93 48.9124C32.3291 49.2595 31.8514 49.8678 31.5005 50.7299C31.1535 51.5921 30.9781 52.7416 30.9781 54.1747C30.9781 55.6079 31.1535 56.5558 31.5005 57.0149C31.8476 57.4739 32.3254 57.5299 32.93 57.1828C33.5197 56.8395 33.9899 56.2386 34.3407 55.3765Z" fill="#FAFAFA"/>
<path d="M32.8062 42.9333L36.6056 45.1278C36.3443 44.9822 36.0607 44.8889 35.7509 44.8479C34.9224 44.7397 33.9819 44.9897 32.9294 45.5943C31.8658 46.2101 30.9178 47.0499 30.093 48.1135C29.2645 49.1772 28.6188 50.4088 28.1523 51.8046C27.6857 53.2004 27.4506 54.6709 27.4506 56.2123C27.4506 57.7537 27.682 58.9554 28.1523 59.8101C28.4396 60.3363 28.7942 60.7244 29.2159 60.967L25.3942 58.7613C24.9687 58.515 24.6179 58.1306 24.3306 57.6044C23.864 56.7497 23.6289 55.5479 23.6289 54.0066C23.6289 52.4652 23.8603 50.9947 24.3306 49.5989C24.7971 48.2031 25.4464 46.9715 26.2713 45.9078C27.0998 44.8442 28.0441 44.0007 29.1077 43.3886C30.1602 42.7803 31.1007 42.5302 31.9292 42.6422C32.2464 42.6832 32.5413 42.784 32.8062 42.937V42.9333Z" fill="#171717"/>
<path d="M34.8636 51.9313C34.8636 53.3645 34.6883 54.514 34.3412 55.3761C33.9941 56.2383 33.5238 56.8429 32.9304 57.1825C32.3295 57.5296 31.8518 57.4736 31.501 57.0146C31.1539 56.5518 30.9785 55.6075 30.9785 54.1744C30.9785 52.7412 31.1539 51.5917 31.501 50.7296C31.8481 49.8675 32.3258 49.2591 32.9304 48.9121C33.5201 48.5687 33.9904 48.6321 34.3412 49.0912C34.6883 49.554 34.8636 50.4982 34.8636 51.9313Z" fill="#171717"/>
<path d="M36.6285 45.1387C37.0502 45.3813 37.4086 45.7657 37.6922 46.2919C38.1587 47.1503 38.3939 48.3484 38.3939 49.8935C38.3939 51.4386 38.1625 52.9053 37.6922 54.3011C37.2257 55.697 36.5763 56.9286 35.7515 57.9922C34.9229 59.0559 33.9825 59.8919 32.93 60.5002C31.8663 61.1123 30.9184 61.3661 30.0936 61.2579C29.7763 61.2168 29.4815 61.1198 29.2165 60.963C28.7947 60.7204 28.4402 60.3323 28.1528 59.806C27.6863 58.9514 27.4512 57.7496 27.4512 56.2082C27.4512 54.6669 27.6826 53.1964 28.1528 51.8006C28.6193 50.4048 29.2688 49.1731 30.0936 48.1095C30.9221 47.0458 31.8663 46.2061 32.93 45.5903C33.9825 44.9819 34.9229 44.7319 35.7515 44.8439C36.0612 44.8849 36.3449 44.9782 36.6061 45.1238L36.6285 45.135V45.1387Z" stroke="#171717" stroke-width="2.09801" stroke-linecap="round" stroke-linejoin="round"/>
<path d="M34.3412 55.3761C34.6883 54.514 34.8636 53.3645 34.8636 51.9313C34.8636 50.4982 34.6883 49.5502 34.3412 49.0912C33.9941 48.6321 33.5238 48.5687 32.9304 48.9121C32.3295 49.2591 31.8518 49.8675 31.501 50.7296C31.1539 51.5917 30.9785 52.7412 30.9785 54.1744C30.9785 55.6075 31.1539 56.5555 31.501 57.0146C31.8481 57.4736 32.3258 57.5296 32.9304 57.1825C33.5201 56.8391 33.9904 56.2383 34.3412 55.3761Z" stroke="#171717" stroke-width="2.09801" stroke-linecap="round" stroke-linejoin="round"/>
<path d="M29.2159 60.9631L25.3942 58.7574C24.9687 58.5111 24.6179 58.1267 24.3306 57.6005C23.864 56.7458 23.6289 55.5441 23.6289 54.0027C23.6289 52.4613 23.8603 50.9908 24.3306 49.595C24.7971 48.1992 25.4464 46.9676 26.2713 45.9039C27.0998 44.8403 28.0441 43.9968 29.1077 43.3847C30.1602 42.7764 31.1007 42.5263 31.9292 42.6383C32.2464 42.6793 32.5413 42.7801 32.8062 42.9331L36.628 45.1388" stroke="#171717" stroke-width="2.09801" stroke-linecap="round" stroke-linejoin="round"/>
<path d="M95.6509 33.3866C95.9644 33.8979 96.1249 34.4017 96.1212 34.8906C96.1212 35.2004 96.0615 35.499 95.9346 35.7938C95.6174 36.5626 94.9306 37.2531 93.8782 37.8614C92.8145 38.4735 91.6128 38.8766 90.2767 39.0594C89.7617 39.1304 89.2391 39.1677 88.7054 39.1677C87.862 39.1677 86.9961 39.0781 86.1079 38.899C84.6635 38.6041 83.2789 38.0704 81.939 37.3016C80.6067 36.5328 79.6811 35.7266 79.1735 34.8944C78.86 34.3831 78.707 33.883 78.707 33.394C78.707 33.0843 78.7667 32.782 78.8899 32.4871C79.2109 31.7183 79.905 31.0241 80.965 30.4083C82.0174 29.8 83.2117 29.4044 84.5478 29.2215C85.0479 29.1543 85.5555 29.117 86.0743 29.1133H86.1191C86.9625 29.1133 87.8321 29.2028 88.7166 29.382C90.161 29.6768 91.5493 30.2105 92.8855 30.9794C94.2216 31.7519 95.1434 32.5543 95.6509 33.3866ZM91.0082 36.2006C91.5979 35.861 91.7807 35.4243 91.5568 34.8906C91.3329 34.3569 90.6014 33.7337 89.3585 33.0171C88.1157 32.3005 87.0334 31.8751 86.1153 31.7444C85.1935 31.6175 84.4358 31.722 83.8462 32.0654C83.2416 32.4125 83.055 32.8529 83.2789 33.3829C83.5028 33.9166 84.238 34.5398 85.4771 35.2564C86.7199 35.973 87.8023 36.3984 88.7241 36.5291C89.6459 36.6597 90.4073 36.5514 91.0119 36.2006H91.0082Z" fill="#FAFAFA"/>
<path d="M96.1212 34.8872V38.7388C96.1212 39.0448 96.0615 39.3471 95.9346 39.642C95.6174 40.4108 94.9306 41.1013 93.8782 41.7096C92.8145 42.3217 91.6128 42.7247 90.2767 42.9076C89.7617 42.9785 89.2391 43.0158 88.7054 43.0158C87.862 43.0158 86.9961 42.9263 86.1079 42.7471C84.6635 42.4523 83.2789 41.9223 81.939 41.1498C80.6067 40.381 79.6811 39.5748 79.1735 38.7425C78.86 38.2312 78.707 37.7311 78.707 37.2422V33.3906C78.707 33.8795 78.86 34.3759 79.1735 34.891C79.6811 35.7232 80.6067 36.5256 81.939 37.2982C83.2789 38.067 84.6673 38.6007 86.1079 38.8955C86.9924 39.0747 87.8582 39.1643 88.7054 39.1643C89.2391 39.1643 89.7617 39.1269 90.2767 39.056C91.6128 38.8731 92.8145 38.4738 93.8782 37.858C94.9306 37.2497 95.6174 36.5592 95.9346 35.7904C96.0578 35.4956 96.1212 35.1933 96.1212 34.8872Z" fill="#171717"/>
<path d="M91.5567 34.8901C91.7806 35.4238 91.5977 35.8605 91.0081 36.2001C90.4034 36.5509 89.6421 36.6592 88.7202 36.5285C87.7947 36.3979 86.7124 35.9762 85.4733 35.2559C84.2342 34.543 83.499 33.916 83.2751 33.3824C83.0511 32.8524 83.2377 32.412 83.8423 32.0649C84.432 31.7215 85.1896 31.617 86.1115 31.7439C87.0333 31.8746 88.1156 32.2963 89.3547 33.0166C90.5975 33.7332 91.329 34.3564 91.5529 34.8901H91.5567Z" fill="#171717"/>
<path d="M86.123 29.1133C86.9665 29.1133 87.8361 29.2028 88.7206 29.382C90.1649 29.6768 91.5533 30.2105 92.8894 30.9794C94.2255 31.7519 95.1473 32.5543 95.6549 33.3866C95.9684 33.8979 96.1252 34.4017 96.1252 34.8906C96.1252 35.2004 96.0654 35.499 95.9385 35.7938C95.6213 36.5626 94.9346 37.2531 93.8821 37.8614C92.8185 38.4735 91.6167 38.8766 90.2806 39.0594C89.7656 39.1304 89.2431 39.1677 88.7094 39.1677C87.8659 39.1677 87.0001 39.0781 86.1118 38.899C84.6675 38.6041 83.2828 38.0704 81.943 37.3016C80.6106 36.5328 79.685 35.7266 79.1775 34.8944C78.864 34.3831 78.7109 33.883 78.7109 33.394C78.7109 33.0843 78.7707 32.782 78.8939 32.4871C79.2148 31.7183 79.909 31.0241 80.9689 30.4083C82.0214 29.8 83.2156 29.4044 84.5518 29.2215C85.0519 29.1543 85.5595 29.117 86.0782 29.1133" stroke="#171717" stroke-width="2.09801" stroke-linecap="round" stroke-linejoin="round"/>
<path d="M91.5568 34.8901C91.3329 34.3564 90.6014 33.7332 89.3586 33.0166C88.1158 32.3 87.0335 31.8746 86.1154 31.7439C85.1935 31.617 84.4359 31.7215 83.8462 32.0649C83.2416 32.412 83.055 32.8524 83.279 33.3824C83.5029 33.916 84.2381 34.5393 85.4772 35.2559C86.72 35.9724 87.8023 36.3979 88.7242 36.5285C89.646 36.6592 90.4074 36.5509 91.012 36.2001C91.6016 35.8605 91.7845 35.4238 91.5606 34.8901H91.5568Z" stroke="#171717" stroke-width="2.09801" stroke-linecap="round" stroke-linejoin="round"/>
<path d="M96.1212 34.8872V38.7388C96.1212 39.0448 96.0615 39.3471 95.9346 39.642C95.6174 40.4108 94.9306 41.1013 93.8782 41.7096C92.8145 42.3217 91.6128 42.7247 90.2767 42.9076C89.7617 42.9785 89.2391 43.0158 88.7054 43.0158C87.862 43.0158 86.9961 42.9263 86.1079 42.7471C84.6635 42.4523 83.2789 41.9223 81.939 41.1498C80.6067 40.381 79.6811 39.5748 79.1735 38.7425C78.86 38.2312 78.707 37.7311 78.707 37.2422V33.3906" stroke="#171717" stroke-width="2.09801" stroke-linecap="round" stroke-linejoin="round"/>
<path d="M97.8996 17.6553V31.106L94.6041 29.2026V18.6928L92.4395 17.4463V14.5054L97.8996 17.6553Z" fill="#FAFAFA"/>
<path d="M101.487 15.5879V29.0348L97.9004 31.1061V17.6555L101.487 15.5879Z" fill="#171717"/>
<path d="M101.486 15.5882L97.8996 17.6558L92.4395 14.5059L96.026 12.4346L101.486 15.5882Z" fill="#0D6EDE"/>
<path d="M97.8996 17.6553V31.106L94.6041 29.2026V18.6928L92.4395 17.4463V14.5054L97.8996 17.6553Z" stroke="#171717" stroke-width="2.09801" stroke-linecap="round" stroke-linejoin="round"/>
<path d="M92.4395 14.5059L96.026 12.4346L101.486 15.5882V29.0352L97.8996 31.1065" stroke="#171717" stroke-width="2.09801" stroke-linecap="round" stroke-linejoin="round"/>
<path d="M97.9004 17.6555L101.487 15.5879" stroke="#171717" stroke-width="2.09801" stroke-linecap="round" stroke-linejoin="round"/>
<path d="M34.3516 29.5093L34.6128 47.1922C34.6128 53.0853 36.3222 56.3546 39.3713 58.1162L44.3649 60.9974C41.4427 59.2097 39.808 55.9553 39.808 50.1891L39.5467 32.5062L34.3553 29.5093H34.3516Z" fill="#171717"/>
<path d="M34.3516 29.5091L39.543 32.506C43.305 29.2441 46.2609 24.1199 47.2088 19.2345L42.0174 16.2339C41.0694 21.1193 38.1098 26.2435 34.3516 29.5091Z" fill="#171717"/>
<path d="M47.2126 19.2347L72.6098 4.56738C72.7703 5.20931 72.9868 5.78779 73.2518 6.30655C74.5767 8.85934 77.1481 9.88942 80.2682 8.99744L80.0069 26.9789C80.0069 39.6794 72.0724 49.3681 59.9056 62.8673C53.3893 63.1621 48.0821 63.1472 44.5627 61.1132L44.4097 61.0236L44.3612 60.9975C41.4389 59.2098 39.8042 55.9553 39.8042 50.1892L39.543 32.5062C43.305 29.2443 46.2608 24.1201 47.2088 19.2347H47.2126ZM54.3521 50.9057L66.5898 43.8408C67.34 43.4078 67.9446 42.3554 67.9446 41.4895V28.2964C67.9446 27.4305 67.34 27.0797 66.5898 27.5126L66.0823 27.8037V21.6756C66.0823 18.1039 63.5631 16.6521 60.4691 18.4398C57.3752 20.2275 54.856 24.5866 54.856 28.1583V34.2865L54.3484 34.5776C53.5983 35.0105 52.9899 36.063 52.9899 36.9288V50.122C52.9899 50.9878 53.5983 51.3386 54.3484 50.9057H54.3521Z" fill="#FAFAFA"/>
<path d="M42.0215 16.2339L47.2129 19.2346L72.6102 4.56724L67.4188 1.57031L42.0215 16.2339Z" fill="#0D6EDE"/>
<path d="M61.912 37.2829C61.912 36.361 61.2664 35.9878 60.4677 36.4506C59.669 36.9134 59.0233 38.0293 59.0233 38.9512C59.0233 39.873 59.6653 40.2462 60.4677 39.7834C61.2664 39.3244 61.912 38.2047 61.912 37.2829ZM54.3507 34.5808L66.5884 27.5158C67.3385 27.0829 67.9431 27.4375 67.9431 28.2996V41.4927C67.9431 42.3586 67.3385 43.4111 66.5884 43.844L54.3507 50.9089C53.6005 51.3419 52.9922 50.9911 52.9922 50.1252V36.932C52.9922 36.0662 53.6005 35.0137 54.3507 34.5808Z" fill="#0D6EDE"/>
<path d="M54.8613 28.1615V34.2897L57.0297 33.0357V26.9075C57.0297 24.7168 58.5748 22.0408 60.4744 20.9473C62.3704 19.85 63.9193 20.742 63.9193 22.9328V29.061L66.0876 27.807V21.6788C66.0876 18.1071 63.5684 16.6553 60.4744 18.443C57.3805 20.2307 54.8613 24.5899 54.8613 28.1615Z" fill="#171717"/>
<path d="M57.0272 26.9076V33.0359L63.913 29.0611V22.9329C63.913 20.7422 62.3679 19.8539 60.4682 20.9474C58.5723 22.0447 57.0234 24.7169 57.0234 26.9076H57.0272Z" fill="#FAFAFA"/>
<path d="M60.4717 36.4477C59.673 36.9105 59.0273 38.0264 59.0273 38.9483C59.0273 39.8701 59.6693 40.2433 60.4717 39.7805C61.2704 39.3215 61.916 38.2019 61.916 37.28C61.916 36.3582 61.2704 35.9849 60.4717 36.4477Z" fill="#171717"/>
<path d="M75.0807 5.99658C74.4462 6.17946 73.8342 6.27648 73.252 6.30633C74.5769 8.85912 77.1483 9.8892 80.2684 8.99722L75.0807 5.99658Z" fill="#0D6EDE"/>
<path d="M44.3612 61.0014C41.4389 59.2137 39.8042 55.9592 39.8042 50.1931L39.543 32.5101C43.305 29.2482 46.2608 24.124 47.2088 19.2386L72.6061 4.57129C72.7665 5.21322 72.983 5.79169 73.248 6.31046C74.5655 8.86698 77.1444 9.89333 80.2644 9.00135L80.0032 26.9828C80.0032 39.6833 72.0687 49.372 59.9019 62.8712C53.3855 63.166 48.0784 63.1511 44.559 61.1171" stroke="#171717" stroke-width="2.09801" stroke-linecap="round" stroke-linejoin="round"/>
<path d="M44.5664 61.113L39.3713 58.1161C36.3222 56.3545 34.6128 53.0852 34.6128 47.1921L34.3516 29.5092C38.1098 26.2436 41.0694 21.1193 42.0174 16.2339L67.4147 1.57031L72.6061 4.56724" stroke="#171717" stroke-width="2.09801" stroke-linecap="round" stroke-linejoin="round"/>
<path d="M73.252 6.30975C73.8342 6.27989 74.4462 6.18288 75.0807 6L80.2684 9.00064" stroke="#171717" stroke-width="2.09801" stroke-linecap="round" stroke-linejoin="round"/>
<path d="M42.0215 16.2339L47.2129 19.2345" stroke="#171717" stroke-width="2.09801" stroke-linecap="round" stroke-linejoin="round"/>
<path d="M34.3516 29.5093L39.5467 32.5062" stroke="#171717" stroke-width="2.09801" stroke-linecap="round" stroke-linejoin="round"/>
<path d="M54.8583 34.2865L54.3507 34.5776C53.6005 35.0105 52.9922 36.063 52.9922 36.9288V50.122C52.9922 50.9878 53.6005 51.3386 54.3507 50.9057L66.5884 43.8408C67.3385 43.4078 67.9431 42.3554 67.9431 41.4895V28.2964C67.9431 27.4305 67.3385 27.0797 66.5884 27.5126L54.8583 34.2865Z" stroke="#171717" stroke-width="2.09801" stroke-linecap="round" stroke-linejoin="round"/>
<path d="M59.0273 38.9474C59.0273 38.0256 59.6693 36.9097 60.4717 36.4469C61.2704 35.9878 61.916 36.3611 61.916 37.2792C61.916 38.1973 61.2704 39.3169 60.4717 39.7797C59.673 40.2425 59.0273 39.8655 59.0273 38.9474Z" stroke="#171717" stroke-width="2.09801" stroke-linecap="round" stroke-linejoin="round"/>
<path d="M66.0837 27.807V21.6788C66.0837 18.1071 63.5645 16.6553 60.4706 18.443C57.3766 20.2307 54.8574 24.5899 54.8574 28.1615V34.2897" stroke="#171717" stroke-width="2.09801" stroke-linecap="round" stroke-linejoin="round"/>
<path d="M57.0293 33.036V26.9078C57.0293 24.7171 58.5744 22.0411 60.4741 20.9476C62.37 19.8503 63.9189 20.7423 63.9189 22.9331V29.0613" stroke="#171717" stroke-width="2.09801" stroke-linecap="round" stroke-linejoin="round"/>
<path d="M60.4727 39.7798V42.1796" stroke="#171717" stroke-width="2.09801" stroke-linecap="round" stroke-linejoin="round"/>
</svg>
