<svg width="103" height="115" viewBox="0 0 103 115" fill="none" xmlns="http://www.w3.org/2000/svg">
<path d="M92.1364 20.861C92.3727 20.6032 92.5472 20.2945 92.6895 19.9588C92.7379 19.9991 92.7621 20.0233 92.7647 20.026C92.7647 20.026 92.8802 20.7079 93.044 21.7497C93.581 19.2607 93.973 17.6041 94.2925 16.463C94.5395 15.5823 94.7436 15.0077 94.9369 14.5996C96.1639 15.0614 97.4232 15.6387 98.7818 16.3717C100.194 17.1369 101.072 18.6271 101.018 20.2354C100.919 23.1567 100.342 25.549 99.198 27.7104C98.618 28.8059 97.8904 29.8423 97.0097 30.8545C96.2713 31.7003 95.4309 32.5407 94.4643 33.373C94.4321 33.3999 94.3999 33.4294 94.365 33.459C93.734 34.0014 92.9446 34.1517 92.2331 33.9825C91.5162 33.8134 90.8718 33.3194 90.5711 32.5837C90.5174 32.4494 90.4717 32.3071 90.4395 32.1594C90.1093 30.6612 89.8139 29.171 89.5374 27.6487C89.1346 25.4443 88.7748 23.1782 88.4258 20.7375C88.4392 20.6972 88.4553 20.6596 88.4741 20.6247C88.6943 21.0033 89.0219 21.2637 89.4004 21.4168C89.6689 21.5269 89.967 21.5806 90.2731 21.5806C91.1645 21.5806 91.7391 21.2987 92.1364 20.8637V20.861Z" fill="#FAFAFA"/>
<path d="M92.6448 56.8379C91.5788 67.7524 91.5842 65.7601 91.5842 67.1939C91.5842 68.6277 92.1749 69.0788 92.1749 70.1393C92.1749 71.1999 91.2405 71.753 91.2405 72.7599C91.2405 73.5197 91.7721 73.8285 91.7721 74.8784C91.7721 75.4395 91.611 75.9631 91.3774 76.4679C91.2754 76.4571 91.1761 76.4437 91.0794 76.4303C89.5114 76.202 88.2978 75.7322 87.4305 75.1844C86.7405 74.7495 86.2679 74.2715 86.0101 73.85C85.849 73.5895 85.7712 73.3479 85.7712 73.1519C85.7712 72.6015 86.0826 71.8738 86.0826 71.3691C86.0826 70.9475 85.892 70.2494 85.892 69.6533C85.892 68.5793 86.2518 68.7754 86.2518 66.818C86.2518 53.2266 84.2891 53.7367 84.2891 41.622C84.2891 39.6459 84.3293 37.6697 84.3455 35.7043C84.3723 35.656 84.3965 35.605 84.4233 35.5566C85.3926 38.7249 89.0818 40.0459 92.3467 40.0459C92.6501 40.0459 93.1227 40.0164 93.6624 39.96C94.4249 41.7321 95.5687 43.0666 97.3381 43.0666C97.9825 43.0666 98.6162 42.8813 99.2176 42.5752C99.2176 42.8115 99.2149 43.0478 99.2149 43.2841C99.2149 44.9783 99.564 47.9828 99.564 51.1081C99.564 53.5192 99.231 56.3734 99.231 59.7645C99.231 65.5561 100.608 69.8762 100.608 75.0985C100.608 75.8181 100.407 76.1967 100.407 76.7229C100.407 77.1821 100.6 77.6278 100.6 78.0815C100.6 79.0642 99.6741 79.3596 99.6741 80.4336C99.6741 81.1183 100.026 81.7788 100.026 82.4903C100.026 83.2582 99.572 83.9321 99.0136 84.539C98.9787 83.4623 98.4255 82.8205 97.8644 82.5145C97.5932 82.3668 97.3193 82.297 97.0992 82.297C96.3796 82.297 95.9795 82.5896 95.703 83.0273C95.5204 83.3173 95.3969 83.6717 95.2707 84.0422C94.6021 83.1266 94.2128 82.4742 94.2128 81.1102C94.2128 79.62 94.5618 78.9783 94.5618 76.5323C94.5618 68.6438 93.6275 62.3797 92.6528 56.8406L92.6448 56.8379Z" fill="#171717"/>
<path d="M99.2154 42.5709C98.6139 42.8797 97.9803 43.0622 97.3359 43.0622C95.5664 43.0622 94.4226 41.7278 93.6601 39.9557C92.8627 38.1004 92.4814 35.7618 92.2344 33.9762C92.9459 34.1454 93.7326 33.9924 94.3663 33.4527C94.3985 33.4258 94.4307 33.3963 94.4656 33.3667C94.7556 33.8903 95.0187 34.5992 95.3866 34.5992H95.3919C95.502 34.5992 97.0888 32.4163 97.0888 31.5222C97.0888 31.3396 97.0674 31.0899 97.011 30.8482C97.8917 29.8333 98.6193 28.7996 99.1992 27.7041C99.1885 28.3136 99.1804 28.915 99.1804 29.5165C99.1804 35.1523 100.061 38.1809 101.5 40.78C100.832 41.4888 100.053 42.144 99.218 42.5709H99.2154Z" fill="#FAFAFA"/>
<path d="M99.0275 85.3035C99.0758 86.0553 99.1993 86.2835 99.1993 86.8312C99.1993 88.4637 97.0272 89.135 96.0069 89.135C95.1692 89.135 94.6161 88.896 94.173 88.4852C93.9421 88.2731 93.8105 87.9724 93.8105 87.6582C93.8105 87.3709 93.8105 87.0863 93.8105 86.799C93.8105 86.7668 93.8106 86.7319 93.8159 86.6997C94.412 87.2823 95.3088 87.8488 96.2029 87.8488C97.8891 87.8488 98.6113 86.4338 99.0329 85.3008L99.0275 85.3035Z" fill="#0D6EDE"/>
<path d="M99.0275 85.3034C98.606 86.4338 97.8837 87.8514 96.1975 87.8514C95.3034 87.8514 94.4093 87.2849 93.8105 86.7023C93.8374 86.474 93.9475 86.2646 94.1247 86.1169C94.7745 85.5719 95.0161 84.769 95.2604 84.0414C95.3866 83.6709 95.5128 83.3165 95.6927 83.0265C95.9585 83.2977 96.2432 83.5152 96.5761 83.5152C97.0889 83.5152 97.4353 83.0829 97.8542 82.5137C98.418 82.8198 98.9631 83.4615 99.0033 84.5382C99.0033 84.5758 99.0033 84.6133 99.0033 84.6509C99.0033 84.9087 99.0087 85.1208 99.0221 85.3061L99.0275 85.3034Z" fill="#171717"/>
<path d="M97.8567 82.5134C97.4406 83.0826 97.0942 83.5149 96.5787 83.5149C96.2457 83.5149 95.9584 83.3001 95.6953 83.0262C95.9719 82.5886 96.3719 82.2959 97.0915 82.2959C97.3117 82.2959 97.5855 82.3657 97.8567 82.5134Z" fill="#0D6EDE"/>
<path d="M97.0083 30.8516C97.0646 31.0932 97.0861 31.3429 97.0861 31.5255C97.0861 32.4196 95.4993 34.5998 95.3892 34.6025H95.3838C95.0187 34.6025 94.7556 33.8937 94.4629 33.3701C95.4241 32.5324 96.2726 31.7 97.0083 30.8516Z" fill="#171717"/>
<path d="M96.9836 3.42739C96.9836 3.99124 96.6023 4.48795 96.1459 4.87459C95.8505 3.86772 95.3001 3.1025 94.3496 2.74808C94.704 2.25941 95.1256 1.78418 95.7082 1.78418C96.4735 1.78418 96.9836 2.67559 96.9836 3.42471V3.42739Z" fill="#171717"/>
<path d="M87.6513 13.0208C87.5735 12.7523 87.5332 12.4489 87.5332 12.1213C87.5332 11.7937 87.603 11.5064 87.7775 11.3292C87.8876 11.2138 88.0433 11.1466 88.2528 11.1466C89.0824 11.1466 89.6114 12.4945 90.5941 12.4945C92.0359 12.4945 92.7018 10.6285 92.9273 8.92081C92.9408 8.85637 92.9461 8.78925 92.9461 8.72212C92.9461 8.314 92.726 7.90856 92.726 7.50581C92.726 6.74327 93.5986 6.62513 93.5986 6.02638C93.5986 5.48401 92.9945 5.36319 92.4521 5.36319C91.5258 5.36319 90.2289 5.65854 89.5416 5.65854C89.1952 5.65854 88.7629 5.55114 88.5052 5.3256C88.3682 5.20746 88.2823 5.05709 88.2823 4.87451C88.2823 3.85958 91.5875 2.5332 93.0186 2.5332C93.5315 2.5332 93.9691 2.60838 94.3477 2.748C95.2982 3.10242 95.8486 3.86764 96.144 4.87451C96.3561 5.5914 96.4339 6.42912 96.4339 7.32322C96.4339 8.52072 95.8459 9.64574 95.0539 10.5157C95.0565 10.4754 95.0592 10.4378 95.0592 10.3976C95.0592 9.62159 94.5008 9.16512 94.0738 9.16512C93.5449 9.16512 93.322 9.87128 93.322 10.411C93.322 10.8164 93.4026 11.238 93.4026 11.6434C93.4026 13.0772 91.7325 14.3257 90.2773 14.4975C90.1618 14.4546 90.0383 14.4304 89.9067 14.4304C89.7886 14.4304 89.6329 14.4519 89.461 14.4975C88.5481 14.4358 87.9037 13.8934 87.6513 13.0181V13.0208Z" fill="#171717"/>
<path d="M95.06 10.3999C95.06 10.4402 95.06 10.4777 95.0547 10.518C94.7969 10.7999 94.5177 11.0577 94.2277 11.2805C94.225 11.3691 94.2223 11.4577 94.2223 11.5464C94.2223 12.5693 94.4291 13.5896 94.7969 14.5455C94.8426 14.5616 94.8909 14.5804 94.9365 14.5965C94.7432 15.0073 94.5392 15.5792 94.2921 16.4599C93.6934 16.7257 93.0732 16.8761 92.418 16.8761C92.077 16.8761 91.7844 16.8412 91.5239 16.7875C91.2527 15.5631 90.8849 14.7281 90.2754 14.4945C91.7307 14.3253 93.4007 13.0768 93.4007 11.6404C93.4007 11.2349 93.3202 10.8134 93.3202 10.4079C93.3202 9.86823 93.543 9.16211 94.072 9.16211C94.5016 9.16211 95.0574 9.61855 95.0574 10.3945L95.06 10.3999Z" fill="#171717"/>
<path d="M94.2956 16.46C93.9761 17.6011 93.584 19.2577 93.047 21.7467C92.8806 20.7049 92.7678 20.0229 92.7678 20.0229C92.7651 20.0229 92.741 19.9961 92.6926 19.9558C92.5879 19.8699 92.3677 19.7142 91.9784 19.6068C91.8415 18.5408 91.7046 17.585 91.5273 16.7902C91.7851 16.8439 92.0778 16.8788 92.4214 16.8788C93.0766 16.8788 93.6968 16.7285 94.2956 16.4626V16.46Z" fill="#0D6EDE"/>
<path d="M92.2352 33.9799C92.4822 35.7654 92.8635 38.1013 93.6609 39.9594C93.1186 40.0157 92.646 40.0453 92.3453 40.0453C89.0803 40.0453 85.3885 38.7243 84.4219 35.556C85.0797 34.2779 85.5254 32.7851 85.8637 31.166C87.2384 31.7836 88.8441 32.3259 90.5759 32.581C90.882 33.3167 91.521 33.8107 92.2379 33.9799H92.2352Z" fill="#0D6EDE"/>
<path d="M92.4536 5.35986C92.996 5.35986 93.6001 5.48336 93.6001 6.02304C93.6001 6.62448 92.7275 6.73994 92.7275 7.50248C92.7275 7.90523 92.9476 8.30798 92.9476 8.71879C92.9476 8.78591 92.9423 8.85035 92.9288 8.91747C92.7033 10.6251 92.0347 12.4912 90.5956 12.4912C89.6102 12.4912 89.0839 11.1433 88.2543 11.1433C88.0475 11.1433 87.8918 11.2131 87.779 11.3259C87.3763 9.13763 87.8945 6.34525 88.5093 5.32227C88.7671 5.54512 89.1994 5.6552 89.5458 5.6552C90.2331 5.6552 91.53 5.35986 92.4563 5.35986H92.4536Z" fill="#FAFAFA"/>
<path d="M91.9785 19.6072C92.3652 19.7173 92.588 19.8676 92.6927 19.9562C92.5504 20.2919 92.3759 20.6006 92.1396 20.8584C92.0832 20.4288 92.0322 20.0099 91.9812 19.6045L91.9785 19.6072Z" fill="#FAFAFA"/>
<path d="M91.9782 19.6068C92.0292 20.0096 92.0802 20.4285 92.1366 20.8607C91.7392 21.293 91.1647 21.5777 90.2732 21.5777C89.9672 21.5777 89.6691 21.5266 89.4006 21.4138C89.3469 20.8822 89.2905 20.3506 89.2207 19.8217C89.1348 19.145 89.0301 18.4684 88.9039 17.7998C88.6676 18.0227 88.3669 18.2456 88.042 18.2456C88.0178 18.2456 87.9937 18.2456 87.9695 18.2402C87.4809 18.1516 86.9707 17.3354 86.9707 16.8333C86.9707 15.6384 88.5146 14.747 89.4624 14.5027C89.6342 14.457 89.7873 14.4355 89.9081 14.4355C90.0396 14.4355 90.1658 14.457 90.2786 14.5027C90.8881 14.7363 91.256 15.5713 91.5271 16.7957C91.7044 17.5904 91.8413 18.549 91.9782 19.6122V19.6068Z" fill="#171717"/>
<path d="M91.0798 76.4296C91.0905 76.6041 91.0932 76.7867 91.0932 76.9693C86.7248 77.1492 85.7233 79.4341 82.7 79.4341C81.7495 79.4341 80.9655 79.1227 80.4043 78.6716C80.7829 76.9263 82.9658 77.2378 84.1498 76.3196C84.6358 75.941 85.0117 75.4738 85.3366 74.9717C85.7528 75.2643 86.2629 75.4845 86.6657 75.4845C86.9154 75.4845 87.1785 75.3664 87.4282 75.1865C88.2955 75.7315 89.5064 76.2121 91.0771 76.4323L91.0798 76.4296Z" fill="#171717"/>
<path d="M91.0891 76.9695C91.0891 77.1816 91.081 77.391 91.073 77.579C91.0569 77.9415 90.7561 78.2234 90.3937 78.2207C90.34 78.2207 90.2863 78.2207 90.2299 78.2207C86.2856 78.2207 86.1245 80.562 82.9724 80.562C82.097 80.562 81.3157 80.3257 80.717 80.0196C80.4968 79.9095 80.3545 79.6894 80.3464 79.445C80.3464 79.3779 80.3438 79.3108 80.3438 79.2437C80.3438 79.0315 80.3626 78.8409 80.4001 78.6691C80.964 79.1202 81.7453 79.4316 82.6958 79.4316C85.7191 79.4316 86.7206 77.1467 91.0891 76.9668V76.9695Z" fill="#0D6EDE"/>
<path d="M86.5793 26.5851C87.5244 26.9717 88.5769 27.361 89.5381 27.6456C89.8147 29.1654 90.11 30.6555 90.4403 32.1564C90.4725 32.3041 90.5182 32.4464 90.5719 32.5807C88.8427 32.3283 87.2344 31.7832 85.8597 31.1657C85.269 30.9025 84.7213 30.6233 84.2245 30.3521C83.5211 29.9682 82.9223 29.5896 82.4498 29.27C81.7168 28.776 81.314 27.9141 81.416 27.0335C81.9906 22.0421 82.925 18.6885 85.1643 14.6664C85.6852 13.732 86.6196 13.1306 87.6506 13.0205C87.903 13.8958 88.5474 14.4382 89.4603 14.4999C88.5125 14.7442 86.9686 15.6384 86.9686 16.8305C86.9686 17.3326 87.4788 18.1596 87.9674 18.2374C87.2586 20.8741 86.9364 23.7819 86.5766 26.5851H86.5793Z" fill="#FAFAFA"/>
<path d="M88.4737 20.6195C88.4576 20.6571 88.4415 20.6947 88.4254 20.7323C88.7744 23.173 89.1342 25.4391 89.537 27.6435C88.5731 27.3616 87.5232 26.9722 86.5781 26.5829C86.9379 23.7798 87.2628 20.8719 87.9689 18.2353C87.9931 18.2406 88.0173 18.2406 88.0414 18.2406C88.3663 18.2406 88.667 18.0205 88.9033 17.7949C89.0295 18.4635 89.1315 19.1401 89.2201 19.8167C88.8979 19.9913 88.6429 20.2517 88.4737 20.6169V20.6195Z" fill="#0D6EDE"/>
<path d="M89.4009 21.4116C89.0196 21.2585 88.6921 20.998 88.4746 20.6195C88.6357 20.2489 88.8988 19.9939 89.221 19.8193C89.2908 20.3483 89.3472 20.8799 89.4009 21.4116Z" fill="#FAFAFA"/>
<path d="M86.0091 73.8496C86.2669 74.2738 86.7395 74.7491 87.4295 75.184C87.1798 75.3613 86.9167 75.4821 86.667 75.4821C86.2642 75.4821 85.7541 75.2619 85.3379 74.9693C85.5769 74.6068 85.7917 74.2255 86.0091 73.8496Z" fill="#0D6EDE"/>
<path d="M84.2256 30.3525C84.7224 30.6237 85.2701 30.903 85.8608 31.1661C85.5252 32.7851 85.0875 34.2834 84.419 35.5561C84.3921 35.6044 84.368 35.6554 84.3411 35.7037C83.7799 36.7536 83.063 37.6503 82.1367 38.3404C83.1839 35.8084 83.745 33.255 84.223 30.3525H84.2256Z" fill="#FAFAFA"/>
<path d="M88.5039 5.32227C87.8918 6.34525 87.3736 9.13763 87.7736 11.3259" stroke="#171717" stroke-width="1.77384" stroke-linecap="round" stroke-linejoin="round"/>
<path d="M90.2754 14.4975C91.7307 14.3283 93.4007 13.0798 93.4007 11.6433C93.4007 11.2379 93.3202 10.8163 93.3202 10.4109C93.3202 9.8712 93.543 9.16504 94.072 9.16504C94.5016 9.16504 95.0574 9.62151 95.0574 10.3975C95.0574 10.4377 95.0574 10.4753 95.052 10.5156" stroke="#171717" stroke-width="1.77384" stroke-linecap="round" stroke-linejoin="round"/>
<path d="M94.3457 2.74808C94.7001 2.25941 95.1217 1.78418 95.7043 1.78418C96.4695 1.78418 96.9797 2.67559 96.9797 3.42471C96.9797 3.98855 96.5984 4.48526 96.142 4.8719" stroke="#171717" stroke-width="1.77384" stroke-linecap="round" stroke-linejoin="round"/>
<path d="M84.2227 30.3525C84.7194 30.6237 85.2671 30.903 85.8578 31.1661C87.2325 31.781 88.8381 32.326 90.57 32.5811" stroke="#171717" stroke-width="1.77384" stroke-linecap="round" stroke-linejoin="round"/>
<path d="M87.6614 13.0176C87.6614 13.0176 87.6534 13.0176 87.6507 13.0176C86.6196 13.1277 85.6853 13.7318 85.1644 14.6635C82.9251 18.6856 81.9907 22.0391 81.4161 27.0305C81.3141 27.9112 81.7141 28.7731 82.4498 29.2671C82.9197 29.5866 83.5212 29.9625 84.2246 30.3492" stroke="#171717" stroke-width="1.77384" stroke-linecap="round" stroke-linejoin="round"/>
<path d="M93.0452 21.7474C92.8787 20.7056 92.766 20.0236 92.766 20.0236C92.7633 20.0236 92.7391 19.9968 92.6908 19.9565C92.586 19.8706 92.3659 19.7148 91.9766 19.6074" stroke="#171717" stroke-width="1.77384" stroke-linecap="round" stroke-linejoin="round"/>
<path d="M93.9861 28.339C93.9298 27.8611 93.8653 27.3643 93.7955 26.8622C93.5458 25.0123 93.2531 23.0844 93.041 21.75" stroke="#171717" stroke-width="1.77384" stroke-linecap="round" stroke-linejoin="round"/>
<path d="M89.2174 19.8192C88.8952 19.9937 88.6402 20.2541 88.471 20.6193C88.4549 20.6569 88.4388 20.6945 88.4227 20.7321C88.7717 23.1727 89.1342 25.4389 89.5342 27.6432C89.8108 29.163 90.1061 30.6531 90.4364 32.154C90.4686 32.3017 90.5143 32.4467 90.568 32.5783C90.8714 33.3166 91.5131 33.808 92.23 33.9771C92.9415 34.1463 93.7282 33.9933 94.3619 33.4536C94.3941 33.4267 94.4263 33.3972 94.4612 33.3676C95.4278 32.5353 96.2709 31.6976 97.0066 30.8491C97.8873 29.8342 98.6149 28.8005 99.1949 27.705C100.339 25.5436 100.916 23.1513 101.015 20.23C101.072 18.6244 100.194 17.1315 98.7787 16.3663C97.4201 15.6333 96.1581 15.0641 94.9338 14.5942C94.8881 14.5754 94.8398 14.5593 94.7941 14.5432C94.4236 13.5873 94.2196 12.567 94.2196 11.544C94.2196 11.4554 94.2196 11.3668 94.2249 11.2782C94.5122 11.0554 94.7915 10.8003 95.0519 10.5157C95.844 9.64574 96.432 8.51804 96.432 7.32322C96.432 6.42643 96.3514 5.58872 96.142 4.87451C95.8467 3.87032 95.2962 3.10242 94.3457 2.748C93.9698 2.60838 93.5295 2.5332 93.0167 2.5332C91.5856 2.5332 88.2804 3.85958 88.2804 4.87451C88.2804 5.05709 88.3663 5.20746 88.5032 5.3256C88.761 5.54845 89.1933 5.65854 89.5396 5.65854C90.227 5.65854 91.5238 5.36319 92.4501 5.36319C92.9925 5.36319 93.5966 5.4867 93.5966 6.02638C93.5966 6.62782 92.724 6.74327 92.724 7.50581C92.724 7.90856 92.9442 8.31132 92.9442 8.72212C92.9442 8.78925 92.9388 8.85368 92.9254 8.92081C92.6998 10.6285 92.0313 12.4945 90.5921 12.4945C89.6067 12.4945 89.0805 11.1466 88.2508 11.1466C88.0441 11.1466 87.8883 11.2165 87.7756 11.3292C87.6011 11.5091 87.5312 11.7991 87.5312 12.1213C87.5312 12.4435 87.5715 12.7496 87.6494 13.0208C87.9018 13.8961 88.5462 14.4384 89.4591 14.5002" stroke="#171717" stroke-width="1.77384" stroke-linecap="round" stroke-linejoin="round"/>
<path d="M93.7969 26.8622C94.8494 25.1761 95.8724 23.31 96.4738 21.8037" stroke="#171717" stroke-width="1.77384" stroke-linecap="round" stroke-linejoin="round"/>
<path d="M94.4609 33.3701C94.7509 33.8937 95.014 34.6025 95.3819 34.6025H95.3872C95.4973 34.6025 97.0842 32.4196 97.0842 31.5255C97.0842 31.3429 97.0627 31.0932 97.0063 30.8516" stroke="#171717" stroke-width="1.77384" stroke-linecap="round" stroke-linejoin="round"/>
<path d="M85.9031 19.7705C85.4869 21.991 85.1782 23.9967 84.9043 25.8493C85.3795 26.0722 85.9541 26.3299 86.5744 26.585C87.5195 26.9717 88.572 27.361 89.5332 27.6456" stroke="#171717" stroke-width="1.77384" stroke-linecap="round" stroke-linejoin="round"/>
<path d="M84.418 35.556C85.0758 34.2779 85.5215 32.7851 85.8598 31.166" stroke="#171717" stroke-width="1.77384" stroke-linecap="round" stroke-linejoin="round"/>
<path d="M84.223 30.3525C83.745 33.255 83.1839 35.8084 82.1367 38.3404C83.063 37.6477 83.7799 36.7536 84.3411 35.7037C84.368 35.6554 84.3921 35.6044 84.419 35.5561" stroke="#171717" stroke-width="1.77384" stroke-linecap="round" stroke-linejoin="round"/>
<path d="M86.5762 26.5849C86.936 23.7818 87.2608 20.874 87.967 18.2373" stroke="#171717" stroke-width="1.77384" stroke-linecap="round" stroke-linejoin="round"/>
<path d="M92.1347 20.8612C92.0783 20.4316 92.0273 20.0127 91.9763 19.6073C91.8393 18.544 91.7024 17.5855 91.5252 16.7907C91.254 15.5664 90.8862 14.7314 90.2767 14.4978C90.1612 14.4548 90.0377 14.4307 89.9061 14.4307C89.788 14.4307 89.6323 14.4548 89.4604 14.4978C88.5153 14.7475 86.9688 15.6362 86.9688 16.8283C86.9688 17.3304 87.4816 18.1467 87.9676 18.2353C87.9917 18.2406 88.0159 18.2407 88.0401 18.2407C88.3649 18.2407 88.6657 18.0205 88.9019 17.7949C89.0281 18.4635 89.1302 19.1401 89.2188 19.8167C89.2859 20.3457 89.345 20.8773 89.3987 21.409" stroke="#171717" stroke-width="1.77384" stroke-linecap="round" stroke-linejoin="round"/>
<path d="M88.4707 20.6192C88.6909 20.9978 89.0184 21.2556 89.397 21.4113C89.6682 21.5214 89.9635 21.5751 90.2696 21.5751C91.1611 21.5751 91.7356 21.2932 92.133 20.8582C92.3693 20.6004 92.5438 20.2917 92.6861 19.9561" stroke="#171717" stroke-width="1.77384" stroke-linecap="round" stroke-linejoin="round"/>
<path d="M94.9378 14.5967C94.7445 15.0075 94.5405 15.5794 94.2934 16.46C93.9739 17.6012 93.5819 19.2578 93.0449 21.7468" stroke="#171717" stroke-width="1.77384" stroke-linecap="round" stroke-linejoin="round"/>
<path d="M91.5234 16.7875C91.7812 16.8412 92.0738 16.8761 92.4175 16.8761C93.0727 16.8761 93.6929 16.7258 94.2917 16.46" stroke="#171717" stroke-width="1.77384" stroke-linecap="round" stroke-linejoin="round"/>
<path d="M99.1966 27.708C99.1858 28.3175 99.1778 28.9189 99.1778 29.5204C99.1778 35.1562 100.058 38.1848 101.498 40.7839C100.829 41.4927 100.05 42.1479 99.2154 42.5748C98.6139 42.8809 97.9803 43.0661 97.3359 43.0661C95.5664 43.0661 94.4226 41.7317 93.6601 39.9596C92.8627 38.1043 92.4814 35.7657 92.2344 33.9801" stroke="#171717" stroke-width="1.77384" stroke-linecap="round" stroke-linejoin="round"/>
<path d="M84.3396 35.7031C84.3208 37.6685 84.2832 39.6447 84.2832 41.6208C84.2832 53.7355 86.2459 53.2254 86.2459 66.8168C86.2459 68.7742 85.8862 68.5781 85.8862 69.6521C85.8862 70.2482 86.0768 70.9463 86.0768 71.3679C86.0768 71.8726 85.7653 72.6003 85.7653 73.1507C85.7653 73.3467 85.8459 73.5883 86.0043 73.8488C86.2647 74.2703 86.7346 74.7482 87.4246 75.1832C88.2919 75.7283 89.5055 76.2008 91.0736 76.4291C91.1729 76.4425 91.2722 76.4559 91.3716 76.4666C91.6052 75.9619 91.7663 75.4383 91.7663 74.8772C91.7663 73.8246 91.2346 73.5185 91.2346 72.7587C91.2346 71.7518 92.169 71.2309 92.169 70.1381C92.169 69.0453 91.5783 68.6963 91.5783 67.1927C91.5783 65.6891 91.573 67.7512 92.6389 56.8367" stroke="#171717" stroke-width="1.77384" stroke-linecap="round" stroke-linejoin="round"/>
<path d="M99.2138 42.5723C99.2138 42.5723 99.2111 43.0448 99.2111 43.2811C99.2111 44.9753 99.5602 47.9798 99.5602 51.1052C99.5602 53.5163 99.2272 56.3704 99.2272 59.7616C99.2272 65.5531 100.605 69.8733 100.605 75.0956C100.605 75.8151 100.403 76.1937 100.403 76.72C100.403 77.1791 100.597 77.6248 100.597 78.0786C100.597 79.0613 99.6703 79.3566 99.6703 80.4306C99.6703 81.1153 100.022 81.7758 100.022 82.4874C100.022 83.2553 99.5682 83.9292 99.0098 84.536" stroke="#171717" stroke-width="1.77384" stroke-linecap="round" stroke-linejoin="round"/>
<path d="M92.6406 56.8379C93.6153 62.377 94.5497 68.6411 94.5497 76.5296C94.5497 78.9756 94.2006 79.62 94.2006 81.1075C94.2006 82.4688 94.5899 83.124 95.2585 84.0396" stroke="#171717" stroke-width="1.77384" stroke-linecap="round" stroke-linejoin="round"/>
<path d="M91.1738 46.4756C91.2812 48.0033 91.3457 49.5418 91.6034 51.0401C91.9874 53.2579 92.4224 55.5535 92.8412 57.9942" stroke="#171717" stroke-width="1.18256" stroke-linecap="round" stroke-linejoin="round"/>
<path d="M84.418 35.5566C85.3873 38.7249 89.0764 40.0459 92.3414 40.0459C92.6448 40.0459 93.1174 40.0164 93.657 39.96" stroke="#171717" stroke-width="1.77384" stroke-linecap="round" stroke-linejoin="round"/>
<path d="M93.8081 86.702C93.8027 86.7342 93.8027 86.7691 93.8027 86.8013C93.8027 87.0886 93.8027 87.3759 93.8027 87.6605C93.8027 87.972 93.9343 88.2727 94.1652 88.4875C94.6109 88.8983 95.164 89.1373 95.9991 89.1373C97.0194 89.1373 99.1915 88.466 99.1915 86.8335C99.1915 86.2885 99.0707 86.0576 99.0197 85.3058C99.0062 85.1232 99.0009 84.9084 99.0009 84.6506C99.0009 84.6131 99.0009 84.5755 99.0009 84.5379C98.9606 83.4612 98.4129 82.8195 97.8517 82.5134C97.5805 82.3657 97.3066 82.2959 97.0865 82.2959C96.3669 82.2959 95.9641 82.5886 95.6903 83.0262C95.5077 83.3162 95.3815 83.6679 95.258 84.0411C95.011 84.7688 94.772 85.5689 94.1222 86.1167C93.945 86.2643 93.8376 86.4764 93.8081 86.702Z" stroke="#171717" stroke-width="1.77384" stroke-linecap="round" stroke-linejoin="round"/>
<path d="M93.8086 86.7026C94.4047 87.2852 95.3015 87.8518 96.1956 87.8518C97.8817 87.8518 98.604 86.4368 99.0255 85.3037" stroke="#171717" stroke-width="1.77384" stroke-linecap="round" stroke-linejoin="round"/>
<path d="M91.0757 76.4299C91.0864 76.6044 91.0891 76.787 91.0891 76.9696C91.0891 77.1817 91.081 77.3911 91.073 77.5791C91.0569 77.9415 90.7561 78.2235 90.3937 78.2208C90.34 78.2208 90.2863 78.2208 90.2299 78.2208C86.2856 78.2208 86.1245 80.5621 82.9724 80.5621C82.097 80.5621 81.3157 80.3258 80.717 80.0197C80.4968 79.9096 80.3545 79.6895 80.3464 79.4451C80.3464 79.378 80.3438 79.3109 80.3438 79.2437C80.3438 79.0316 80.3626 78.841 80.4001 78.6692C80.7814 76.9239 82.9616 77.2354 84.1457 76.3171C84.6317 75.9385 85.0049 75.4714 85.3325 74.9693C85.5687 74.6068 85.7862 74.2255 86.0037 73.8496" stroke="#171717" stroke-width="1.77384" stroke-linecap="round" stroke-linejoin="round"/>
<path d="M80.4004 78.6691C80.9642 79.1202 81.7456 79.4316 82.6961 79.4316C85.7194 79.4316 86.7209 77.1467 91.0893 76.9668" stroke="#171717" stroke-width="1.77384" stroke-linecap="round" stroke-linejoin="round"/>
<path d="M85.334 74.9688C85.7502 75.2614 86.2603 75.4816 86.663 75.4816C86.9127 75.4816 87.1759 75.3634 87.4256 75.1835" stroke="#171717" stroke-width="1.77384" stroke-linecap="round" stroke-linejoin="round"/>
<path d="M95.6934 83.0265C95.9592 83.2977 96.2438 83.5152 96.5767 83.5152C97.0896 83.5152 97.4359 83.0829 97.8548 82.5137" stroke="#171717" stroke-width="1.77384" stroke-linecap="round" stroke-linejoin="round"/>
<path d="M40.1594 39.2848C41.0078 39.7735 41.6925 40.9629 41.6925 41.9429C41.6925 42.923 41.0051 43.3149 40.1594 42.8263C39.3163 42.3376 38.6289 41.1482 38.6289 40.1735C38.6289 39.1989 39.3163 38.8015 40.1594 39.2875V39.2848Z" fill="#171717"/>
<path d="M34.6444 36.1019C35.4875 36.5879 36.1749 37.78 36.1749 38.7547C36.1749 39.7293 35.4875 40.1294 34.6444 39.638C33.796 39.152 33.1113 37.9599 33.1113 36.9852C33.1113 36.0106 33.7987 35.6106 34.6444 36.1019Z" fill="#171717"/>
<path d="M29.123 32.9159C29.9714 33.4046 30.6534 34.594 30.6534 35.5687C30.6534 36.5433 29.9714 36.9407 29.123 36.4547C28.2745 35.966 27.5898 34.7766 27.5898 33.7966C27.5898 32.8166 28.2772 32.4245 29.123 32.9132V32.9159Z" fill="#171717"/>
<path d="M85.6494 59.1425C85.6494 56.8575 84.2586 54.1994 82.5402 53.206L22.8018 18.7173C22.0474 18.2796 21.3573 18.242 20.8203 18.5239L25.3902 15.8846C25.9379 15.5704 26.6468 15.5973 27.4227 16.0457L87.1664 50.5371C88.8821 51.5279 90.2757 54.186 90.2757 56.4736V107.907C90.2757 109.158 89.8568 110.042 89.199 110.42L84.6184 113.062C85.2547 112.673 85.6521 111.801 85.6521 110.576V59.1371L85.6494 59.1425Z" fill="#171717"/>
<path d="M84.5715 113.095C84.0292 113.407 83.315 113.377 82.539 112.931L22.8006 78.44C21.0849 77.4492 19.6914 74.7911 19.6914 72.5035V62.0535C21.6407 57.6018 23.3537 52.2855 27.1369 54.4711C33.9219 58.3885 32.3592 70.8361 40.578 75.5831C48.7994 80.3302 47.3656 58.4717 54.1506 62.3918C60.9356 66.3092 59.2789 77.4036 67.7205 82.2741C76.1622 87.1501 74.5055 63.8578 81.2932 67.7779C83.5029 69.0559 84.7058 73.1667 85.6455 78.3218V110.582C85.6455 111.806 85.2482 112.679 84.6118 113.068C84.5984 113.079 84.5877 113.09 84.5689 113.098L84.5715 113.095Z" fill="#FAFAFA"/>
<path d="M19.6934 62.0503V21.0666C19.6934 19.8154 20.1095 18.932 20.77 18.5535L20.8211 18.5239C21.3581 18.242 22.0481 18.2796 22.8026 18.7172L82.541 53.2059C84.2567 54.1994 85.6502 56.8575 85.6502 59.1425V78.3187C84.7104 73.1662 83.5076 69.0528 81.2978 67.7747C74.5102 63.8546 76.1668 87.1442 67.7252 82.271C59.2836 77.4004 60.9402 66.306 54.1552 62.3886C47.3703 58.4685 48.804 80.3244 40.5826 75.58C32.3638 70.8329 33.9265 58.3853 27.1415 54.4679C23.3584 52.2823 21.6454 57.5986 19.696 62.0503H19.6934ZM41.6915 41.9424C41.6915 40.9624 41.0041 39.7756 40.1584 39.2843C39.3153 38.7983 38.6279 39.1903 38.6279 40.1703C38.6279 41.1503 39.3153 42.3344 40.1584 42.8231C41.0068 43.3118 41.6915 42.9171 41.6915 41.9397V41.9424ZM36.1738 38.7553C36.1738 37.778 35.4865 36.5885 34.6434 36.1026C33.7949 35.6139 33.1103 36.0086 33.1103 36.9859C33.1103 37.9632 33.7976 39.1527 34.6434 39.6387C35.4865 40.1273 36.1738 39.7327 36.1738 38.7553ZM30.6562 35.5682C30.6562 34.5909 29.9742 33.4041 29.1257 32.9155C28.2773 32.4268 27.5926 32.8215 27.5926 33.7988C27.5926 34.7761 28.28 35.9656 29.1257 36.457C29.9742 36.9429 30.6562 36.5456 30.6562 35.5709V35.5682Z" fill="#FAFAFA"/>
<path d="M84.6147 113.065L89.1953 110.423C89.8532 110.045 90.272 109.161 90.272 107.91V56.4765C90.272 54.1862 88.8812 51.5308 87.1628 50.54L27.419 16.0486C26.6431 15.6002 25.9342 15.5734 25.3865 15.8875L20.7656 18.5564" stroke="#171717" stroke-width="1.77384" stroke-linecap="round" stroke-linejoin="round"/>
<path d="M20.772 18.551C20.1115 18.9296 19.6953 19.813 19.6953 21.0642V72.4978C19.6953 74.7881 21.0861 77.4436 22.8045 78.4344L82.5429 112.926C83.3189 113.371 84.0304 113.401 84.5755 113.09C84.5942 113.082 84.605 113.071 84.6184 113.06C85.2548 112.671 85.6521 111.798 85.6521 110.574V59.1347C85.6521 56.8497 84.2613 54.1916 82.5429 53.1981L22.8045 18.7094C22.0501 18.2718 21.36 18.2342 20.823 18.5161" stroke="#171717" stroke-width="1.77384" stroke-linecap="round" stroke-linejoin="round"/>
<path d="M19.6953 62.0506C21.6446 57.5988 23.3576 52.2826 27.1408 54.4681C33.9258 58.3855 32.3631 70.8332 40.5819 75.5802C48.8033 80.3273 47.3695 58.4688 54.1545 62.3889C60.9395 66.3063 59.2828 77.4006 67.7244 82.2712C76.1661 87.1472 74.5094 63.8549 81.2971 67.7749C83.5068 69.053 84.7097 73.1637 85.6495 78.3189" stroke="#171717" stroke-width="1.77384" stroke-linecap="round" stroke-linejoin="round"/>
<path d="M30.6573 35.5687C30.6573 36.546 29.9753 36.9407 29.1269 36.4547C28.2784 35.966 27.5938 34.7766 27.5938 33.7966C27.5938 32.8166 28.2811 32.4245 29.1269 32.9132C29.9753 33.4019 30.6573 34.5913 30.6573 35.566V35.5687Z" stroke="#171717" stroke-width="1.77384" stroke-linecap="round" stroke-linejoin="round"/>
<path d="M36.1768 38.7557C36.1768 39.733 35.4895 40.1303 34.6464 39.639C33.7979 39.153 33.1133 37.9609 33.1133 36.9862C33.1133 36.0116 33.8006 35.6115 34.6464 36.1029C35.4895 36.5889 36.1768 37.781 36.1768 38.7557Z" stroke="#171717" stroke-width="1.77384" stroke-linecap="round" stroke-linejoin="round"/>
<path d="M41.6925 41.9429C41.6925 42.9203 41.0051 43.3149 40.1594 42.8263C39.3163 42.3376 38.6289 41.1482 38.6289 40.1735C38.6289 39.1989 39.3163 38.8015 40.1594 39.2875C41.0078 39.7761 41.6925 40.9656 41.6925 41.9456V41.9429Z" stroke="#171717" stroke-width="1.77384" stroke-linecap="round" stroke-linejoin="round"/>
<path d="M28.0918 80.7236L32.9087 74.873V83.4409L28.0918 89.2861V80.7236Z" fill="#171717"/>
<path d="M10.7578 91.982V83.4169C11.2304 83.0195 11.7728 82.6382 12.3849 82.2865C16.6326 79.8324 22.9584 79.3142 28.0921 80.7238V89.2889C22.9611 87.882 16.6353 88.4029 12.3849 90.8543C11.7728 91.2087 11.2304 91.5846 10.7578 91.982Z" fill="#171717"/>
<path d="M28.0922 80.724C22.9611 79.3117 16.6326 79.8326 12.385 82.2867C11.7728 82.6411 11.2304 83.0197 10.7578 83.417L1.5 79.752C2.3592 79.0325 3.3419 78.3451 4.4508 77.7034C12.1487 73.2624 23.6136 72.3146 32.9117 74.8707L28.0922 80.7213V80.724Z" fill="#FAFAFA"/>
<path d="M1.5 88.3171V79.752L10.7578 83.417V91.9821L1.5 88.3171Z" fill="#FAFAFA"/>
<path d="M10.7578 91.9808C11.2304 91.5834 11.7728 91.2075 12.3849 90.8531C16.6353 88.4017 22.9584 87.8808 28.0921 89.2878V80.7227" stroke="#171717" stroke-width="1.77384" stroke-linecap="round" stroke-linejoin="round"/>
<path d="M32.9144 74.8701H32.9117L28.0921 80.7234C22.9611 79.3111 16.6326 79.832 12.3849 82.2861C11.7728 82.6405 11.2304 83.0191 10.7578 83.4164" stroke="#171717" stroke-width="1.77384" stroke-linecap="round" stroke-linejoin="round"/>
<path d="M28.0922 89.2854L32.9117 83.4402V74.8724C23.6136 72.3163 12.1514 73.2614 4.4508 77.705C3.3419 78.3441 2.3592 79.0314 1.5 79.7537M1.5 79.7537L10.7578 83.4187V91.9838L1.5 88.3188V79.7537Z" stroke="#171717" stroke-width="1.77384" stroke-linecap="round" stroke-linejoin="round"/>
<path d="M34.98 6.86737L41.1206 17.5053L19.4822 29.9986L8.02539 10.1135L14.166 6.56934L19.4796 15.8191L34.98 6.86737Z" fill="#0D6EDE"/>
<path d="M40.7933 3.49081L34.9824 6.8457L41.1257 17.4861L46.9365 14.1312L40.7933 3.49081Z" fill="#171717"/>
<path d="M25.2899 12.4654L19.4796 15.8189L14.166 6.56913L19.979 3.21289L25.2899 12.4654Z" fill="#171717"/>
<path d="M14.166 6.56913L19.979 3.21289L25.2899 12.4654" stroke="#171717" stroke-width="1.77384" stroke-linecap="round" stroke-linejoin="round"/>
<path d="M34.9805 6.86698L40.7908 3.51074L46.9314 14.1514L41.121 17.5049" stroke="#171717" stroke-width="1.77384" stroke-linecap="round" stroke-linejoin="round"/>
<path d="M41.1206 17.5053L19.4822 29.9986L8.02539 10.1135L14.166 6.56934L19.4796 15.8191L34.98 6.86737L41.1206 17.5053Z" stroke="#171717" stroke-width="1.77384" stroke-linecap="round" stroke-linejoin="round"/>
</svg>
