<svg width="95" height="99" viewBox="0 0 95 99" fill="none" xmlns="http://www.w3.org/2000/svg">
<path d="M78.8453 65.1602C78.8453 65.1602 89.7921 83.287 84.8047 91.9548C79.8173 100.623 71.0303 103.843 60.6383 102.725C34.3122 99.8941 1.90141 79.6291 2.71826 73.0913C3.82075 64.2693 52.2911 74.3808 52.2911 74.3808L56.6065 65.2485L78.8453 65.1602Z" fill="#0D6EDE" stroke="#171717" stroke-width="1.38355" stroke-linecap="round" stroke-linejoin="round"/>
<path d="M3.0296 72.0534C1.56647 73.5597 -9.11932 94.51 55.3828 109.753L57.8046 105.302C57.8046 105.302 14.5877 60.1501 3.0296 72.0534Z" fill="#0D6EDE" stroke="#171717" stroke-width="1.38355" stroke-linecap="round" stroke-linejoin="round"/>
<path d="M57.8916 105.302C57.8916 105.302 36.2529 82.6973 19.5039 73.6914" stroke="#171717" stroke-width="1.38355" stroke-miterlimit="10"/>
<path d="M70.7034 91.1208C59.471 114.803 27.4763 141.815 27.4763 141.815C27.4763 141.815 25.0586 139.722 22.0234 139.592C22.0234 139.592 50.6531 75.9233 66.8216 72.8347C79.8942 70.3328 72.5909 87.1383 70.7034 91.1208Z" fill="#0D6EDE" stroke="#171717" stroke-width="1.38355" stroke-linecap="round" stroke-linejoin="round"/>
<path d="M57.4559 31.0503C62.7094 39.6318 55.7955 59.5115 52.6144 62.4809C46.7228 67.9871 21.0409 67.2073 21.0409 67.2073L19.998 64.8441C19.998 64.8441 34.1516 57.1267 45.4467 56.5143C45.4467 56.5143 48.4603 41.024 49.46 36.5812C50.7197 30.9825 53.8299 25.1268 57.4559 31.0503Z" fill="#FAFAFA" stroke="#171717" stroke-width="1.38355" stroke-linecap="round" stroke-linejoin="round"/>
<path d="M22.8962 65.0494C22.33 63.6315 17.4813 64.5192 15.5548 65.4142C13.916 66.1755 11.934 68.2192 11.6103 68.6518C11.2867 69.0843 10.5664 71.2687 10.5664 71.2687C10.5664 71.2687 11.2641 72.0065 12.2042 70.7201C13.1443 69.4337 15.5826 67.9603 16.1877 68.2829C17.5481 69.0093 14.252 69.295 13.8913 69.8169C13.5307 70.3389 13.7023 70.6492 13.7023 70.6492C13.7023 70.6492 16.8001 70.5084 17.2984 70.4437C17.7968 70.3789 19.7716 69.485 20.7374 68.6754C21.7033 67.8657 23.2496 65.933 22.8962 65.0494Z" fill="#0D6EDE"/>
<path d="M78.3503 25.8579C79.9409 26.3295 84.9262 28.1852 84.9262 28.1852C84.9262 28.1852 84.5039 40.2334 83.0901 43.0836C77.1677 55.025 79.011 66.0273 79.011 66.0273C79.011 66.0273 64.9859 68.3617 56.4065 66.1105C56.4065 66.1105 57.5285 57.0255 55.6954 55.9384C53.8624 54.8514 50.8601 52.4091 51.6883 47.4915C52.5164 42.574 52.3274 29.6781 53.3322 28.8448C54.3371 28.0115 58.7779 25.8436 59.9245 25.8477C61.0712 25.8518 78.3503 25.8579 78.3503 25.8579Z" fill="#FAFAFA" stroke="#171717" stroke-width="1.38355" stroke-linecap="round" stroke-linejoin="round"/>
<path d="M34.5709 50.1865H3.16601C2.8199 50.1865 2.47892 50.2702 2.17207 50.4303C1.86523 50.5904 1.60161 50.8223 1.40366 51.1062C1.20571 51.3901 1.07928 51.7177 1.03513 52.0609C0.990981 52.4042 1.03042 52.7531 1.15009 53.0779L9.0617 74.5923H45.8373L37.6503 52.337C37.418 51.707 36.9984 51.1633 36.4479 50.7788C35.8974 50.3944 35.2424 50.1877 34.5709 50.1865Z" fill="#0D6EDE" stroke="#171717" stroke-width="1.38355" stroke-linecap="round" stroke-linejoin="round"/>
<path d="M33.9526 51.2773H3.33364C2.99616 51.2775 2.66369 51.3591 2.36451 51.5152C2.06532 51.6714 1.80826 51.8975 1.61518 52.1743C1.42211 52.4511 1.29873 52.7704 1.25552 53.1051C1.21232 53.4398 1.25059 53.78 1.36705 54.0968L9.08548 75.0758H44.9445L36.961 53.3744C36.7344 52.7591 36.3244 52.228 35.7864 51.853C35.2484 51.478 34.6083 51.2771 33.9526 51.2773Z" fill="#0D6EDE" stroke="#171717" stroke-width="1.38355" stroke-linecap="round" stroke-linejoin="round"/>
<path d="M9.07812 74.6621H61.084C61.6726 74.6621 62.2372 74.8959 62.6534 75.3121C63.0696 75.7283 63.3034 76.2929 63.3034 76.8815V77.3705H11.2975C10.7089 77.3705 10.1444 77.1367 9.72816 76.7205C9.31195 76.3043 9.07812 75.7398 9.07812 75.1512V74.6621Z" fill="#0D6EDE" stroke="#171717" stroke-width="1.38355" stroke-linecap="round" stroke-linejoin="round"/>
<path d="M34.5709 50.1865H3.16601C2.8199 50.1865 2.47892 50.2702 2.17207 50.4303C1.86523 50.5904 1.60161 50.8223 1.40366 51.1062C1.20571 51.3901 1.07928 51.7177 1.03513 52.0609C0.990981 52.4042 1.03042 52.7531 1.15009 53.0779L9.0617 74.5923H45.8373L37.6503 52.337C37.418 51.707 36.9984 51.1633 36.4479 50.7788C35.8974 50.3944 35.2424 50.1877 34.5709 50.1865Z" fill="#0D6EDE" stroke="#171717" stroke-width="1.38355" stroke-linecap="round" stroke-linejoin="round"/>
<path d="M23.7359 65.0573C24.4801 64.2308 24.2571 62.8168 23.2379 61.899C22.2186 60.9813 20.789 60.9073 20.0448 61.7339C19.3006 62.5604 19.5235 63.9744 20.5428 64.8922C21.5621 65.8099 22.9917 65.8839 23.7359 65.0573Z" fill="#0D6EDE" stroke="#171717" stroke-width="1.38355" stroke-linecap="round" stroke-linejoin="round"/>
<path d="M50.8091 75.6299H48.6113V76.419H50.8091V75.6299Z" fill="#0D6EDE" stroke="#171717" stroke-width="1.38355" stroke-linecap="round" stroke-linejoin="round"/>
<path d="M55.0103 75.6299H52.8125V76.419H55.0103V75.6299Z" fill="#0D6EDE" stroke="#171717" stroke-width="1.38355" stroke-linecap="round" stroke-linejoin="round"/>
<path d="M62.6936 2.34015C62.6936 2.34015 55.1201 -1.21288 50.4265 6.23533C45.7217 13.701 52.1733 17.0239 48.8031 20.8358C45.1566 24.9622 40.5401 27.3788 44.2822 35.5555C48.0962 43.8935 38.3701 40.8193 40.4733 50.1015H56.9644C56.9644 50.1015 64.0592 47.6181 61.9302 41.4995C59.8013 35.3808 55.2393 34.5342 59.5146 29.1358C62.7255 25.0824 77.5387 25.9085 78.8693 26.2589C80.1998 26.6092 85.8695 28.5491 85.8695 28.5491C85.8695 28.5491 88.1238 21.8037 84.8995 18.0883C80.8194 13.3886 74.0154 16.8554 72.7753 11.3388C71.9368 7.61934 70.3093 3.29981 67.605 2.48297C64.6993 1.6055 62.6936 2.34015 62.6936 2.34015Z" fill="#171717"/>
<path d="M62.0224 3.27353C62.0224 3.27353 60.4298 0.800388 52.3435 6.43817C47.3458 9.92339 50.8393 17.0212 47.4691 20.8332C43.8226 24.9595 39.2072 27.3762 42.9482 35.5529C46.7622 43.8909 37.0361 40.8166 39.1394 50.0989" stroke="#171717" stroke-width="1.38355" stroke-linecap="round" stroke-linejoin="round"/>
<path d="M68.4724 15.2998C68.4724 15.2998 68.2196 20.917 70.2695 23.7991C71.6638 25.7565 70.4113 25.5921 75.2733 26.151C75.2733 26.151 75.7809 33.3629 64.5238 33.3629C56.1704 33.3629 59.5148 29.1359 59.5148 29.1359C59.5148 29.1359 63.0021 24.0837 61.4989 15.2998H68.4724Z" fill="#FAFAFA" stroke="#171717" stroke-width="1.38355" stroke-linecap="round" stroke-linejoin="round"/>
<path d="M68.5819 14.8637C68.5819 14.8637 68.7976 26.1516 59.7712 26.1516C59.5886 26.1509 59.4084 26.1091 59.2441 26.0293C59.7188 25.6985 62.6821 23.2613 61.22 14.7178H68.5819C68.5819 14.7178 68.5819 14.7671 68.5819 14.8596V14.8637Z" fill="#171717"/>
<path d="M68.8287 14.6787C68.8287 14.6787 67.5361 24.3288 61.4072 24.375C57.3764 24.4048 55.0481 18.7527 54.1038 15.7894C53.026 12.4059 54.1686 5.64306 59.9184 5.72834C64.9119 5.80334 67.5217 12.6125 67.5217 12.6125L68.8287 14.6787Z" fill="#FAFAFA" stroke="#171717" stroke-width="1.38355" stroke-linecap="round" stroke-linejoin="round"/>
<path d="M67.6515 14.189C67.6515 14.189 67.4069 13.3537 67.633 12.5995C67.7768 12.1217 68.1108 11.6748 68.8156 11.498" stroke="#171717" stroke-width="1.38355" stroke-linecap="round" stroke-linejoin="round"/>
<path d="M68.8154 13.1483L67.6328 12.5996" stroke="#171717" stroke-width="1.38355" stroke-linecap="round" stroke-linejoin="round"/>
<path d="M77.9695 29.0625C77.9695 29.0625 74.437 38.2194 80.0871 43.139C81.9089 44.7244 84.5978 43.2756 84.5978 43.2756" fill="#FAFAFA"/>
<path d="M77.9695 29.0625C77.9695 29.0625 74.437 38.2194 80.0871 43.139C81.9089 44.7244 84.5978 43.2756 84.5978 43.2756" stroke="#171717" stroke-width="1.38355" stroke-linecap="round" stroke-linejoin="round"/>
<path d="M80.62 38.3511C82.6339 44.7277 85.3043 53.7418 85.3043 53.7418C74.711 54.3172 58.7398 60.742 56.7948 61.5383C53.5665 62.2575 48.9952 64.8714 48.1167 65.3965C47.2947 65.864 46.0022 67.1596 45.6117 67.6795C45.2007 68.222 44.2441 70.1753 44.2441 70.1753C44.4479 70.276 44.6795 70.3054 44.9019 70.2588C45.1244 70.2122 45.3247 70.0924 45.471 69.9184C45.848 69.5074 46.481 68.5169 46.9885 68.0351C46.5282 69.191 46.0977 70.3849 46.0977 70.3849C46.0977 70.3849 47.2392 70.6644 48.7024 70.1917C49.4031 69.9657 50.1778 68.6217 50.9978 67.7371C51.8177 66.8524 53.6065 67.2706 55.3974 66.9675C57.1883 66.6644 58.4316 64.0382 58.4316 64.0382L58.4069 63.995C63.0563 64.0721 87.5083 64.2313 92.8347 59.2542C96.0199 56.2817 91.8915 36.9229 86.638 28.3425C84.3272 24.5696 80.8841 25.0761 79.2699 27.4784C78.7305 28.2788 78.0863 28.7463 78.0596 29.8796" fill="#FAFAFA"/>
<path d="M80.62 38.3511C82.6339 44.7277 85.3043 53.7418 85.3043 53.7418C74.711 54.3172 58.7398 60.742 56.7948 61.5383C53.5665 62.2575 48.9952 64.8714 48.1167 65.3965C47.2947 65.864 46.0022 67.1596 45.6117 67.6795C45.2007 68.222 44.2441 70.1753 44.2441 70.1753C44.4479 70.276 44.6795 70.3054 44.9019 70.2588C45.1244 70.2122 45.3247 70.0924 45.471 69.9184C45.848 69.5074 46.481 68.5169 46.9885 68.0351C46.5282 69.191 46.0977 70.3849 46.0977 70.3849C46.0977 70.3849 47.2392 70.6644 48.7024 70.1917C49.4031 69.9657 50.1778 68.6217 50.9978 67.7371C51.8177 66.8524 53.6065 67.2706 55.3974 66.9675C57.1883 66.6644 58.4316 64.0382 58.4316 64.0382L58.4069 63.995C63.0563 64.0721 87.5083 64.2313 92.8347 59.2542C96.0199 56.2817 91.8915 36.9229 86.638 28.3425C84.3272 24.5696 80.8841 25.0761 79.2699 27.4784C78.7305 28.2788 78.0863 28.7463 78.0596 29.8796" stroke="#171717" stroke-width="1.38355" stroke-linecap="round" stroke-linejoin="round"/>
<path d="M47.0139 70.4629C46.9937 70.4661 46.9731 70.4636 46.9543 70.4557C46.9408 70.4508 46.9285 70.4431 46.9182 70.4332C46.9079 70.4233 46.8998 70.4113 46.8944 70.398C46.8889 70.3848 46.8864 70.3705 46.8868 70.3562C46.8872 70.3419 46.8906 70.3278 46.8967 70.3149C47.0344 69.9882 48.2571 67.1143 48.7955 66.7249C49.7295 66.0488 50.946 65.1621 50.946 65.1621L51.0734 65.3368C51.0734 65.3368 49.8559 66.2245 48.9229 66.8996C48.5119 67.1996 47.4629 69.5268 47.0961 70.393C47.0895 70.4107 47.0785 70.4265 47.0641 70.4387C47.0497 70.451 47.0324 70.4593 47.0139 70.4629Z" stroke="#171717" stroke-width="1.38355" stroke-linecap="round" stroke-linejoin="round"/>
<path d="M48.1744 70.2639C48.1551 70.2669 48.1353 70.2646 48.1171 70.2573C48.0989 70.25 48.0831 70.2379 48.0712 70.2223C48.0593 70.2068 48.0518 70.1883 48.0496 70.1688C48.0473 70.1494 48.0503 70.1297 48.0583 70.1118C48.1076 70.0091 49.2769 67.4681 49.8235 67.0725C50.7575 66.3975 51.974 65.5107 51.974 65.5107L52.1014 65.6854C52.1014 65.6854 50.8839 66.5721 49.9509 67.2482C49.5399 67.5482 48.5854 69.482 48.2546 70.2022C48.2472 70.2182 48.236 70.2322 48.2221 70.2429C48.2081 70.2536 48.1918 70.2608 48.1744 70.2639Z" stroke="#171717" stroke-width="1.38355" stroke-linecap="round" stroke-linejoin="round"/>
<path d="M67.1387 16.9385C67.1387 16.9385 67.1171 29.3576 73.844 30.2546C80.5709 31.1516 85.8974 26.6872 85.8974 26.6872" fill="#171717"/>
<path d="M58.8169 14.8438L58.4531 17.8461L59.7231 18.5869" stroke="#171717" stroke-width="1.38355" stroke-linecap="round" stroke-linejoin="round"/>
<path d="M61.4691 14.9116C61.7379 14.8173 61.8548 14.453 61.7302 14.098C61.6056 13.743 61.2867 13.5317 61.0179 13.6261C60.7491 13.7204 60.6323 14.0847 60.7569 14.4397C60.8814 14.7947 61.2004 15.006 61.4691 14.9116Z" fill="#171717"/>
<path d="M56.9203 16.0757C57.1891 15.9813 57.306 15.6171 57.1814 15.2621C57.0568 14.9071 56.7379 14.6958 56.4691 14.7901C56.2003 14.8845 56.0834 15.2487 56.208 15.6037C56.3326 15.9587 56.6515 16.17 56.9203 16.0757Z" fill="#171717"/>
<path d="M59.6211 12.2025C59.6211 12.2025 60.5088 11.1432 62.422 12.0659" stroke="#171717" stroke-width="1.38355" stroke-linecap="round" stroke-linejoin="round"/>
<path d="M54.9297 13.6843C54.9297 13.6843 55.4301 12.3938 57.2754 12.9425" stroke="#171717" stroke-width="1.38355" stroke-linecap="round" stroke-linejoin="round"/>
<path d="M57.7051 5.24565C57.7051 5.24565 60.6776 4.01268 61.6691 6.95435C62.6606 9.89603 64.2758 12.3527 67.534 10.644C70.7921 8.93533 69.4584 6.71495 69.4584 6.71495" fill="#171717"/>
<path d="M67.9616 14.721C69.1334 14.721 70.0833 13.7711 70.0833 12.5993C70.0833 11.4275 69.1334 10.4775 67.9616 10.4775C66.7898 10.4775 65.8398 11.4275 65.8398 12.5993C65.8398 13.7711 66.7898 14.721 67.9616 14.721Z" fill="#FAFAFA"/>
<path d="M67.1559 13.8941C67.1559 13.8941 66.9103 13.0588 67.1374 12.3046C67.2802 11.8268 67.6141 11.3799 68.319 11.2031" stroke="#171717" stroke-width="1.38355" stroke-linecap="round" stroke-linejoin="round"/>
<path d="M68.3203 12.8534L67.1387 12.3047" stroke="#171717" stroke-width="1.38355" stroke-linecap="round" stroke-linejoin="round"/>
<path d="M67.0262 10.3451C66.421 4.81415 60.9168 1.64848 60.8613 1.62793L63.5122 1.80877C63.8328 1.91768 66.8854 2.341 69.7336 9.67618L67.0262 10.3451Z" fill="#0D6EDE" stroke="#171717" stroke-width="1.38355" stroke-linecap="round" stroke-linejoin="round"/>
<path d="M69.1406 17.8337C70.5361 17.6475 71.4207 15.6475 71.1163 13.3667C70.812 11.0858 69.434 9.38779 68.0385 9.57399C66.643 9.76019 65.7584 11.7601 66.0628 14.041C66.3671 16.3218 67.7451 18.0199 69.1406 17.8337Z" fill="#0D6EDE" stroke="#171717" stroke-width="1.38355" stroke-linecap="round" stroke-linejoin="round"/>
<path d="M70.0234 17.7174C71.4189 17.5312 72.3035 15.5313 71.9991 13.2505C71.6948 10.9696 70.3168 9.27158 68.9213 9.45778C67.5258 9.64398 66.6412 11.6439 66.9456 13.9248C67.2499 16.2056 68.6279 17.9036 70.0234 17.7174Z" fill="#0D6EDE" stroke="#171717" stroke-width="1.38355" stroke-linecap="round" stroke-linejoin="round"/>
<path d="M59.7266 20.1085C59.7266 20.1085 61.7075 20.4496 62.5953 18.4912" stroke="#171717" stroke-width="1.38355" stroke-linecap="round" stroke-linejoin="round"/>
</svg>
