<svg width="101" height="101" viewBox="0 0 101 101" fill="none" xmlns="http://www.w3.org/2000/svg">
<path d="M59.6595 98.8268C82.4353 95.1667 100.365 88.8738 99.7054 84.7725C99.0461 80.6712 80.0486 80.3133 57.2724 83.9735C34.4965 87.6337 16.5675 93.9265 17.2266 98.0278C17.8858 102.129 36.8836 102.487 59.6595 98.8268Z" fill="#171717"/>
<path d="M59.6595 98.8268C82.4353 95.1667 100.365 88.8738 99.7054 84.7725C99.0461 80.6712 80.0486 80.3133 57.2724 83.9735C34.4965 87.6337 16.5675 93.9265 17.2266 98.0278C17.8858 102.129 36.8836 102.487 59.6595 98.8268Z" stroke="#171717" stroke-width="1.10041" stroke-miterlimit="10"/>
<path d="M52.4521 31.3245L79.2344 1.87256L82.4494 15.8541L98.3795 32.4155L58.3212 39.0885L23.8163 72.1046L20.974 54.7845L6.7832 43.481L52.4521 31.3245Z" fill="#FAFAFA"/>
<path d="M23.1238 74.1877L20.0273 55.3585L4.55273 43.0134L51.9032 30.4098L79.7928 -0.268555L83.3816 15.3495L100.464 33.1085L58.8018 40.048L23.1238 74.1877ZM9.01508 43.9484L21.9221 54.2306L24.5142 70.0168L57.842 38.1327L96.2925 31.7263L81.5273 16.3626L78.6891 4.01328L53.0106 32.239L9.01508 43.9484Z" fill="#171717"/>
<path d="M73.6602 8.00408L80.7266 8.36502L79.2341 1.87256L73.6602 8.00408Z" fill="#171717"/>
<path d="M98.3791 32.4155L94.0024 27.9204L91.1523 33.6213L98.3791 32.4155Z" fill="#171717"/>
<path d="M6.7832 43.481L14.4528 41.4385L13.247 48.6282L6.7832 43.481Z" fill="#171717"/>
<path d="M23.8175 72.1043L22.7676 65.6938L29.7809 66.3992L23.8175 72.1043Z" fill="#171717"/>
<path d="M89.332 34.9623L93.7373 26.1689L100.484 33.1044L89.332 34.9623ZM94.2744 29.6674L92.97 32.2759L96.2755 31.7263L94.2744 29.6674Z" fill="#171717"/>
<path d="M13.9684 50.5145L4.53516 43.0131L15.7114 40.0396L13.9684 50.5145ZM9.01385 43.9523L12.5287 46.7453L13.1809 42.8408L9.01385 43.9523Z" fill="#171717"/>
<path d="M23.1235 74.1878L21.5527 64.5415L32.0974 65.612L23.1235 74.1878ZM24.0135 66.8424L24.5303 70.0087L27.4792 67.191L24.0135 66.8424Z" fill="#171717"/>
<path d="M30.8827 55.5637L28.8361 55.4365L29.1561 50.1663L24.1523 46.8482L25.2844 45.1421L31.2765 49.1122L30.8827 55.5637Z" fill="#FAFAFA"/>
<path d="M81.8091 26.1117L74.726 20.4723L74.6602 15.3825L76.7112 15.3579L76.7604 19.4757L83.089 24.5081L81.8091 26.1117Z" fill="#FAFAFA"/>
<path d="M82.0307 9.45585L71.4453 8.9144L79.7916 -0.268555L82.0307 9.45585ZM75.8791 7.08931L79.4266 7.26982L78.68 4.01328L75.8791 7.08931Z" fill="#171717"/>
<path d="M50.4302 32.9118L82.5193 9.35352L80.5793 23.7822L95.2255 43.0874L54.6382 41.6847L14.2765 67.1994L19.0915 48.1034L3.25195 35.7664L50.4302 32.9118Z" fill="#0D6EDE"/>
<path d="M12.6532 69.4387L17.9316 48.5012L0.484375 34.9092L50.066 31.9028L83.8571 7.09766L81.6552 23.5032L97.3465 44.1906L54.9221 42.7264L12.6532 69.4387ZM6.02534 36.6276L20.249 47.7014L15.8974 64.9641L54.3643 40.6511L93.1102 41.9882L79.5098 24.0651L81.1831 11.6051L50.792 33.9167H50.4926L6.02534 36.6276Z" fill="#171717"/>
<path d="M75.8398 14.2547L81.5733 16.4038L82.5207 9.35352L75.8398 14.2547Z" fill="#171717"/>
<path d="M95.2274 43.0874L91.5236 38.2026L87.9023 42.8331L95.2274 43.0874Z" fill="#171717"/>
<path d="M3.25195 35.7665L11.1759 35.2866L9.61731 40.7251L3.25195 35.7665Z" fill="#171717"/>
<path d="M14.2773 67.1991L15.8441 60.9814L21.2497 62.7942L14.2773 67.1991Z" fill="#171717"/>
<path d="M97.3468 44.1861L85.8633 43.776L91.5436 36.5083L97.3468 44.1861ZM89.9646 41.877L93.1186 41.9878L91.5229 39.8838L89.9646 41.877Z" fill="#171717"/>
<path d="M10.1842 42.4637L0.484375 34.909L12.5629 34.1748L10.1842 42.4637ZM6.02534 36.6274L9.05218 38.9817L9.7904 36.3978L6.02534 36.6274Z" fill="#171717"/>
<path d="M12.6523 69.4385L15.1131 59.6567L23.6113 62.5277L12.6523 69.4385ZM16.5692 62.3062L15.8965 64.9639L18.8782 63.0773L16.5692 62.3062Z" fill="#171717"/>
<path d="M24.4818 52.3894L22.5008 51.8603L23.8584 46.7581L19.6094 42.5132L21.0612 41.0654L26.1429 46.1429L24.4818 52.3894Z" fill="#FAFAFA"/>
<path d="M80.2341 33.621L74.4102 26.6897L75.3536 21.686L77.3673 22.0674L76.604 26.1155L81.8051 32.3045L80.2341 33.621Z" fill="#FAFAFA"/>
<path d="M82.4183 17.8144L73.707 14.5333L83.8576 7.08105L82.4183 17.8144ZM77.9766 13.9591L80.7282 14.9927L81.1837 11.6049L77.9766 13.9591Z" fill="#171717"/>
<path d="M57.7444 93.2146C50.9975 94.3008 45.3418 94.0144 45.1121 92.5743L43.332 82.4277L67.7599 78.4985L69.5399 88.6451C69.7696 90.0852 64.4911 92.1315 57.7444 93.2146Z" fill="#FAFAFA"/>
<path d="M50.2638 94.9041C47.8932 94.9041 45.8589 94.6296 44.8664 93.9076C44.6652 93.7751 44.4932 93.6021 44.3614 93.4005C44.2294 93.199 44.1403 92.9721 44.0994 92.7348L42.3194 82.6001C42.2965 82.4661 42.3004 82.3288 42.3307 82.1971C42.3611 82.0646 42.4173 81.9392 42.4963 81.8289C42.5752 81.7178 42.6752 81.6242 42.7906 81.5528C42.9059 81.4806 43.0343 81.433 43.1684 81.4108L67.5962 77.4816C67.8601 77.4388 68.1304 77.4999 68.3495 77.653C68.5686 77.8061 68.7192 78.0394 68.7692 78.302L70.5493 88.4526C71.0992 91.9144 60.1153 93.8544 57.9046 94.1948C55.3793 94.6233 52.825 94.8605 50.2638 94.9041ZM46.1009 92.2715C46.8227 92.788 50.8421 93.2839 57.5847 92.1977C64.3151 91.1186 67.9736 89.3881 68.5068 88.67L66.9277 79.6469L44.5219 83.269L46.1009 92.2715Z" fill="#171717"/>
<path d="M68.0784 56.6095L62.521 64.3817L63.9688 77.2522L64.379 80.9719C61.648 81.9502 58.8279 82.6587 55.9588 83.088C52.9035 83.6172 49.7992 83.8084 46.702 83.6585L46.0335 80.2419L43.7982 68.8235L41.0544 63.0323L35.5586 40.528L38.5444 31.2999L60.4909 21.8667L64.9573 42.0086L71.7244 42.2834L68.0784 56.6095Z" fill="#FAFAFA"/>
<path d="M48.5311 84.7443C47.8502 84.7443 47.2104 84.7244 46.6239 84.6792L45.8487 84.6213L42.8178 69.1471L40.0863 63.3764L34.4961 40.4867L37.7157 30.5408L61.2248 20.4473L65.7897 41.028L73.0325 41.3233L69.0257 57.048L63.5872 64.6397L65.4985 81.607L64.7561 81.8942C61.9622 82.8948 59.0777 83.6215 56.1432 84.0635C53.627 84.4856 51.0822 84.7133 48.5311 84.7443ZM47.5549 82.694C50.319 82.744 53.0817 82.5353 55.8069 82.0704C58.3437 81.6839 60.8434 81.0841 63.2796 80.278L61.4586 64.0983L67.1349 56.1785L70.416 43.2755L64.1245 43.0212L59.7565 23.3346L39.3726 32.0829L36.6206 40.5892L42.0222 62.712L44.7823 68.4827L47.5549 82.694Z" fill="#171717"/>
<path d="M42.0449 29.1284L39.2773 40.4385L41.2692 40.9259L44.0368 29.6158L42.0449 29.1284Z" fill="#171717"/>
<path d="M47.8318 26.7588L46.5938 38.2871L48.6327 38.506L49.8708 26.9778L47.8318 26.7588Z" fill="#171717"/>
<path d="M55.8707 24.2876L53.8203 24.3198L54.0034 35.9704L56.0538 35.9382L55.8707 24.2876Z" fill="#171717"/>
<path d="M46.0351 80.2417L46.7037 83.6583C44.7063 83.5107 43.4431 83.0918 43.3323 82.4276C43.2216 81.7635 44.2552 80.9963 46.0351 80.2417Z" fill="#171717"/>
<path d="M64.3886 80.9511L63.9785 77.2314C66.2179 77.3544 67.6698 77.7853 67.7682 78.4946C67.8666 79.204 66.5788 80.1101 64.3886 80.9511Z" fill="#171717"/>
<path d="M46.7028 84.6835H46.629C44.9064 84.5566 42.5891 84.2035 42.3225 82.5959C42.0559 80.9884 44.0943 79.9546 45.6364 79.315C45.7769 79.2547 45.929 79.227 46.0815 79.2333C46.2341 79.2397 46.3833 79.2801 46.5183 79.3515C46.6525 79.4237 46.7692 79.5253 46.8599 79.6475C46.9507 79.7705 47.0132 79.9117 47.0432 80.0609L47.7118 83.4775C47.7417 83.633 47.7355 83.7925 47.6935 83.9448C47.6516 84.0971 47.575 84.2376 47.4698 84.355C47.3726 84.4613 47.2539 84.5454 47.1216 84.6018C46.9894 84.6589 46.8466 84.6867 46.7028 84.6835ZM44.5496 82.2222C44.8338 82.3301 45.1277 82.4095 45.4273 82.4603L45.2838 81.7303C45.0233 81.8731 44.7774 82.0405 44.5496 82.231V82.2222Z" fill="#171717"/>
<path d="M64.3865 81.9765C64.1999 81.9773 64.0168 81.9265 63.8575 81.8289C63.7233 81.7472 63.6096 81.6361 63.525 81.5044C63.4404 81.3719 63.3872 81.2219 63.3694 81.0664L62.9593 77.346C62.943 77.1984 62.9591 77.0484 63.0065 76.9072C63.0538 76.7659 63.1312 76.6366 63.2334 76.5279C63.3355 76.42 63.46 76.3351 63.5982 76.2796C63.7364 76.224 63.885 76.1986 64.0338 76.2058C67.0647 76.374 68.574 77.0262 68.7791 78.3306C68.9842 79.635 67.7169 80.7911 64.7638 81.9067C64.6435 81.9535 64.5155 81.9773 64.3865 81.9765ZM65.1289 78.3631L65.2519 79.4708C65.7131 79.2653 66.1471 79.0035 66.5438 78.6916C66.0874 78.5242 65.6122 78.4139 65.1289 78.3631Z" fill="#171717"/>
<path d="M66.6768 85.9032L63.7711 84.0601L61.9277 86.9657L64.8334 88.8088L66.6768 85.9032Z" fill="#171717"/>
</svg>
