<svg width="101" height="94" viewBox="0 0 101 94" fill="none" xmlns="http://www.w3.org/2000/svg">
<path d="M59.6684 29.2271L96.7896 35.6342L99.5055 62.5048L63.1587 92.9374L27.9023 84.2179V79.9904L59.6684 29.2271Z" fill="#171717"/>
<path d="M59.6684 29.2271L96.7896 35.6342L61.7345 88.308L27.9023 79.9904L59.6684 29.2271Z" fill="#0D6EDE"/>
<path d="M62.1554 89.3901L27.6738 80.9133L28.1258 79.0676L61.3123 87.2291L95.9987 35.106L97.579 36.1619L62.1554 89.3901Z" fill="#171717"/>
<path d="M63.3978 93.9746L26.9375 84.9585V79.7172L59.1858 28.1826L97.6479 34.8215L100.485 62.9263L63.3978 93.9746ZM28.8365 83.4734L62.9003 91.901L98.4947 62.1021L95.9045 36.447L60.1202 30.2715L28.8516 80.2643L28.8365 83.4734Z" fill="#171717"/>
<path d="M64.3705 74.2137L45.582 68.5666L55.7757 52.3262L74.3593 58.008L64.3705 74.2137Z" fill="#FAFAFA"/>
<path d="M64.7971 75.3301L44.668 69.31L55.3022 51.2168L76.0541 57.0391L64.7971 75.3301ZM47.5468 68.1862L63.9463 73.0857L73.1408 58.1785L56.2251 53.431L47.5468 68.1862Z" fill="#171717"/>
<path d="M60.4847 53.7461L50.9844 70.2546L52.6303 71.2013L62.1306 54.6933L60.4847 53.7461Z" fill="#171717"/>
<path d="M66.8769 55.5654L57.166 72.2368L58.807 73.1928L68.5178 56.5212L66.8769 55.5654Z" fill="#171717"/>
<path d="M49.8539 62.4424L49.3184 64.2643L66.9434 69.445L67.4789 67.6228L49.8539 62.4424Z" fill="#171717"/>
<path d="M52.7448 56.7075L52.1836 58.5217L70.7281 64.2586L71.2892 62.4444L52.7448 56.7075Z" fill="#171717"/>
<path d="M81.9338 48.8929L61.1172 43.9745L65.8418 35.6343L87.6004 40.1196L81.9338 48.8929Z" fill="#FAFAFA"/>
<path d="M82.3642 49.971L59.668 44.6008L65.3649 34.5552L89.1476 39.4697L82.3642 49.971ZM62.562 43.3398L81.4949 47.8138L86.0525 40.7724L66.3296 36.7048L62.562 43.3398Z" fill="#171717"/>
<path d="M41.9165 79.4507C43.1939 79.4507 44.2295 78.4151 44.2295 77.1376C44.2295 75.8608 43.1939 74.8252 41.9165 74.8252C40.6391 74.8252 39.6035 75.8608 39.6035 77.1376C39.6035 78.4151 40.6391 79.4507 41.9165 79.4507Z" fill="#171717"/>
<path d="M49.3872 81.3496C50.6646 81.3496 51.7001 80.3148 51.7001 79.0373C51.7001 77.7597 50.6646 76.7241 49.3872 76.7241C48.1097 76.7241 47.0742 77.7597 47.0742 79.0373C47.0742 80.3148 48.1097 81.3496 49.3872 81.3496Z" fill="#171717"/>
<path d="M56.5571 83.7769C57.8345 83.7769 58.87 82.7413 58.87 81.4637C58.87 80.187 57.8345 79.1514 56.5571 79.1514C55.2797 79.1514 54.2441 80.187 54.2441 81.4637C54.2441 82.7413 55.2797 83.7769 56.5571 83.7769Z" fill="#171717"/>
<path d="M62.5914 29.7046L33.2656 77.6408L34.8798 78.6288L64.2056 30.692L62.5914 29.7046Z" fill="#171717"/>
<path d="M64.6905 2.69775L66.5781 24.4866L47.858 55.9109L41.918 29.2265L64.6905 2.69775Z" fill="#FAFAFA"/>
<path d="M47.4458 58.4521L40.8867 28.9686L65.4404 0.366211L67.5483 24.7073L67.3926 24.9693L47.4458 58.4521ZM42.9452 29.4851L48.2623 53.3704L65.6 24.2629L63.9327 5.03011L42.9452 29.4851Z" fill="#171717"/>
<path d="M65.0084 6.31006L42.9727 33.9781L44.1956 39.4585L65.2553 10.4878L65.0084 6.31006Z" fill="#171717"/>
<path d="M53.8301 38.1938L48.1445 46.9519L48.7408 49.9903L54.4871 40.7233L53.8301 38.1938Z" fill="#171717"/>
<path d="M15.6696 34.6651L9.39153 37.411L9.2168 37.487C7.46212 38.0605 4.5909 34.0688 2.7983 28.577C1.00561 23.0851 0.975252 18.1668 2.72993 17.5971L9.18644 14.7715L15.6696 34.6651Z" fill="#171717"/>
<path d="M8.8638 38.4937C7.97132 38.4937 6.74077 37.9316 5.24815 35.8617C3.79237 33.7101 2.66233 31.3553 1.89456 28.8734C0.375412 24.2286 0.0563792 19.9407 1.07045 17.9506C1.33048 17.3811 1.80372 16.9365 2.38833 16.7124L8.96635 13.8374L16.2622 35.4477L9.50943 38.3949C9.30067 38.4611 9.08286 38.4944 8.8638 38.4937ZM7.83077 16.401L3.02639 18.5013C2.94664 18.5241 2.85166 18.6418 2.76433 18.8127C2.11105 20.0926 2.22499 23.75 3.69856 28.2848C4.40827 30.5764 5.44981 32.7517 6.79017 34.7413C7.87252 36.2453 8.63217 36.6251 8.89798 36.5909L13.9075 34.3995L7.83077 16.401Z" fill="#171717"/>
<path d="M62.2461 21.7445L63.7007 24.4714L60.6623 26.3704L59.1431 25.3032L56.9023 28.3416L53.864 26.8224L52.0828 30.1114L45.4705 23.5106L40.4876 23.8903L28.8621 30.5482L19.9749 29.724L16.9631 30.9811L12.6752 32.751C11.4485 31.1407 10.199 28.6568 9.25701 25.7514C8.64298 23.9083 8.22038 22.0069 7.99609 20.0772L12.2233 16.7312L22.9942 8.19724L42.9714 2.69775L57.8594 8.19724L63.7007 20.7304L62.2461 21.7445Z" fill="#FAFAFA"/>
<path d="M12.3701 33.9097L11.9257 33.3248C10.5775 31.5588 9.30892 28.9724 8.35182 26.0479C7.7168 24.1408 7.28024 22.1732 7.04916 20.1763L6.99219 19.656L22.5638 7.33169L43.0234 1.70312L58.5646 7.44181L64.9034 21.0537L63.4829 22.045L64.9604 24.8136L60.6648 27.5102L59.4039 26.6176L57.2429 29.5421L54.3222 28.0875L52.3549 31.6879L45.1388 24.4718L40.8015 24.7908L29.0772 31.5018L20.1255 30.6739L12.3701 33.9097ZM9.01267 20.4916C9.24196 22.1772 9.62335 23.8386 10.1521 25.4555C10.8274 27.6166 11.788 29.6781 13.0082 31.5853L19.8445 28.7369L28.6671 29.5573L40.2167 22.9527L45.8528 22.5311L51.8991 28.5508L53.5133 25.5695L56.6466 27.1342L58.9672 23.9895L60.7142 25.2314L62.4537 24.1414L61.018 21.4334L62.5068 20.389L57.1669 8.95339L42.9322 3.69325L23.4449 9.05976L9.01267 20.4916Z" fill="#171717"/>
<path d="M61.4515 22.2615L54.5278 11.5322L45.2305 7.77983L45.9406 6.01758L55.8001 9.99409L63.0467 21.2322L61.4515 22.2615Z" fill="#171717"/>
<path d="M58.3954 25.8506L51.6654 16.3215L42.6719 13.3212L43.2758 11.521L52.858 14.7188L59.945 24.7568L58.3954 25.8506Z" fill="#171717"/>
<path d="M53.1776 27.4418L46.8426 19.9066L39.2656 18.6609L39.5733 16.7886L47.8452 18.1482L54.6284 26.2188L53.1776 27.4418Z" fill="#171717"/>
<path d="M12.2167 16.7317L7.98958 20.0777C7.68576 17.214 8.08073 15.1403 9.18595 14.7606C10.0215 14.5023 11.1115 15.2657 12.2167 16.7317Z" fill="#171717"/>
<path d="M16.9637 30.9624C16.9865 32.9791 16.5535 34.3806 15.6686 34.6655C14.7837 34.9502 13.7696 34.1907 12.6758 32.7665L16.9637 30.9624Z" fill="#171717"/>
<path d="M7.22885 21.8932L7.04654 20.1766C6.66672 16.6217 7.32375 14.3809 8.8923 13.8682C9.75824 13.5909 11.1711 13.7618 12.9751 16.1469L13.5334 16.9066L7.22885 21.8932ZM9.53419 15.6684H9.47722C9.24551 15.7444 8.86194 16.485 8.84298 18.1864L10.8673 16.5837C10.176 15.8431 9.71649 15.6684 9.53419 15.6684Z" fill="#171717"/>
<path d="M15.3229 35.6682C14.4721 35.6682 13.3137 35.1668 11.9047 33.3248L11.1641 32.3449L17.8826 29.542V30.951C17.9206 34.2287 16.8459 35.2731 15.9343 35.5694C15.7365 35.6325 15.5305 35.6657 15.3229 35.6682ZM14.2556 33.1197C14.8785 33.7159 15.2659 33.7995 15.376 33.7615C15.4861 33.7236 15.79 33.321 15.9267 32.4247L14.2556 33.1197Z" fill="#171717"/>
<path d="M8.78283 35.512C9.6974 35.512 10.4388 34.7706 10.4388 33.8562C10.4388 32.9416 9.6974 32.2002 8.78283 32.2002C7.86834 32.2002 7.12695 32.9416 7.12695 33.8562C7.12695 34.7706 7.86834 35.512 8.78283 35.512Z" fill="#FAFAFA"/>
</svg>
