<svg width="388" height="347" viewBox="0 0 388 347" fill="none" xmlns="http://www.w3.org/2000/svg">
<rect x="0.445312" y="102.124" width="385.127" height="243.384" rx="19.3601" fill="#FAFAFA"/>
<rect x="14.9648" y="117.336" width="356.087" height="212.961" rx="17.1663" fill="#F1F1F4"/>
<path d="M264.003 285.272L257.971 288.62C257.364 288.957 256.856 289.893 256.836 290.698L256.751 297.189C256.731 297.994 257.222 298.375 257.829 298.038L263.861 294.689C264.468 294.352 264.976 293.417 264.996 292.612L265.117 286.101C265.137 285.296 264.645 284.915 264.039 285.252L264.003 285.272Z" fill="#171717"/>
<path d="M278.784 277.069L272.752 280.418C272.145 280.755 271.637 281.69 271.617 282.495L271.532 288.986C271.512 289.791 272.003 290.172 272.61 289.835L278.642 286.486C279.249 286.15 279.757 285.214 279.777 284.409L279.898 277.898C279.918 277.093 279.427 276.712 278.82 277.049L278.784 277.069Z" fill="#171717"/>
<path d="M293.564 268.866L287.532 272.215C286.925 272.552 286.417 273.488 286.397 274.293L286.276 280.803C286.256 281.608 286.748 281.989 287.354 281.652L293.386 278.304C293.993 277.967 294.501 277.031 294.521 276.226L294.642 269.715C294.662 268.91 294.171 268.53 293.564 268.866Z" fill="#171717"/>
<path d="M308.341 260.662L302.309 264.011C301.702 264.348 301.195 265.283 301.174 266.088L301.053 272.599C301.033 273.404 301.525 273.785 302.132 273.448L308.164 270.099C308.771 269.763 309.278 268.827 309.299 268.022L309.42 261.511C309.44 260.706 308.948 260.325 308.341 260.662Z" fill="#171717"/>
<path d="M323.082 252.479L317.05 255.828C316.443 256.164 315.935 257.1 315.915 257.905L315.794 264.416C315.774 265.221 316.266 265.602 316.872 265.265L322.905 261.916C323.511 261.579 324.019 260.644 324.039 259.839L324.125 253.348C324.145 252.543 323.653 252.162 323.046 252.499L323.082 252.479Z" fill="#171717"/>
<path d="M337.857 244.276L331.825 247.625C331.219 247.962 330.711 248.897 330.691 249.702L330.57 256.213C330.549 257.018 331.041 257.399 331.648 257.062L337.68 253.713C338.287 253.376 338.795 252.441 338.815 251.636L338.9 245.145C338.92 244.34 338.429 243.959 337.822 244.296L337.857 244.276Z" fill="#171717"/>
<path d="M352.632 236.071L346.6 239.42C345.993 239.757 345.486 240.692 345.465 241.497L345.344 248.008C345.324 248.813 345.816 249.194 346.423 248.857L352.455 245.508C353.062 245.172 353.569 244.236 353.59 243.431L353.711 236.92C353.731 236.115 353.239 235.734 352.632 236.071Z" fill="#171717"/>
<path d="M249.541 276.54L243.509 279.889C242.902 280.225 242.394 281.161 242.374 281.966L242.253 288.477C242.233 289.282 242.725 289.663 243.331 289.326L249.364 285.977C249.97 285.64 250.478 284.705 250.498 283.9L250.584 277.409C250.604 276.604 250.112 276.223 249.505 276.56L249.541 276.54Z" fill="#171717"/>
<path d="M264.307 268.306L258.275 271.655C257.668 271.992 257.16 272.927 257.14 273.732L257.019 280.243C256.999 281.048 257.49 281.429 258.097 281.092L264.129 277.743C264.736 277.407 265.244 276.471 265.264 275.666L265.349 269.175C265.369 268.37 264.878 267.989 264.271 268.326L264.307 268.306Z" fill="#171717"/>
<path d="M279.083 260.103L273.051 263.451C272.445 263.788 271.937 264.724 271.917 265.529L271.796 272.039C271.776 272.844 272.267 273.225 272.874 272.888L278.906 269.54C279.513 269.203 280.021 268.267 280.041 267.462L280.162 260.951C280.182 260.146 279.69 259.766 279.083 260.103Z" fill="#171717"/>
<path d="M293.822 251.919L287.79 255.267C287.183 255.604 286.675 256.54 286.655 257.345L286.534 263.856C286.514 264.661 287.005 265.041 287.612 264.704L293.644 261.356C294.251 261.019 294.759 260.083 294.779 259.278L294.9 252.768C294.92 251.963 294.429 251.582 293.822 251.919Z" fill="#171717"/>
<path d="M308.593 243.717L302.561 247.065C301.954 247.402 301.446 248.338 301.426 249.143L301.305 255.653C301.285 256.458 301.777 256.839 302.384 256.502L308.416 253.154C309.023 252.817 309.53 251.881 309.55 251.076L309.672 244.565C309.692 243.76 309.2 243.38 308.593 243.717Z" fill="#171717"/>
<path d="M323.376 235.514L317.344 238.863C316.738 239.2 316.23 240.135 316.21 240.94L316.089 247.451C316.068 248.256 316.56 248.637 317.167 248.3L323.199 244.951C323.806 244.614 324.314 243.679 324.334 242.874L324.455 236.363C324.475 235.558 323.983 235.177 323.376 235.514Z" fill="#171717"/>
<path d="M235.022 268.72L228.99 272.069C228.383 272.406 227.876 273.341 227.856 274.146L227.77 280.637C227.75 281.442 228.242 281.823 228.848 281.486L234.881 278.137C235.487 277.8 235.995 276.865 236.015 276.06L236.136 269.549C236.156 268.744 235.665 268.363 235.058 268.7L235.022 268.72Z" fill="#171717"/>
<path d="M249.783 260.486L243.751 263.835C243.144 264.172 242.636 265.107 242.616 265.912L242.495 272.423C242.475 273.228 242.966 273.609 243.573 273.272L249.605 269.923C250.212 269.587 250.72 268.651 250.74 267.846L250.861 261.335C250.881 260.53 250.389 260.149 249.783 260.486Z" fill="#171717"/>
<path d="M264.555 252.282L258.523 255.631C257.916 255.967 257.408 256.903 257.388 257.708L257.267 264.219C257.247 265.024 257.738 265.405 258.345 265.068L264.377 261.719C264.984 261.382 265.492 260.447 265.512 259.642L265.597 253.151C265.617 252.346 265.126 251.965 264.519 252.302L264.555 252.282Z" fill="#171717"/>
<path d="M279.336 244.079L273.304 247.428C272.697 247.765 272.189 248.7 272.169 249.505L272.048 256.016C272.028 256.821 272.52 257.202 273.126 256.865L279.158 253.516C279.765 253.18 280.273 252.244 280.293 251.439L280.379 244.948C280.399 244.143 279.907 243.762 279.3 244.099L279.336 244.079Z" fill="#171717"/>
<path d="M294.113 235.877L288.081 239.226C287.474 239.562 286.966 240.498 286.946 241.303L286.825 247.814C286.805 248.619 287.296 249 287.903 248.663L293.935 245.314C294.542 244.977 295.05 244.042 295.07 243.237L295.191 236.726C295.211 235.921 294.72 235.54 294.113 235.877Z" fill="#171717"/>
<path d="M165.942 334.414L162.216 338.405C161.841 338.806 161.679 339.627 161.851 340.23L163.273 345.094C163.445 345.697 163.901 345.857 164.276 345.456L168.002 341.466C168.377 341.064 168.539 340.243 168.367 339.64L166.945 334.776C166.773 334.173 166.317 334.013 165.942 334.414Z" fill="#171717"/>
<path d="M175.059 324.644L171.333 328.634C170.958 329.036 170.796 329.857 170.968 330.46L172.39 335.324C172.562 335.927 173.018 336.087 173.393 335.686L177.119 331.696C177.494 331.294 177.656 330.473 177.484 329.87L176.062 325.006C175.89 324.403 175.434 324.243 175.059 324.644Z" fill="#171717"/>
<path d="M184.151 314.868L180.425 318.858C180.05 319.26 179.888 320.081 180.06 320.684L181.482 325.548C181.654 326.151 182.11 326.311 182.485 325.91L186.211 321.92C186.586 321.518 186.748 320.697 186.576 320.094L185.154 315.23C184.982 314.627 184.526 314.467 184.151 314.868Z" fill="#171717"/>
<path d="M153.261 332.236L149.535 336.226C149.16 336.627 148.998 337.449 149.17 338.051L150.592 342.916C150.764 343.518 151.22 343.679 151.595 343.277L155.321 339.287C155.696 338.886 155.858 338.064 155.686 337.462L154.242 332.621C154.07 332.018 153.614 331.858 153.239 332.259L153.261 332.236Z" fill="#171717"/>
<path d="M162.413 322.452L158.686 326.442C158.312 326.844 158.15 327.665 158.322 328.268L159.744 333.132C159.916 333.735 160.371 333.895 160.746 333.494L164.473 329.503C164.848 329.102 165.01 328.281 164.838 327.678L163.415 322.814C163.243 322.211 162.788 322.051 162.413 322.452Z" fill="#171717"/>
<path d="M171.513 312.664L167.786 316.654C167.411 317.055 167.249 317.877 167.421 318.479L168.844 323.344C169.016 323.947 169.471 324.107 169.846 323.705L173.572 319.715C173.947 319.314 174.109 318.493 173.937 317.89L172.515 313.025C172.343 312.423 171.887 312.263 171.513 312.664Z" fill="#171717"/>
<path d="M140.434 329.322L136.708 333.312C136.333 333.714 136.171 334.535 136.343 335.138L137.765 340.002C137.937 340.605 138.393 340.765 138.768 340.364L142.494 336.373C142.869 335.972 143.031 335.151 142.859 334.548L141.437 329.684C141.265 329.081 140.809 328.921 140.434 329.322Z" fill="#171717"/>
<path d="M149.55 319.556L145.823 323.546C145.448 323.947 145.286 324.769 145.458 325.371L146.881 330.236C147.053 330.838 147.508 330.999 147.883 330.597L151.61 326.607C151.984 326.206 152.146 325.384 151.974 324.782L150.552 319.917C150.38 319.315 149.925 319.154 149.55 319.556Z" fill="#171717"/>
<path d="M158.671 309.781L154.944 313.771C154.569 314.172 154.408 314.993 154.58 315.596L156.002 320.461C156.174 321.063 156.629 321.224 157.004 320.822L160.731 316.832C161.105 316.431 161.267 315.609 161.095 315.007L159.673 310.142C159.501 309.539 159.046 309.379 158.671 309.781Z" fill="#171717"/>
<path d="M127.778 327.126L124.052 331.116C123.677 331.518 123.515 332.339 123.687 332.942L125.109 337.806C125.281 338.409 125.737 338.569 126.112 338.168L129.838 334.177C130.213 333.776 130.375 332.955 130.203 332.352L128.781 327.488C128.609 326.885 128.153 326.725 127.778 327.126Z" fill="#171717"/>
<path d="M136.897 317.376L133.171 321.366C132.796 321.767 132.634 322.589 132.806 323.191L134.228 328.056C134.4 328.659 134.856 328.819 135.231 328.417L138.957 324.427C139.332 324.026 139.494 323.205 139.322 322.602L137.9 317.737C137.728 317.135 137.272 316.974 136.897 317.376Z" fill="#171717"/>
<path d="M146.007 307.569L142.28 311.559C141.905 311.96 141.744 312.782 141.916 313.384L143.338 318.249C143.51 318.851 143.965 319.012 144.34 318.61L148.067 314.62C148.441 314.219 148.603 313.397 148.431 312.795L147.009 307.93C146.837 307.328 146.382 307.167 146.007 307.569Z" fill="#171717"/>
<path d="M115.138 324.946L111.412 328.936C111.037 329.337 110.875 330.159 111.047 330.761L112.469 335.626C112.641 336.228 113.097 336.389 113.472 335.987L117.198 331.997C117.573 331.596 117.735 330.774 117.563 330.172L116.119 325.331C115.947 324.728 115.491 324.568 115.116 324.969L115.138 324.946Z" fill="#171717"/>
<path d="M124.247 315.17L120.52 319.16C120.146 319.561 119.984 320.383 120.156 320.985L121.578 325.85C121.75 326.452 122.205 326.613 122.58 326.211L126.307 322.221C126.682 321.82 126.844 320.998 126.672 320.396L125.249 315.531C125.077 314.929 124.622 314.768 124.247 315.17Z" fill="#171717"/>
<path d="M133.372 305.373L129.645 309.363C129.271 309.764 129.109 310.586 129.281 311.188L130.703 316.053C130.875 316.656 131.33 316.816 131.705 316.414L135.432 312.424C135.807 312.023 135.969 311.202 135.797 310.599L134.374 305.734C134.202 305.132 133.747 304.972 133.372 305.373Z" fill="#171717"/>
<path d="M111.401 312.261L107.675 316.252C107.3 316.653 107.138 317.474 107.31 318.077L108.732 322.941C108.904 323.544 109.36 323.704 109.735 323.303L113.461 319.313C113.836 318.911 113.998 318.09 113.826 317.487L112.404 312.623C112.232 312.02 111.776 311.86 111.401 312.261Z" fill="#171717"/>
<path d="M102.265 322.038L98.538 326.028C98.1632 326.429 98.0014 327.251 98.1734 327.853L99.5955 332.718C99.7675 333.32 100.223 333.481 100.598 333.079L104.324 329.089C104.699 328.688 104.861 327.866 104.689 327.264L103.267 322.399C103.095 321.797 102.639 321.636 102.265 322.038Z" fill="#171717"/>
<path d="M120.544 302.467L116.817 306.457C116.442 306.858 116.281 307.679 116.453 308.282L117.875 313.147C118.047 313.749 118.502 313.91 118.877 313.508L122.604 309.518C122.979 309.117 123.14 308.295 122.968 307.693L121.546 302.828C121.374 302.226 120.919 302.065 120.544 302.467Z" fill="#171717"/>
<path d="M107.851 300.284L104.124 304.274C103.749 304.676 103.587 305.497 103.759 306.1L105.181 310.964C105.353 311.567 105.809 311.727 106.184 311.326L109.91 307.336C110.285 306.934 110.447 306.113 110.275 305.51L108.853 300.646C108.681 300.043 108.225 299.883 107.851 300.284Z" fill="#171717"/>
<path d="M98.7431 310.087L95.0166 314.077C94.6417 314.478 94.4798 315.3 94.6518 315.902L96.074 320.767C96.246 321.369 96.7016 321.53 97.0764 321.128L100.803 317.138C101.178 316.737 101.34 315.915 101.168 315.313L99.7454 310.448C99.5734 309.846 99.1179 309.685 98.7431 310.087Z" fill="#171717"/>
<path d="M90.0849 319.317L86.3584 323.307C85.9835 323.708 85.8217 324.53 85.9937 325.132L87.4158 329.997C87.5878 330.599 88.0434 330.76 88.4182 330.358L92.1447 326.368C92.5196 325.967 92.6814 325.145 92.5094 324.543L91.0873 319.678C90.9153 319.076 90.4597 318.915 90.0849 319.317Z" fill="#171717"/>
<path d="M95.6884 297.582L91.9619 301.572C91.587 301.973 91.4252 302.794 91.5972 303.397L93.0194 308.262C93.1914 308.864 93.6469 309.025 94.0217 308.623L97.7482 304.633C98.1231 304.232 98.285 303.41 98.113 302.808L96.6908 297.943C96.5188 297.34 96.0632 297.18 95.6884 297.582Z" fill="#171717"/>
<path d="M86.5517 307.362L82.8252 311.352C82.4503 311.754 82.2885 312.575 82.4605 313.178L83.8826 318.042C84.0546 318.645 84.5101 318.805 84.885 318.404L88.6115 314.414C88.9864 314.012 89.1482 313.191 88.9762 312.588L87.5541 307.724C87.3821 307.121 86.9265 306.961 86.5517 307.362Z" fill="#171717"/>
<path d="M77.8974 316.638L74.1709 320.628C73.796 321.03 73.6341 321.851 73.8061 322.454L75.2283 327.318C75.4003 327.921 75.8559 328.081 76.2307 327.68L79.9572 323.689C80.3321 323.288 80.4939 322.467 80.3219 321.864L78.8997 317C78.7277 316.397 78.2722 316.237 77.8974 316.638Z" fill="#171717"/>
<path d="M74.3798 304.656L70.6533 308.646C70.2785 309.048 70.1166 309.869 70.2886 310.472L71.7108 315.336C71.8828 315.939 72.3383 316.099 72.7132 315.698L76.4397 311.707C76.8145 311.306 76.9764 310.485 76.8044 309.882L75.3822 305.018C75.2102 304.415 74.7546 304.255 74.3798 304.656Z" fill="#171717"/>
<path d="M187.285 262.69C186.652 267.393 183.345 272.191 177.479 276.288V247.466H177.968C183.066 249.133 187.285 257.164 187.285 262.69Z" fill="#171717"/>
<path d="M140.247 140.762C140.247 138.89 139.784 137.046 138.954 135.324C134.061 125.177 134.918 115.792 135.721 108.286C135.994 105.734 137.103 103.379 138.831 101.446C139.805 100.35 140.996 99.4045 142.33 98.6218C143.371 98.0229 144.487 97.5193 145.691 97.145C149.795 95.8792 154.246 98.057 155.11 101.78C155.376 102.896 155.675 104.08 155.995 105.312L156.437 61.1709C156.437 59.0135 155.988 56.7337 155.206 54.5627C169.028 69.1879 179.597 87.1953 183.156 112.498C186.994 139.782 177.48 238.081 177.48 238.081V276.287C176.575 276.92 175.609 277.533 174.581 278.125C159.092 287.067 135.653 288.041 122.24 280.289L100.156 267.542C99.1279 266.95 98.1887 266.324 97.3448 265.671V252.904C97.3448 250.814 96.9977 248.766 96.3035 246.833C95.4733 244.492 94.1259 242.334 92.3292 240.551C81.0933 229.418 80.5487 211.505 79.6504 191.341L123.757 216.807H123.764C124.404 210.008 125.316 202.658 126.826 195.73C129.038 185.597 132.523 176.375 138.26 171.135C141.016 168.617 142.302 165.139 141.989 161.662C141.601 157.435 140.24 150.317 140.254 140.769L140.247 140.762Z" fill="#FAFAFA"/>
<path d="M123.194 81.0972L130.143 93.1294L97.5782 112.199L78.9922 80.0219L85.9474 76.0066L97.5782 96.1442L123.194 81.0972Z" fill="#171717"/>
<path d="M122.52 97.5942C124.065 102.44 124.923 107.319 124.923 111.94C124.923 129.383 112.68 136.454 97.578 127.729C82.4765 119.011 70.2266 97.8052 70.2266 80.3626C70.2266 62.92 82.4765 55.849 97.578 64.5669C105.085 68.902 111.883 76.3269 116.831 84.8407L97.578 96.1515L85.9473 76.0138L78.992 80.0291L97.578 112.206L122.527 97.6011L122.52 97.5942Z" fill="#0D6EDE"/>
<path d="M144.351 42.83L88.1302 10.3676C87.4905 6.86956 87.8307 3.88192 89.6342 1.77901C98.4269 -8.48375 126.813 23.3934 144.351 42.83Z" fill="#FAFAFA"/>
<path d="M97.3373 265.671C93.3425 262.582 91.2737 258.859 91.1035 254.959C91.1035 254.959 91.0558 250.141 96.2961 246.833C96.9902 248.766 97.3373 250.815 97.3373 252.904V265.671Z" fill="#171717"/>
<path d="M174.579 326.458C159.083 335.38 135.652 336.373 122.238 328.622L100.154 315.875C94.3012 312.493 91.3135 308.015 91.1094 303.292V254.959C91.2795 258.852 93.3483 262.581 97.3432 265.671C98.1939 266.324 99.1331 266.95 100.154 267.542L122.238 280.289C135.652 288.04 159.09 287.067 174.579 278.125C175.607 277.533 176.573 276.92 177.478 276.287C183.345 272.19 186.652 267.392 187.285 262.69V304.741C187.285 313.221 183.018 321.217 175.818 325.709C175.416 325.961 175.001 326.213 174.579 326.458Z" fill="#171717"/>
<path d="M123.749 216.807L64.8535 182.8C60.1441 180.078 56.5508 172.789 56.5508 166.507V155.163L126.811 195.73H126.818C125.307 202.658 124.395 210.008 123.756 216.807H123.749Z" fill="#0D6EDE"/>
<path d="M142.759 69.0725C142.759 62.791 138.941 55.4954 134.232 52.78L65.2916 12.9812C63.1547 11.7494 61.2082 11.6677 59.7109 12.532L73.3833 4.63758C74.8806 3.77328 76.8269 3.85497 78.957 5.08677L147.897 44.8924C150.98 46.6822 153.689 50.4185 155.179 54.5495C155.179 54.5495 155.181 54.554 155.186 54.5631C155.186 54.5631 155.186 54.5699 155.193 54.5699C155.975 56.7408 156.425 59.0207 156.425 61.1781L155.982 105.319C155.662 104.087 155.363 102.903 155.098 101.787C154.226 98.0641 149.776 95.8863 145.679 97.1521C144.474 97.5196 143.358 98.0301 142.317 98.629H142.31L142.752 69.0793L142.759 69.0725Z" fill="#171717"/>
<path d="M138.251 171.128C132.521 176.368 129.037 185.59 126.818 195.723H126.811L56.5508 155.155V19.4188C56.5508 15.9888 57.9118 13.5729 59.7153 12.5248C61.2193 11.6605 63.1589 11.7421 65.2958 12.974L134.236 52.7728C138.945 55.495 142.763 62.7838 142.763 69.0653L142.321 98.6081H142.328C140.994 99.3976 139.81 100.344 138.83 101.439C137.101 103.372 135.985 105.727 135.72 108.279C134.917 115.785 134.059 125.17 138.952 135.317C139.783 137.039 140.245 138.883 140.245 140.755C140.232 150.303 141.6 157.428 141.981 161.648C142.294 165.126 141.008 168.596 138.251 171.121V171.128ZM130.139 93.1297L123.191 81.0975L116.821 84.8337C111.88 76.3132 105.074 68.8951 97.5678 64.56C82.4663 55.8421 70.2164 62.9062 70.2164 80.3556C70.2164 97.8051 82.4663 119.004 97.5678 127.722C112.669 136.447 124.912 129.376 124.912 111.933C124.912 107.319 124.055 102.433 122.51 97.5873L130.132 93.1297H130.139Z" fill="#FAFAFA"/>
<path d="M56.4376 131.05C51.0136 131.601 45.9366 131.424 39.7164 129.988L25.1253 133.166C22.9407 133.643 20.6473 133.16 18.837 131.826C14.1003 128.341 14.7808 121.066 20.0755 118.507L34.5918 113.424C35.8644 112.981 37.1915 112.695 38.539 112.573L56.5533 111.001V131.05H56.4376Z" fill="#FAFAFA"/>
<path d="M56.5352 98.3221C51.4582 100.01 46.2589 101.698 39.2219 101.698C33.2739 101.698 25.8966 101.82 21.8065 99.3905C17.553 96.8793 17.8593 90.6182 22.3101 88.4677L39.4873 80.1921L43.9517 79.0896C47.1572 80.4303 51.2745 81.3694 56.5488 81.5804V98.3221H56.5284H56.5352Z" fill="#FAFAFA"/>
<path d="M43.9567 79.0898C41.5612 78.103 39.6692 76.8848 38.1788 75.5986C33.728 71.7603 35.511 64.4511 41.1732 62.879L56.5538 58.5916V81.5807C51.2795 81.3697 47.1621 80.4237 43.9567 79.0898Z" fill="#FAFAFA"/>
<path d="M91.1074 254.959V303.292C91.3116 308.015 94.2992 312.493 100.152 315.875L122.236 328.622C135.65 336.373 159.088 335.38 174.577 326.458C175.006 326.213 175.414 325.961 175.816 325.709C183.009 321.217 187.283 313.228 187.283 304.741V262.69C186.65 267.392 183.343 272.184 177.477 276.287C176.571 276.92 175.605 277.533 174.577 278.125C159.088 287.067 135.65 288.04 122.236 280.289L100.152 267.542C99.1244 266.95 98.1851 266.324 97.3412 265.671C93.3464 262.581 91.2776 258.858 91.1074 254.959Z" stroke="#171717" stroke-width="2.04166" stroke-linecap="round" stroke-linejoin="round"/>
<path d="M187.285 262.69C187.285 257.163 183.073 249.133 177.969 247.466" stroke="#171717" stroke-width="2.04166" stroke-linecap="round" stroke-linejoin="round"/>
<path d="M177.48 276.287V238.081C177.48 238.081 186.994 139.782 183.155 112.498C179.596 87.1953 169.027 69.1947 155.205 54.5627" stroke="#171717" stroke-width="2.04166" stroke-linecap="round" stroke-linejoin="round"/>
<path d="M144.349 42.8298C126.818 23.3931 98.4318 -8.48399 89.6322 1.77877C87.8288 3.88168 87.4885 6.86931 88.1282 10.3674" stroke="#171717" stroke-width="2.04166" stroke-linecap="round" stroke-linejoin="round"/>
<path d="M174.749 159.273C174.749 159.273 161.294 125.504 155.993 105.312C155.666 104.08 155.374 102.896 155.108 101.78C154.237 98.0572 149.786 95.8794 145.689 97.1452C144.485 97.5127 143.362 98.0163 142.328 98.622C140.994 99.3978 139.809 100.351 138.829 101.446C137.101 103.379 135.985 105.734 135.719 108.286C134.916 115.792 134.059 125.177 138.952 135.324C139.782 137.046 140.245 138.89 140.245 140.762C140.231 150.31 141.599 157.436 141.98 161.655C142.293 165.133 141.007 168.603 138.251 171.128C132.521 176.369 129.029 185.59 126.818 195.723C125.307 202.652 124.381 210.002 123.755 216.8C123.619 218.304 123.483 219.774 123.367 221.217" stroke="#171717" stroke-width="2.04166" stroke-linecap="round" stroke-linejoin="round"/>
<path d="M142.321 98.6081L142.763 69.0653C142.763 62.7838 138.945 55.4882 134.236 52.7728L65.2958 12.974C63.1589 11.7421 61.2125 11.6605 59.7153 12.5248C57.9118 13.5661 56.5508 15.9888 56.5508 19.4188V166.5C56.5508 172.782 60.1441 180.077 64.8535 182.793L123.749 216.8" stroke="#171717" stroke-width="2.04166" stroke-linecap="round" stroke-linejoin="round"/>
<path d="M126.814 195.723L56.3359 155.033" stroke="#171717" stroke-width="2.04166" stroke-linecap="round" stroke-linejoin="round"/>
<path d="M59.7148 12.5247L73.3872 4.63709C74.8845 3.77279 76.8308 3.85448 78.9609 5.08628L147.901 44.8919C150.984 46.6818 153.693 50.418 155.183 54.549C155.183 54.549 155.185 54.5535 155.19 54.5626C155.19 54.5626 155.19 54.5694 155.197 54.5694C155.979 56.7403 156.429 59.0202 156.429 61.1776L155.986 105.318" stroke="#171717" stroke-width="2.04166" stroke-linecap="round" stroke-linejoin="round"/>
<path d="M79.6504 191.34C80.5487 211.498 81.0864 229.417 92.3292 240.551C94.1259 242.334 95.4665 244.492 96.3035 246.833C96.9909 248.766 97.3448 250.814 97.3448 252.903V265.671" stroke="#171717" stroke-width="2.04166" stroke-linecap="round" stroke-linejoin="round"/>
<path d="M56.6539 58.5642L41.1713 62.8789C35.509 64.451 33.7261 71.7601 38.1769 75.5985C39.6673 76.8779 41.5592 78.0961 43.9548 79.0897C47.1602 80.4236 51.2707 81.4784 56.5518 81.5805C56.5586 81.5805 56.5723 81.5805 56.5791 81.5805" stroke="#171717" stroke-width="2.04166" stroke-linecap="round" stroke-linejoin="round"/>
<path d="M43.9556 79.0898L39.4912 80.1923L22.314 88.4679C17.8632 90.6185 17.5569 96.8795 21.8104 99.3908C25.9005 101.82 33.2778 101.698 39.2258 101.698C46.2628 101.698 51.4622 100.01 56.5391 98.3223" stroke="#171717" stroke-width="2.04166" stroke-linecap="round" stroke-linejoin="round"/>
<path d="M56.4972 111L38.5374 112.573C37.1899 112.695 35.8696 112.981 34.5902 113.423L20.0739 118.507C14.7724 121.066 14.0987 128.341 18.8354 131.825C20.6457 133.159 22.9391 133.643 25.1237 133.166L39.7147 129.988C45.935 131.424 51.012 131.594 56.436 131.05" stroke="#171717" stroke-width="2.04166" stroke-linecap="round" stroke-linejoin="round"/>
<path d="M91.1074 254.959C91.1074 254.959 91.0597 250.141 96.3 246.833" stroke="#171717" stroke-width="2.04166" stroke-linecap="round" stroke-linejoin="round"/>
<path d="M116.82 84.8334L123.19 81.0972L130.139 93.1294L97.5743 112.199L78.9883 80.0219L85.9435 76.0066L97.5743 96.1442L116.82 84.8334Z" stroke="#171717" stroke-width="2.04166" stroke-linecap="round" stroke-linejoin="round"/>
<path d="M116.821 84.8338C111.88 76.3132 105.075 68.8952 97.5682 64.5601C82.4667 55.8422 70.2168 62.9063 70.2168 80.3557C70.2168 97.8051 82.4667 119.004 97.5682 127.722C112.67 136.447 124.913 129.376 124.913 111.933C124.913 107.319 124.055 102.433 122.51 97.5874" stroke="#171717" stroke-width="2.04166" stroke-linecap="round" stroke-linejoin="round"/>
<path d="M67.248 31.8052L79.8042 39.0531" stroke="#171717" stroke-width="2.04166" stroke-linecap="round" stroke-linejoin="round"/>
<path d="M67.248 37.052L79.8042 44.2999" stroke="#171717" stroke-width="2.04166" stroke-linecap="round" stroke-linejoin="round"/>
<path d="M67.248 42.2917L79.8042 49.5397" stroke="#171717" stroke-width="2.04166" stroke-linecap="round" stroke-linejoin="round"/>
<path d="M85.1478 149.221C84.4877 149.588 83.5281 149.493 82.2759 148.955V151.099L80.6152 150.14V148.05C79.7986 147.526 79.016 146.914 78.2742 146.199C77.5323 145.491 76.9335 144.804 76.4844 144.13L77.3962 142.32C77.8182 142.919 78.3083 143.504 78.8731 144.069C79.438 144.634 80.0163 145.124 80.6152 145.532V142.334C79.8326 141.66 79.1657 141.04 78.6281 140.455C78.0836 139.877 77.6344 139.223 77.2669 138.495C76.8994 137.767 76.7225 136.978 76.7225 136.12C76.7225 135.058 77.0559 134.344 77.7229 133.97C78.3898 133.595 79.3562 133.691 80.6152 134.249V132.125L82.2759 133.085V135.174C83.637 136.086 84.7599 137.127 85.6446 138.284L84.8144 140.163C83.9841 139.135 83.1402 138.311 82.2759 137.699V140.952C83.0517 141.605 83.705 142.211 84.2426 142.783C84.7803 143.354 85.2294 144.001 85.5969 144.729C85.9644 145.457 86.1414 146.24 86.1414 147.084C86.1414 148.132 85.808 148.833 85.1478 149.2V149.221ZM79.7102 138.488C79.9212 138.815 80.2273 139.162 80.622 139.53V136.807C80.2001 136.678 79.8939 136.685 79.6966 136.814C79.4992 136.95 79.3972 137.182 79.3972 137.515C79.3972 137.849 79.506 138.155 79.7102 138.482V138.488ZM83.1741 146.444C83.3715 146.328 83.4737 146.111 83.4737 145.791C83.4737 145.471 83.3715 145.151 83.1673 144.831C82.9631 144.511 82.6638 144.157 82.2827 143.783V146.424C82.6842 146.553 82.9768 146.56 83.1809 146.444H83.1741Z" fill="#171717"/>
<path d="M91.5674 140.762V154.162L88.8792 152.61V141.701L86.5586 140.36V137.869L91.5674 140.762Z" fill="#171717"/>
<path d="M95.9903 156.128C95.2417 155.148 94.6495 154.012 94.2276 152.726C93.7988 151.439 93.5879 150.078 93.5879 148.636C93.5879 147.193 93.7988 146.077 94.2276 145.28C94.6495 144.484 95.2417 144.028 95.9903 143.919C96.7389 143.81 97.5964 144.021 98.5628 144.579C99.5224 145.137 100.38 145.906 101.135 146.886C101.891 147.866 102.476 149.003 102.905 150.289C103.333 151.575 103.544 152.937 103.544 154.379C103.544 155.822 103.333 156.938 102.905 157.735C102.476 158.531 101.891 158.987 101.135 159.096C100.387 159.211 99.5292 158.994 98.5628 158.436C97.6032 157.877 96.7457 157.108 95.9903 156.128ZM100.23 155.72C100.632 155.25 100.836 154.284 100.836 152.814C100.836 151.344 100.632 150.146 100.23 149.207C99.8286 148.275 99.2706 147.601 98.5628 147.193C97.8686 146.791 97.3174 146.825 96.9159 147.295C96.5144 147.764 96.3101 148.731 96.3101 150.201C96.3101 151.671 96.5144 152.869 96.9159 153.808C97.3174 154.747 97.8686 155.414 98.5628 155.815C99.2706 156.224 99.8286 156.196 100.23 155.727V155.72Z" fill="#171717"/>
<path d="M107.252 162.628C106.503 161.648 105.911 160.511 105.489 159.225C105.061 157.939 104.85 156.577 104.85 155.135C104.85 153.692 105.061 152.576 105.489 151.78C105.918 150.983 106.503 150.527 107.252 150.412C108.001 150.296 108.858 150.521 109.825 151.072C110.784 151.63 111.642 152.399 112.397 153.379C113.146 154.359 113.738 155.495 114.166 156.782C114.588 158.068 114.806 159.429 114.806 160.872C114.806 162.315 114.595 163.431 114.166 164.227C113.738 165.023 113.152 165.479 112.397 165.588C111.642 165.697 110.791 165.486 109.825 164.928C108.865 164.37 108.007 163.601 107.252 162.621V162.628ZM111.492 162.219C111.893 161.75 112.097 160.783 112.097 159.313C112.097 157.843 111.893 156.646 111.492 155.706C111.09 154.774 110.532 154.1 109.825 153.692C109.13 153.29 108.579 153.324 108.177 153.794C107.776 154.264 107.572 155.23 107.572 156.7C107.572 158.17 107.776 159.368 108.177 160.307C108.579 161.239 109.13 161.913 109.825 162.315C110.532 162.723 111.09 162.696 111.492 162.226V162.219Z" fill="#171717"/>
<path d="M248.764 204.727C296.885 190.715 337.088 162.698 380.942 136.507C381.289 136.311 381.642 136.128 381.989 135.938C381.996 135.663 381.989 135.388 381.937 135.107C381.688 133.733 380.72 132.594 379.411 132.129C374.764 130.467 369.581 131.003 365.373 133.575C355.818 139.407 344.751 146.174 332.703 153.759C342.016 145.27 350.157 138.471 358.684 130.755C359.81 129.74 360.314 128.222 360.013 126.736C359.719 125.257 358.671 124.047 357.245 123.536H357.232C352.762 121.939 347.795 122.515 343.815 125.081C337.042 129.439 328.711 134.956 319.594 141.102C323.659 137.41 327.801 133.68 332.566 129.25C333.645 128.242 333.999 126.645 333.351 125.231C332.978 124.42 332.271 123.805 331.453 123.451C327.487 121.737 322.912 122.155 319.339 124.583C310.046 130.886 297.612 138.772 284.208 147.417C280.76 149.642 277.075 151.54 273.129 152.692C272.154 152.98 271.192 153.386 270.288 153.909L242.043 170.218C241.984 182.286 242.612 194.472 248.764 204.72V204.727Z" fill="#0D6EDE"/>
<path d="M385.341 151.618H385.328C380.583 149.76 375.263 150.028 370.721 152.332C364.896 155.283 359.327 158.248 354.006 161.2C363.038 153.359 370.767 147.083 380.61 138.778C381.46 138.065 381.951 137.024 381.984 135.938C381.637 136.128 381.284 136.311 380.937 136.507C337.082 162.698 296.88 190.722 248.758 204.727C242.607 194.478 241.978 182.299 242.037 170.224L237.266 172.98C227.953 178.359 219.622 185.283 212.639 193.464C206.311 200.879 198.804 207.207 190.369 212.089L187.836 213.549C190.198 213.614 192.738 214.144 195.401 215.185C196.92 215.774 198.484 216.52 200.074 217.436C208.084 222.063 215.329 230.047 220.506 239.164C225.525 248.012 228.621 257.92 228.621 266.886C228.621 268.817 228.477 270.623 228.196 272.305C227.777 274.91 227.031 277.207 226.01 279.164L252.665 263.778C260.826 259.072 269.792 255.505 278.941 253.287C286.958 251.343 296.84 248.051 307.665 240.368C324.55 228.398 339.739 221.638 361.277 217.489C364.68 216.834 367.115 213.686 366.742 210.1C366.467 207.403 364.51 205.159 361.932 204.328C347.737 199.701 335.08 201.14 319.072 206.435C343.548 187.469 365.021 171.808 385.989 157.541C387.023 156.841 387.579 155.624 387.442 154.387C387.305 153.143 386.487 152.077 385.322 151.618H385.341Z" fill="#FAFAFA"/>
<path d="M204.942 248.228C198.967 237.711 190.603 228.496 181.356 223.149C179.517 222.096 177.717 221.225 175.963 220.551C174.903 220.139 173.849 219.792 172.828 219.517L179.89 215.433C182.187 214.111 184.87 213.457 187.835 213.542C190.197 213.607 192.736 214.138 195.4 215.178C196.918 215.767 198.482 216.513 200.073 217.429C208.083 222.056 215.328 230.041 220.505 239.157C225.524 248.005 228.62 257.913 228.62 266.879C228.62 268.81 228.476 270.616 228.194 272.298C227.775 274.903 227.029 277.2 226.008 279.157C224.595 281.899 222.638 283.987 220.262 285.354L213.188 289.438C213.443 288.496 213.646 287.508 213.823 286.487C214.137 284.543 214.313 282.455 214.313 280.23C214.313 269.883 210.734 258.437 204.942 248.228Z" fill="#171717"/>
<path d="M202.289 287.167C202.302 276.834 198.716 265.387 192.924 255.178C186.943 244.661 178.585 235.433 169.344 230.1C160.241 224.851 152.021 224.36 146.053 227.809V227.796L158.062 220.846C162.093 218.529 167.165 217.986 172.833 219.524C173.86 219.799 174.907 220.139 175.967 220.558C177.721 221.239 179.521 222.102 181.36 223.156C190.607 228.496 198.971 237.717 204.946 248.234C210.738 258.444 214.318 269.89 214.318 280.237C214.318 282.462 214.148 284.55 213.827 286.493C213.657 287.521 213.454 288.509 213.192 289.445C211.687 295.119 208.696 299.248 204.671 301.565L192.643 308.509C198.598 305.073 202.302 297.678 202.289 287.161V287.167Z" fill="#171717"/>
<path d="M169.347 306.192C160.243 300.944 152.004 291.912 146.042 281.605C140.086 271.271 136.389 259.628 136.389 249.125C136.402 238.621 140.099 231.245 146.048 227.809C152.017 224.36 160.243 224.851 169.34 230.1C178.581 235.427 186.938 244.661 192.92 255.178C198.712 265.388 202.298 276.834 202.285 287.167C202.298 297.684 198.6 305.08 192.638 308.516C186.676 311.951 178.443 311.454 169.34 306.199L169.347 306.192Z" fill="#FAFAFA"/>
<path d="M187.838 213.549L190.371 212.089C198.813 207.214 206.313 200.885 212.641 193.464C219.624 185.283 227.949 178.359 237.268 172.98L270.285 153.916C271.188 153.399 272.144 152.986 273.125 152.698C277.072 151.546 280.756 149.655 284.205 147.423C297.608 138.772 310.043 130.892 319.336 124.59C322.916 122.162 327.484 121.736 331.45 123.458C332.268 123.811 332.974 124.426 333.347 125.238C333.995 126.645 333.642 128.248 332.562 129.256C327.798 133.687 323.655 137.417 319.591 141.108" stroke="#171717" stroke-width="1.96334" stroke-linecap="round" stroke-linejoin="round"/>
<path d="M332.689 153.772C323.16 159.773 313.016 166.298 302.532 173.261C301.877 168.706 298.834 167.155 295.66 166.377" stroke="#171717" stroke-width="1.96334" stroke-linecap="round" stroke-linejoin="round"/>
<path d="M354.004 161.2C363.035 153.36 370.764 147.084 380.607 138.779C381.674 137.882 382.185 136.482 381.929 135.107C381.681 133.733 380.712 132.594 379.403 132.129C374.757 130.467 369.573 131.004 365.365 133.576C355.81 139.407 344.744 146.174 332.695 153.759" stroke="#171717" stroke-width="1.96334" stroke-linecap="round" stroke-linejoin="round"/>
<path d="M320.181 181.455C330.037 175.153 341.306 168.242 354.003 161.206C359.323 158.261 364.893 155.297 370.717 152.339C375.259 150.028 380.58 149.767 385.324 151.625H385.337C386.502 152.083 387.314 153.144 387.458 154.394C387.595 155.63 387.039 156.848 386.005 157.548C365.03 171.815 343.564 187.476 319.088 206.442" stroke="#171717" stroke-width="1.96334" stroke-linecap="round" stroke-linejoin="round"/>
<path d="M249.718 215.912C270.411 205.002 285.104 202.129 302.682 209.459C305.077 210.454 307.774 210.532 310.202 209.609C313.284 208.438 316.236 207.378 319.076 206.442C335.084 201.167 347.741 199.701 361.936 204.328C364.514 205.166 366.471 207.404 366.746 210.1C367.119 213.686 364.691 216.834 361.281 217.489C339.743 221.638 324.554 228.398 307.669 240.368C296.838 248.045 286.956 251.343 278.945 253.287C269.796 255.512 260.83 259.072 252.669 263.778L226.014 279.164" stroke="#171717" stroke-width="1.96334" stroke-linecap="round" stroke-linejoin="round"/>
<path d="M332.688 153.772C342.001 145.284 350.148 138.478 358.676 130.762C359.802 129.747 360.305 128.229 360.004 126.743C359.71 125.264 358.663 124.054 357.236 123.543H357.223C352.753 121.946 347.786 122.522 343.807 125.088C337.033 129.446 328.702 134.963 319.586 141.108C319.586 141.108 319.573 141.108 319.566 141.128C309.979 147.601 299.527 154.773 289.134 162.011C288.545 159.217 285.98 157.574 284.193 157.188" stroke="#171717" stroke-width="1.96334" stroke-linecap="round" stroke-linejoin="round"/>
<path d="M320.181 181.455C319.048 177.057 316.051 175.277 313.25 174.4" stroke="#171717" stroke-width="1.96334" stroke-linecap="round" stroke-linejoin="round"/>
<path d="M172.828 219.524L179.89 215.44C182.187 214.118 184.87 213.464 187.835 213.549C190.197 213.614 192.736 214.144 195.4 215.185C196.918 215.774 198.482 216.52 200.073 217.436C208.083 222.063 215.328 230.047 220.505 239.164C225.524 248.012 228.62 257.92 228.62 266.886C228.62 268.817 228.476 270.623 228.194 272.305C227.775 274.91 227.029 277.207 226.008 279.164C224.588 281.899 222.638 283.993 220.262 285.361L213.188 289.445" stroke="#171717" stroke-width="1.96334" stroke-linecap="round" stroke-linejoin="round"/>
<path d="M146.055 227.809C152.023 224.36 160.25 224.851 169.347 230.1C178.587 235.427 186.945 244.661 192.926 255.178C198.718 265.388 202.304 276.834 202.291 287.167C202.304 297.684 198.607 305.08 192.645 308.516C186.683 311.951 178.45 311.454 169.347 306.199C160.243 300.95 152.004 291.919 146.042 281.611C140.086 271.278 136.389 259.635 136.389 249.131C136.402 238.627 140.099 231.252 146.048 227.816L146.055 227.809Z" stroke="#171717" stroke-width="1.96334" stroke-linecap="round" stroke-linejoin="round"/>
<path d="M146.041 227.803L158.057 220.853C162.088 218.536 167.153 217.999 172.827 219.531C173.855 219.805 174.902 220.146 175.962 220.565C177.716 221.245 179.516 222.109 181.355 223.163C190.602 228.503 198.966 237.724 204.941 248.241C210.733 258.45 214.313 269.897 214.313 280.243C214.313 282.469 214.143 284.556 213.822 286.5C213.652 287.527 213.442 288.516 213.187 289.452C211.662 295.126 208.691 299.255 204.666 301.572L192.638 308.516" stroke="#171717" stroke-width="1.96334" stroke-linecap="round" stroke-linejoin="round"/>
<path d="M388.063 104.996V123.765L371.807 133.15C373.849 122.79 380.105 111.94 388.063 104.996Z" fill="#0D6EDE"/>
<path d="M388.065 62.6926V104.996C380.113 111.946 373.85 122.79 371.808 133.15L264.394 195.172C262.352 187.162 256.089 183.549 248.131 185.787V143.484C256.082 136.534 262.352 125.69 264.394 115.323L371.808 53.3079C373.85 61.3183 380.106 64.9308 388.065 62.6926ZM318.104 152.208C331.475 144.485 342.319 125.703 342.319 110.258C342.319 94.8128 331.475 88.5563 318.104 96.2788C304.727 104.001 293.883 122.784 293.883 138.229C293.883 153.674 304.727 159.93 318.104 152.208Z" fill="#FAFAFA"/>
<path d="M388.063 43.9226V62.6921C380.112 64.9303 373.849 61.3178 371.807 53.3074L388.063 43.9226Z" fill="#0D6EDE"/>
<path d="M388.065 43.9228L248.138 124.708L241.168 120.683L381.102 39.8979L388.065 43.9228Z" fill="#FAFAFA"/>
<path d="M381.101 39.8982L241.168 120.683L234.865 117.044L374.786 36.2529L381.101 39.8982Z" fill="#FAFAFA"/>
<path d="M374.787 36.2529L234.866 117.044H234.86L228.643 113.451L368.57 32.6665L374.787 36.2529Z" fill="#FAFAFA"/>
<path d="M342.32 110.258C342.32 125.703 331.476 144.485 318.106 152.208C304.729 159.93 293.885 153.667 293.885 138.229C293.885 122.79 304.729 104.001 318.106 96.2787C331.476 88.5563 342.32 94.8128 342.32 110.258Z" fill="#171717"/>
<path d="M248.141 124.708L264.404 115.323C262.362 125.69 256.099 136.54 248.141 143.484V124.708Z" fill="#0D6EDE"/>
<path d="M264.404 195.172L248.141 204.557V185.787C256.092 183.549 262.362 187.162 264.404 195.172Z" fill="#0D6EDE"/>
<path d="M248.14 185.788V204.557L241.164 200.532V120.69L241.171 120.683L248.14 124.708V185.788Z" fill="#171717"/>
<path d="M241.17 120.682L241.164 120.689V200.531L234.861 196.886V117.044H234.868L241.17 120.682Z" fill="#171717"/>
<path d="M228.643 113.452L234.86 117.045V196.887L228.643 193.301V113.452Z" fill="#171717"/>
<path d="M388.068 104.996V123.766L248.141 204.557V124.708L388.068 43.9231V104.996Z" stroke="#171717" stroke-width="1.96334" stroke-linecap="round" stroke-linejoin="round"/>
<path d="M371.816 53.3079C373.858 61.3183 380.115 64.9308 388.073 62.6926" stroke="#171717" stroke-width="1.96334" stroke-linecap="round" stroke-linejoin="round"/>
<path d="M371.816 133.15C373.858 122.79 380.115 111.94 388.073 104.996" stroke="#171717" stroke-width="1.96334" stroke-linecap="round" stroke-linejoin="round"/>
<path d="M264.404 115.323C262.362 125.69 256.099 136.54 248.141 143.484" stroke="#171717" stroke-width="1.96334" stroke-linecap="round" stroke-linejoin="round"/>
<path d="M264.404 195.172C262.362 187.162 256.099 183.549 248.141 185.787" stroke="#171717" stroke-width="1.96334" stroke-linecap="round" stroke-linejoin="round"/>
<path d="M388.066 43.923L368.57 32.6665L228.643 113.451V193.3L248.139 204.557" stroke="#171717" stroke-width="1.96334" stroke-linecap="round" stroke-linejoin="round"/>
<path d="M234.86 117.045L228.643 113.452" stroke="#171717" stroke-width="1.96334" stroke-linecap="round" stroke-linejoin="round"/>
<path d="M248.137 124.707L234.865 117.044" stroke="#171717" stroke-width="1.96334" stroke-linecap="round" stroke-linejoin="round"/>
<path d="M234.861 196.887V117.044H234.868L374.788 36.2529" stroke="#171717" stroke-width="1.96334" stroke-linecap="round" stroke-linejoin="round"/>
<path d="M241.164 200.532V120.689L241.171 120.683L381.104 39.8979" stroke="#171717" stroke-width="1.96334" stroke-linecap="round" stroke-linejoin="round"/>
<path d="M342.32 110.258C342.32 94.813 331.476 88.5565 318.106 96.279C304.729 104.001 293.885 122.784 293.885 138.229C293.885 153.674 304.729 159.93 318.106 152.208C331.476 144.485 342.32 125.703 342.32 110.258Z" stroke="#171717" stroke-width="1.96334" stroke-linecap="round" stroke-linejoin="round"/>
<path d="M324.799 129.407C323.621 131.416 321.92 133.216 319.701 134.813V138.622L316.756 140.323V136.613C315.303 137.359 313.916 137.863 312.601 138.125C311.285 138.386 310.225 138.386 309.42 138.125L311.043 133.039C311.789 133.242 312.666 133.269 313.667 133.125C314.669 132.974 315.703 132.653 316.763 132.156V126.475C315.369 126.894 314.191 127.143 313.229 127.222C312.267 127.3 311.462 127.071 310.814 126.521C310.166 125.978 309.839 124.944 309.839 123.426C309.839 121.541 310.434 119.584 311.619 117.549C312.81 115.513 314.518 113.701 316.763 112.117V108.341L319.708 106.639V110.35C322.123 109.185 324.119 108.72 325.689 108.969L324.217 114.002C322.744 113.877 321.239 114.152 319.708 114.833V120.618C321.082 120.186 322.247 119.931 323.196 119.846C324.151 119.761 324.95 119.99 325.598 120.533C326.246 121.076 326.573 122.097 326.573 123.596C326.573 125.454 325.984 127.392 324.806 129.394L324.799 129.407ZM315.133 121.502C315.506 121.652 316.049 121.646 316.756 121.482V116.652C316.01 117.287 315.46 117.928 315.107 118.576C314.754 119.224 314.577 119.839 314.577 120.428C314.577 121.017 314.76 121.351 315.14 121.502H315.133ZM321.292 128.524C321.645 127.909 321.822 127.32 321.822 126.757C321.822 126.194 321.638 125.828 321.278 125.677C320.912 125.526 320.388 125.507 319.701 125.638V130.33C320.408 129.741 320.938 129.139 321.292 128.524Z" fill="#FAFAFA"/>
</svg>
