<svg width="134" height="27" viewBox="0 0 134 27" fill="none" xmlns="http://www.w3.org/2000/svg">
<mask id="path-1-inside-1_2237_7258" fill="white">
<path d="M0 5.00964C0 2.54277 1.99979 0.542969 4.46667 0.542969H21.5889C24.0558 0.542969 26.0556 2.54276 26.0556 5.00964V22.1319C26.0556 24.5987 24.0558 26.5985 21.5889 26.5985H4.46667C1.9998 26.5985 0 24.5987 0 22.1319V5.00964Z"/>
</mask>
<path d="M4.46667 1.65964H21.5889V-0.573698H4.46667V1.65964ZM24.9389 5.00964V22.1319H27.1722V5.00964H24.9389ZM21.5889 25.4819H4.46667V27.7152H21.5889V25.4819ZM1.11667 22.1319V5.00964H-1.11667V22.1319H1.11667ZM4.46667 25.4819C2.61651 25.4819 1.11667 23.982 1.11667 22.1319H-1.11667C-1.11667 25.2154 1.38308 27.7152 4.46667 27.7152V25.4819ZM24.9389 22.1319C24.9389 23.982 23.439 25.4819 21.5889 25.4819V27.7152C24.6725 27.7152 27.1722 25.2154 27.1722 22.1319H24.9389ZM21.5889 1.65964C23.439 1.65964 24.9389 3.15948 24.9389 5.00964H27.1722C27.1722 1.92604 24.6725 -0.573698 21.5889 -0.573698V1.65964ZM4.46667 -0.573698C1.38308 -0.573698 -1.11667 1.92605 -1.11667 5.00964H1.11667C1.11667 3.15948 2.61651 1.65964 4.46667 1.65964V-0.573698Z" fill="#FAFAFA" mask="url(#path-1-inside-1_2237_7258)"/>
<path fill-rule="evenodd" clip-rule="evenodd" d="M14.6361 19.2016L13.9843 19.3111C13.7163 19.3562 13.5245 19.597 13.5388 19.8706L13.5777 20.6167C13.5926 20.9027 13.827 21.1269 14.1111 21.1269H19.528C19.823 21.1269 20.0622 20.8858 20.0622 20.5884V19.8132C20.0622 19.5642 19.8929 19.3477 19.6527 19.2896L18.6438 19.0454L18.6391 19.0407L18.6384 19.0401L18.6364 19.038L18.6357 19.0373L18.6294 19.031L18.6287 19.0303L18.6019 19.0032L18.5968 18.9981L18.5947 18.9959L18.5925 18.9937L18.5903 18.9916L18.5882 18.9894L18.5874 18.9886L18.5823 18.9835L18.5816 18.9828L18.5794 18.9805L18.5787 18.9798L18.5735 18.9746L18.5728 18.9739L18.5721 18.9732L18.5713 18.9724L18.5676 18.9687L18.5669 18.9679L18.5662 18.9672L18.5654 18.9664L18.5647 18.9657L18.5639 18.965L18.5632 18.9642L18.5625 18.9635L18.5617 18.9627L18.561 18.962L18.5602 18.9612L18.5595 18.9605L18.5587 18.9597L18.558 18.959L18.5572 18.9582L18.555 18.9559L18.5543 18.9552L18.5535 18.9544L18.5528 18.9537L18.5445 18.9453L18.5437 18.9446L18.54 18.9408L18.5392 18.94L18.5015 18.902L18.4991 18.8996L18.4968 18.8972L18.496 18.8964L18.4905 18.8909L18.4897 18.8901L18.4873 18.8877L18.4865 18.8869L18.4826 18.8829L18.4818 18.8821L18.481 18.8813L18.4802 18.8805L18.4778 18.8781L18.477 18.8773L18.4762 18.8765L18.4754 18.8757L18.4746 18.8749L18.4738 18.8741L18.4609 18.8611L18.4601 18.8603L18.4593 18.8595L18.4585 18.8587L18.4561 18.8562L18.4553 18.8554L18.4545 18.8546L18.4537 18.8538L18.448 18.848L18.4455 18.8456L18.4414 18.8414L18.439 18.839L18.4291 18.829L18.3948 18.7944L18.394 18.7936L18.388 18.7876L18.3872 18.7867L18.3812 18.7807L18.3803 18.7799L18.3778 18.7773L18.3769 18.7764L18.3761 18.7755L18.3752 18.7747L18.3562 18.7555L18.3554 18.7547L18.3545 18.7538L18.3536 18.7529L18.351 18.7503L18.3501 18.7494L18.344 18.7432L18.3431 18.7423L18.337 18.7362L18.3361 18.7353L18.3303 18.7294C18.1732 18.5553 17.9938 18.3587 17.7922 18.1397C17.5937 17.8904 17.3577 17.6203 17.0856 17.3296L13.101 12.8496L18.0974 8.08408L19.2782 7.87882C19.5444 7.83255 19.7344 7.59322 19.7209 7.32124L19.6815 6.52627C19.6673 6.23967 19.4327 6.01465 19.148 6.01465H14.688C14.4039 6.01465 14.1695 6.23884 14.1546 6.52486L14.1154 7.27468C14.1016 7.53914 14.2806 7.77447 14.5375 7.82966L15.1487 7.96099L10.8342 12.4587L10.4954 12.5489V9.39736C10.5111 8.89324 10.5266 8.50884 10.542 8.24201C10.5488 8.18435 10.5555 8.13363 10.5619 8.08951L11.6872 7.82912C11.9402 7.77059 12.1148 7.53723 12.1011 7.27595L12.0619 6.52486C12.047 6.23884 11.8126 6.01465 11.5285 6.01465H6.58517C6.30648 6.01465 6.07463 6.23067 6.05269 6.51078L5.99386 7.26206C5.97296 7.52894 6.14969 7.77076 6.40869 7.82973L7.52214 8.08321C7.52364 8.13209 7.52445 8.18804 7.52445 8.25143V8.26374L7.52512 8.27603C7.54048 8.55471 7.54848 8.94911 7.54848 9.46312V9.47028L7.54871 9.47742C7.56453 9.9719 7.57252 10.5807 7.57252 11.3049V15.8609C7.57252 16.9257 7.56451 17.7531 7.54864 18.345C7.54015 18.6618 7.52956 18.8975 7.51821 19.0603L6.43088 19.3119C6.17277 19.3716 5.99703 19.613 6.01788 19.8792L6.07673 20.6307C6.09866 20.9108 6.33052 21.1269 6.60921 21.1269H11.4587C11.7374 21.1269 11.9693 20.9108 11.9912 20.6307L12.0501 19.8792C12.0709 19.613 11.8952 19.3716 11.6371 19.3119L10.562 19.0632C10.5501 18.89 10.5358 18.6495 10.5191 18.339C10.5034 17.7476 10.4954 16.9221 10.4954 15.8609V14.5353H10.6017L14.152 18.6058L14.156 18.6102C14.3482 18.8189 14.5076 19.016 14.6361 19.2016Z" fill="#FAFAFA"/>
<path d="M37.2227 4.95788C37.2227 4.75696 37.2609 4.59081 37.3375 4.45943C37.4217 4.32806 37.6169 4.26238 37.923 4.26238H39.8864C40.1083 4.26238 40.2691 4.33193 40.3686 4.47103C40.4681 4.6024 40.5178 4.74536 40.5178 4.89992V14.4631L45.5697 8.94542C45.6692 8.84496 45.7687 8.76768 45.8682 8.71359C45.9753 8.65949 46.1016 8.63245 46.2471 8.63245H48.8763C49.0447 8.63245 49.171 8.66722 49.2552 8.73677C49.3394 8.80632 49.3815 8.89905 49.3815 9.01497C49.3815 9.09225 49.37 9.1618 49.3471 9.22362C49.3241 9.28544 49.282 9.35499 49.2208 9.43227L44.0656 14.8688L50.1852 22.4961H50.1622C50.2464 22.5811 50.3038 22.6739 50.3345 22.7743C50.3727 22.8748 50.3919 22.9559 50.3919 23.0177C50.3919 23.1491 50.3536 23.238 50.2771 23.2843C50.2005 23.3307 50.0857 23.3539 49.9326 23.3539H47.0048C46.7829 23.3539 46.5685 23.1916 46.3619 22.867L41.9186 17.0364L40.5408 18.4854V22.6584C40.5408 22.7279 40.5293 22.8052 40.5063 22.8902C40.4834 22.9675 40.4451 23.0409 40.3915 23.1105C40.3456 23.18 40.2805 23.238 40.1963 23.2843C40.1122 23.3307 40.0088 23.3539 39.8864 23.3539H37.8541C37.7393 23.3539 37.6436 23.3307 37.5671 23.2843C37.4906 23.238 37.4255 23.18 37.3719 23.1105C37.3183 23.0409 37.2801 22.9714 37.2571 22.9018C37.2341 22.8245 37.2227 22.7627 37.2227 22.7164V4.95788Z" fill="#FAFAFA"/>
<path d="M52.4824 9.33954C52.4824 9.13862 52.5398 8.97247 52.6546 8.8411C52.7694 8.702 52.9378 8.63245 53.1598 8.63245H55.0657C55.1499 8.63245 55.2341 8.65176 55.3183 8.6904C55.4102 8.72132 55.4905 8.77155 55.5594 8.8411C55.6283 8.90292 55.6857 8.97633 55.7316 9.06134C55.7776 9.14634 55.8005 9.23908 55.8005 9.33954V22.6584C55.8005 23.1221 55.5594 23.3539 55.0772 23.3539H53.1713C52.712 23.3539 52.4824 23.1221 52.4824 22.6584V9.33954ZM52.4824 4.21601C52.4824 3.75234 52.7082 3.52051 53.1598 3.52051H55.0887C55.303 3.52051 55.4752 3.57847 55.6053 3.69438C55.7355 3.8103 55.8005 3.98418 55.8005 4.21601V5.94317C55.8005 6.12091 55.7393 6.29092 55.6168 6.45321C55.4944 6.60776 55.3221 6.68504 55.1002 6.68504H53.1713C52.712 6.68504 52.4824 6.43775 52.4824 5.94317V4.21601Z" fill="#FAFAFA"/>
<path d="M59.5232 9.31636C59.5232 9.09225 59.5959 8.92224 59.7413 8.80632C59.8944 8.6904 60.059 8.63245 60.235 8.63245H61.6932C61.8846 8.63245 62.03 8.6904 62.1295 8.80632C62.229 8.92224 62.3055 9.0652 62.3591 9.23521C62.4127 9.40523 62.451 9.59069 62.4739 9.79162C62.4969 9.98481 62.5237 10.1625 62.5543 10.3248C62.7227 10.0853 62.9102 9.85344 63.1169 9.62933C63.3312 9.3975 63.5723 9.19271 63.8402 9.01497C64.1081 8.83723 64.4105 8.69427 64.7473 8.58608C65.084 8.47789 65.4668 8.42379 65.8954 8.42379C66.2781 8.42379 66.6226 8.45084 66.9287 8.50494C67.2349 8.5513 67.5258 8.62858 67.8013 8.73677C68.0845 8.83723 68.3601 8.97247 68.628 9.14248C68.8959 9.30476 69.1829 9.49796 69.4891 9.72207C69.6192 9.80707 69.7302 9.90367 69.8221 10.0119C69.9216 10.12 69.9713 10.2476 69.9713 10.3944C69.9637 10.4562 69.9522 10.5219 69.9369 10.5914C69.9216 10.661 69.8909 10.7305 69.845 10.8001L68.9035 12.307C68.8423 12.3843 68.7696 12.4422 68.6854 12.4809C68.6088 12.5118 68.54 12.5273 68.4787 12.5273C68.3563 12.5273 68.2376 12.4963 68.1228 12.4345C67.8702 12.2954 67.6406 12.164 67.4339 12.0404C67.2272 11.9168 67.0244 11.8124 66.8254 11.7274C66.6264 11.6347 66.4197 11.5651 66.2054 11.5188C65.9987 11.4647 65.7653 11.4376 65.505 11.4376C64.8238 11.4376 64.2459 11.6579 63.7713 12.0984C63.3044 12.5388 62.9906 13.1455 62.8299 13.9183V22.6584C62.8299 23.1221 62.5926 23.3539 62.118 23.3539H60.235C59.7605 23.3539 59.5232 23.1221 59.5232 22.6584V9.31636Z" fill="#FAFAFA"/>
<path d="M70.8186 9.57137C70.8186 9.57137 70.8148 9.55592 70.8071 9.52501C70.7995 9.4941 70.788 9.45546 70.7727 9.40909C70.765 9.36272 70.7574 9.31249 70.7497 9.2584C70.7421 9.2043 70.7382 9.15794 70.7382 9.1193C70.7382 8.97247 70.788 8.85655 70.8875 8.77155C70.9947 8.67881 71.1516 8.63245 71.3582 8.63245H73.4249C73.6086 8.63245 73.7579 8.67881 73.8727 8.77155C73.9875 8.86428 74.0793 8.99565 74.1482 9.16566L74.3549 9.68729C74.508 10.1278 74.6802 10.6224 74.8716 11.171C75.0706 11.7197 75.2734 12.2877 75.4801 12.875C75.6867 13.4546 75.8934 14.0342 76.1001 14.6138C76.3067 15.1856 76.5019 15.7266 76.6856 16.2366C76.8693 16.7389 77.0339 17.1871 77.1793 17.5812C77.3248 17.9676 77.4396 18.2651 77.5238 18.4738C77.6539 18.0951 77.8031 17.6624 77.9715 17.1755C78.1476 16.6809 78.3351 16.1593 78.5341 15.6106C78.7331 15.0542 78.936 14.4824 79.1426 13.8951C79.3493 13.3078 79.5522 12.732 79.7512 12.1679C79.9502 11.6038 80.1377 11.0667 80.3138 10.5567C80.4975 10.0389 80.662 9.57137 80.8075 9.15407C80.884 8.9686 80.9759 8.83723 81.083 8.75995C81.1978 8.67495 81.3509 8.63245 81.5423 8.63245H83.6893C83.9266 8.63245 84.0873 8.67108 84.1715 8.74836C84.2634 8.82564 84.3093 8.9261 84.3093 9.04975C84.3093 9.11157 84.2978 9.18885 84.2749 9.28158C84.2595 9.37431 84.2442 9.44386 84.2289 9.49023L78.7638 22.8902C78.7025 22.9984 78.626 23.1027 78.5341 23.2032C78.4499 23.3037 78.2892 23.3539 78.0519 23.3539H76.9956C76.7201 23.3539 76.5325 23.3075 76.433 23.2148C76.3412 23.1143 76.2723 23.0061 76.2264 22.8902L70.8186 9.57137Z" fill="#FAFAFA"/>
<path d="M100.847 22.67C100.847 22.8091 100.817 22.925 100.756 23.0177C100.702 23.1027 100.629 23.1723 100.537 23.2264C100.446 23.2728 100.338 23.3075 100.216 23.3307C100.101 23.3462 99.9787 23.3539 99.8485 23.3539H98.4134C98.1684 23.3539 97.9962 23.2882 97.8967 23.1568C97.8048 23.0255 97.7359 22.8593 97.69 22.6584L97.6211 21.6731C97.3532 21.9436 97.0547 22.1986 96.7256 22.4382C96.4041 22.67 96.0558 22.8748 95.6808 23.0525C95.3057 23.2225 94.9077 23.3539 94.4867 23.4466C94.0657 23.5471 93.6332 23.5973 93.1893 23.5973C92.5004 23.5973 91.8345 23.5085 91.1915 23.3307C90.5562 23.1452 89.9592 22.8902 89.4004 22.5657C88.8417 22.2334 88.3326 21.8354 87.8734 21.3717C87.4218 20.9081 87.0314 20.3942 86.7023 19.83C86.3808 19.2659 86.1282 18.6593 85.9445 18.0101C85.7685 17.361 85.6804 16.6848 85.6804 15.9816C85.6804 15.2784 85.7685 14.6022 85.9445 13.953C86.1282 13.3039 86.3808 12.6973 86.7023 12.1331C87.0314 11.569 87.4218 11.059 87.8734 10.603C88.3326 10.1394 88.8417 9.74525 89.4004 9.42068C89.9592 9.08839 90.5562 8.83337 91.1915 8.65563C91.8345 8.47016 92.5004 8.37743 93.1893 8.37743C93.6792 8.37743 94.1461 8.43152 94.59 8.53971C95.034 8.64017 95.4473 8.787 95.83 8.9802C96.2204 9.16566 96.5801 9.39363 96.9093 9.66411C97.2384 9.92685 97.5369 10.2166 97.8048 10.5335L97.9656 9.29317C98.0038 9.15407 98.0383 9.04202 98.0689 8.95701C98.1072 8.86428 98.1493 8.79087 98.1952 8.73677C98.2488 8.68268 98.3138 8.6479 98.3904 8.63245C98.4669 8.60926 98.5626 8.59767 98.6774 8.59767H99.8256C99.948 8.59767 100.071 8.60926 100.193 8.63245C100.315 8.65563 100.426 8.69427 100.526 8.74836C100.625 8.79473 100.702 8.86428 100.756 8.95701C100.817 9.04202 100.847 9.15021 100.847 9.28158V22.67ZM88.9067 15.9816C88.9067 16.5998 89.0139 17.1871 89.2282 17.7435C89.4425 18.2922 89.741 18.7752 90.1237 19.1925C90.5065 19.6098 90.9542 19.9421 91.4671 20.1894C91.9876 20.4289 92.554 20.5487 93.1663 20.5487C93.7863 20.5487 94.3642 20.4289 94.9 20.1894C95.4435 19.9421 95.9142 19.6098 96.3122 19.1925C96.7103 18.7752 97.0241 18.2922 97.2537 17.7435C97.4834 17.1871 97.5982 16.5998 97.5982 15.9816C97.5982 15.3711 97.4834 14.7915 97.2537 14.2428C97.0241 13.6864 96.7103 13.1996 96.3122 12.7823C95.9142 12.365 95.4435 12.0327 94.9 11.7854C94.3642 11.5381 93.7863 11.4145 93.1663 11.4145C92.554 11.4145 91.9876 11.5381 91.4671 11.7854C90.9542 12.0327 90.5065 12.365 90.1237 12.7823C89.741 13.1996 89.4425 13.6864 89.2282 14.2428C89.0139 14.7915 88.9067 15.3711 88.9067 15.9816Z" fill="#FAFAFA"/>
<path d="M103.857 9.31636C103.857 9.20817 103.903 9.09225 103.995 8.96861C104.087 8.84496 104.175 8.76768 104.259 8.73677C104.32 8.67495 104.412 8.64404 104.535 8.64404C104.657 8.63631 104.772 8.63245 104.879 8.63245H106.039C106.261 8.63245 106.425 8.70586 106.533 8.85269C106.64 8.99952 106.712 9.1618 106.751 9.33954L106.877 10.5683C107.053 10.3055 107.267 10.0466 107.52 9.79162C107.78 9.5366 108.086 9.30863 108.438 9.1077C108.791 8.90678 109.192 8.7445 109.644 8.62085C110.096 8.49721 110.605 8.43539 111.171 8.43539C112.074 8.43539 112.878 8.60153 113.582 8.93383C114.286 9.2584 114.88 9.70661 115.362 10.2785C115.844 10.8503 116.208 11.5226 116.452 12.2954C116.705 13.0682 116.831 13.8989 116.831 14.7876V22.5193C116.831 22.7975 116.766 23.0061 116.636 23.1452C116.506 23.2843 116.319 23.3539 116.074 23.3539H114.328C114.022 23.3539 113.816 23.2959 113.708 23.18C113.609 23.0641 113.559 22.8593 113.559 22.5657V14.8456C113.559 14.436 113.49 14.038 113.352 13.6516C113.215 13.2575 113.012 12.9059 112.744 12.5968C112.484 12.2877 112.158 12.0404 111.768 11.8549C111.378 11.6695 110.926 11.5767 110.413 11.5767C110.061 11.5767 109.694 11.6502 109.311 11.797C108.936 11.9361 108.592 12.137 108.278 12.3997C107.964 12.6625 107.704 12.9832 107.497 13.3619C107.29 13.7328 107.183 14.154 107.175 14.6254V22.1368C107.175 22.2836 107.168 22.4304 107.153 22.5773C107.137 22.7241 107.103 22.8555 107.049 22.9714C107.003 23.0873 106.934 23.18 106.843 23.2496C106.751 23.3191 106.632 23.3539 106.487 23.3539H104.592C104.34 23.3539 104.152 23.2959 104.03 23.18C103.915 23.0564 103.857 22.8825 103.857 22.6584V9.31636Z" fill="#FAFAFA"/>
<path d="M118.925 16.0164C118.925 15.3131 119.013 14.6369 119.189 13.9878C119.373 13.3309 119.629 12.7205 119.959 12.1563C120.288 11.5922 120.682 11.0822 121.141 10.6262C121.6 10.1625 122.109 9.76843 122.668 9.44386C123.227 9.11157 123.824 8.85655 124.459 8.67881C125.102 8.49335 125.772 8.40061 126.469 8.40061C127.157 8.40061 127.823 8.49335 128.466 8.67881C129.109 8.85655 129.706 9.11157 130.257 9.44386C130.816 9.76843 131.325 10.1625 131.785 10.6262C132.244 11.0822 132.638 11.5922 132.967 12.1563C133.296 12.7205 133.549 13.3309 133.725 13.9878C133.909 14.6369 134 15.3131 134 16.0164C134 16.7196 133.909 17.3958 133.725 18.0449C133.549 18.694 133.296 19.3007 132.967 19.8648C132.638 20.4212 132.244 20.9312 131.785 21.3949C131.325 21.8586 130.816 22.2566 130.257 22.5888C129.706 22.9134 129.109 23.1684 128.466 23.3539C127.823 23.5316 127.157 23.6205 126.469 23.6205C125.772 23.6205 125.102 23.5316 124.459 23.3539C123.824 23.1684 123.227 22.9134 122.668 22.5888C122.109 22.2566 121.6 21.8586 121.141 21.3949C120.682 20.9312 120.288 20.4212 119.959 19.8648C119.629 19.3007 119.373 18.694 119.189 18.0449C119.013 17.3958 118.925 16.7196 118.925 16.0164ZM122.163 16.0164C122.163 16.6346 122.27 17.2219 122.485 17.7783C122.699 18.327 122.997 18.8061 123.38 19.2157C123.763 19.6252 124.214 19.9498 124.735 20.1894C125.263 20.4289 125.837 20.5487 126.457 20.5487C127.062 20.5487 127.621 20.4289 128.133 20.1894C128.654 19.9498 129.102 19.6252 129.477 19.2157C129.852 18.8061 130.143 18.327 130.349 17.7783C130.564 17.2219 130.671 16.6346 130.671 16.0164C130.671 15.4059 130.564 14.8224 130.349 14.266C130.143 13.7096 129.852 13.2228 129.477 12.8055C129.102 12.3804 128.654 12.0443 128.133 11.797C127.621 11.542 127.062 11.4145 126.457 11.4145C125.837 11.4145 125.263 11.542 124.735 11.797C124.214 12.0443 123.763 12.3804 123.38 12.8055C122.997 13.2228 122.699 13.7096 122.485 14.266C122.27 14.8224 122.163 15.4059 122.163 16.0164Z" fill="#FAFAFA"/>
</svg>
