<svg width="18" height="19" viewBox="0 0 18 19" fill="none" xmlns="http://www.w3.org/2000/svg">
<path d="M14.1579 10.4807L11.3887 9.09613C11.2797 9.04181 11.1583 9.01721 11.0367 9.0248C10.9152 9.0324 10.7978 9.07193 10.6964 9.1394L9.42514 9.98748C8.84157 9.66667 8.36133 9.18643 8.04052 8.60286L8.8886 7.33161C8.95607 7.23022 8.9956 7.11282 9.00319 6.99127C9.01079 6.86971 8.98619 6.74831 8.93187 6.6393L7.54725 3.87007C7.48986 3.75417 7.40115 3.65667 7.29118 3.5886C7.18121 3.52054 7.05437 3.48464 6.92504 3.48498C6.00698 3.48498 5.12653 3.84967 4.47736 4.49884C3.8282 5.148 3.4635 6.02846 3.4635 6.94651C3.46579 8.96554 4.26886 10.9012 5.69653 12.3289C7.12419 13.7565 9.05986 14.5596 11.0789 14.5619C11.5335 14.5619 11.9836 14.4724 12.4036 14.2984C12.8235 14.1244 13.2051 13.8695 13.5266 13.548C13.848 13.2266 14.103 12.845 14.2769 12.425C14.4509 12.0051 14.5404 11.5549 14.5404 11.1004C14.5405 10.9717 14.5048 10.8456 14.4372 10.7362C14.3697 10.6268 14.2729 10.5383 14.1579 10.4807ZM11.0789 13.1773C9.42695 13.1755 7.84319 12.5184 6.67509 11.3503C5.50699 10.1822 4.84995 8.59846 4.84812 6.94651C4.84798 6.46633 5.01424 6.00093 5.31859 5.62952C5.62295 5.25811 6.0466 5.00364 6.51744 4.9094L7.51091 6.89978L6.66543 8.15805C6.60225 8.25283 6.56343 8.36172 6.55241 8.47509C6.54139 8.58846 6.55851 8.70279 6.60225 8.80796C7.09759 9.98521 8.03413 10.9218 9.21139 11.4171C9.31687 11.4628 9.43207 11.4815 9.54659 11.4715C9.66111 11.4615 9.77135 11.4232 9.86735 11.36L11.1317 10.5171L13.1221 11.5106C13.0271 11.9819 12.7715 12.4058 12.3989 12.7097C12.0263 13.0137 11.5597 13.1789 11.0789 13.1773ZM9.00196 0.0234377C7.44814 0.0230986 5.92069 0.425052 4.5683 1.19017C3.21591 1.9553 2.08464 3.05752 1.28461 4.38956C0.484587 5.7216 0.0430543 7.23808 0.00299245 8.79139C-0.0370694 10.3447 0.325704 11.8819 1.056 13.2534L0.0737914 16.2001C-0.00756807 16.444 -0.0193752 16.7058 0.0396933 16.9561C0.0987619 17.2064 0.226372 17.4353 0.40822 17.6172C0.590069 17.799 0.818969 17.9266 1.06927 17.9857C1.31956 18.0448 1.58137 18.033 1.82533 17.9516L4.77196 16.9694C5.97898 17.6114 7.31638 17.97 8.68266 18.0179C10.0489 18.0658 11.4082 17.8019 12.6572 17.2461C13.9063 16.6903 15.0123 15.8572 15.8913 14.8102C16.7703 13.7631 17.3992 12.5295 17.7303 11.2031C18.0614 9.87669 18.086 8.49227 17.8022 7.15493C17.5183 5.8176 16.9336 4.5625 16.0923 3.4849C15.2509 2.40731 14.1752 1.53554 12.9467 0.935773C11.7181 0.336005 10.3691 0.0239985 9.00196 0.0234377ZM9.00196 16.6388C7.66319 16.6397 6.34791 16.2872 5.18908 15.6168C5.10423 15.5676 5.0099 15.537 4.91233 15.527C4.81476 15.517 4.71618 15.5278 4.62312 15.5588L1.38658 16.6388L2.46571 13.4023C2.49682 13.3093 2.50782 13.2107 2.49797 13.1132C2.48812 13.0156 2.45766 12.9212 2.4086 12.8363C1.56915 11.385 1.23212 9.69721 1.44978 8.03479C1.66744 6.37237 2.42763 4.82824 3.61242 3.64195C4.79722 2.45566 6.34038 1.69352 8.00253 1.47376C9.66467 1.25399 11.3529 1.5889 12.8053 2.42651C14.2577 3.26412 15.393 4.55763 16.0353 6.10636C16.6775 7.65509 16.7907 9.37247 16.3572 10.9921C15.9238 12.6117 14.968 14.043 13.6381 15.064C12.3082 16.085 10.6786 16.6385 9.00196 16.6388Z" fill="#0D6EDE"/>
</svg>
