<svg xmlns="http://www.w3.org/2000/svg" viewBox="0 0 512 512" xml:space="preserve" enable-background="new 0 0 512 512"><path d="M256 201c16.542 0 30-13.458 30-30s-13.458-30-30-30-30 13.458-30 30 13.458 30 30 30zm0-40c5.514 0 10 4.486 10 10s-4.486 10-10 10-10-4.486-10-10 4.486-10 10-10z" fill="#ec4d1b" class="fill-000000"></path><path d="M501 271c-16.542 0-30-13.458-30-30 0-5.522-4.477-10-10-10h-45.899C422.332 211.902 426 191.787 426 171 426 77.262 349.738 1 256 1S86 77.262 86 171c0 20.787 3.668 40.902 10.899 60H51c-5.523 0-10 4.478-10 10 0 16.571-13.431 30-30 30-5.523 0-10 4.478-10 10v120c0 5.522 4.477 10 10 10 16.571 0 30 13.43 30 30 0 5.522 4.477 10 10 10h20v50c0 5.522 4.477 10 10 10h40c5.523 0 10-4.478 10-10v-50h250v50c0 5.522 4.477 10 10 10h40c5.523 0 10-4.478 10-10v-50h20c5.523 0 10-4.478 10-10 0-16.571 13.431-30 30-30 5.523 0 10-4.478 10-10V281c0-5.522-4.477-10-10-10zM256 111c33.084 0 60 26.916 60 60s-26.916 60-60 60-60-26.916-60-60 26.916-60 60-60zm235 280.995c-19.421 3.925-34.991 19.281-38.99 39.005H59.99c-3.999-19.727-19.574-35.081-38.99-39.005v-101.99C40.57 286.05 56.054 270.551 60.005 251h392c3.987 19.562 19.435 35.008 38.996 38.995v102z" fill="#ec4d1b" class="fill-000000"></path><path d="M146 281c-5.523 0-10 4.478-10 10v75c0 8.271-6.729 15-15 15s-15-6.729-15-15v-5c0-5.522-4.477-10-10-10s-10 4.478-10 10v5c0 19.299 15.701 35 35 35s35-15.701 35-35v-75c0-5.522-4.477-10-10-10zM211 281c-19.299 0-35 15.701-35 35v75c0 5.522 4.477 10 10 10s10-4.478 10-10v-40h30v40c0 5.522 4.477 10 10 10s10-4.478 10-10v-75c0-19.299-15.701-35-35-35zm15 50h-30v-15c0-8.271 6.729-15 15-15s15 6.729 15 15v15zM326 381h-33.82l42.764-85.528C338.268 288.824 333.418 281 326 281h-50c-5.523 0-10 4.478-10 10s4.477 10 10 10h33.82l-42.764 85.528C263.732 393.176 268.582 401 276 401h50c5.523 0 10-4.478 10-10s-4.477-10-10-10zM416 381h-33.82l42.764-85.528C428.268 288.824 423.418 281 416 281h-50c-5.523 0-10 4.478-10 10s4.477 10 10 10h33.82l-42.764 85.528C353.732 393.176 358.582 401 366 401h50c5.523 0 10-4.478 10-10s-4.477-10-10-10z" fill="#ec4d1b" class="fill-000000"></path></svg>